<svg width="16" height="11" viewBox="0 0 16 11" fill="none" xmlns="http://www.w3.org/2000/svg">
<path d="M2.11663 1.77684H13.698L7.9073 8.37076L2.11663 1.77684ZM1.20747 2.56965L6.99813 9.16237C7.11146 9.29159 7.25122 9.39516 7.40803 9.46612C7.56484 9.53708 7.73508 9.57379 7.9073 9.57379C8.07953 9.57379 8.24976 9.53708 8.40657 9.46612C8.56338 9.39516 8.70314 9.29159 8.81647 9.16237L14.6071 2.56965C15.2905 1.79128 14.7351 0.573792 13.698 0.573792H2.11663C1.88452 0.573594 1.65727 0.640065 1.46209 0.765246C1.26692 0.890427 1.11209 1.06901 1.01615 1.27961C0.92022 1.49021 0.887243 1.72391 0.921173 1.9527C0.955103 2.1815 1.0545 2.3957 1.20747 2.56965Z" fill="#CDCDCD" stroke="#CDCDCD"/>
</svg>
