<svg width="47" height="45" viewBox="0 0 47 45" fill="none" xmlns="http://www.w3.org/2000/svg">
<path d="M1.5192 43.3936V43.6202C1.51532 43.7269 1.50224 43.8114 1.47997 43.874C1.42377 44.027 1.27567 44.1034 1.03602 44.1034H0.223755V40.0544H1.09045C1.30182 40.0544 1.4326 40.1329 1.48315 40.2898C1.5033 40.3524 1.51532 40.4369 1.5192 40.5436V40.773L1.51638 41.4223C1.51638 41.65 1.44604 41.8419 1.305 41.9992C1.44604 42.1561 1.51638 42.3484 1.51638 42.576L1.5192 43.3943V43.3936ZM1.01799 40.7818C1.01799 40.6914 0.988653 40.6288 0.930331 40.5945C0.902054 40.5782 0.87307 40.5715 0.842672 40.5733H0.730977V41.7026H0.839844C0.869888 41.7026 0.900286 41.6945 0.930331 41.6786C0.988653 41.6443 1.01799 41.5821 1.01799 41.4912V40.7818ZM1.01799 42.506C1.01799 42.4134 0.988653 42.3512 0.930331 42.3187C0.902054 42.3025 0.87307 42.2957 0.842672 42.2975H0.730977V43.593H0.839844C0.869888 43.5951 0.900286 43.5869 0.930331 43.5689C0.988653 43.5346 1.01799 43.4735 1.01799 43.3848V42.506Z" fill="white"/>
<path d="M3.54769 43.5958V44.103H2.53607V40.0541H3.04329V43.5958H3.54769Z" fill="white"/>
<path d="M5.51827 43.6442H5.12875L5.07149 44.103H4.56427L5.07149 40.0541H5.57589L6.08311 44.103H5.57589L5.51862 43.6442H5.51827ZM5.455 43.1398L5.3221 42.077L5.19238 43.1398H5.455Z" fill="white"/>
<path d="M7.86065 42.5662H8.37706V43.4901C8.37706 43.6774 8.30955 43.8383 8.17488 43.9733C8.04198 44.1062 7.8808 44.1726 7.6917 44.1726C7.50259 44.1726 7.34353 44.1062 7.20851 43.9733C7.07561 43.8383 7.00916 43.6774 7.00916 43.4901V40.6698C7.00916 40.4825 7.07561 40.3216 7.20851 40.1866C7.34353 40.0537 7.50436 39.9873 7.6917 39.9873C7.87903 39.9873 8.04198 40.0537 8.17488 40.1866C8.30955 40.3216 8.37706 40.4825 8.37706 40.6698V41.5878H7.86065V40.6094C7.86065 40.5631 7.84439 40.5238 7.81223 40.4917C7.77794 40.4574 7.73765 40.4404 7.69134 40.4404C7.64504 40.4404 7.6058 40.4574 7.57364 40.4917C7.53935 40.5238 7.52239 40.5631 7.52239 40.6094V43.5502C7.52239 43.5965 7.53935 43.6357 7.57364 43.6679C7.6058 43.7001 7.64504 43.7163 7.69134 43.7163C7.73765 43.7163 7.77794 43.7001 7.81223 43.6679C7.84439 43.6357 7.86065 43.5965 7.86065 43.5502V42.5658V42.5662Z" fill="white"/>
<path d="M10.3509 42.0801L10.8553 44.103H10.3509L9.9009 42.3035V44.103H9.39368V40.0541H9.9009V41.8536L10.3509 40.0541H10.8553L10.3509 42.0801Z" fill="white"/>
<path d="M13.6402 40.5613V41.8264H13.9873V42.3336H13.6402V44.103H13.133V40.0541H14.1446V40.5613H13.6402Z" fill="white"/>
<path d="M15.6684 44.103H15.1612V40.0541H15.6684V44.103Z" fill="white"/>
<path d="M17.8659 40.5613H17.5276V44.103H17.0232V40.5613H16.6849V40.0541H17.8655V40.5613H17.8659Z" fill="white"/>
<path d="M20.2323 40.0541V44.103H19.7251L19.39 42.3668V44.103H18.8828V40.0541H19.39L19.7251 41.9232V40.0541H20.2323Z" fill="white"/>
<path d="M21.7561 40.5613V41.8264H22.2605V42.3336H21.7561V43.5958H22.2605V44.103H21.2489V40.0541H22.2605V40.5613H21.7561Z" fill="white"/>
<path d="M23.9596 39.9936C24.1487 39.9936 24.3099 40.0611 24.4428 40.1958C24.5775 40.3287 24.645 40.4888 24.645 40.6758V41.5966H24.1286V40.6182C24.1286 40.5698 24.1123 40.5298 24.0801 40.4973C24.0459 40.4651 24.0056 40.4489 23.9593 40.4489C23.913 40.4489 23.8737 40.4651 23.8416 40.4973C23.8094 40.5295 23.7931 40.5698 23.7931 40.6182V41.6178C23.7931 41.6641 23.8062 41.7033 23.8324 41.7355C23.8624 41.7677 23.8999 41.7839 23.9441 41.7839H24.0406C24.1834 41.7839 24.3032 41.8221 24.4 41.8988C24.4764 41.9614 24.5358 42.0458 24.5782 42.1526C24.6266 42.2735 24.6485 42.3951 24.6446 42.5181V43.5537C24.6284 43.7287 24.5548 43.8757 24.4241 43.9945C24.2933 44.1133 24.1381 44.1726 23.9589 44.1726C23.7797 44.1726 23.6277 44.1133 23.4969 43.9945C23.3661 43.8757 23.2926 43.7297 23.2764 43.5565V42.5753H23.7928V43.5505C23.7928 43.5968 23.809 43.6361 23.8412 43.6682C23.8734 43.7004 23.9126 43.7167 23.9589 43.7167C24.0052 43.7167 24.0455 43.7004 24.0798 43.6682C24.112 43.6361 24.1282 43.5968 24.1282 43.5505V42.5209C24.1282 42.4081 24.078 42.3519 23.9773 42.3519H23.9441C23.7507 42.3519 23.5867 42.2763 23.452 42.1254C23.3354 41.9946 23.2771 41.8426 23.2771 41.6694V40.6762C23.2771 40.4888 23.3435 40.3291 23.4764 40.1962C23.6115 40.0615 23.7723 39.994 23.9596 39.994V39.9936Z" fill="white"/>
<path d="M26.3501 39.9936C26.5392 39.9936 26.7003 40.0611 26.8332 40.1958C26.9679 40.3287 27.0354 40.4888 27.0354 40.6758V41.5966H26.519V40.6182C26.519 40.5698 26.5028 40.5298 26.4706 40.4973C26.4363 40.4651 26.396 40.4489 26.3497 40.4489C26.3034 40.4489 26.2642 40.4651 26.232 40.4973C26.1998 40.5295 26.1836 40.5698 26.1836 40.6182V41.6178C26.1836 41.6641 26.1967 41.7033 26.2228 41.7355C26.2529 41.7677 26.2903 41.7839 26.3345 41.7839H26.431C26.5738 41.7839 26.6936 41.8221 26.7905 41.8988C26.8668 41.9614 26.9262 42.0458 26.9686 42.1526C27.017 42.2735 27.039 42.3951 27.0351 42.5181V43.5537C27.0188 43.7287 26.9453 43.8757 26.8145 43.9945C26.6837 44.1133 26.5286 44.1726 26.3493 44.1726C26.1701 44.1726 26.0182 44.1133 25.8874 43.9945C25.7566 43.8757 25.6831 43.7297 25.6668 43.5565V42.5753H26.1832V43.5505C26.1832 43.5968 26.1995 43.6361 26.2316 43.6682C26.2638 43.7004 26.303 43.7167 26.3493 43.7167C26.3957 43.7167 26.4359 43.7004 26.4702 43.6682C26.5024 43.6361 26.5187 43.5968 26.5187 43.5505V42.5209C26.5187 42.4081 26.4685 42.3519 26.3677 42.3519H26.3345C26.1412 42.3519 25.9772 42.2763 25.8425 42.1254C25.7258 41.9946 25.6675 41.8426 25.6675 41.6694V40.6762C25.6675 40.4888 25.734 40.3291 25.8669 40.1962C26.0019 40.0615 26.1627 39.994 26.3501 39.994V39.9936Z" fill="white"/>
<path d="M46.206 3.75309V0.000707081H26.1589V0H15.2771C13.5077 0 12.221 -1.68545e-08 10.4523 0.214553C4.60989 1.01833 1.33963 3.96658 1.33963 9.21942C1.33963 13.6692 3.80611 16.0275 7.61151 17.3138C2.7337 18.4395 0 21.0131 0 26.1051C0 32.8591 4.66326 35.9682 9.54143 36.7183C11.3642 36.9873 12.5434 36.9873 14.2591 36.9873H26.7477V20.3702H44.0626V16.6185H26.7477V3.75309H46.206ZM21.5486 33.2342H13.5621C12.7042 33.2342 11.6855 33.1811 10.9889 33.1271C7.45104 32.8061 4.93154 30.6079 4.93154 26.588C4.93154 22.0318 7.39766 20.3698 10.9355 19.8873C12.1677 19.7262 13.0259 19.6724 13.8834 19.6724H21.549V33.2342H21.5486ZM21.5486 15.9197H14.4196C13.4546 15.9197 12.5434 15.8674 11.471 15.7059C7.66524 15.1166 6.27223 12.8647 6.27223 9.59551C6.27223 5.95022 8.63055 4.23451 11.9542 3.85948C12.9184 3.75203 14.0442 3.75203 14.9021 3.75203H21.549V15.9197H21.5486Z" fill="white"/>
</svg>
