<svg width="31" height="32" viewBox="0 0 31 32" fill="none" xmlns="http://www.w3.org/2000/svg">
<path d="M15.7674 7.40674C13.5133 7.40674 13.2299 7.41712 12.3443 7.45657C11.4587 7.4981 10.8554 7.63723 10.327 7.8428C9.77239 8.05079 9.27019 8.37791 8.85578 8.8011C8.4326 9.2155 8.10547 9.7177 7.89749 10.2723C7.69192 10.7997 7.55175 11.404 7.51126 12.2865C7.47181 13.1742 7.46143 13.4566 7.46143 15.7137C7.46143 17.9688 7.47181 18.2512 7.51126 19.1368C7.55279 20.0214 7.69192 20.6246 7.89749 21.1531C8.11033 21.6992 8.39377 22.1622 8.85578 22.6242C9.31676 23.0863 9.77982 23.3707 10.3259 23.5825C10.8554 23.7881 11.4576 23.9283 12.3422 23.9688C13.2289 24.0082 13.5113 24.0186 15.7674 24.0186C18.0235 24.0186 18.3048 24.0082 19.1915 23.9688C20.075 23.9272 20.6803 23.7881 21.2088 23.5825C21.763 23.3744 22.2648 23.0473 22.6789 22.6242C23.141 22.1622 23.4244 21.6992 23.6372 21.1531C23.8418 20.6246 23.9819 20.0214 24.0235 19.1368C24.0629 18.2512 24.0733 17.9688 24.0733 15.7127C24.0733 13.4566 24.0629 13.1742 24.0235 12.2875C23.9819 11.404 23.8418 10.7997 23.6372 10.2723C23.4292 9.7177 23.1021 9.2155 22.6789 8.8011C22.2645 8.37791 21.7623 8.05079 21.2077 7.8428C20.6782 7.63723 20.074 7.49707 19.1904 7.45657C18.3038 7.41712 18.0224 7.40674 15.7653 7.40674H15.7674ZM15.0229 8.90388H15.7684C17.9861 8.90388 18.2488 8.91115 19.124 8.95164C19.9338 8.98798 20.374 9.12399 20.6668 9.23716C21.0541 9.3877 21.3313 9.56836 21.622 9.85907C21.9127 10.1498 22.0923 10.4259 22.2429 10.8142C22.3571 11.106 22.4921 11.5462 22.5284 12.356C22.5689 13.2313 22.5772 13.4939 22.5772 15.7106C22.5772 17.9272 22.5689 18.191 22.5284 19.0662C22.4921 19.876 22.356 20.3152 22.2429 20.608C22.1088 20.9682 21.8964 21.294 21.621 21.5621C21.3303 21.8528 21.0541 22.0324 20.6658 22.183C20.3751 22.2972 19.9349 22.4322 19.124 22.4696C18.2488 22.509 17.9861 22.5183 15.7684 22.5183C13.5507 22.5183 13.287 22.509 12.4118 22.4696C11.6019 22.4322 11.1628 22.2972 10.87 22.183C10.5095 22.0493 10.1833 21.8373 9.91479 21.5621C9.6389 21.2938 9.42612 20.9676 9.29185 20.6069C9.17868 20.3152 9.04267 19.875 9.00633 19.0652C8.96688 18.1899 8.95857 17.9272 8.95857 15.7085C8.95857 13.4898 8.96688 13.2292 9.00633 12.354C9.04371 11.5441 9.17868 11.1039 9.29288 10.8111C9.44343 10.4239 9.62408 10.1467 9.91479 9.85595C10.2055 9.56524 10.4817 9.38563 10.87 9.23508C11.1628 9.12088 11.6019 8.9859 12.4118 8.94853C13.178 8.91323 13.4749 8.90284 15.0229 8.90181V8.90388ZM20.2017 10.2827C20.0708 10.2827 19.9412 10.3084 19.8203 10.3585C19.6993 10.4086 19.5895 10.482 19.4969 10.5746C19.4044 10.6672 19.3309 10.777 19.2808 10.898C19.2308 11.0189 19.205 11.1485 19.205 11.2794C19.205 11.4103 19.2308 11.5399 19.2808 11.6608C19.3309 11.7817 19.4044 11.8916 19.4969 11.9842C19.5895 12.0767 19.6993 12.1501 19.8203 12.2002C19.9412 12.2503 20.0708 12.2761 20.2017 12.2761C20.466 12.2761 20.7196 12.1711 20.9065 11.9842C21.0934 11.7972 21.1984 11.5437 21.1984 11.2794C21.1984 11.015 21.0934 10.7615 20.9065 10.5746C20.7196 10.3877 20.466 10.2827 20.2017 10.2827ZM15.7684 11.4476C15.2026 11.4387 14.6408 11.5426 14.1155 11.753C13.5902 11.9634 13.1121 12.2762 12.7089 12.6731C12.3056 13.0701 11.9854 13.5433 11.7668 14.0653C11.5483 14.5872 11.4357 15.1474 11.4357 15.7132C11.4357 16.279 11.5483 16.8392 11.7668 17.3611C11.9854 17.883 12.3056 18.3563 12.7089 18.7532C13.1121 19.1502 13.5902 19.463 14.1155 19.6734C14.6408 19.8838 15.2026 19.9876 15.7684 19.9788C16.8882 19.9613 17.9562 19.5042 18.7419 18.7062C19.5276 17.9081 19.968 16.8331 19.968 15.7132C19.968 14.5933 19.5276 13.5183 18.7419 12.7202C17.9562 11.9221 16.8882 11.465 15.7684 11.4476ZM15.7684 12.9437C16.132 12.9437 16.4921 13.0153 16.828 13.1545C17.164 13.2936 17.4692 13.4976 17.7264 13.7547C17.9835 14.0118 18.1875 14.3171 18.3266 14.653C18.4658 14.989 18.5374 15.349 18.5374 15.7127C18.5374 16.0763 18.4658 16.4364 18.3266 16.7723C18.1875 17.1083 17.9835 17.4135 17.7264 17.6706C17.4692 17.9278 17.164 18.1317 16.828 18.2709C16.4921 18.41 16.132 18.4817 15.7684 18.4817C15.034 18.4817 14.3297 18.1899 13.8104 17.6706C13.2911 17.1514 12.9994 16.4471 12.9994 15.7127C12.9994 14.9783 13.2911 14.274 13.8104 13.7547C14.3297 13.2354 15.034 12.9437 15.7684 12.9437Z" fill="#F3F3F3"/>
<circle cx="15.4061" cy="16.0738" r="14.1674" stroke="#F3F3F3" stroke-width="2"/>
</svg>
