<svg width="38" height="46" viewBox="0 0 38 46" fill="none" xmlns="http://www.w3.org/2000/svg">
<path d="M32.1499 21.071C31.7795 20.78 31.6207 20.4625 31.6207 19.9863C31.634 17.8566 31.6472 10.2373 31.6207 8.00177C31.5943 5.27681 29.5572 3.02805 26.8719 2.76349C26.0782 2.68413 25.2449 2.69735 24.4379 2.69735C24.2395 2.69735 24.0411 2.69735 23.8295 2.69735H23.8162C23.3003 2.69735 22.9696 2.52539 22.7051 2.10209C22.0701 1.12322 21.1706 0.620561 20.0066 0.607333C17.361 0.594105 14.6228 0.594105 11.6333 0.607333C10.4957 0.607333 9.60939 1.07031 9.01413 1.98304C8.63052 2.5783 8.18077 2.69735 7.61197 2.69735C7.37386 2.69735 7.13575 2.69735 6.89765 2.69735C6.03783 2.68413 5.13833 2.6709 4.3182 2.82963C1.73874 3.31907 0.0058791 5.462 0.0058791 8.17373C-0.00734888 11.4543 0.0058791 17.5127 0.0058791 22.3674C0.0058791 24.1531 0.0058791 25.7537 0.0058791 26.9575C0.0058791 28.3067 0.0058791 29.656 0.0058791 31.0052C0.0058791 34.0741 0.0058791 37.2488 0.0058791 40.3706C0.0058791 43.5586 2.33401 45.8735 5.53518 45.8867H8.72312C13.7497 45.8867 18.9351 45.8999 24.0543 45.8735C25.2978 45.8735 26.2766 45.7676 27.11 45.556C32.8642 44.1141 36.3696 40.569 37.5469 35.0265C38.7506 29.4443 36.9252 24.7484 32.1499 21.071ZM10.7338 4.04661C10.747 3.30584 11.0645 2.97514 11.792 2.97514C13.1545 2.97514 14.517 2.97514 15.8794 2.97514C17.2155 2.97514 18.5383 2.97514 19.8743 2.97514C20.5357 2.97514 20.9193 3.37198 20.9325 4.03338V4.40376C20.9325 4.87997 20.9325 5.3694 20.9325 5.84561C20.9193 6.54669 20.5622 6.89062 19.8346 6.89062C19.2526 6.89062 18.6705 6.89062 18.0885 6.89062C17.7049 6.89062 17.3345 6.89062 16.9509 6.89062H15.8133H14.7022C13.763 6.89062 12.837 6.89062 11.8978 6.89062C11.038 6.89062 10.7338 6.58638 10.7338 5.71333C10.7338 5.17098 10.7205 4.60218 10.7338 4.04661ZM15.2842 43.5453C15.2313 43.5453 15.1784 43.5586 15.1255 43.5586C15.0196 43.5718 14.9138 43.5718 14.808 43.5718H14.054C12.4402 43.5718 10.8396 43.5718 9.22577 43.5718C7.99557 43.5718 6.77861 43.5718 5.5484 43.5718C3.64358 43.5718 2.37369 42.3019 2.37369 40.4235C2.36046 31.3095 2.36046 17.1555 2.37369 8.20019C2.37369 6.37473 3.6568 5.06516 5.49549 5.05193C6.06429 5.0387 6.63309 5.05193 7.17544 5.05193C7.42677 5.05193 7.69133 5.05193 7.94266 5.05193H8.29981L8.3395 5.40909C8.35273 5.56782 8.37919 5.73979 8.39242 5.8853C8.41887 6.18954 8.44533 6.48055 8.51147 6.75834C8.8554 8.21342 10.1253 9.23197 11.5936 9.2452C14.5831 9.27166 17.361 9.27166 20.0595 9.2452C21.8188 9.23197 23.1813 7.88272 23.2739 6.0308C23.2739 5.92498 23.2739 5.80593 23.2739 5.7001C23.2739 5.63396 23.2739 5.58105 23.2739 5.51491V5.11807H23.6707C24.0014 5.11807 24.3189 5.10485 24.6364 5.10485C25.3507 5.09162 26.0385 5.07839 26.7264 5.14453C28.0889 5.27681 29.2132 6.42764 29.2529 7.76367C29.3058 9.2452 29.2926 13.7824 29.2794 16.7851C29.2794 17.6979 29.2794 18.4519 29.2794 18.9281V19.4837L28.7503 19.3117C25.0861 18.0947 21.541 18.2931 18.1811 19.9202C15.562 21.1901 13.5116 23.1743 12.083 25.8066C9.45066 30.6613 9.76812 38.0822 15.5091 42.8707L16.2631 43.5057L15.2842 43.5453ZM24.1866 43.5718C24.1734 43.5718 24.1734 43.5718 24.1602 43.5718C17.9033 43.5586 12.8106 38.4526 12.8106 32.1825C12.8106 25.9257 17.9166 20.8197 24.1866 20.8197C27.2291 20.8197 30.0863 22.0102 32.2292 24.1664C34.3854 26.3225 35.5627 29.193 35.5494 32.2354C35.5362 38.4923 30.4435 43.5718 24.1866 43.5718Z" fill="#F3F3F3"/>
<path d="M23.856 36.2832C25.7211 34.4181 27.5863 32.5529 29.4514 30.6878L31.1181 29.0211C31.1975 28.9417 31.2769 28.8623 31.343 28.783C31.6605 28.3861 31.7134 27.9893 31.5282 27.5395C31.343 27.1162 31.0123 26.8914 30.5229 26.8517C30.1657 26.8252 29.835 26.9707 29.4911 27.3279C28.3535 28.4787 27.2159 29.6163 26.0651 30.7539C24.9804 31.8386 23.8957 32.9233 22.811 34.0212C22.7581 34.0741 22.6919 34.1667 22.6258 34.2726C22.5861 34.3387 22.5464 34.4048 22.4935 34.471C22.348 34.6826 22.057 34.7091 21.885 34.5239L20.9194 33.545C20.2183 32.8307 19.5437 32.1561 18.8823 31.4947C18.5648 31.1772 18.2209 31.0185 17.8769 31.0185C17.5992 31.0185 17.3214 31.1243 17.0965 31.3624C16.8716 31.5873 16.7526 31.8518 16.7526 32.1429C16.7526 32.4868 16.9113 32.8439 17.2155 33.1482C18.2473 34.1932 19.2923 35.225 20.3373 36.27C21.4617 37.4076 22.7184 37.4076 23.856 36.2832Z" fill="#F3F3F3"/>
</svg>
