<svg width="60" height="50" viewBox="0 0 60 50" fill="none" xmlns="http://www.w3.org/2000/svg">
<path d="M56.9273 26.8559C57.9452 25.4582 58.9479 24.0301 59.9506 22.6324C59.9506 22.4349 59.9506 22.2374 59.9506 22.0399C58.7504 20.9612 57.535 19.8978 56.3348 18.8191C56.0613 18.5608 55.8183 18.5153 55.4536 18.6672C54.1927 19.2141 52.8406 18.8647 51.9442 17.862C51.7163 17.6189 51.4277 17.391 51.1238 17.2391C48.2221 15.887 45.3203 14.5653 42.4186 13.2435C41.7653 12.9397 41.1273 12.5902 40.4436 12.3624C40.3524 12.332 40.2309 12.3168 40.1094 12.332C40.6107 11.4356 40.869 10.4177 40.8538 9.35428C40.8386 7.7287 40.2005 6.19427 39.0459 5.05485C37.8913 3.91542 36.3569 3.27734 34.7313 3.27734H34.7161C33.0905 3.27734 31.5561 3.90023 30.4015 5.03966C29.2468 6.17908 28.5936 7.69831 28.5784 9.32389C28.5784 9.64293 28.5936 9.94678 28.6392 10.2506C26.1476 9.09601 23.6409 7.95659 21.1949 6.83235C20.3289 6.43735 19.463 6.04235 18.6122 5.64735C18.3235 5.51062 18.0349 5.37389 17.7462 5.25235C16.9866 4.90292 16.1966 4.53831 15.4066 4.18888C14.9509 3.99138 14.4799 3.88504 14.0089 3.88504C13.1581 3.88504 12.3681 4.20408 11.7149 4.82696C10.6362 5.84485 10.3628 7.36408 11.0312 8.60986C11.4262 9.35428 12.1251 10.0076 12.9151 10.3722C15.437 11.542 17.9893 12.727 20.4657 13.8512C22.0457 14.5804 23.6713 15.3249 25.2665 16.0693C25.7526 17.3606 26.2692 18.728 26.7097 20.0801C27.0136 20.9916 26.9072 21.8424 26.4211 22.7691C26.1172 23.3464 25.8134 23.9693 25.4943 24.7289C24.9626 25.9595 24.8866 27.2509 25.2665 28.5574C25.707 30.0766 26.1324 31.6263 26.5426 33.1303C26.8313 34.1634 27.1199 35.242 27.4238 36.3055C27.1807 36.6701 26.968 37.0347 26.7553 37.3842C26.649 37.5665 26.5426 37.7488 26.4211 37.9311C26.0868 38.478 25.7526 39.0249 25.4184 39.5718C24.6436 40.8328 23.8384 42.1394 23.0636 43.4307C22.3495 44.6309 22.2584 46.0742 22.8205 47.2744C23.3826 48.4594 24.5068 49.2949 25.8286 49.4925C26.0413 49.5228 26.2539 49.538 26.4666 49.538C27.287 49.538 28.8366 49.2646 29.9457 47.4415C31.4345 44.9955 32.9082 42.5951 34.3667 40.2251C34.944 42.352 35.5213 44.4942 36.0834 46.6211C36.5847 48.4898 37.8001 49.2494 38.7269 49.5684C39.1523 49.7203 39.5928 49.7811 40.0334 49.7811C41.0209 49.7811 41.9476 49.4013 42.7073 48.6873C43.3605 48.0796 44.3632 46.7122 43.7859 44.5397C42.5401 39.9213 41.2792 35.2268 40.0638 30.6843L39.608 28.998C39.7296 28.8764 39.8663 28.7245 39.9726 28.5726C41.2032 26.9014 42.4186 25.1847 43.6036 23.5287L44.1202 22.7995C44.7278 21.9487 44.9709 21.1283 44.8798 20.2776C44.7886 19.4268 44.348 18.652 43.5732 17.9683C42.9352 17.4062 42.2971 16.8441 41.6438 16.282C40.7323 15.492 39.7903 14.6716 38.8788 13.8512C38.9396 13.7904 39.0003 13.7449 39.0611 13.6841C39.1523 13.5929 39.2434 13.5018 39.3194 13.3954C39.3953 13.6233 39.6992 13.8208 39.9574 13.9272C42.6009 15.1578 45.2596 16.4035 47.9334 17.5733C48.7386 17.9228 49.164 18.4241 49.4982 19.2141C50.3642 21.3258 50.8656 23.392 49.4375 25.5037C49.0425 26.0962 49.0425 26.8103 49.2704 27.5243C49.8021 29.3018 50.2579 31.0945 50.7744 32.872C50.8807 33.2366 50.8504 33.5253 50.6377 33.8443C49.635 35.4395 48.6475 37.0651 47.66 38.6755C47.1738 39.4807 47.2954 40.2555 47.979 40.6657C48.6475 41.0607 49.3615 40.8328 49.8477 40.0428C50.9871 38.2045 52.0961 36.3511 53.2508 34.5128C53.5698 34.0115 53.6306 33.5253 53.4634 32.948C53.19 32.0668 52.9621 31.1857 52.719 30.3045C52.5823 29.788 52.4456 29.2714 52.3088 28.7549C52.3544 28.7093 52.4152 28.6637 52.4608 28.6182C52.8102 28.8916 53.2052 29.1195 53.5242 29.4234C54.1471 30.0614 54.3294 30.9122 54.5421 31.7478C55.2561 34.4368 55.9702 37.1259 56.6994 39.8149C56.9425 40.7113 57.5502 41.1367 58.3098 40.9695C59.0998 40.7872 59.434 40.058 59.1758 39.1009C58.2035 35.4699 57.2312 31.8389 56.2588 28.208C56.1981 27.9649 56.1373 27.737 56.1069 27.6155C56.4412 27.3268 56.7298 27.1293 56.9273 26.8559ZM34.7313 5.40427C36.9342 5.40427 38.7117 7.16658 38.7269 9.36947C38.7421 11.0406 37.709 12.4687 36.2505 13.0764C36.0378 13.122 35.8251 13.1828 35.5973 13.2891C35.3086 13.3499 35.0199 13.3954 34.7161 13.3954C34.1692 13.3954 33.6526 13.2891 33.1665 13.0764C33.0146 12.9701 32.8778 12.8333 32.7563 12.6966C32.3613 12.2256 31.8599 11.8154 31.3282 11.5268C30.9332 10.9039 30.7053 10.1595 30.7053 9.36947C30.7509 7.16658 32.5284 5.40427 34.7313 5.40427ZM36.8582 15.1426C37.0557 15.1426 37.238 15.2337 37.4355 15.416C39.0155 16.8137 40.6107 18.1962 42.1907 19.5787C42.9199 20.2168 42.9807 20.7789 42.4034 21.5689C41.0361 23.4984 39.6688 25.4126 38.2711 27.3268C38.028 27.6611 37.633 27.9041 37.2228 28.2536C37.2228 28.2839 37.2684 28.4511 37.314 28.6182C38.7876 34.1178 40.2613 39.6022 41.7349 45.1019C41.9476 45.8767 41.8565 46.5755 41.264 47.1528C40.8994 47.4871 40.4892 47.6694 40.0486 47.6694C39.8511 47.6694 39.6384 47.639 39.4257 47.563C38.7117 47.3199 38.3471 46.7882 38.1496 46.0894C36.9949 41.7444 35.8099 37.3993 34.6553 33.0543C34.3667 31.9605 33.8197 31.0338 32.9386 30.3349C32.6347 30.0918 32.2093 29.9703 31.8447 29.788C31.8143 29.8336 31.7688 29.8943 31.7384 29.9399C32.2245 31.7022 32.7107 33.4645 33.1969 35.2116C33.2728 35.5003 33.3336 35.789 33.4399 36.0624C33.7286 36.8372 33.5767 37.5209 33.1513 38.2197C31.4649 40.924 29.809 43.6282 28.1682 46.3476C27.7732 47.0009 27.2415 47.4263 26.5122 47.4263C26.4059 47.4263 26.2995 47.4111 26.1932 47.3959C24.8259 47.1832 24.1878 45.7551 24.917 44.5246C26.0261 42.6863 27.1503 40.8632 28.2745 39.0401C28.6543 38.402 29.0342 37.764 29.4444 37.1563C29.6874 36.8068 29.7178 36.4878 29.5963 36.0776C28.8367 33.3734 28.1074 30.6691 27.3326 27.9649C27.0895 27.1293 27.1351 26.3545 27.4693 25.5797C27.7276 24.972 28.0163 24.3643 28.3201 23.787C29.0645 22.3893 29.262 20.9308 28.7607 19.4268C28.2593 17.8772 27.682 16.3428 27.0895 14.8235C27.0136 14.6108 26.7401 14.4133 26.5274 14.307C22.3039 12.3472 18.0653 10.4177 13.8418 8.45793C13.4772 8.29082 13.1278 7.97178 12.9455 7.62235C12.7328 7.21216 12.8543 6.7412 13.2189 6.39177C13.462 6.1487 13.7507 6.02716 14.0393 6.02716C14.2064 6.02716 14.3887 6.07273 14.571 6.1487C15.6345 6.61966 16.698 7.12101 17.7614 7.60716C21.833 9.47582 25.9045 11.3293 29.9609 13.2131C30.0976 13.3803 30.2495 13.5474 30.4015 13.6993C30.918 14.231 31.5105 14.6412 32.1638 14.9451C32.893 15.4312 33.7286 15.6895 34.5794 15.6895C35.1567 15.6895 35.7492 15.5679 36.3113 15.3249C36.4936 15.2793 36.6759 15.2185 36.8582 15.1578C36.8278 15.1426 36.843 15.1426 36.8582 15.1426ZM55.6663 25.7468C54.8763 23.9693 54.7852 22.2526 55.6511 20.4751C56.426 21.1435 57.1704 21.7968 57.9756 22.4957C57.2312 23.5743 56.4563 24.6378 55.6663 25.7468Z" fill="#F3F3F3"/>
<path d="M36.5999 25.5341C37.7241 23.9541 38.8332 22.4045 39.9574 20.8396C38.8028 19.837 37.6938 18.8646 36.5695 17.8923C35.3845 20.3079 35.3997 23.24 36.5999 25.5341Z" fill="#F3F3F3"/>
<path d="M20.2834 21.5992C19.2199 20.6573 18.1261 19.7306 17.0626 18.7886C16.7892 18.5456 16.5765 18.5152 16.227 18.6671C14.9509 19.214 13.5836 18.8646 12.672 17.8315C12.4745 17.6036 12.2163 17.3909 11.958 17.2694C9.1322 15.9629 6.29125 14.6715 3.46548 13.365C2.73624 13.0307 2.0222 12.6965 1.29296 12.3775C0.746038 12.1344 0.320649 12.2863 0.0927637 12.7269C-0.135121 13.1827 0.062379 13.6232 0.624496 13.8967C0.730842 13.9423 0.837185 13.9878 0.943531 14.0486C3.3895 15.1729 5.80509 16.3579 8.28144 17.3757C9.48164 17.8619 10.0741 18.6519 10.5147 19.8065C11.2287 21.7359 11.487 23.559 10.2868 25.3821C9.84624 26.0506 9.83107 26.8254 10.0741 27.6306C10.6059 29.3777 11.0768 31.1552 11.5478 32.9175C11.6238 33.191 11.563 33.586 11.4111 33.829C10.4539 35.4546 9.43605 37.0498 8.46374 38.6754C8.28143 38.9792 8.1447 39.3591 8.15989 39.7085C8.17509 40.2858 8.5549 40.6656 9.11702 40.8175C9.66394 40.9694 10.1957 40.7416 10.5451 40.1643C11.6238 38.4323 12.6568 36.6548 13.7811 34.9381C14.3128 34.1329 14.4192 33.3733 14.1153 32.4617C13.7203 31.2463 13.4316 30.0006 13.0518 28.6181C14.3128 29.0283 14.8293 29.9094 15.1028 30.9273C15.908 33.8594 16.6828 36.7916 17.4576 39.7237C17.6247 40.3466 17.883 40.8631 18.597 40.9694C19.5997 41.1214 20.2682 40.2706 19.9795 39.1768C19.4022 36.9739 18.7945 34.771 18.202 32.5681C17.7463 30.8817 17.2905 29.1954 16.8651 27.585C17.169 27.3115 17.4424 27.1292 17.6399 26.871C18.5818 25.5796 19.5086 24.2731 20.4353 22.9665C20.8607 22.4196 20.8151 22.0702 20.2834 21.5992ZM16.4853 25.6708C15.6041 24.3946 15.5738 22.1765 16.4397 20.4598C17.2145 21.1282 17.959 21.7815 18.7642 22.4804C17.9742 23.5894 17.2297 24.6225 16.4853 25.6708Z" fill="#F3F3F3"/>
<path d="M15.0116 18.6368C16.5612 18.652 17.807 17.4062 17.7918 15.8566C17.7918 14.3373 16.5612 13.1219 15.0268 13.1219C13.4924 13.1219 12.277 14.3373 12.277 15.8566C12.277 17.391 13.4924 18.6216 15.0116 18.6368Z" fill="#F3F3F3"/>
<path d="M51.5188 15.8566C51.5188 17.391 52.7646 18.652 54.3142 18.6368C55.8334 18.6216 57.0488 17.391 57.0336 15.8566C57.0336 14.3221 55.8182 13.1219 54.2838 13.1219C52.7646 13.1219 51.534 14.3373 51.5188 15.8566Z" fill="#F3F3F3"/>
<path d="M24.3548 5.73842C26.1019 5.55611 27.849 5.35861 29.581 5.14592C29.7329 5.13072 29.9 5.02438 30.0063 4.91803C30.5229 4.46226 31.0242 3.9913 31.5864 3.48995C30.5533 2.30495 29.1708 1.77322 27.606 1.89476C26.2842 2.0011 24.9929 2.32014 23.6863 2.53283C21.2252 2.91264 20.4504 2.56322 19.2046 0.466675C19.0983 0.816099 18.9919 1.07437 18.9463 1.33264C18.8096 2.38091 19.1894 3.26207 19.8427 4.05207C21.0277 5.46496 22.5925 5.92073 24.3548 5.73842Z" fill="#F3F3F3"/>
<path d="M48.3283 14.8082C49.7868 14.7475 51.2908 14.6107 52.5518 13.3498C52.1112 13.1523 51.7922 12.9092 51.4883 12.9092C50.7439 12.9244 49.9995 13.0156 49.2702 13.1827C48.2827 13.4106 47.28 13.9119 46.5508 12.6357C46.3533 13.7904 47.1585 14.869 48.3283 14.8082Z" fill="#F3F3F3"/>
<path d="M9.07146 14.8083C10.5299 14.7475 12.034 14.626 13.2342 13.4258C12.6265 12.8789 11.9732 12.7118 11.2744 12.8333C10.7426 12.9245 10.2261 13.1068 9.70955 13.2587C8.8132 13.5018 7.91684 13.76 7.32434 12.6206C7.09646 13.7448 7.88646 14.8539 9.07146 14.8083Z" fill="#F3F3F3"/>
</svg>
