<svg width="46" height="47" viewBox="0 0 46 47" fill="none" xmlns="http://www.w3.org/2000/svg">
<path d="M19.022 39.7716C18.7045 39.5864 18.6516 39.3748 18.6516 39.0838C18.6516 38.3298 18.6516 37.5758 18.6516 36.8218C18.6516 35.8826 18.6516 34.9037 18.6516 33.9381C18.6649 31.9671 17.9902 30.3401 16.5881 28.9511C15.6357 28.0119 14.67 27.0463 13.7441 26.1071C12.8842 25.2341 11.9847 24.3478 11.0985 23.4747C10.8207 23.197 10.7016 22.9059 10.7016 22.4959C10.7148 20.7101 10.7148 19.0698 10.7016 17.456C10.6884 15.9877 9.77566 14.7575 8.42641 14.4004C8.04279 14.2945 7.64595 14.2813 7.20943 14.2548C7.01101 14.2416 6.79937 14.2416 6.58772 14.2152L6.48189 14.2019L6.46867 14.0564C6.45544 14.0035 6.44221 13.9109 6.42898 13.8051C6.23057 12.2839 4.88131 11.0669 3.34687 11.0272C3.32041 11.0272 3.29396 11.0272 3.28073 11.0272C2.40768 11.0272 1.60077 11.3447 0.992282 11.94C0.357339 12.5484 0.0134165 13.4083 0.0134165 14.3474C0.0134165 16.1332 0.0134165 17.919 0.0134165 19.7048C0.0134165 22.1916 0.0134117 24.7579 0.000183711 27.2844C-0.0130443 29.3215 0.688038 31.0015 2.11666 32.3904C3.02939 33.2767 3.94212 34.2026 4.82839 35.0889C5.38397 35.6445 5.93955 36.2133 6.50835 36.7689C7.1962 37.4567 7.68564 38.2636 7.93697 39.1764C8.01634 39.4541 8.00312 39.679 7.7121 39.8907C7.07716 40.3404 6.75968 40.9754 6.75968 41.7823C6.75968 42.0204 6.75968 42.2452 6.75968 42.4834C6.75968 43.1712 6.74646 43.8855 6.75968 44.5866C6.78614 45.9755 7.75178 46.9412 9.10104 46.9544C11.9847 46.9809 14.9213 46.9809 17.8315 46.9544C19.2072 46.9412 20.1728 45.9491 20.1993 44.5469C20.2125 43.7532 20.2125 42.8934 20.1993 41.8352C20.1993 40.9357 19.8025 40.2214 19.022 39.7716ZM6.49512 17.337C6.50835 17.0989 6.60094 16.8872 6.77291 16.7153C6.9581 16.5433 7.22266 16.4375 7.48722 16.4507C8.0428 16.4771 8.41318 16.7946 8.42641 17.2576C8.45286 18.1968 8.45287 19.1492 8.43964 20.0619C8.43964 20.4191 8.43964 20.7762 8.43964 21.1334V21.2657H6.46867V21.1334C6.46867 20.763 6.46867 20.3926 6.46867 20.0355C6.46867 19.1095 6.46867 18.2365 6.49512 17.337ZM6.41575 33.5545C5.52948 32.655 4.60353 31.729 3.67757 30.8295C2.6987 29.8771 2.22249 28.7395 2.23571 27.3505C2.24894 24.3346 2.24894 21.2524 2.24894 18.2894C2.24894 17.0592 2.24894 15.829 2.24894 14.612C2.24894 14.5723 2.24894 14.5459 2.24894 14.5062C2.24894 14.3739 2.24894 14.2416 2.26217 14.1093C2.34154 13.6331 2.64578 13.3421 3.10876 13.276C3.58496 13.2098 3.96858 13.4215 4.14055 13.858C4.23314 14.0697 4.24637 14.3342 4.24637 14.5194C4.2596 17.6412 4.24637 20.1942 4.24637 22.562C4.24637 22.7869 4.19346 23.0382 4.08763 23.2631C3.43946 24.7182 3.70402 26.2394 4.78871 27.3373C6.72 29.2951 8.70419 31.266 10.609 33.1709L11.3895 33.9513C11.8921 34.454 12.5668 34.4937 13.0165 34.0571C13.2414 33.8455 13.3604 33.5809 13.3604 33.3031C13.3604 32.9857 13.2149 32.6682 12.9504 32.4036C11.535 30.9882 10.1196 29.5728 8.7042 28.1575C8.00312 27.4564 7.31525 26.7685 6.61417 26.0674L6.56126 26.0145C6.45544 25.9087 6.33639 25.7896 6.24379 25.6706C5.82049 25.115 5.87341 24.3478 6.37607 23.8584C6.8655 23.3822 7.64596 23.3425 8.1883 23.7658C8.30736 23.8584 8.41318 23.9642 8.50578 24.0568L8.54546 24.0965C9.19363 24.7446 9.8418 25.3928 10.49 26.0542C11.9451 27.5225 13.453 29.0305 14.961 30.512C15.9531 31.4909 16.4293 32.6285 16.4029 33.991C16.3764 35.2212 16.3896 36.4117 16.3896 37.6948C16.3896 38.2372 16.3896 38.7795 16.3896 39.3219V39.4541H10.3048L10.2783 39.3615C10.2122 39.1764 10.1593 38.9779 10.0931 38.7927C9.96086 38.3827 9.8418 37.9858 9.68306 37.6022C9.33914 36.7689 8.79679 35.9884 8.00311 35.1947C7.50045 34.6392 6.9581 34.0968 6.41575 33.5545ZM17.9505 44.7586H9.00844V41.6897H17.9505V44.7586Z" fill="#F3F3F3"/>
<path d="M42.4488 11.0536C40.7821 10.8816 39.3005 11.9531 38.9434 13.5934C38.9169 13.7256 38.8905 13.8579 38.8772 14.0034C38.864 14.0696 38.864 14.1357 38.8508 14.2018L38.8243 14.3341L38.692 14.3077C38.4407 14.2548 38.1894 14.2415 37.9513 14.2415C37.1047 14.2415 36.3507 14.5193 35.7422 15.0484C34.9485 15.7495 34.5385 16.821 34.6178 17.985C34.684 18.9507 34.6707 19.9428 34.6575 20.8952C34.6443 21.4375 34.6443 21.9931 34.6443 22.5487C34.6443 22.9191 34.5385 23.1836 34.2739 23.4482C33.2289 24.48 32.1707 25.5382 31.1521 26.5568C30.332 27.3769 29.5118 28.197 28.6785 29.0172C27.3425 30.34 26.681 31.967 26.681 33.8454C26.681 34.6523 26.681 35.4724 26.681 36.2793C26.681 37.2185 26.681 38.1445 26.681 39.0837C26.681 39.3747 26.6149 39.5863 26.2974 39.7715C25.5302 40.2213 25.1334 40.8959 25.1202 41.8086C25.1069 42.7214 25.1069 43.6738 25.1202 44.613C25.1334 45.9622 26.1122 46.9543 27.435 46.9675C30.3849 46.994 33.348 46.994 36.2581 46.9675C37.5544 46.9543 38.5201 45.9754 38.5465 44.6526C38.5598 43.9119 38.5598 43.1579 38.5598 42.4303C38.5598 42.2187 38.5598 42.0071 38.5598 41.7954C38.5598 40.9885 38.2423 40.3536 37.6074 39.9038C37.2767 39.6657 37.3163 39.4144 37.3825 39.1895C37.6338 38.2768 38.11 37.4831 38.8111 36.782C39.5254 36.0677 40.2397 35.3666 40.9408 34.6523C41.708 33.8718 42.5149 33.0782 43.2954 32.2977C44.6579 30.9485 45.3193 29.3611 45.306 27.4298C45.306 25.7896 45.306 24.1625 45.306 22.5222C45.306 21.7815 45.306 21.0407 45.306 20.2999C45.306 19.6915 45.306 19.083 45.306 18.4877C45.306 17.0988 45.306 15.6569 45.2928 14.2415C45.2928 12.6013 44.0626 11.2123 42.4488 11.0536ZM36.8798 17.5882C36.8798 17.2178 36.9856 16.9268 37.1973 16.7284C37.3693 16.5564 37.6074 16.4638 37.8851 16.4638C38.4672 16.4771 38.8772 16.9136 38.8772 17.5618C38.8905 18.3951 38.8905 19.202 38.8772 20.0751C38.8772 20.4322 38.8772 20.7894 38.8772 21.1465V21.2788H36.9327L36.9195 21.173C36.9195 21.1598 36.9195 21.1465 36.9063 21.1201C36.893 21.0539 36.8666 20.9746 36.8666 20.882V20.8026C36.8666 19.7576 36.8666 18.6597 36.8798 17.5882ZM36.3242 44.7585H27.3821V41.6764H36.3242V44.7585ZM41.6154 30.8823C40.9937 31.4776 40.3852 32.0993 39.79 32.7078C39.1021 33.4089 38.3878 34.1232 37.6603 34.811C36.192 36.2132 35.3851 37.6418 35.094 39.3085L35.0808 39.4144H28.943V39.2821C28.943 38.6868 28.943 38.0916 28.943 37.4963C28.9298 36.0809 28.9298 34.6126 28.9695 33.1708C28.9959 32.3242 29.3663 31.5173 30.041 30.8426C32.3294 28.5277 34.6707 26.1864 36.9989 23.8847C37.2767 23.6069 37.6338 23.4614 38.0042 23.4614C38.3614 23.4614 38.7185 23.6069 38.9698 23.8715C39.5519 24.4535 39.5122 25.2737 38.8772 25.9086C38.1629 26.6229 37.4486 27.3372 36.7343 28.0515C35.3321 29.4537 33.8903 30.8956 32.4749 32.3374C32.2236 32.5887 32.0384 32.9856 31.9855 33.3427C31.9326 33.7263 32.1574 34.0703 32.594 34.2819C32.9776 34.4539 33.348 34.4274 33.7051 34.1893C33.8109 34.1099 33.9168 34.0174 34.0226 33.9115L34.0755 33.8454C36.1523 31.7686 38.2423 29.6918 40.3191 27.6018C41.6419 26.279 41.9065 24.9297 41.1789 23.1969C41.1128 23.0514 41.0863 22.8794 41.0863 22.7339C41.0863 20.0751 41.0863 17.2707 41.0863 14.4003C41.0863 14.2812 41.0995 14.096 41.1789 13.9241C41.3641 13.4611 41.7477 13.2362 42.2504 13.3156C42.7134 13.3817 43.0176 13.6727 43.0837 14.1622C43.1102 14.2944 43.097 14.4267 43.097 14.559C43.097 14.5987 43.097 14.6251 43.097 14.6648C43.097 15.8818 43.097 17.112 43.097 18.329C43.097 21.292 43.097 24.3477 43.1102 27.3637C43.1102 28.7394 42.6208 29.9035 41.6154 30.8823Z" fill="#F3F3F3"/>
<path d="M30.7684 1.55594C28.4006 0.206684 25.9931 0.286052 23.8105 1.76759C22.9639 2.33639 22.3819 2.33639 21.5088 1.75436C20.3712 0.987135 19.1675 0.603523 17.9373 0.603523C16.8261 0.603523 15.7018 0.920995 14.5906 1.54271C12.236 2.87874 11.0058 4.92907 10.9529 7.65403C10.9132 10.0748 11.5482 12.4955 12.8445 14.8633C14.789 18.3819 17.7389 21.3582 21.8528 23.9244C22.4083 24.2816 22.8978 24.2684 23.4666 23.9244C26.6016 21.9799 29.0752 19.7444 31.0198 17.1253C33.2421 14.1225 34.3003 11.0801 34.3664 7.53498C34.3532 4.98198 33.0569 2.86551 30.7684 1.55594ZM30.6097 13.6992C28.9694 16.7152 26.4693 19.3079 22.9771 21.6095C22.8978 21.6625 22.7787 21.6889 22.6597 21.6889C22.5671 21.6889 22.4745 21.6757 22.4083 21.6228C18.2812 18.8581 15.6489 15.9215 14.1276 12.3896C13.5456 11.0404 13.2281 9.59855 13.2017 8.20961C13.0694 5.39205 14.8023 3.24912 17.514 2.86551C18.3606 2.74646 19.2072 2.93165 20.1067 3.44754C20.4771 3.65919 20.8342 3.89729 21.1252 4.12216C22.157 4.8497 23.1227 4.8497 24.247 4.12216C24.9481 3.67241 25.755 3.15652 26.6016 2.9581C27.7657 2.68032 29.0488 2.97133 30.1203 3.73855C31.2711 4.55869 31.9854 5.78889 32.1045 7.09846C32.3161 9.30753 31.8267 11.4505 30.6097 13.6992Z" fill="#F3F3F3"/>
<path d="M26.4693 10.4716C25.8873 10.4584 25.3185 10.4584 24.7232 10.4716C24.4587 10.4716 24.1941 10.4716 23.9163 10.4716H23.7841V10.3393C23.7841 10.0747 23.7841 9.81019 23.7841 9.54563C23.7841 8.95037 23.7841 8.39479 23.7841 7.82599C23.7708 7.45561 23.6518 7.13814 23.4137 6.92649C23.202 6.72807 22.9242 6.63547 22.62 6.6487C21.9983 6.67516 21.575 7.16459 21.5618 7.85245C21.5485 8.42125 21.5618 8.97682 21.5618 9.55886C21.5618 9.81019 21.5618 10.0747 21.5618 10.3393V10.4716H20.8871C20.6755 10.4716 20.4771 10.4716 20.2654 10.4716C19.8024 10.4716 19.3262 10.4716 18.85 10.4848C18.2151 10.498 17.7653 10.9346 17.7389 11.5298C17.7124 12.178 18.1225 12.641 18.7707 12.6939C19.1807 12.7203 19.604 12.7203 20.0141 12.7203C20.1993 12.7203 20.3712 12.7203 20.5564 12.7203C20.7549 12.7203 20.9401 12.7203 21.1385 12.7203H21.4163H21.5485V12.8526C21.5485 13.1304 21.5485 13.395 21.5485 13.6595C21.5485 14.2416 21.5485 14.7971 21.5485 15.3527C21.5618 15.7231 21.694 16.0538 21.9189 16.2654C22.1306 16.4639 22.4216 16.5565 22.7523 16.53C23.3608 16.4903 23.7576 16.0141 23.7708 15.3263C23.7841 14.7707 23.7841 14.2151 23.7708 13.6331C23.7708 13.3685 23.7708 13.104 23.7708 12.8394V12.7071H23.9031C24.1677 12.7071 24.4322 12.7071 24.6968 12.7071C25.2788 12.7071 25.8344 12.7071 26.39 12.7071C27.0514 12.6939 27.5011 12.3367 27.5805 11.7812C27.6334 11.4372 27.5408 11.1198 27.3424 10.8817C27.144 10.6171 26.8397 10.4848 26.4693 10.4716Z" fill="#F3F3F3"/>
</svg>
