<svg width="45" height="46" viewBox="0 0 45 46" fill="none" xmlns="http://www.w3.org/2000/svg">
<path d="M44.4922 2.75763C44.234 1.69416 43.4592 0.88897 42.4109 0.585123C41.3474 0.281276 40.2232 0.56993 39.4028 1.35993C37.8988 2.83359 36.5618 4.18571 35.316 5.49225C34.7235 6.11514 34.0703 6.3886 33.2499 6.37341C31.913 6.34302 30.728 6.34302 29.6038 6.40379C28.1453 6.47975 27.097 7.60399 26.9907 9.21437C26.8843 10.7184 27.8566 12.0402 29.2239 12.2984C29.8316 12.42 30.4697 12.4048 31.0014 12.3896C31.0166 12.3896 31.0318 12.3896 31.047 12.3896C31.1534 12.3896 31.1837 12.4048 31.1837 12.4048C31.1837 12.42 31.2141 12.4655 31.2141 12.5871C31.3205 14.8355 31.2141 16.6434 30.8951 18.269C30.7584 18.9527 30.5912 19.6515 30.4241 20.32C30.3634 20.5782 30.2874 20.8517 30.2266 21.11C30.0291 21.9456 30.3633 22.3254 30.6824 22.5077C31.0014 22.69 31.5332 22.7811 31.8826 22.6292C32.2472 22.4621 32.5207 22.0367 32.627 21.6873C33.6753 18.3298 34.0095 14.79 33.5993 11.2046C33.5082 10.369 33.0828 9.97399 32.2472 9.9588C31.8978 9.94361 31.5484 9.94361 31.1989 9.94361C30.8039 9.94361 30.4089 9.94361 30.0139 9.92841C29.4062 9.91322 29.4214 9.50303 29.4214 9.38149C29.4214 9.24476 29.4366 8.91053 30.0291 8.89533C30.2874 8.89533 30.5305 8.89533 30.7888 8.89533C31.5484 8.88014 32.3384 8.88014 33.098 8.91053C34.678 8.9713 35.9997 8.42437 37.1088 7.23937C37.9443 6.35821 38.8103 5.47706 39.6611 4.62629C40.1017 4.17052 40.5574 3.72994 40.998 3.27417C41.3019 2.97032 41.4841 2.95513 41.6968 3.03109C41.8943 3.10705 42.0311 3.24378 42.0615 3.39571C42.107 3.57801 42.0007 3.8059 41.8032 4.0034C39.9194 5.90244 37.7164 8.09014 35.5439 10.2475C35.1489 10.6425 34.9818 11.083 35.0426 11.6148C35.4832 15.4888 34.997 19.3781 33.5993 23.2065C33.5538 23.3281 33.5386 23.3584 33.3866 23.3888C31.7155 23.7383 30.0443 24.1181 28.3276 24.4979C27.6591 24.6498 26.9907 24.6042 26.2918 24.3611L25.3955 24.0421C23.8307 23.48 22.2051 22.9027 20.5947 22.3709C19.7287 22.0823 18.8476 21.7633 18.012 21.4594C16.2801 20.8213 14.4722 20.1681 12.6035 19.7731C12.5731 19.7579 12.5427 19.7123 12.5427 19.6971C12.1174 17.7677 11.692 15.8686 11.3121 14.0455C11.2818 13.924 11.2818 13.7417 11.3729 13.6202C11.4489 13.529 11.6008 13.4682 11.7983 13.453C12.0262 13.453 12.2541 13.453 12.482 13.453C12.7403 13.453 13.0137 13.453 13.272 13.453C14.8824 13.3923 16.0978 12.1465 16.1282 10.5361C16.1585 8.54591 14.8368 7.01148 12.8466 6.72283C11.2362 6.49495 9.64101 6.25187 8.03063 6.02398L4.80986 5.55302C3.7312 5.4011 2.69811 5.64417 1.9081 6.26706C1.10291 6.88995 0.601563 7.81668 0.464832 8.89533C0.206562 11.1438 1.45235 12.9973 3.51851 13.4075C3.95909 13.4986 4.38447 13.4834 4.80986 13.4834C4.88582 13.4834 4.97695 13.4834 5.05291 13.4834C5.09849 13.4834 5.12889 13.4834 5.14408 13.4834C5.14408 13.4986 5.15927 13.5138 5.17446 13.5746C5.59984 15.5648 6.10119 17.874 6.61773 20.1529C6.63292 20.2288 6.63294 20.2744 6.63294 20.2896C6.61775 20.3048 6.58735 20.32 6.51139 20.3504C4.79466 20.9732 3.36657 21.9759 2.28791 23.3433C0.0242538 26.1842 -0.613825 30.1342 0.616755 33.6285C1.86253 37.1227 4.71868 39.5991 8.47119 40.4346C8.48638 40.4346 8.51679 40.4498 8.53198 40.4498C8.51679 40.465 8.51676 40.4954 8.50157 40.5106C8.30407 40.9056 8.12179 41.3006 7.92429 41.6956C7.71159 42.121 7.51408 42.5464 7.30139 42.987C6.99754 43.6098 6.96714 44.1112 7.21022 44.491C7.45329 44.8708 7.90908 45.0531 8.59274 45.0531C11.5249 45.0531 14.4722 45.0531 17.4043 45.0531H19.8047H22.8735C23.8914 45.0531 24.9245 45.0531 25.9424 45.0531C27.6743 45.0531 29.4062 45.0531 31.1534 45.0531C31.9282 45.0531 32.2928 44.7493 32.4447 44.491C32.6118 44.2327 32.7334 43.7921 32.4143 43.0933C31.913 42.0146 31.5028 41.1183 31.1078 40.2979C31.0926 40.2827 31.0926 40.2523 31.0774 40.2371C32.3536 39.7358 33.3107 38.7787 34.0095 37.305C34.8299 35.5883 35.6807 33.8412 36.5011 32.1396C37.048 31.0154 37.5949 29.8912 38.1418 28.7517C38.3849 28.2656 38.5368 27.8402 38.628 27.4452C39.1141 25.5006 38.1722 23.7383 36.3947 23.2673C36.334 23.2521 36.258 23.2369 36.1972 23.2217C36.2124 23.1609 36.2428 23.085 36.258 23.0242C37.4126 19.3781 37.8532 15.6863 37.5494 12.0098C37.5342 11.8123 37.5797 11.7059 37.7317 11.554C38.8103 10.4905 39.8738 9.41187 40.9524 8.34841C41.8032 7.49764 42.6539 6.63168 43.5199 5.7809C44.4618 4.88456 44.7657 3.88186 44.4922 2.75763ZM10.431 42.2881C10.507 42.1362 10.5677 41.9995 10.6437 41.8475C10.8108 41.4829 10.9931 41.0879 11.1906 40.7385C11.221 40.6929 11.3122 40.6321 11.3577 40.6169C14.9279 40.6018 18.5437 40.6018 22.0532 40.6018C24.1649 40.6018 26.2918 40.6018 28.4035 40.6018C28.5403 40.6018 28.5555 40.617 28.601 40.7233C28.7682 41.0879 28.9505 41.4677 29.1328 41.8171C29.2543 42.045 29.3607 42.2881 29.4822 42.516H29.467C27.0514 42.516 24.6359 42.516 22.2355 42.516H10.5829C10.5222 42.516 10.431 42.516 10.3399 42.516C10.355 42.44 10.4006 42.3489 10.431 42.2881ZM29.1936 38.1254C26.8691 38.1254 24.5143 38.1254 22.2355 38.1254C20.4428 38.1254 18.6501 38.1254 16.8574 38.1102C14.852 38.095 12.7706 38.0798 10.7349 38.1406C8.18256 38.2166 6.1012 37.1987 4.38446 35.011C1.95369 31.9117 1.9081 27.7642 4.26292 24.9233C5.84292 23.009 7.8939 22.0823 10.507 22.0823C10.8716 22.0823 11.2362 22.0975 11.616 22.1431C12.8922 22.2646 14.062 22.69 15.2926 23.1458C15.642 23.2825 16.0218 23.4192 16.3864 23.5408C18.6805 24.3308 21.0049 25.136 23.2533 25.9411C24.1041 26.245 24.9701 26.5488 25.8208 26.8375C26.778 27.1717 27.7503 27.2021 28.9201 26.9286C31.2749 26.3817 33.2043 25.9715 35.0274 25.6373C35.4984 25.5461 35.863 25.6373 36.0757 25.8652C36.3036 26.1235 36.3492 26.5488 36.182 27.0502C36.1213 27.2629 36.0149 27.4604 35.9086 27.6731L35.8478 27.8098C34.6172 30.3621 33.2043 33.2335 31.8218 36.0744C31.6395 36.4542 31.442 36.7885 31.2597 37.0467C30.7887 37.776 30.1051 38.1254 29.1936 38.1254ZM9.4739 12.1313C8.95736 12.7998 8.75987 13.6657 8.91179 14.4861C9.13967 15.6559 9.39791 16.8409 9.64099 17.9804C9.74734 18.4361 9.83849 18.9071 9.94484 19.3629C9.96003 19.4236 9.97523 19.5148 9.99042 19.5907C9.91446 19.5907 9.83851 19.6059 9.77775 19.6059C9.48909 19.6211 9.18524 19.6363 9.12447 19.6059C9.07889 19.5452 9.00294 19.2413 8.94217 18.9679C8.80544 18.345 8.66871 17.7373 8.53198 17.1144C8.27371 15.9446 8.00022 14.7292 7.74195 13.5442C7.72676 13.4834 7.72676 13.4378 7.71157 13.4075C7.72676 13.4075 7.75715 13.4075 7.78753 13.3923C8.456 13.3163 8.8814 12.7846 8.83583 12.0857C8.79025 11.4173 8.30407 10.9615 7.63561 10.9311C7.22542 10.9159 6.81522 10.9159 6.42022 10.9159C6.37465 10.9159 6.32908 10.9159 6.28351 10.9159H5.9037C5.73658 10.9159 5.56946 10.9159 5.40234 10.9159C5.03773 10.9159 4.67312 10.9311 4.3085 10.9159C3.88312 10.9007 3.56407 10.764 3.35138 10.5057C3.07791 10.1867 2.95638 9.67015 3.01715 9.00168C3.04754 8.68264 3.19947 8.40918 3.44255 8.21168C3.7312 7.98379 4.14137 7.89264 4.59714 7.95341C6.92157 8.28764 9.38273 8.65226 12.1174 9.04726C13.0289 9.18399 13.4847 9.53341 13.6518 10.2626C13.6822 10.4146 13.7126 10.6121 13.6062 10.7488C13.5151 10.8703 13.3176 10.9159 13.1656 10.9159C12.9681 10.9159 12.7555 10.9159 12.558 10.9159C12.2693 10.9159 11.9806 10.9159 11.692 10.9311C10.7956 11.0071 9.99044 11.4476 9.4739 12.1313Z" fill="#F3F3F3"/>
<path d="M19.4856 34.2361C19.3793 34.2361 19.273 34.2209 19.1514 34.2209C18.7412 34.2057 18.3158 34.1906 17.8905 34.2513C17.4499 34.3121 17.1764 34.145 16.8878 33.7956L17.0245 33.5677C18.7412 30.8179 18.2551 27.2932 15.8395 25.1663C13.8493 23.4192 11.5097 22.9786 9.07889 23.8901C6.60254 24.8169 5.12889 26.7159 4.79466 29.3746C4.56678 31.2129 5.14407 33.0663 6.37465 34.4792C7.59004 35.8769 9.32199 36.6973 11.1451 36.7277C11.1603 36.7277 11.1755 36.7277 11.1907 36.7277C11.8895 36.7277 12.3453 36.4238 12.5124 35.8465C12.6187 35.4667 12.5731 35.1021 12.3605 34.7982C12.1174 34.464 11.7072 34.2665 11.1907 34.2361C9.12449 34.1298 7.40775 32.489 7.27102 30.4988C7.1191 28.2655 8.47121 26.4425 10.5678 26.0475C12.6491 25.6525 14.6849 26.8678 15.323 28.858C15.6724 29.9671 15.5812 31.0002 15.0647 32.0029C15.0343 31.9725 15.0039 31.9573 14.9887 31.9269C14.6241 31.5623 14.2443 31.1977 13.8797 30.833C13.3783 30.3469 12.877 29.8455 12.3756 29.3594C11.7679 28.7669 11.0235 28.7213 10.507 29.2378C10.2639 29.4657 10.1424 29.7696 10.1424 30.0734C10.1424 30.438 10.3095 30.7875 10.6133 31.1065C12.5883 33.0663 14.2291 34.7223 15.9003 36.3631C16.0522 36.515 16.3408 36.6973 16.6447 36.6973C17.4955 36.7125 18.4222 36.7125 19.4553 36.6973C20.1845 36.6821 20.701 36.1656 20.701 35.4515C20.7314 34.7679 20.2149 34.2665 19.4856 34.2361Z" fill="#F3F3F3"/>
<path d="M32.5054 30.4077C32.5206 30.3621 32.5358 30.3318 32.551 30.3014L32.5814 30.2102L32.5662 30.1191C32.4903 29.2683 32.0193 28.9644 31.6243 28.8733C31.0166 28.7062 30.4849 28.9493 30.1506 29.4962L29.6037 30.4229C29.0568 31.3648 28.4947 32.322 27.9477 33.2791C27.5223 34.0083 27.6743 34.7223 28.3124 35.1173C28.5251 35.2541 28.753 35.3148 28.9656 35.3148C29.0568 35.3148 29.1479 35.2996 29.2391 35.2845C29.6037 35.1933 29.9076 34.935 30.1354 34.54C30.8647 33.3095 31.5787 32.0637 32.2775 30.8483C32.3991 30.6812 32.4599 30.5293 32.5054 30.4077Z" fill="#F3F3F3"/>
</svg>
