<svg width="42" height="53" viewBox="0 0 42 53" fill="none" xmlns="http://www.w3.org/2000/svg">
<path d="M41.8128 41.4522C41.676 39.7203 41.2962 38.2163 40.6885 36.8186C40.4151 36.1957 40.2024 35.4816 40.0656 34.6916C39.9897 34.2055 39.9593 33.7041 39.9289 33.1724C39.9137 32.7926 39.8833 32.3976 39.8378 32.0178C39.5795 29.7845 39.0022 28.1134 37.9843 26.746C37.4526 26.0168 37.1031 25.3028 36.9512 24.5432C36.6322 23.0087 35.6903 21.9301 34.1862 21.3224C33.5481 21.0641 32.91 20.821 32.2416 20.7147C31.2085 20.5476 30.0843 20.426 28.7018 20.3197C27.9725 20.2589 27.4104 19.9399 26.985 19.3474C26.59 18.7853 26.5597 18.4814 26.8331 18.1168C27.0002 17.8889 27.1522 17.6003 27.2281 17.3116C27.5472 16.1418 28.17 15.1239 29.1879 14.1212C29.8412 13.4679 30.1602 12.5716 30.0387 11.66C29.9324 10.87 29.507 10.156 28.8841 9.70023C28.8993 9.5787 28.9297 9.45716 28.9449 9.32043C29.0208 8.83427 29.0968 8.33292 29.1423 7.83158C29.3702 5.24888 28.4739 3.24349 26.4533 1.89137C24.4175 0.508867 22.0019 0.129058 19.2825 0.767136C15.5908 1.61791 13.5398 4.53484 14.0564 8.19619C14.1171 8.60639 14.1779 9.01658 14.2387 9.44196C14.2539 9.51793 14.269 9.59389 14.269 9.66985C13.631 10.0041 13.2815 10.3535 13.1904 11.0827C13.0081 12.45 13.3119 13.4983 14.1019 14.3035L14.2539 14.4706C14.4817 14.6985 14.7096 14.9416 14.9527 15.1543C15.1654 15.3518 15.3173 15.5797 15.4389 15.9747C15.606 16.4608 15.8035 16.9318 16.001 17.3876C16.1225 17.6762 16.2592 17.9649 16.3656 18.2535C16.4567 18.4662 16.4416 18.6029 16.4416 18.6181C16.0769 19.8183 15.606 20.2133 14.421 20.3045C14.2083 20.3197 13.9956 20.3349 13.7829 20.3501C12.7802 20.426 11.7319 20.5172 10.714 20.7299C8.29846 21.2616 6.90077 22.5378 6.53615 24.528C6.29308 25.8801 5.67018 27.0195 4.59153 28.1285C3.58883 29.1616 2.90518 30.377 2.58614 31.7443C2.34307 32.823 1.8873 33.7953 1.21883 34.7068C1.0821 34.9043 0.945356 35.1018 0.823817 35.2993C0.732663 35.4513 0.641524 35.588 0.535177 35.7399C-0.102901 36.6666 -0.178874 37.6693 0.352858 38.6264C0.474397 38.8543 0.595936 39.0974 0.732667 39.3253C1.15805 40.1305 1.59863 40.9661 2.16075 41.7105C2.76844 42.5005 3.4521 43.2297 4.12057 43.9438C4.42441 44.2628 4.74345 44.597 5.0473 44.9313C5.35114 45.2655 5.6398 45.5997 5.94365 45.9492C5.97403 45.9947 6.0196 46.0251 6.04999 46.0707C6.0196 46.1011 5.97403 46.1163 5.94365 46.1315C4.54595 46.6632 4.81942 47.6203 5.01692 48.3192C5.09288 48.5774 5.19922 48.8509 5.33595 49.1092C6.38423 51.1297 8.58712 52.1628 10.9571 51.7374C11.0787 51.7223 11.2002 51.6919 11.3065 51.6615C11.7775 51.5399 11.975 51.5247 12.1725 51.7374C12.3244 51.8894 12.5219 51.9349 12.6435 51.9501C12.6739 51.9501 12.689 51.9653 12.7194 51.9653C13.9348 52.2996 15.2262 52.4667 16.6542 52.4667C17.0492 52.4667 17.4746 52.4515 17.8848 52.4211C18.7356 52.3603 19.5712 52.2388 20.3916 52.1324C20.9993 52.0413 21.6373 51.9501 22.2602 51.8894C24.6606 51.6615 27.1522 51.7071 29.6437 52.0565C30.3274 52.1476 30.8743 52.1932 31.2237 51.8438C31.5731 51.4944 31.5427 50.9626 31.4516 50.279C31.4516 50.2486 31.4364 50.203 31.4364 50.1726C31.4364 50.1574 31.4364 50.1422 31.4212 50.1271C31.4212 48.7749 31.4212 47.4228 31.4212 46.0707V45.8732C31.6187 45.8732 31.8162 45.858 32.0137 45.858C32.0593 45.858 32.0897 45.858 32.1352 45.858C34.9458 45.858 37.6956 45.0224 40.8101 43.2449C41.5697 42.8499 41.8887 42.2574 41.8128 41.4522ZM28.0485 46.7392C28.0485 46.7088 28.0485 46.6784 28.0485 46.6632C28.0637 46.6632 28.0637 46.648 28.0941 46.648C28.4739 46.5113 28.8385 46.3594 29.2335 46.2074V49.8384L28.4435 49.808C28.2308 49.7928 28.0181 49.7928 27.8054 49.7776C27.9725 49.5649 28.0485 49.2611 28.0637 48.8661C28.0637 48.1369 28.0637 47.438 28.0485 46.7392ZM13.9196 40.3432C13.631 38.0947 13.2967 35.8159 12.9777 33.613C12.7802 32.3064 12.5827 30.9543 12.4004 29.6174C12.0358 27.0499 12.0814 24.8318 12.5371 22.8112C12.5523 22.7505 12.5675 22.6897 12.5827 22.6289L13.9044 22.5074C13.9044 22.5226 13.9044 22.5378 13.9044 22.553C13.95 22.8872 14.0108 23.2518 14.1019 23.586C14.8767 26.4726 16.6391 28.402 19.3737 29.3287C19.3889 29.3287 19.4041 29.3439 19.4192 29.3439C19.4192 29.3591 19.4192 29.3743 19.4192 29.3895C19.4041 29.8909 19.4041 30.4074 19.4192 30.848C19.4192 31.1974 19.5256 31.4861 19.7079 31.6836C18.9787 31.9874 18.69 32.6862 18.5533 33.1724H18.1887C17.6114 33.1724 17.0492 33.1724 16.4719 33.1724C15.5148 33.1724 15.1198 33.5522 15.1198 34.4941C15.1198 39.2645 15.1198 44.0349 15.1198 48.8053C15.1198 49.7321 15.5148 50.1422 16.4567 50.1422C17.4746 50.1422 18.4925 50.1422 19.5104 50.1422C19.3737 50.1574 19.2218 50.1878 19.085 50.203C17.3987 50.4309 15.6819 50.3853 13.8285 50.0359L13.8892 49.3522C13.9652 48.5622 14.026 47.7874 14.1019 46.9974C14.2842 44.9009 14.2235 42.7284 13.9196 40.3432ZM26.2254 25.0293C26.4533 24.6191 26.6508 24.1937 26.8483 23.7531C26.6964 24.2089 26.4837 24.6343 26.2254 25.0293ZM20.3764 26.2599C20.1333 25.956 19.8902 25.6522 19.6775 25.3483C18.8571 24.1937 18.2191 22.8568 17.6418 21.1705C17.5962 21.0185 17.6114 21.0033 17.6721 20.9122C17.8241 20.7147 17.9608 20.5172 18.0823 20.3045C20.8929 22.3251 22.1083 22.3251 25.086 20.3045C25.2531 20.5324 25.405 20.7299 25.557 20.9578C25.557 20.9729 25.5721 20.9881 25.5721 21.0033C24.9645 22.9783 24.0985 24.6343 22.9743 26.0776C22.0779 25.6978 21.2271 25.7889 20.4219 26.3358C20.4219 26.3055 20.4068 26.2903 20.3764 26.2599ZM31.8314 38.7632L31.8466 38.6264L31.9074 38.7328L31.8314 38.7632ZM22.2298 28.5843C22.2146 28.5995 22.2146 28.5995 22.1843 28.6147C21.9564 28.6603 21.7437 28.721 21.5766 28.797C21.5766 28.5691 21.5918 28.3412 21.6069 28.1285C21.6221 28.007 21.8045 27.9918 21.8956 27.9918C21.9108 27.9918 21.9108 27.9918 21.926 27.9918C22.1235 28.007 22.2146 28.083 22.2602 28.2805C22.2906 28.4172 22.2754 28.5387 22.2298 28.5843ZM25.9064 47.9697H17.2923V35.3449H18.5381C18.6141 35.7551 18.8267 36.2716 19.5712 36.2868C19.5864 36.2868 19.5864 36.2868 19.6016 36.2868C20.3308 36.2868 20.5587 35.7855 20.6346 35.3601H22.5793C22.6552 35.7551 22.8831 36.3628 23.7187 36.2868C24.3871 36.2261 24.5998 35.7703 24.6758 35.3449H25.952C25.952 35.4968 25.952 35.6336 25.952 35.7855C25.952 36.5451 25.9671 37.3199 25.9368 38.0795C25.9368 38.277 25.8456 38.5201 25.7545 38.7632L25.7089 38.8695C25.4202 38.7328 25.1164 38.6416 24.8277 38.5353L24.6758 38.4745C23.6427 38.1099 22.6704 38.3986 22.0323 39.2645C20.9993 40.647 20.2852 42.2422 19.9054 43.9742C19.8143 44.3995 20.0877 44.9768 20.3916 45.2351C22.1235 46.6784 23.9314 47.3165 25.9064 47.1949V47.9697ZM30.9047 28.6603C30.7831 29.6326 30.6312 30.6201 30.4793 31.5924C30.3122 32.6559 30.1451 33.7497 30.0083 34.8284C29.8716 35.9526 29.7804 37.092 29.7045 38.2011C29.6741 38.5657 29.6437 38.9455 29.6133 39.3101H29.1727C29.0208 38.5201 28.6562 37.9124 28.0789 37.4566C28.0789 37.4263 28.0637 37.3807 28.0637 37.3199C28.0637 36.773 28.0637 36.1957 28.0637 35.6488C28.0637 35.2689 28.0637 34.8891 28.0637 34.5093C28.0637 33.5674 27.6687 33.1876 26.7116 33.1876C26.1646 33.1876 25.6025 33.1876 25.0404 33.1876H24.6302C24.615 33.1572 24.615 33.1268 24.615 33.0964C24.4023 32.2001 23.6883 31.5924 22.8071 31.562C22.9287 31.3645 22.9743 31.1366 22.9591 30.848C22.9439 30.6353 22.9743 30.5897 23.1718 30.4986C23.5516 30.301 23.901 29.9516 24.0529 29.587C24.1744 29.3135 24.3568 29.2072 24.7366 29.0097L24.7822 28.9945C27.4256 27.6576 28.9297 25.4851 29.2943 22.5378C29.3247 22.5378 29.3702 22.5378 29.4006 22.553C29.826 22.5985 30.221 22.6289 30.6312 22.6441V22.6593C30.6312 22.7049 30.6464 22.7353 30.6464 22.7808C31.087 24.6799 31.1629 26.6549 30.9047 28.6603ZM22.1235 43.883C22.4425 42.7284 22.9591 41.6345 23.6883 40.6166C23.7946 40.4647 23.8554 40.4495 24.0225 40.5255C24.3871 40.6926 24.7366 40.8141 25.0556 40.9205C25.9975 41.2243 26.6356 41.1028 27.1977 40.4647C27.38 41.0724 27.8358 41.3915 28.565 41.4674C30.0083 41.6042 31.3756 41.3763 32.6366 40.7838C33.4722 40.404 34.3837 40.009 35.5231 39.5684C35.8422 39.4468 36.1916 39.3709 36.5562 39.3101L36.6777 39.2797C37.6197 39.0974 37.7564 38.5201 37.7108 38.0643C37.6804 37.7605 37.5285 37.5022 37.3006 37.3351C37.1183 37.1984 36.7993 37.0768 36.2979 37.1832C35.4927 37.3655 34.7179 37.5934 34.0039 37.8365C33.9431 37.8516 33.9127 37.8668 33.8976 37.8668C33.8824 37.8516 33.8672 37.8364 33.852 37.7909C32.9252 36.3476 32.4695 35.0714 32.4087 33.7801C32.3783 33.2028 32.4999 32.5951 32.6214 31.957C32.6518 31.7595 32.6973 31.562 32.7277 31.3645C33.1379 28.9337 33.4722 26.0624 32.9252 23.0695C33.7001 23.2822 34.5812 23.9658 34.7331 24.5735C35.0522 25.8193 35.6295 27.0195 36.5714 28.4628C37.4829 29.8453 37.6956 31.4709 37.8172 33.0205C37.8324 33.2484 37.8476 33.4762 37.8476 33.7041C37.8628 34.1295 37.8628 34.5701 37.9539 34.9955C38.0906 35.6791 38.3337 36.697 38.7287 37.6541C39.2453 38.8543 39.5491 40.0545 39.6555 41.3155C39.6707 41.4674 39.6554 41.4826 39.5643 41.5282C36.8145 43.0778 34.3989 43.7767 31.9529 43.7311C30.2362 43.7007 28.7018 44.0045 27.2433 44.6882C25.6025 45.4478 23.977 45.2047 22.1235 43.883ZM25.0252 4.35253C24.8733 4.30695 24.7062 4.29176 24.5543 4.29176C24.0529 4.29176 23.506 4.48926 22.9743 4.85388C22.0019 5.53753 21.1816 5.53753 20.2093 4.83868C19.5256 4.35253 18.8419 4.18541 18.2039 4.33734C17.5506 4.48926 17.0037 4.99061 16.5935 5.76542C16.2896 6.32753 16.1681 6.92004 16.1377 7.49734C16.1073 6.996 16.1377 6.49465 16.2593 5.9933C16.6391 4.51965 17.6114 3.51695 19.1458 3.00041C20.7258 2.46868 22.3514 2.45349 23.9921 2.97003C25.9975 3.6081 27.137 5.21849 27.0458 7.29984C27.0458 7.42138 27.0306 7.54292 27.0154 7.66446C27.0002 7.37581 27.0002 7.08715 26.9699 6.7985C26.9395 6.43388 26.7723 6.09965 26.6204 5.78061C26.2254 5.02099 25.6785 4.50445 25.0252 4.35253ZM17.4898 11.1891C18.0216 10.6877 18.295 9.94331 18.2798 9.01658V8.68235C18.2798 8.28735 18.2798 7.89235 18.295 7.49734C18.295 7.34542 18.3406 7.17831 18.4014 6.9808C18.5685 6.50984 18.6596 6.44907 18.6748 6.44907C18.7052 6.44907 18.8419 6.46426 19.2066 6.70734C20.8169 7.77081 22.4425 7.77081 24.0529 6.69215C24.4479 6.43388 24.5695 6.44907 24.5695 6.44907C24.5695 6.44907 24.6758 6.50984 24.8125 6.95042C24.9037 7.26946 24.9341 7.61888 24.9645 7.89234C24.9796 7.9835 24.9797 8.07465 24.9948 8.15061C24.8581 9.68504 25.1923 10.7637 26.1039 11.6145C26.2102 14.5466 25.6329 16.5976 24.2048 18.2687C23.4148 19.1803 22.5337 19.6664 21.6525 19.6816C21.6525 19.6816 21.6525 19.6816 21.6373 19.6816C20.7562 19.6816 19.8598 19.1954 19.0394 18.2687C17.976 17.0533 17.3835 15.4733 17.1708 13.316C17.1556 13.0881 17.1404 12.8602 17.1404 12.6172V12.5412C17.11 11.8879 17.1252 11.5385 17.4898 11.1891ZM16.3656 23.7683C16.5327 24.1481 16.6998 24.5128 16.8821 24.8622C16.6694 24.5128 16.5023 24.1481 16.3656 23.7683ZM7.25019 47.8634C7.91865 47.438 8.46557 47.043 8.55672 46.4657C8.63268 45.9492 8.34404 45.4782 7.75154 44.7794C7.17423 44.0805 6.53615 43.4272 5.92846 42.8043C5.62461 42.4853 5.29037 42.1511 4.98652 41.8168C3.89267 40.6318 2.99633 39.2797 2.31267 37.7909C2.14556 37.4263 2.16076 37.1832 2.35826 36.9249C2.49499 36.7426 2.63172 36.5451 2.73807 36.3476C2.84441 36.1957 2.93557 36.0438 3.04191 35.8918C3.83192 34.7828 4.37883 33.5978 4.66749 32.3672C4.91056 31.3189 5.4119 30.4226 6.2171 29.587C6.32344 29.4807 6.4146 29.3743 6.50576 29.268C6.58172 29.1768 6.65768 29.1009 6.73364 29.0097C7.78191 27.9007 8.37441 26.7005 8.57191 25.3483C8.72383 24.3153 9.24038 23.6316 10.2887 23.1606C9.74173 26.4574 10.1671 29.6022 10.6077 32.0026C10.6381 32.1393 10.6229 32.2001 10.6229 32.2001C10.0911 34.0687 9.31634 35.4209 8.1921 36.4388C8.05537 36.5603 7.88826 36.6666 7.70596 36.7882C7.38692 36.3476 6.88556 36.2261 6.36902 36.4539C6.09556 36.5755 5.89807 36.7882 5.80691 37.0464C5.71576 37.3047 5.74615 37.5934 5.86769 37.8516L5.88287 37.882C6.90076 39.9026 7.94903 41.9991 10.1671 43.1842C10.9267 43.5943 11.504 44.1565 11.9142 44.9009C12.0054 45.0528 12.0206 45.1744 12.0206 45.2199C11.9446 46.5265 11.8383 47.8938 11.7319 49.2763C11.7319 49.2915 11.7167 49.3067 11.7015 49.3219C10.4254 49.9296 8.2073 50.0815 7.18941 48.0305C7.17422 47.9849 7.15904 47.9546 7.14385 47.9394C7.17423 47.909 7.20461 47.8938 7.25019 47.8634ZM11.9294 41.7561C10.3039 40.7534 9.33154 39.7963 8.76942 38.672C9.86327 37.958 10.6685 36.9857 11.2913 36.0134L11.9294 41.7561Z" fill="#F3F3F3"/>
</svg>
