<svg width="54" height="47" viewBox="0 0 54 47" fill="none" xmlns="http://www.w3.org/2000/svg">
<path d="M0 5.07206C0.026456 4.99269 0.06614 4.91332 0.0925959 4.83395C0.661399 2.1619 2.65882 0.495177 5.39701 0.481949C10.0665 0.455493 14.736 0.468721 19.4054 0.481949C20.0933 0.481949 20.543 0.786192 20.6489 1.31531C20.7547 1.81797 20.4901 2.36032 20.0139 2.50583C19.7494 2.5852 19.4584 2.5852 19.1806 2.5852C14.7492 2.5852 10.331 2.5852 5.89968 2.5852C5.74094 2.5852 5.58221 2.5852 5.42347 2.5852C3.42605 2.61165 2.10325 3.93445 2.10325 5.9451C2.10325 13.3792 2.10325 20.8001 2.10325 28.2342C2.10325 28.6443 2.09002 29.0411 2.10325 29.4512C2.15616 31.0915 3.43927 32.4011 5.07954 32.5069C5.29119 32.5201 5.50284 32.5201 5.71449 32.5201C13.7968 32.5201 21.8658 32.5201 29.9481 32.5333C30.4243 32.5333 30.636 32.4275 30.755 31.9248C32.4879 24.6098 40.3586 20.8001 47.1974 23.9484C47.3165 24.0013 47.4487 24.0542 47.6339 24.1203C47.6339 23.8955 47.6339 23.7235 47.6339 23.5515C47.6339 17.718 47.6339 11.8845 47.6339 6.06416C47.6339 3.88154 46.3376 2.5852 44.1682 2.5852C39.3797 2.5852 34.5779 2.5852 29.7894 2.5852C29.6307 2.5852 29.4719 2.5852 29.3132 2.5852C28.546 2.57197 28.0565 2.1619 28.0698 1.52696C28.0698 0.892017 28.5592 0.481949 29.3264 0.481949C32.4482 0.481949 35.5833 0.481949 38.7051 0.481949C40.5173 0.481949 42.3163 0.481949 44.1285 0.481949C47.5149 0.481949 49.7504 2.71748 49.7504 6.09061C49.7504 12.4004 49.7504 18.6969 49.7372 25.0066C49.7372 25.4035 49.8562 25.668 50.1473 25.9458C53.613 29.3189 54.83 33.3799 53.4146 38.0097C52.0124 42.5866 48.798 45.3777 44.0756 46.1714C37.6468 47.2428 31.7736 42.9834 30.6228 36.5546C30.5169 35.9594 30.4905 35.3377 30.4243 34.6498C30.2259 34.6366 30.0143 34.6234 29.7894 34.6234C21.7336 34.6234 13.6645 34.6101 5.60866 34.6234C3.4525 34.6234 1.78578 33.7768 0.71431 31.9116C0.396839 31.3428 0.251332 30.6814 0.0264561 30.0597C1.00527e-07 21.7261 0 13.3925 0 5.07206ZM32.5408 34.5572C32.5276 39.8749 36.8399 44.2136 42.1576 44.2269C47.4487 44.2533 51.8272 39.9145 51.8404 34.6101C51.8537 29.266 47.5149 24.914 42.184 24.914C36.8664 24.914 32.5408 29.2263 32.5408 34.5572Z" fill="#F3F3F3"/>
<path d="M14.1009 7.63821C19.5376 7.62499 23.9955 12.0696 24.0087 17.4931C24.0219 22.9694 19.617 27.414 14.1406 27.4405C8.67748 27.4669 4.20642 23.0356 4.20642 17.5724C4.20642 12.1093 8.63779 7.65144 14.1009 7.63821ZM20.5959 21.8054C22.5536 19.054 22.4743 14.5432 19.2731 11.7124C16.1381 8.96101 11.4554 9.13297 8.55842 12.096C5.54245 15.1782 5.93929 19.5698 7.67215 21.8054C8.33355 20.39 9.40501 19.4111 10.8733 18.8159C10.1855 17.7047 10.1987 16.501 10.3177 15.3104C10.5029 13.3527 12.1697 11.8976 14.1406 11.8976C16.0984 11.9108 17.7386 13.3659 17.9371 15.2972C18.0561 16.5142 18.0693 17.7179 17.3947 18.8026C19.1408 19.6757 19.6435 20.1386 20.5959 21.8054ZM14.1539 20.5355C14.1539 20.5487 14.1539 20.5619 14.1539 20.5752C13.6777 20.5752 13.2014 20.5619 12.7385 20.5752C11.1776 20.6281 9.89445 21.607 9.4447 23.062C9.32565 23.4589 9.36533 23.7234 9.74894 23.988C12.3549 25.7738 15.9661 25.7738 18.5588 23.9615C18.8762 23.7499 18.9688 23.525 18.863 23.1811C18.4397 21.8318 17.5667 20.9323 16.1645 20.6678C15.4899 20.5487 14.8153 20.5752 14.1539 20.5355ZM15.8867 16.2099C15.8735 16.2099 15.8603 16.2099 15.847 16.2099C15.847 15.9983 15.8603 15.7866 15.847 15.575C15.7412 14.6358 15.0401 13.9876 14.1274 13.9876C13.2147 13.9876 12.4739 14.6226 12.3945 15.5618C12.3549 16.0512 12.3549 16.5539 12.421 17.0301C12.5268 17.8767 13.2544 18.4587 14.1142 18.4587C14.974 18.4587 15.6883 17.8767 15.8206 17.0433C15.8603 16.7787 15.8603 16.4877 15.8867 16.2099Z" fill="#F3F3F3"/>
<path d="M35.8611 15.7339C33.1229 15.7339 30.3847 15.7339 27.6465 15.7339C26.6015 15.7339 26.2708 15.3899 26.2708 14.3449C26.2708 13.128 26.2575 11.9242 26.2708 10.7072C26.2708 9.80773 26.6676 9.41089 27.5539 9.41089C33.0964 9.41089 38.6389 9.41089 44.1815 9.41089C45.0545 9.41089 45.4381 9.7945 45.4381 10.6675C45.4513 11.9242 45.4513 13.1941 45.4381 14.4507C45.4381 15.3767 45.081 15.7339 44.1682 15.7339C41.4036 15.7471 38.6257 15.7339 35.8611 15.7339ZM28.4005 13.6042C33.4006 13.6042 38.3347 13.6042 43.3084 13.6042C43.3084 12.9163 43.3084 12.2549 43.3084 11.567C38.3215 11.567 33.3742 11.567 28.4005 11.567C28.4005 12.2549 28.4005 12.9031 28.4005 13.6042Z" fill="#F3F3F3"/>
<path d="M35.8214 20.7075C33.1361 20.7075 30.4508 20.7075 27.7655 20.7075C27.5539 20.7075 27.3422 20.7075 27.1306 20.681C26.6676 20.6017 26.3237 20.2181 26.284 19.7419C26.2443 19.2656 26.5353 18.8159 26.9851 18.6836C27.1967 18.6175 27.4348 18.6042 27.6597 18.6042C33.1229 18.6042 38.586 18.6042 44.0359 18.6042C44.2476 18.6042 44.4592 18.6175 44.6577 18.6572C45.1471 18.7762 45.4513 19.1995 45.4249 19.7154C45.3984 20.2181 45.0545 20.6149 44.5518 20.681C44.3402 20.7075 44.1285 20.7075 43.9169 20.7075C41.2184 20.7075 38.5199 20.7075 35.8214 20.7075Z" fill="#F3F3F3"/>
<path d="M29.1545 23.5515C29.6836 23.5515 30.2127 23.5383 30.7286 23.5515C31.4561 23.5648 31.9191 23.9748 31.9191 24.6098C31.9191 25.2183 31.4826 25.6416 30.7815 25.6548C29.6571 25.668 28.5327 25.668 27.4084 25.6548C26.7073 25.6416 26.2708 25.205 26.2708 24.6098C26.2708 24.0013 26.7205 23.5912 27.4216 23.5648C27.4613 23.5648 27.4877 23.5648 27.5274 23.5648C28.0698 23.5515 28.6121 23.5515 29.1545 23.5515Z" fill="#F3F3F3"/>
<path d="M25.3978 1.54018C25.3978 2.12221 24.948 2.57196 24.366 2.57196C23.784 2.57196 23.321 2.12221 23.3077 1.55341C23.2945 0.97138 23.8104 0.468717 24.3792 0.481945C24.948 0.495173 25.411 0.958152 25.3978 1.54018Z" fill="#F3F3F3"/>
<path d="M42.1973 38.6579C41.4962 39.1606 40.8215 39.6633 40.1469 40.1527C39.3665 40.7083 38.586 40.7347 37.8982 40.2453C37.2368 39.7691 37.0251 38.9886 37.3161 38.0759C37.5278 37.3881 37.7527 36.7002 37.9908 36.0256C38.0834 35.761 38.0304 35.6023 37.8056 35.4568C37.1971 35.0335 36.6018 34.597 36.0066 34.1604C35.2658 33.6181 35.0012 32.8641 35.2526 32.0969C35.5039 31.3164 36.1521 30.8799 37.078 30.8667C37.8188 30.8667 38.5596 30.8799 39.2871 30.8534C39.4458 30.8402 39.6972 30.6682 39.7501 30.5095C40.0146 29.8084 40.2263 29.0809 40.4644 28.3666C40.7554 27.52 41.3639 27.0702 42.1708 27.057C42.9777 27.057 43.6127 27.5068 43.9037 28.3401C44.155 29.0544 44.3799 29.7687 44.5915 30.4963C44.6709 30.7741 44.8164 30.8799 45.1206 30.8667C45.8746 30.8402 46.6286 30.8534 47.3826 30.8667C48.2424 30.8799 48.8642 31.3164 49.1155 32.0572C49.38 32.7979 49.1552 33.5519 48.4805 34.0678C47.8853 34.5308 47.2768 34.9673 46.6551 35.4039C46.3773 35.5891 46.2979 35.761 46.417 36.0917C46.6815 36.7796 46.8932 37.4807 47.1048 38.195C47.3562 39.0151 47.1181 39.7559 46.5096 40.2188C45.8614 40.7083 45.081 40.7083 44.3534 40.2056C43.6259 39.7162 42.9248 39.1871 42.1973 38.6579ZM39.5781 37.9436C40.2395 37.4674 40.7951 37.0706 41.3374 36.6737C42.0253 36.1711 42.3428 36.1711 43.0438 36.6605C43.5862 37.0574 44.1285 37.441 44.8032 37.9304C44.5518 37.15 44.3402 36.515 44.1418 35.8933C43.8772 35.0599 43.9698 34.7557 44.6973 34.2398C45.2265 33.8562 45.7556 33.4726 46.2847 33.0757C45.5836 32.9699 44.9222 32.9831 44.2608 32.9699C43.4142 32.9699 43.1364 32.7583 42.8719 31.9778C42.6602 31.3296 42.4486 30.6815 42.2105 29.9936C42.1443 30.073 42.1179 30.0994 42.1047 30.1391C41.9062 30.7344 41.7078 31.3429 41.5226 31.9381C41.2581 32.7583 40.9803 32.9699 40.1072 32.9699C39.4458 32.9699 38.7977 32.9699 38.1363 32.9699C38.6786 33.4858 39.2342 33.8959 39.803 34.3059C40.3718 34.7292 40.4908 35.0864 40.2792 35.761C40.0543 36.4489 39.8294 37.1235 39.5781 37.9436Z" fill="#F3F3F3"/>
</svg>
