<svg width="34" height="37" viewBox="0 0 34 37" fill="none" xmlns="http://www.w3.org/2000/svg">
<circle cx="16.5" cy="20.5" r="16.5" fill="#585858"/>
<path d="M20.4418 0.798035C20.6077 0.976921 20.8285 1.1284 20.9323 1.33758C22.3346 4.2041 23.7238 7.07783 25.1059 9.95588C25.2285 10.2127 25.3627 10.3238 25.6656 10.318C26.8601 10.2963 28.0546 10.3079 29.2506 10.3093C29.9171 10.3093 30.1277 10.5257 30.1277 11.198C30.1277 12.3189 30.171 13.4427 30.106 14.5608C30.0801 15.0109 30.2316 15.2677 30.523 15.5447C31.1375 16.1304 31.7232 16.7449 32.3292 17.3407C33.4299 18.4242 33.994 19.7297 33.994 21.2777C33.994 22.1043 34.0704 22.954 33.6795 23.7143C33.4155 24.2279 33.0317 24.6794 32.7129 25.1656C32.6278 25.294 32.534 25.4498 32.5311 25.594C32.5124 26.3384 32.5253 27.0814 32.5225 27.8258C32.508 30.7702 30.2878 32.9876 27.3405 32.9962C25.7161 33.002 24.0917 33.0005 22.4673 32.9962C19.8157 32.989 17.7326 31.2348 17.3344 28.6221C17.2305 27.9441 17.2796 27.243 17.268 26.552C17.2594 26.0615 17.2666 25.571 17.2118 25.0632C17.1699 25.1382 17.1223 25.2103 17.0848 25.2882C16.7588 25.9792 16.4371 26.6717 16.1096 27.3627C15.5672 28.5096 14.6727 29.1833 13.3989 29.2511C12.9632 29.2742 12.4944 29.1905 12.0789 29.0448C9.83847 28.2557 7.60382 27.4522 5.38216 26.6154C2.62817 25.5782 1.34424 22.7939 2.32956 20.0197C3.08983 17.8803 3.87462 15.7509 4.65653 13.6187C5.34755 11.7332 6.59975 10.3367 8.39583 9.44375C8.76803 9.25909 8.95413 9.04847 9.07964 8.61135C9.43597 7.37789 9.91059 6.17762 10.3593 4.97302C10.5107 4.56764 10.8339 4.46954 11.2984 4.63833C12.5376 5.08555 13.7797 5.52988 15.0118 5.99585C15.2613 6.08962 15.3955 6.04778 15.5657 5.85159C16.9088 4.31085 18.2606 2.77877 19.6166 1.24958C19.7667 1.08079 19.9586 0.949512 20.1317 0.799478C20.237 0.799478 20.3409 0.799478 20.4462 0.799478L20.4418 0.798035ZM3.20812 21.8028C3.24563 23.4633 4.23528 24.8597 5.84526 25.4498C8.00633 26.2418 10.1703 27.0251 12.3328 27.8128C13.572 28.2644 14.4708 27.8922 15.032 26.6948C15.6667 25.3401 16.287 23.9783 16.942 22.6323C17.1685 22.1678 17.2796 21.709 17.2695 21.1897C17.2349 19.4008 17.7585 17.7879 18.865 16.3684C18.9328 16.2804 18.9776 16.1058 18.9372 16.0135C18.539 15.0801 18.125 14.1554 17.7023 13.2336C17.6734 13.1701 17.5407 13.1398 17.4513 13.1225C17.1353 13.0619 16.8021 13.0604 16.5035 12.9551C14.4434 12.2223 12.3905 11.4721 10.3376 10.719C10.1054 10.6339 9.89618 10.4853 9.66969 10.38C9.58746 10.3425 9.46772 10.3079 9.39558 10.3396C7.83032 11.0465 6.58677 12.1054 5.96499 13.7442C5.0922 16.0424 4.26412 18.3563 3.43605 20.6718C3.30765 21.031 3.28025 21.4248 3.20668 21.8028H3.20812ZM31.3424 26.0341C30.3426 26.363 29.4424 26.3687 28.5451 26.262C28.1614 26.2158 27.769 26.0831 27.4242 25.9042C26.537 25.4411 25.8185 24.3548 26.0479 23.0103C26.234 21.911 26.8803 21.1594 27.9435 20.7886C28.6129 20.5549 29.3097 20.6126 29.9978 20.64C30.1464 20.6458 30.3614 20.7396 30.422 20.8564C30.5172 21.0425 30.5677 21.295 30.5259 21.4955C30.4739 21.7465 30.2359 21.8648 29.9704 21.8735C29.5001 21.8894 29.0241 21.8648 28.5595 21.9269C27.7964 22.0279 27.228 22.7463 27.2568 23.5022C27.2871 24.2899 27.8599 24.9391 28.6273 25.0184C29.0111 25.0574 29.402 25.0617 29.7887 25.0487C31.2602 24.9997 32.3248 24.1961 32.6408 22.8184C32.7605 22.2976 32.7273 21.7364 32.7288 21.1926C32.7302 20.0327 32.2801 19.0589 31.4578 18.2481C30.8014 17.6004 30.1522 16.9455 29.4987 16.2934C29.4338 16.2285 29.3616 16.1693 29.2938 16.1073C29.2938 16.1376 29.291 16.1664 29.291 16.1967C28.8928 16.2515 28.4946 16.3511 28.0965 16.354C25.9585 16.3698 23.8205 16.3626 21.6811 16.3597C21.4935 16.3597 21.2786 16.3944 21.1213 16.3193C20.7434 16.1405 20.5443 16.3439 20.3423 16.5978C20.3091 16.6382 20.2716 16.6742 20.2355 16.7132C19.1911 17.85 18.565 19.1758 18.5462 20.7324C18.5174 23.143 18.4827 25.5551 18.5405 27.9643C18.5938 30.2076 20.25 31.7382 22.4875 31.7426C24.1436 31.7454 25.7998 31.7541 27.4559 31.7397C29.1582 31.7253 30.6802 30.6433 31.0726 29.0131C31.2962 28.0826 31.2573 27.0886 31.3438 26.0369L31.3424 26.0341ZM16.6102 6.55559C16.753 6.6133 16.8655 6.6609 16.981 6.70274C17.8552 7.02156 18.7309 7.3375 19.6051 7.65632C20.1937 7.87127 20.325 8.15547 20.1086 8.7484C19.8042 9.58368 19.4984 10.419 19.194 11.2543C19.0454 11.6625 18.7655 12.0766 18.7857 12.4762C18.8059 12.883 19.1204 13.2739 19.3065 13.6721C19.4031 13.8784 19.5012 14.0861 19.5979 14.2924C19.6628 13.2307 19.6614 12.1934 19.6628 11.1576C19.6628 10.5257 19.8806 10.3093 20.5111 10.3079C21.5065 10.3064 22.5019 10.3079 23.4973 10.3079C23.607 10.3079 23.7166 10.3079 23.8854 10.3079C22.6217 7.69672 21.3868 5.14469 20.1317 2.55372C18.9357 3.91268 17.7816 5.22404 16.6088 6.55559H16.6102ZM10.5872 8.00256C10.4934 8.24925 10.4098 8.46275 10.3333 8.67771C10.1703 9.13647 10.2727 9.35863 10.7344 9.52742C12.8074 10.2848 14.8819 11.0393 16.9564 11.7924C17.4166 11.9597 17.6345 11.8558 17.8047 11.3927C18.1033 10.5777 18.3991 9.76113 18.6948 8.9446C18.7222 8.86958 18.7395 8.79023 18.7669 8.69213C16.2755 7.78616 13.8043 6.8874 11.3143 5.98287C11.2061 6.28726 11.1138 6.54694 11.0185 6.81382C11.1686 6.87153 11.2854 6.91769 11.4023 6.96097C12.5131 7.36491 13.6254 7.76452 14.7348 8.17423C15.1632 8.33292 15.3392 8.66905 15.2051 9.03115C15.0839 9.36007 14.7391 9.49424 14.3395 9.36584C14.2803 9.34709 14.2212 9.32401 14.1621 9.30237C12.9834 8.87391 11.8033 8.44689 10.5872 8.00544V8.00256ZM28.8466 13.9606C28.7067 13.9606 28.5826 13.9606 28.46 13.9606C27.4444 13.9606 26.4273 13.9664 25.4117 13.9563C25.0107 13.952 24.7495 13.7053 24.7351 13.3576C24.7207 13.0244 24.9818 12.7546 25.3699 12.7099C25.4637 12.6983 25.5589 12.7027 25.6526 12.7027C26.6062 12.7027 27.5598 12.7027 28.5134 12.7027C28.6245 12.7027 28.7356 12.6926 28.8553 12.6868V11.5947H20.9237C20.9237 12.5324 20.9237 13.4427 20.9237 14.353C20.9237 14.9705 21.0578 15.1018 21.6868 15.1018C23.7512 15.1018 25.8142 15.0917 27.8786 15.1075C28.7413 15.1147 28.9447 15.0311 28.8495 13.9621L28.8466 13.9606Z" fill="white"/>
<path d="M4.489 21.7826C4.54093 21.5272 4.57555 21.2675 4.64913 21.0194C4.75444 20.6587 5.06461 20.4799 5.39498 20.5592C5.7138 20.6357 5.89412 20.917 5.85228 21.2791C5.84218 21.3613 5.81766 21.4421 5.80035 21.5243C5.66618 22.1822 5.96337 22.7693 6.58226 23.0362C6.87945 23.1646 7.19105 23.2598 7.494 23.3767C7.90227 23.5354 8.08115 23.8571 7.96286 24.2062C7.84456 24.5539 7.49112 24.7097 7.0843 24.5611C6.38029 24.3043 5.63879 24.1153 5.12809 23.4935C4.71839 22.9958 4.5092 22.4332 4.489 21.7826Z" fill="white"/>
<path d="M8.99009 24.7746C9.00884 24.4327 9.29305 24.1759 9.63496 24.1932C9.98407 24.2105 10.2697 24.5207 10.2423 24.8554C10.2163 25.1944 9.91626 25.4642 9.59023 25.4425C9.2339 25.4194 8.96989 25.1251 8.98864 24.7746H8.99009Z" fill="white"/>
<path d="M22.7646 12.7213C23.1036 12.7141 23.3907 12.9868 23.3979 13.3258C23.4051 13.6634 23.1296 13.949 22.7891 13.9548C22.4501 13.9606 22.1601 13.685 22.1515 13.3518C22.1428 13.02 22.4256 12.73 22.7646 12.7213Z" fill="white"/>
</svg>
