<svg width="33" height="33" viewBox="0 0 33 33" fill="none" xmlns="http://www.w3.org/2000/svg">
<circle cx="16.5" cy="16.5" r="16.5" fill="#585858"/>
<path d="M30.6324 27.9764L30.6307 27.8943C30.5757 24.4731 28.1323 21.395 24.822 20.5753C24.2894 20.4435 23.7508 20.3807 23.1799 20.3143C23.0603 20.3003 22.9398 20.2864 22.8185 20.2715C22.6387 20.2497 22.5034 20.0961 22.5034 19.9145V19.7128C22.5034 19.0127 22.5016 18.3135 22.5007 17.6133C22.4972 15.8857 22.4929 14.0988 22.513 12.3424C22.5199 11.692 22.4536 10.8496 21.8713 10.1049C21.7578 9.96002 21.7692 9.754 21.8984 9.62567L27.3152 4.22112L27.6451 3.89113C27.8494 3.68686 28.0537 3.48258 28.2588 3.27918C28.4308 3.10983 28.6054 2.90293 28.6037 2.65326C28.6028 2.49351 28.5277 2.33987 28.3802 2.19845C27.9131 1.74799 27.488 2.18535 27.3492 2.32852C27.2802 2.39923 27.2104 2.46907 27.1397 2.5389L25.7892 3.88852C24.1506 5.52708 22.4571 7.22238 20.7845 8.88277C20.6073 9.05824 20.4362 9.16387 20.3262 9.16561C19.448 9.17696 18.554 9.15252 17.6889 9.12895L17.2865 9.11847C15.7754 9.07919 14.4703 8.1067 14.0399 6.6986C13.929 6.33632 13.8688 5.90857 13.8601 5.42756C13.8557 5.18924 13.9413 4.92298 14.067 4.77894C14.4135 4.38349 14.7994 4.00637 15.173 3.64234C15.3075 3.51139 15.4419 3.37957 15.5755 3.24688C15.9535 2.87063 15.9893 2.52319 15.6828 2.21416C15.544 2.07449 15.3939 2.00377 15.2368 2.00377C14.988 2.00377 14.7828 2.18099 14.651 2.31455C14.5314 2.43502 14.4118 2.55636 14.2931 2.67858C13.9151 3.06356 13.5249 3.46163 13.1198 3.82653C12.9906 3.94351 12.7453 4.0247 12.6056 3.99764C11.9561 3.87018 11.4184 4.02906 10.9618 4.48475C10.5271 4.91775 10.0897 5.34812 9.6515 5.77762C8.40141 7.00676 7.10941 8.27693 5.90472 9.59075L5.71965 9.79328C5.2788 10.2778 4.86239 10.7352 4.34385 11.1411C3.70745 11.6396 3.14177 12.242 2.59529 12.8242C2.43466 12.9953 2.27316 13.1673 2.11079 13.3358C1.08243 14.4026 1.08156 15.8674 2.10817 16.8975C6.57516 21.3802 11.1268 25.9266 15.5292 30.3238L16.8133 31.6062C17.585 32.377 18.6108 32.8039 19.702 32.8082C20.8657 32.8135 22.1865 32.8187 23.5588 32.8187C24.6884 32.8187 25.8529 32.8152 26.9948 32.8039C28.7372 32.7873 30.1907 31.587 30.5294 29.8838C30.6534 29.2605 30.6429 28.6075 30.6324 27.9764ZM21.0595 12.0351C20.9896 12.111 20.8892 12.1573 20.7853 12.152C20.6125 12.1503 20.4746 12.1643 20.3524 12.1983C20.3017 12.2123 20.2537 12.2332 20.204 12.262C20.0206 12.3685 19.9037 12.5606 19.8897 12.7745C19.8757 12.9971 19.9726 13.2101 20.149 13.3445C20.217 13.396 20.2825 13.4327 20.3515 13.4571C20.4711 13.4982 20.6029 13.5147 20.7827 13.5113C20.8814 13.5095 20.9739 13.5453 21.0446 13.6143C21.1145 13.6824 21.1529 13.7731 21.1529 13.8709V14.3318C21.1529 14.4287 21.1153 14.5187 21.0464 14.5868C20.9757 14.6557 20.8805 14.6933 20.7827 14.6915C20.609 14.6898 20.4728 14.7064 20.3524 14.7448C20.2834 14.7675 20.217 14.8033 20.1498 14.8548C19.9744 14.9874 19.8775 15.1987 19.8897 15.4196C19.9019 15.6343 20.018 15.8281 20.2013 15.9364C20.252 15.966 20.3009 15.9887 20.3524 16.0036C20.4728 16.0402 20.6055 16.0533 20.7836 16.0507C20.8796 16.0472 20.9739 16.0856 21.0437 16.1537C21.1136 16.2218 21.1511 16.3126 21.1511 16.4104V16.8739C21.1511 16.97 21.1136 17.0607 21.0446 17.128C20.9739 17.1969 20.8796 17.2327 20.7801 17.2336C20.6099 17.2319 20.4754 17.2484 20.3567 17.2868C20.2878 17.3095 20.2205 17.3445 20.1524 17.396C19.9761 17.5278 19.8775 17.739 19.8879 17.9608C19.8984 18.1755 20.0136 18.3693 20.1961 18.4785C20.2459 18.5081 20.2956 18.5308 20.3454 18.5457C20.4667 18.5823 20.6003 18.5972 20.7801 18.5937C20.8805 18.5893 20.9704 18.6286 21.0403 18.6967C21.1101 18.7648 21.1485 18.8556 21.1485 18.9533V19.9503C21.1485 20.0498 21.1083 20.1432 21.0359 20.2113C20.9634 20.2803 20.8683 20.3161 20.7679 20.3091C20.4074 20.289 20.1097 20.2663 19.8242 20.1869C19.2873 20.0367 18.9643 19.6124 18.96 19.0511C18.9416 16.9228 18.9443 14.7509 18.9469 12.6496C18.9469 12.0386 18.9486 11.4266 18.9486 10.8129C18.9486 10.6174 19.1084 10.455 19.3048 10.4524C20.5488 10.4323 21.0638 10.8007 21.1511 11.7618C21.1599 11.8631 21.1276 11.96 21.0577 12.0342L21.0595 12.0351ZM10.3403 14.0254C10.2827 14.111 10.1901 14.166 10.0862 14.1765C9.97712 14.1869 9.87061 14.1494 9.79292 14.0726L9.25692 13.5401C8.44855 12.7361 7.61224 11.905 6.79602 11.0818C6.6223 10.9063 6.57079 10.7256 6.88506 10.4096C7.42892 9.86312 7.95794 9.32537 8.51751 8.75532L8.844 8.42359C8.91471 8.35201 9.00899 8.31534 9.1024 8.31534C9.19057 8.31534 9.27787 8.34764 9.34596 8.41137C11.0273 10.0115 11.4455 12.372 10.3403 14.0254ZM7.51622 13.664C8.51839 14.6618 9.55547 15.6946 10.5463 16.7351C10.7733 16.9735 10.9409 17.4073 10.9959 17.8971C11.0535 18.4139 11.0395 18.9525 11.0264 19.4728C11.0221 19.6613 11.0168 19.8499 11.0151 20.0376C11.0081 20.8232 11.2778 21.4954 11.8165 22.0349L12.837 23.0572C14.9155 25.1401 17.0656 27.2946 19.1992 29.3941C19.4445 29.6359 19.8801 29.7467 20.2031 29.7494C22.3672 29.7677 24.5671 29.7659 26.6954 29.7642C27.3283 29.7642 27.9603 29.7633 28.5932 29.7633H28.6761C28.8044 29.7633 28.9205 29.8288 28.9869 29.9397C29.0515 30.0479 29.0559 30.178 28.9974 30.288C28.636 30.968 27.8154 31.4831 27.0873 31.4874C26.6814 31.4901 26.2746 31.4927 25.8686 31.4953C23.7482 31.5101 21.5562 31.5259 19.4043 31.4569C18.9032 31.4412 18.2424 31.1356 17.8321 30.7314C13.373 26.3273 8.87106 21.8167 4.51844 17.4553L3.12169 16.056C2.51148 15.4449 2.50799 14.8198 3.11121 14.1974C3.4604 13.8369 3.82356 13.4772 4.17362 13.1289C4.50273 12.8024 4.84318 12.4637 5.17317 12.1259C5.31983 11.9757 5.4499 11.9024 5.57124 11.9024H5.57211C5.69608 11.9024 5.83226 11.9792 5.98852 12.1363C6.49659 12.6488 7.01601 13.1664 7.51884 13.6675L7.51622 13.664ZM26.9459 28.446C24.8586 28.4486 22.6998 28.4504 20.5776 28.4277C20.3008 28.4251 19.9473 28.2801 19.7552 28.0925C18.4589 26.8188 17.1521 25.5128 15.888 24.2496C14.9277 23.2903 13.9343 22.2977 12.9522 21.3261C12.4817 20.8608 12.2844 20.3772 12.3298 19.8045C12.3411 19.6648 12.3376 19.5251 12.3341 19.3898C12.3315 19.2685 12.328 19.1541 12.335 19.0398C12.4075 17.856 12.3926 16.5143 11.3058 15.5732C11.1696 15.4554 11.1408 15.2537 11.2394 15.1036C12.8701 12.6121 12.5201 9.61694 10.3481 7.47205C10.2093 7.335 10.2085 7.1089 10.3464 6.96748L10.5533 6.75535C10.9985 6.29791 11.4594 5.82476 11.9361 5.38828C12.0574 5.27741 12.1822 5.23638 12.2879 5.27392C12.4162 5.31931 12.5113 5.47208 12.5428 5.68247C12.562 5.81167 12.5777 5.94174 12.5934 6.07268C12.6309 6.38346 12.6685 6.70559 12.7601 7.01287C13.3564 9.01721 14.8876 10.166 17.3118 10.4288C17.4925 10.448 17.6278 10.6016 17.6278 10.7858V13.3271C17.6278 14.9394 17.6261 16.5527 17.6278 18.1651C17.6296 20.0777 19.1852 21.6334 21.0953 21.6325H21.4121C22.2615 21.6299 23.138 21.6273 23.9752 21.7538C27.0445 22.2165 29.2854 24.8773 29.3047 28.0811C29.3047 28.178 29.268 28.2697 29.199 28.3386C29.1309 28.4067 29.0401 28.4451 28.9432 28.4451H28.8367C28.2065 28.4451 27.5762 28.4451 26.9459 28.446Z" fill="#F3F3F3"/>
<path d="M0.460738 22.5692C0.525338 22.5998 0.589064 22.6163 0.651045 22.619C1.27347 22.6425 1.89852 22.6547 2.52269 22.6547C3.14686 22.6547 3.77802 22.6425 4.39958 22.6181C4.46068 22.6155 4.52354 22.5989 4.58726 22.5683C4.80463 22.4627 4.94082 22.2427 4.94256 21.9948C4.94431 21.7434 4.80813 21.5181 4.58814 21.4073C4.52528 21.3758 4.46156 21.3558 4.39958 21.3488C3.95785 21.2982 3.5074 21.3078 3.07092 21.3174C2.71649 21.3252 2.36294 21.3243 2.00851 21.3174C1.55719 21.3086 1.09015 21.2982 0.632713 21.3497C0.571605 21.3566 0.508752 21.3758 0.446771 21.4081C0.228528 21.519 0.0949636 21.7442 0.0984555 21.9948C0.101947 22.2445 0.240749 22.4644 0.459865 22.5692H0.460738Z" fill="#F3F3F3"/>
<path d="M8.40731 26.7114C8.75039 26.7167 8.99133 26.6381 9.12664 26.4818C9.22965 26.3631 9.26631 26.2068 9.2375 26.0192C9.19385 25.7407 8.73729 25.4264 8.45008 25.4151C7.19475 25.367 5.93331 25.3679 4.70068 25.4159C4.64045 25.4186 4.57847 25.4351 4.51649 25.4657C4.29562 25.5748 4.16206 25.8 4.16817 26.0532C4.17515 26.3142 4.32443 26.5394 4.55926 26.6416C4.61251 26.6643 4.66576 26.6791 4.71901 26.6852C4.9844 26.7158 5.2524 26.7236 5.51865 26.7236C5.69587 26.7236 5.87221 26.7202 6.04593 26.7158C6.22052 26.7123 6.39511 26.7079 6.56884 26.7079H6.57058C6.75478 26.7079 6.93897 26.7079 7.12317 26.7079C7.54394 26.7079 7.97955 26.7062 8.40644 26.7105L8.40731 26.7114Z" fill="#F3F3F3"/>
<path d="M11.5407 29.4613H11.5355C11.1042 29.463 10.6738 29.4621 10.2426 29.4613H9.69785C9.51453 29.4613 9.33033 29.4578 9.14613 29.4543C8.67822 29.4464 8.19547 29.4377 7.72058 29.484C7.44646 29.5102 7.04315 29.8 6.9899 30.0706C6.94451 30.3002 7.01958 30.4495 7.08942 30.535C7.21775 30.6913 7.44995 30.7768 7.74327 30.7768H7.74502C8.08722 30.7768 8.42943 30.7777 8.7725 30.7795C9.06582 30.7803 9.36263 30.7821 9.66119 30.7821C10.2889 30.7821 10.9244 30.7768 11.552 30.755C11.8392 30.7454 12.2399 30.4259 12.2906 30.1666C12.336 29.937 12.2609 29.7869 12.1902 29.7013C12.0619 29.546 11.8305 29.4604 11.5398 29.4604L11.5407 29.4613Z" fill="#F3F3F3"/>
<path d="M2.79422 25.5504C2.70518 25.4701 2.61875 25.4273 2.52971 25.4203C1.81649 25.3618 1.12772 25.3627 0.48347 25.4229C0.342922 25.436 0.235546 25.5399 0.167455 25.6176C0.047858 25.7529 -0.010631 25.9258 0.00159053 26.1047C0.0138121 26.2802 0.0949988 26.4399 0.228563 26.5534C0.305384 26.6189 0.380459 26.6599 0.458154 26.6809C0.687745 26.7411 0.927812 26.7289 1.16089 26.7167C1.25779 26.7114 1.34596 26.7045 1.43937 26.7071C1.54151 26.7071 1.64888 26.7123 1.75277 26.7175C1.86189 26.7228 1.97276 26.7289 2.08275 26.7289C2.23814 26.7289 2.3944 26.7175 2.54542 26.6791C2.64494 26.6538 2.73748 26.5927 2.83525 26.4871C2.95659 26.3561 3.01857 26.1868 3.00984 26.0087C3.00199 25.8324 2.92516 25.67 2.79335 25.5521L2.79422 25.5504Z" fill="#F3F3F3"/>
<path d="M5.6122 29.4927C4.91382 29.4368 4.20497 29.436 3.50485 29.4927C3.25693 29.5128 2.9252 29.8681 2.92432 30.1169C2.92258 30.3674 3.2351 30.6826 3.47866 30.7446C3.6227 30.7812 3.77023 30.7917 3.91776 30.7917C4.02077 30.7917 4.12378 30.7865 4.22592 30.7812C4.32282 30.776 4.42321 30.7716 4.51924 30.7716C4.62225 30.7716 4.72875 30.7769 4.83263 30.7812C5.09453 30.7934 5.36515 30.8057 5.62529 30.7463C5.86448 30.6913 6.18661 30.3744 6.18836 30.1247C6.1901 29.8794 5.85663 29.5137 5.61307 29.4945L5.6122 29.4927Z" fill="#F3F3F3"/>
<path d="M5.15927 14.3964C5.08332 14.4602 4.99602 14.5483 4.98991 14.6688C4.97856 14.9124 5.05102 15.2432 5.23609 15.4353C6.02176 16.248 6.83537 17.059 7.62192 17.8438C7.92745 18.1485 8.23212 18.4531 8.53679 18.7578C8.64242 18.8634 8.8659 19.0878 9.14176 19.0878C9.2727 19.0878 9.41499 19.0371 9.56253 18.9001C9.71355 18.7595 9.79212 18.6059 9.79474 18.4444C9.7991 18.1912 9.61927 17.9791 9.46213 17.822C9.07716 17.4379 8.69218 17.0538 8.30807 16.6688C7.60096 15.9617 6.87029 15.231 6.1466 14.516C6.07501 14.4453 5.9947 14.3903 5.93359 14.3502C5.69353 14.1957 5.37577 14.214 5.15927 14.3956V14.3964Z" fill="#F3F3F3"/>
</svg>
