<svg width="33" height="36" viewBox="0 0 33 36" fill="none" xmlns="http://www.w3.org/2000/svg">
<circle cx="16.5" cy="19.5" r="16.5" fill="#585858"/>
<path d="M31 12.0488C30.8583 12.7825 30.3744 13.2006 29.7361 13.533C28.5619 14.1446 27.399 14.7829 26.2571 15.4535C25.0422 16.1689 23.6927 16.4144 22.3432 16.6781C21.4777 16.8479 20.6121 17.0204 19.7494 17.2056C19.6091 17.2351 19.4632 17.3094 19.3552 17.4048C18.4139 18.2269 17.4782 19.0545 16.5468 19.8878C15.9632 20.4096 15.9239 21.0676 16.4499 21.6526C17.4782 22.7987 18.5149 23.9377 19.5474 25.0796C19.6147 25.154 19.6877 25.2255 19.748 25.3055C19.9444 25.5608 19.9528 25.8203 19.7185 26.0532C19.5039 26.2678 19.2261 26.2496 18.9834 25.9985C18.686 25.6913 18.4041 25.3686 18.1586 25.1007C17.5778 25.631 17.0125 26.1472 16.4135 26.6943C16.9199 27.0366 17.3758 27.3452 17.8331 27.6538C18.7113 28.2472 19.5867 28.8462 20.469 29.4326C21.0568 29.824 21.6348 29.7426 22.0809 29.1927C23.3589 27.6131 24.627 26.0251 25.898 24.44C25.9358 24.3923 25.9653 24.3375 26.0116 24.2674C25.7184 24.0331 25.4336 23.8059 25.1236 23.559C24.4138 24.3418 23.7194 25.1063 23.0264 25.8708C22.4919 26.46 21.9602 27.052 21.4257 27.6398C21.1312 27.9624 20.8548 28.0087 20.6079 27.7885C20.3694 27.5753 20.3765 27.2512 20.6472 26.9524C22.433 24.9758 24.216 22.9979 26.0102 21.0297C26.6302 20.3493 27.5252 20.2862 28.1775 20.8459C28.8256 21.4014 28.921 22.3189 28.3613 23.0231C26.5222 25.3336 24.6761 27.6398 22.8146 29.932C22.0865 30.827 20.8969 30.9687 19.9177 30.3164C18.5009 29.3709 17.0924 28.4127 15.6798 27.4602C15.5774 27.3915 15.4708 27.327 15.2996 27.2204C15.1551 28.8224 15.0163 30.3697 14.8718 31.9661C15.7163 32.0699 16.5496 32.1737 17.3842 32.2733C19.3257 32.5048 21.2687 32.7306 23.2102 32.9691C23.8681 33.0505 24.3492 33.5485 24.4278 34.1854C24.5064 34.8293 24.1655 35.4072 23.551 35.6681C23.4823 35.6976 23.415 35.7299 23.3476 35.7593H13.3469C13.2656 35.7313 13.1842 35.7018 13.1014 35.678C12.0423 35.3736 11.3788 34.6834 11.101 33.6214C11.0631 33.4769 11.0337 33.3296 11 33.1837C11 29.2446 11 25.3055 11 21.365C11.122 19.7363 11.397 18.1385 11.9693 16.601C11.996 16.528 11.9553 16.406 11.9062 16.3316C11.3675 15.5068 11.3731 14.9723 11.909 14.1306C12.01 13.9707 12.104 13.7631 12.0942 13.5835C12.0423 12.6647 11.9553 11.7458 11.8796 10.8284C11.6341 7.83476 11.404 4.83973 11.1305 1.84892C11.0505 0.96935 11.3114 0.352108 12.1349 0H12.7409C13.3118 0.207618 13.7243 0.559726 13.8141 1.19661C14.1381 3.46918 14.4636 5.74315 14.7806 8.01713C14.8395 8.44358 14.6796 8.69188 14.3569 8.73116C14.0273 8.77184 13.8154 8.57685 13.7551 8.156C13.5657 6.83174 13.3834 5.50748 13.1968 4.18321C13.0663 3.25875 12.9485 2.33149 12.7928 1.41124C12.7704 1.27797 12.5627 1.17556 12.4393 1.05913C12.3397 1.1952 12.2162 1.32146 12.1503 1.47156C12.1096 1.56274 12.1587 1.69461 12.1671 1.80683C12.4407 5.15256 12.7142 8.49829 12.9892 11.8454C13.0215 12.2438 13.0607 12.6408 13.1028 13.1009C13.5938 12.8218 14.0273 12.5763 14.4103 12.3575C14.3037 11.7725 14.197 11.2436 14.1157 10.7105C14.061 10.3584 14.2433 10.1059 14.5407 10.0638C14.8507 10.0204 15.0794 10.2013 15.1411 10.5534C15.1888 10.827 15.207 11.1061 15.2589 11.3783C15.3487 11.8482 15.5648 12.2368 16.0698 12.5412C16.0501 12.3406 16.0417 12.2228 16.0263 12.1063C15.8692 10.8634 16.4892 9.74259 17.6227 9.19129C17.7826 9.11413 17.9299 8.97525 18.0379 8.83216C18.8179 7.79688 19.8125 7.23154 21.1452 7.26661C22.4821 7.30309 23.8218 7.27223 25.1601 7.27503C25.8138 7.27503 26.0312 7.62013 25.7478 8.20089C25.5444 8.61613 25.3368 9.02856 25.0955 9.51674C25.3424 9.51674 25.5136 9.51674 25.6847 9.51674C26.3946 9.52095 26.5923 9.8436 26.2795 10.4819C26.0116 11.029 25.7408 11.5747 25.4308 12.2031C25.6356 12.1092 25.7479 12.0615 25.8587 12.0053C26.793 11.534 27.7244 11.0542 28.6629 10.5885C29.6786 10.0835 30.6381 10.5212 30.9341 11.6112C30.9467 11.6574 30.9762 11.6981 30.9986 11.7416V12.0446L31 12.0488ZM14.2433 27.4195C13.5054 27.2793 12.8012 27.146 12.0689 27.0057C12.0689 29.0959 12.0465 31.1006 12.0788 33.1052C12.0942 34.0409 12.8517 34.703 13.8028 34.7058C15.8467 34.71 17.8892 34.7072 19.9332 34.7058C20.03 34.7058 20.1253 34.689 20.2207 34.6806V33.6677C18.4125 33.4531 16.6239 33.2342 14.8353 33.0322C13.8028 32.9144 13.7411 32.8358 13.8435 31.8104C13.9866 30.3683 14.1086 28.9248 14.2447 27.4195H14.2433ZM24.5232 8.33416C23.1835 8.33416 21.9224 8.30751 20.6626 8.34398C19.856 8.36643 19.3159 8.87846 18.8474 9.4943C19.4492 10.1634 20.0257 10.7961 20.5939 11.4386C21.0372 11.9394 21.1789 12.5118 20.9558 13.1585C20.9348 13.2216 20.9306 13.2917 20.9151 13.3843C21.8634 13.2398 22.7725 13.1094 23.6773 12.9523C23.8091 12.9298 23.9649 12.8021 24.0294 12.6801C24.3534 12.0685 24.6523 11.4428 24.9567 10.82C24.9903 10.7498 24.9973 10.6657 25.0254 10.5604C24.7967 10.5604 24.6088 10.5632 24.4194 10.5604C23.8077 10.5506 23.6043 10.2238 23.8695 9.67105C24.0757 9.24319 24.2875 8.81814 24.5232 8.33557V8.33416ZM15.4034 26.0027C16.0838 25.3855 16.7221 24.8061 17.366 24.2211C16.8512 23.6516 16.363 23.089 15.8468 22.556C15.7261 22.4311 15.5072 22.3413 15.3319 22.3371C14.4004 22.3161 13.4676 22.3273 12.5347 22.3273C12.3888 22.3273 12.2429 22.3273 12.0633 22.3273C12.0633 23.5029 12.0591 24.6209 12.0717 25.739C12.0717 25.8175 12.1784 25.9466 12.2555 25.9634C12.9289 26.1065 13.6078 26.23 14.2784 26.359C14.5702 25.652 14.6487 25.6366 15.4034 26.0027ZM19.7227 16.1381C20.7496 15.9318 21.7175 15.706 22.6967 15.5475C23.9971 15.337 25.1966 14.8938 26.3272 14.219C27.3008 13.6396 28.3094 13.1164 29.3026 12.5679C29.4345 12.4949 29.572 12.4276 29.6954 12.3406C29.9339 12.1723 30.0096 11.9436 29.8651 11.6813C29.7291 11.4344 29.506 11.3825 29.2465 11.4681C29.1749 11.4919 29.1104 11.5326 29.0431 11.5677C27.5813 12.3084 26.121 13.0504 24.6593 13.7897C24.5372 13.8515 24.4067 13.916 24.2735 13.937C23.5889 14.0479 22.9029 14.1418 22.2184 14.2457C21.3753 14.3747 20.5336 14.508 19.7213 14.6356V16.1367L19.7227 16.1381ZM18.6243 14.7549C18.3802 14.8573 18.1642 14.912 17.9916 15.0284C17.7223 15.2122 17.4936 15.4577 17.2257 15.6457C16.398 16.2236 15.2982 15.8294 14.9966 14.8657C14.8185 14.2962 14.9952 13.8066 15.3123 13.2931C15.1594 13.2609 15.0065 13.2384 14.8956 13.2973C14.3513 13.5891 13.7902 13.8627 13.2894 14.2204C12.999 14.428 12.7731 14.7591 12.5922 15.0761C12.4449 15.3328 12.5767 15.6106 12.8335 15.7565C14.211 16.5435 15.5956 17.3178 16.9872 18.1034C17.5343 17.6194 18.0646 17.1551 18.5878 16.681C18.6538 16.6206 18.7155 16.5112 18.7127 16.427C18.6959 15.8996 18.6594 15.3735 18.6243 14.7549ZM12.0872 21.2471H15.099C14.9475 20.2189 15.3389 19.4473 16.1736 18.8427C15.064 18.2184 14.0091 17.6265 12.9373 17.0232C12.4323 18.4219 12.1152 19.7952 12.0872 21.2471ZM18.0422 10.1536C17.4277 10.4917 17.0784 10.9645 17.0504 11.642C17.0209 12.3659 17.3253 12.9256 17.9706 13.2525C18.5682 13.5555 19.1714 13.4994 19.7241 13.1094C20.0566 12.8751 20.1394 12.5216 19.8883 12.227C19.2921 11.5284 18.6678 10.8536 18.0422 10.155V10.1536ZM25.825 22.7818C26.1252 23.0203 26.396 23.2363 26.6835 23.465C27.0048 23.0624 27.3064 22.7075 27.5813 22.3343C27.7511 22.1043 27.7328 21.8503 27.5112 21.654C27.2867 21.4562 27.037 21.4716 26.8336 21.682C26.4941 22.0313 26.1729 22.4003 25.825 22.7832V22.7818ZM21.3093 34.7044C21.9111 34.7044 22.4891 34.7226 23.0643 34.689C23.1863 34.682 23.3644 34.4954 23.3911 34.3663C23.4107 34.2723 23.2354 34.0535 23.1218 34.0339C22.5312 33.93 21.9322 33.8725 21.3093 33.7968V34.7044ZM16.5734 13.4727C16.391 13.7098 16.1722 13.9174 16.0586 14.1727C15.9898 14.327 16.0179 14.6104 16.1231 14.7324C16.2059 14.8292 16.5117 14.8362 16.6492 14.7605C16.9157 14.6118 17.1331 14.3761 17.3772 14.1713C17.1051 13.9356 16.8624 13.7238 16.5734 13.4741V13.4727Z" fill="#F3F3F3"/>
</svg>
