<svg width="33" height="39" viewBox="0 0 33 39" fill="none" xmlns="http://www.w3.org/2000/svg">
<circle cx="16.5" cy="22.5" r="16.5" fill="#585858"/>
<path d="M29.4258 35.0549C29.325 35.0374 29.2242 35.039 29.1299 35.0406H18.9218C18.8354 34.4119 18.3971 34.1224 18.0164 33.9385C17.8629 33.8649 17.7093 33.7801 17.5606 33.6986C17.3846 33.601 17.2039 33.5018 17.0167 33.4154C16.852 33.3387 16.8104 33.2651 16.836 33.0811C16.8616 32.8924 16.8744 32.7005 16.8856 32.5149C16.8952 32.3742 16.9048 32.2334 16.9192 32.0942C17.1927 29.5078 17.8389 27.2973 18.8962 25.3363C18.9618 25.2147 19.0369 25.0932 19.1153 24.9652C19.5328 25.5922 20.0862 26.0609 20.8012 26.3936C20.8012 26.3952 20.7996 26.3968 20.798 26.4C20.6828 26.6143 20.5661 26.827 20.4509 27.0414C20.2078 27.4876 19.9646 27.9355 19.7263 28.385C19.6111 28.6009 19.5824 28.8152 19.6399 29.0056C19.6895 29.1687 19.8015 29.2983 19.963 29.3815C20.3149 29.5654 20.7004 29.4183 20.9243 29.0168L20.9915 28.8952C21.3354 28.2778 21.6905 27.6396 22.0168 26.9982C22.1256 26.7839 22.2263 26.7199 22.4711 26.7087C23.5475 26.6639 24.5313 26.1904 25.243 25.3779C25.9756 24.5413 26.3227 23.4633 26.2204 22.3404C26.1324 21.3615 25.6477 20.469 24.856 19.8276C24.0194 19.1494 22.9205 18.8343 21.8393 18.9622C21.7081 18.9782 21.5785 18.999 21.4394 19.0214L21.4218 19.0246C21.4266 18.9318 21.4314 18.8519 21.4474 18.7815C21.513 18.5 21.5737 18.2169 21.6329 17.9337C21.7753 17.2668 21.9225 16.5774 22.1384 15.9264C22.9845 13.3815 24.4529 11.4173 26.5051 10.0897C26.7322 9.94258 26.9513 9.78742 27.1849 9.62107C27.2568 9.56989 27.3304 9.51711 27.4056 9.46432C27.4248 9.48992 27.4472 9.51711 27.4727 9.5411C28.0534 10.1393 28.746 10.2353 29.3714 9.80662C29.9984 9.37635 30.1536 8.71255 29.8081 7.94159C29.2322 6.65718 28.6548 5.37277 28.0758 4.08836C27.6183 3.07267 26.9625 2.80235 25.9532 3.21502C24.696 3.72847 23.4228 4.2595 22.1928 4.77295C21.6377 5.00488 21.0811 5.23681 20.5261 5.46714C20.3613 5.53592 20.195 5.6031 20.0254 5.67188L19.9198 5.71506C19.6047 5.06726 19.0705 4.78575 18.2932 4.85292C17.6709 4.90731 17.0295 4.9409 16.3322 4.95529C16.0586 4.96009 15.8251 4.9249 15.6524 4.84973C14.8238 4.49144 13.9841 4.11875 13.1731 3.75886C12.3078 3.37497 11.4136 2.97829 10.5307 2.59761C9.10874 1.985 7.65799 1.37558 6.25521 0.786961C5.641 0.529439 5.02678 0.270318 4.41257 0.0111965C4.39338 0.00319898 4.3742 0 4.35341 0H3.36648C3.34889 0 3.33288 0.0031983 3.31689 0.00799684C3.2913 0.0159944 3.26571 0.0255924 3.24171 0.0351895C3.19533 0.0527842 3.15057 0.0703786 3.10898 0.0799757C1.05681 0.543835 -0.286803 2.45525 0.0522936 4.43065C0.173857 5.14244 0.639337 5.15683 0.834478 5.13124C1.45029 5.04807 1.42468 4.46584 1.41668 4.2739L1.41348 4.19233C1.39909 3.86762 1.38309 3.53333 1.45667 3.23742C1.62942 2.53843 2.09969 1.95461 2.74589 1.6363C3.41449 1.3068 4.19984 1.29241 4.89883 1.59791C6.6279 2.35288 8.38095 3.13025 10.078 3.88042C10.7978 4.19872 11.5192 4.51863 12.239 4.83693L14.208 5.70706C14.1712 5.72466 14.1344 5.74225 14.0992 5.75985C13.8001 5.9038 13.5186 6.03976 13.2435 6.18852C13.0771 6.27809 12.9348 6.28609 12.7348 6.21571C11.1337 5.65108 9.53101 5.09125 7.9283 4.53142L6.42317 4.00678C6.26162 3.9508 6.10167 3.89162 5.94171 3.83403C5.54344 3.69008 5.13234 3.53972 4.71646 3.42456C4.47014 3.35578 4.09746 3.38777 3.92471 3.55732C3.79035 3.68848 3.78557 3.89961 3.78237 4.10435C3.78237 4.16993 3.78076 4.23391 3.77437 4.29309C3.76797 4.36187 3.79196 4.41946 3.80955 4.46264C3.81435 4.47224 3.81756 4.48184 3.82076 4.49144L6.27122 11.8716C6.36719 12.1611 6.49034 12.4442 6.73026 12.553C6.97019 12.6618 7.26452 12.5658 7.54763 12.4474L23.877 5.52632C24.0866 5.43835 24.2961 5.35197 24.5136 5.2624L24.6784 5.19522L25.3054 6.83952L5.36267 16.3998C5.2763 16.2063 5.18994 16.0159 5.10357 15.8256C4.86684 15.3041 4.64452 14.8099 4.43338 14.3013C3.53286 12.1259 2.76346 9.77143 2.07887 7.10344C1.9541 6.61719 1.64222 6.39486 1.22475 6.49722C1.03441 6.54361 0.895234 6.63958 0.808861 6.78354C0.708091 6.95149 0.692087 7.17062 0.759266 7.43454C1.2951 9.5315 1.94611 11.9628 2.88343 14.2709C3.67518 16.2223 4.7165 18.4696 6.42957 20.3346C8.56652 22.6603 10.9482 24.0519 13.7137 24.5877C14.1232 24.6677 14.5455 24.7093 14.955 24.7493C15.0797 24.7621 15.2061 24.7749 15.3325 24.7877C14.5983 26.4144 14.0768 28.0859 13.7809 29.7558C13.5042 31.3137 13.2499 33.1531 13.4338 35.039H1.16555C1.13516 35.039 1.1048 35.039 1.0744 35.039C0.983233 35.0373 0.890461 35.0358 0.79449 35.0485C0.415405 35.0981 0.194664 35.3397 0.186667 35.7091C0.178669 36.077 0.391389 36.3266 0.770474 36.3921C0.831255 36.4033 0.892056 36.4049 0.949638 36.4049C0.978429 36.4049 1.00719 36.4049 1.03598 36.4049C1.06157 36.4049 1.0872 36.4049 1.11439 36.4049C10.4332 36.4049 19.7503 36.4049 29.0691 36.4049H29.1474C29.245 36.4081 29.3458 36.4097 29.4498 36.3889C29.8017 36.3202 30.0016 36.0738 30 35.7155C29.9984 35.3573 29.792 35.1173 29.4338 35.0549H29.4258ZM24.7344 22.0077C24.9855 22.6875 24.9167 23.4249 24.5361 24.0727C24.1698 24.6949 23.5763 25.138 22.9701 25.2579L24.736 22.0077H24.7344ZM15.398 28.6777C15.4684 28.4026 15.5452 28.1306 15.6284 27.8443C15.6524 27.758 15.678 27.6716 15.7036 27.5836L16.3785 27.7884C16.3322 27.9771 16.2825 28.1626 16.2346 28.3466C16.0986 28.868 15.9691 29.3607 15.8907 29.8741C15.7499 30.8002 15.646 31.7472 15.5452 32.6621C15.5116 32.9676 15.478 33.2731 15.4444 33.577C15.4172 33.8105 15.4732 34.1336 15.8891 34.3512C16.2826 34.5559 16.6952 34.7782 17.1111 35.0326C17.0471 35.0326 16.9831 35.0326 16.9192 35.0342C16.3625 35.039 15.7883 35.0438 15.2269 35.0198C14.8174 35.0022 14.7294 34.6263 14.7278 34.3144C14.7182 32.3662 14.9438 30.4691 15.3996 28.6761L15.398 28.6777ZM11.1929 15.1138L11.7223 15.5633C12.3062 16.0591 12.8708 16.5406 13.4402 17.0172C13.5826 17.1372 13.7441 17.2284 13.8993 17.3179L13.9345 17.3387C14.3136 17.5563 14.6847 17.4779 14.9038 17.134C15.0094 16.9692 15.0461 16.7965 15.0077 16.6349C14.9662 16.4574 14.843 16.3038 14.6415 16.1807C13.8753 15.7104 13.1923 15.1474 12.5589 14.4596L21.1467 10.3425C19.7455 12.2875 18.7954 14.4964 18.2548 17.07H18.0692H17.3606C16.9144 17.07 16.6329 17.3099 16.6105 17.7114C16.5993 17.9194 16.6553 18.0953 16.7736 18.2217C16.9 18.356 17.0935 18.4264 17.3318 18.4264C17.6709 18.4264 18.0117 18.4072 18.3428 18.3896C18.4883 18.3816 18.6339 18.3736 18.7778 18.3688C19.336 18.3448 19.4768 17.9465 19.5344 17.6474C19.6176 17.2172 19.7199 16.7949 19.8271 16.347C19.8607 16.2095 19.8943 16.0703 19.9263 15.9296L20.5581 16.1263C20.5101 16.3918 20.4621 16.6541 20.4141 16.9165C20.275 17.6714 20.1422 18.3848 20.0462 19.1206C19.9902 19.5557 19.8511 19.842 19.5536 20.1411C18.733 20.9648 18.3731 22.0013 18.4851 23.2233C18.4931 23.3049 18.4803 23.3881 18.4547 23.4345C18.0084 24.2486 17.559 25.0596 17.0935 25.8977L16.7704 26.4816L16.153 26.2944C16.217 26.1568 16.281 26.0193 16.3434 25.8849C16.5561 25.4275 16.756 24.994 16.9688 24.5525C17.0919 24.2998 17.2439 23.9847 17.0119 23.6472C16.7912 23.3257 16.4681 23.3529 16.2074 23.3721L16.145 23.3769C14.4831 23.4985 12.874 23.153 11.2265 22.3228C9.24472 21.3231 7.60202 19.8132 6.06808 17.5739L11.1913 15.117L11.1929 15.1138ZM21.0955 20.6273C21.489 20.3986 21.9256 20.2866 22.3575 20.2866C22.8885 20.2866 23.4132 20.4562 23.8467 20.7857L21.4714 25.1572C20.75 24.9796 20.0382 24.1735 19.8847 23.3353C19.6847 22.2524 20.171 21.1648 21.0955 20.6273ZM21.1403 14.6228L21.1003 14.7235C21.0843 14.7651 21.0683 14.8067 21.0507 14.8467L20.3773 14.6276C21.5866 11.6013 23.4244 9.42914 25.9916 7.99597C26.0012 8.00237 26.0092 8.00717 26.0156 8.01357C26.1676 8.16712 26.3963 8.39745 26.3867 8.48542C26.3755 8.57499 26.0892 8.75254 25.8989 8.8693C23.7619 10.1857 22.1624 12.1211 21.1419 14.6212L21.1403 14.6228ZM25.9388 4.68498C25.9724 4.67218 26.006 4.65938 26.0396 4.64659C26.2107 4.58261 26.3707 4.52183 26.5275 4.44825C26.5786 4.42425 26.6474 4.39866 26.6874 4.41306C26.713 4.42266 26.7546 4.45944 26.8074 4.57941C27.1992 5.46714 27.6055 6.36447 27.9974 7.233L28.4069 8.13993C28.4277 8.18471 28.4501 8.2295 28.4724 8.27428C28.5172 8.36386 28.5604 8.44863 28.5796 8.53181C28.586 8.559 28.5796 8.60058 28.5716 8.64377C28.538 8.63897 28.5029 8.63098 28.4917 8.62458C27.9926 8.11753 27.4936 7.59129 27.0105 7.08105L26.7882 6.84592C26.761 6.81713 26.7386 6.78194 26.7258 6.74995C26.5083 6.18532 26.2939 5.62069 26.0716 5.03527L25.9372 4.68338L25.9388 4.68498ZM13.058 8.63258L7.42447 11.0238L5.46346 5.12164L6.0313 5.31838C6.65351 5.53272 7.25171 5.74066 7.84992 5.94859C8.28819 6.10215 8.72485 6.2557 9.16312 6.40925C10.1564 6.75954 11.1833 7.12103 12.2006 7.46173C12.4837 7.5561 12.6293 7.68726 12.7236 7.92559C12.7988 8.11753 12.8916 8.30148 12.9908 8.49502C13.0132 8.5398 13.0372 8.58619 13.0596 8.63258H13.058ZM18.5906 6.2589C18.5778 6.27649 18.5667 6.29089 18.5587 6.29569C17.335 6.82193 15.8875 7.44094 14.4351 8.03916C14.3935 8.04555 14.2832 7.99117 14.2608 7.95758C14.1632 7.81203 14.0864 7.64248 14.0049 7.46333C13.9889 7.42814 13.9729 7.39135 13.9553 7.35456C14.136 7.26339 14.3136 7.16902 14.4863 7.07785C14.9838 6.81393 15.454 6.5644 15.9546 6.40445C16.3305 6.28449 16.7416 6.27649 17.1767 6.26689C17.359 6.2637 17.5462 6.2589 17.7301 6.2461H17.7509C18.0052 6.22691 18.2692 6.20931 18.5203 6.21891C18.5331 6.21891 18.5635 6.2381 18.5906 6.2573V6.2589Z" fill="#F3F3F3"/>
</svg>
