<svg width="36" height="34" viewBox="0 0 36 34" fill="none" xmlns="http://www.w3.org/2000/svg">
<circle cx="16.5" cy="17.5" r="16.5" fill="#585858"/>
<path d="M35.9972 18.0684C35.7378 17.4331 35.2496 17.1446 34.5075 17.1862C34.115 17.2084 33.7239 17.2029 33.3106 17.1973C33.1469 17.1946 32.9804 17.1932 32.8126 17.1918C32.8126 17.1529 32.8126 17.1155 32.8126 17.0794C32.814 16.9574 32.8154 16.8409 32.8098 16.7257C32.789 16.2874 32.5685 15.9629 32.1732 15.7881C31.7654 15.6078 31.3659 15.6577 31.0455 15.9296C30.1065 16.7271 29.1009 17.5857 28.1078 18.4665C27.8748 18.6731 27.7416 18.9644 27.7402 19.2668C27.7402 19.5678 27.8665 19.8466 28.0967 20.0518C29.0371 20.8882 29.9844 21.6941 31.0358 22.5859C31.2411 22.7607 31.4672 22.8481 31.703 22.8481C31.8611 22.8481 32.0248 22.8079 32.1898 22.7288C32.581 22.5402 32.7904 22.2211 32.8112 21.7815L32.8334 21.3251C33.004 21.3251 33.1718 21.3224 33.3369 21.321C33.7572 21.3154 34.1553 21.3099 34.5561 21.3321C35.2857 21.3737 35.7545 21.0768 35.9958 20.4305C35.9986 20.4222 36 20.4138 36 20.4069V18.0961C36 18.0878 35.9986 18.0781 35.9944 18.0698L35.9972 18.0684ZM34.9056 20.0033C34.9084 20.0934 34.8945 20.1517 34.8654 20.1822C34.8349 20.2141 34.7738 20.228 34.6781 20.2266C34.0401 20.2183 33.3924 20.2211 32.7654 20.2224H32.4631C31.9041 20.2252 31.7224 20.4041 31.7182 20.959C31.7168 21.1407 31.7182 21.3224 31.7182 21.5346V21.726L28.861 19.2612L31.7155 16.802H31.7182V17.0184C31.7182 17.214 31.7182 17.4095 31.7196 17.6051C31.7265 18.1058 31.9138 18.2917 32.4076 18.2931H32.807C33.4021 18.2972 34.0179 18.3 34.6227 18.2889C34.7517 18.2861 34.8252 18.3028 34.8626 18.3416C34.8987 18.3777 34.9139 18.447 34.9084 18.5538C34.8862 19.0851 34.8959 19.6066 34.907 20.0019L34.9056 20.0033Z" fill="#F3F3F3"/>
<path d="M29.4644 27.6722C29.3187 27.3254 29.1675 26.9676 29.0275 26.6139C28.0884 24.2434 27.1481 21.7038 26.8596 19.0157C26.7666 18.1516 26.7208 17.1335 27.0828 16.1307C27.1328 15.9906 27.2437 15.8505 27.3519 15.7881C29.1856 14.7478 30.3188 13.186 30.7196 11.1485C31.1829 8.79472 30.642 6.9791 29.0649 5.6004C28.3561 4.9804 27.9456 4.13015 27.8748 3.13843C27.8526 2.83051 27.8568 2.51426 27.8596 2.20912C27.861 2.01771 27.8638 1.8263 27.8596 1.63489C27.8457 0.930279 27.3603 0.448981 26.6529 0.437885C26.3089 0.432336 25.9427 0.432336 25.4642 0.437885C24.718 0.446207 24.2408 0.916409 24.2186 1.66679C24.2131 1.88178 24.2145 2.09954 24.2159 2.31037C24.2159 2.48098 24.2186 2.65158 24.2159 2.82218C24.1881 4.58094 22.8441 6.1247 21.1561 6.33691C20.3155 6.44233 19.4431 6.42568 18.5998 6.40904L18.3168 6.40349C16.5525 6.37159 14.9838 4.90689 14.8188 3.13565C14.7896 2.82634 14.791 2.50872 14.791 2.19941C14.791 2.03158 14.791 1.86514 14.7882 1.69731C14.7688 0.913635 14.2917 0.442045 13.5094 0.436497C13.146 0.433723 12.7812 0.433723 12.4178 0.436497C11.63 0.442045 11.1542 0.915022 11.1445 1.70008C11.1431 1.86236 11.1445 2.02326 11.1445 2.18554C11.1473 2.5101 11.1501 2.84438 11.1251 3.17033C11.0585 4.03445 10.6951 4.81257 10.0113 5.54908C9.75889 5.82232 9.75195 6.1247 9.99329 6.35633C10.0987 6.45758 10.236 6.51029 10.3747 6.5089C10.5301 6.50613 10.6826 6.43262 10.8047 6.30362C11.5592 5.50747 11.9892 4.71409 12.1168 3.87771C12.1987 3.33677 12.2125 2.7778 12.2264 2.23825C12.2306 2.08012 12.2347 1.922 12.2403 1.76388C12.2444 1.66263 12.2611 1.6016 12.2944 1.5697C12.3263 1.54057 12.3831 1.52809 12.4691 1.53225C12.8367 1.54751 13.1349 1.54751 13.4068 1.53225C13.5247 1.52531 13.5996 1.54196 13.6398 1.58079C13.68 1.61963 13.6967 1.69314 13.6911 1.80411C13.6786 2.05654 13.6828 2.31176 13.6856 2.56004C13.6856 2.64048 13.6869 2.72232 13.6883 2.80277C13.7022 5.12049 15.4818 7.15526 17.7412 7.43821C18.6622 7.55333 19.6123 7.52975 20.5375 7.50617C22.5445 7.45624 24.0161 6.49642 24.9108 4.65445C25.3144 3.82362 25.3352 2.92482 25.3227 2.14809L25.3199 2.00245C25.3144 1.75556 25.3116 1.60715 25.3532 1.56554C25.3879 1.53086 25.5003 1.53364 25.6681 1.53641C25.7444 1.5378 25.8331 1.53918 25.9372 1.53918C26.3422 1.53641 26.5891 1.53502 26.6834 1.63211C26.7777 1.72921 26.7722 1.96778 26.7555 2.38111C26.6848 4.11073 27.2895 5.52273 28.6044 6.70031C29.1107 7.15387 29.463 7.74474 29.6502 8.45906C29.8389 9.17477 29.7778 9.90573 29.7071 10.5354C29.4061 13.1944 27.2632 15.2694 24.6139 15.4677C24.2561 15.4941 23.8899 15.4968 23.5348 15.4982C23.3004 15.4982 23.0591 15.501 22.8205 15.5093C22.6596 15.5149 22.5154 15.5773 22.4169 15.6841C22.3267 15.7826 22.2796 15.9116 22.2851 16.0489C22.2976 16.3512 22.471 16.544 22.7747 16.5912C22.8621 16.6051 22.9578 16.6078 23.0771 16.6023C23.797 16.569 24.5182 16.5343 25.245 16.4997L25.8359 16.4705C25.5751 17.9436 25.6834 19.5511 26.166 21.382C26.4684 22.5263 26.8221 23.6775 27.1633 24.7913C27.3076 25.2601 27.4518 25.7289 27.5919 26.1991H11.3373L11.354 26.1506C11.3886 26.0535 11.4192 25.9647 11.4483 25.876L11.7562 24.9258C12.0794 23.93 12.415 22.8994 12.7354 21.8841C12.7937 21.701 12.784 21.529 12.7091 21.3875C12.6411 21.2627 12.5232 21.1698 12.3748 21.1268C12.2236 21.0838 12.0711 21.1074 11.9448 21.1934C11.82 21.278 11.7271 21.4153 11.6771 21.5914C11.6355 21.7398 11.5953 21.8883 11.5551 22.0367C11.5149 22.1865 11.4746 22.3377 11.4316 22.4875C10.7936 24.7178 9.87956 26.8857 8.99464 28.9829C8.83652 29.356 8.9336 29.6723 9.24568 29.8068C9.32058 29.8387 9.39548 29.8553 9.4676 29.8553C9.52725 29.8553 9.58689 29.8442 9.64237 29.8221C9.79356 29.761 9.92117 29.6195 10.0085 29.4115L10.0626 29.2825C10.3026 28.7152 10.5509 28.1285 10.7825 27.5459C10.8519 27.3698 10.9295 27.3171 11.114 27.3171C16.7523 27.324 22.3989 27.324 27.8957 27.3171C28.0774 27.3171 28.1536 27.3712 28.2244 27.5501C28.4615 28.1437 28.7196 28.7804 29.0067 29.4129C29.076 29.5655 29.23 29.7569 29.4061 29.8151C29.5545 29.8637 29.8416 29.7957 29.9318 29.6584C30.0303 29.51 30.0913 29.234 30.0206 29.0467C29.8458 28.5848 29.6503 28.1216 29.4616 27.6735L29.4644 27.6722Z" fill="#F3F3F3"/>
<path d="M11.3469 15.5815C11.7811 15.8464 11.9947 16.1599 12.064 16.6273C12.071 16.6703 12.0807 16.7119 12.0904 16.7549C12.1056 16.8173 12.1195 16.8756 12.1195 16.9324C12.1237 17.7078 12.1195 18.4623 12.1181 19.2987C12.1181 19.6469 12.3026 19.8813 12.605 19.9118C12.6271 19.9146 12.6494 19.9146 12.6702 19.9146C12.8102 19.9146 12.9378 19.8688 13.0363 19.7814C13.1459 19.6829 13.2083 19.5387 13.2125 19.3736C13.2263 18.5705 13.2194 17.7536 13.2125 16.9643V16.7494C13.2097 16.6453 13.1889 16.5427 13.1695 16.4428C13.1667 16.4276 13.1639 16.4123 13.1598 16.3971C13.2582 16.4137 13.3553 16.4331 13.4511 16.4511C13.7229 16.5039 13.9795 16.5538 14.243 16.5566C15.9311 16.5801 17.6468 16.5885 19.3057 16.5954L20.4361 16.6009C20.5415 16.6009 20.6747 16.6009 20.7343 16.526L20.7815 16.4678C20.898 16.3263 21.0298 16.164 21.0242 16.0004C21.0201 15.8686 20.9035 15.723 20.6594 15.5454C20.5804 15.4872 20.4694 15.4941 20.3626 15.501C20.3321 15.5024 20.3016 15.5052 20.2738 15.5052H18.0823C17.0476 15.5052 16.0129 15.5052 14.9782 15.5024C14.8672 15.5024 14.7521 15.4941 14.6203 15.4844C14.594 15.483 14.5676 15.4802 14.5385 15.4788L14.7576 15.2597C14.9906 15.0281 15.2029 14.8158 15.4206 14.6064C15.7036 14.3345 15.8395 14.0086 15.8381 13.6091C15.8367 12.8712 15.8353 12.1333 15.8381 11.3954C15.8409 10.9322 15.6661 10.6298 15.3041 10.4717C14.9296 10.308 14.5953 10.3954 14.2472 10.7463C13.7201 11.2789 13.1889 11.8088 12.659 12.3386C12.3123 12.6854 11.9641 13.0321 11.6188 13.3803C11.4731 13.5259 11.3317 13.6757 11.1971 13.8186C11.1514 13.8671 11.1056 13.9143 11.0612 13.9614L10.5952 13.5856L11.1 13.0821C11.5799 12.6049 12.0446 12.1417 12.512 11.6798C12.7811 11.4135 12.9115 11.118 12.9101 10.7768C12.9101 10.5355 12.9101 10.2927 12.9129 10.0514C12.917 9.49937 12.9198 8.9293 12.8962 8.36894C12.8865 8.14286 12.7575 7.86268 12.5814 7.68791C12.2638 7.37167 11.7644 7.41051 11.3927 7.77807C10.8712 8.29543 10.3524 8.81695 9.81426 9.36067L9.24697 9.93073C9.20813 9.18035 9.27054 8.63664 9.45086 8.13592C9.59372 7.73923 9.48969 7.43409 9.17345 7.31896C8.84195 7.19829 8.56455 7.36474 8.41197 7.77391C8.17063 8.42165 8.08603 9.14429 8.14429 10.0472C8.30518 12.5189 9.3829 14.3817 11.3469 15.5843V15.5815ZM11.8157 9.61311C11.9586 10.4772 11.684 11.1416 10.9516 11.7006C10.6978 11.8948 10.4745 12.1361 10.2401 12.3899C10.1499 12.4884 10.057 12.5883 9.95712 12.6923L9.84893 12.4024C9.71716 12.0529 9.59373 11.7242 9.48138 11.3982C9.46474 11.3483 9.48138 11.2512 9.51051 11.2207C10.1402 10.5799 10.7769 9.94322 11.4496 9.27051L11.8074 8.91266C11.8074 8.96398 11.8047 9.01252 11.8019 9.05968C11.7949 9.26357 11.788 9.43973 11.8171 9.61449L11.8157 9.61311ZM13.0932 15.2C12.7783 15.0808 12.4649 14.9421 12.1611 14.8089C12.0848 14.7756 12.0085 14.7409 11.9309 14.7077L14.7341 11.9281V12.2207C14.7354 12.6812 14.7368 13.157 14.7257 13.6272C14.7243 13.691 14.6702 13.7853 14.5842 13.8754C14.0918 14.3831 13.7076 14.7659 13.3373 15.1182C13.2777 15.1751 13.1431 15.2195 13.0918 15.2H13.0932Z" fill="#F3F3F3"/>
<path d="M11.2665 19.2556C11.2665 18.9685 11.1514 18.7064 10.942 18.5177C10.1236 17.7812 9.03896 16.8172 7.90438 15.8976C7.61033 15.6591 7.22474 15.6078 6.87105 15.7576C6.491 15.9198 6.23302 16.2763 6.19834 16.6896C6.18725 16.8159 6.19002 16.9407 6.19279 17.0614C6.19279 17.0974 6.19418 17.1321 6.19557 17.1668C6.18863 17.1695 6.18308 17.1737 6.17753 17.1765C6.16783 17.1806 6.16089 17.1848 6.16228 17.1862C5.93065 17.1862 5.7004 17.1876 5.46877 17.1876C5.04711 17.1876 4.62684 17.1876 4.20519 17.1945C3.49503 17.2042 3.01234 17.6869 3.00402 18.3971C2.99847 18.8437 2.99985 19.2972 3.00124 19.7355V20.0338C3.00401 20.8604 3.45619 21.3181 4.27315 21.3237C4.71284 21.3265 5.15253 21.3265 5.61302 21.3251H6.19001C6.19001 21.3653 6.19001 21.4028 6.19001 21.4402C6.19001 21.5595 6.18863 21.6663 6.1914 21.7717C6.20666 22.2225 6.42304 22.5484 6.83637 22.7385C6.99172 22.8092 7.14567 22.8453 7.29825 22.8453C7.53404 22.8453 7.76152 22.7593 7.96264 22.5887C8.91275 21.7842 9.92113 20.9242 10.9018 20.0532C11.132 19.8479 11.2652 19.5566 11.2665 19.2556ZM7.28716 20.9242C7.28022 20.4083 7.09297 20.2252 6.57283 20.2238H6.29404C5.99722 20.221 5.69484 20.2196 5.39247 20.2196C5.04849 20.2196 4.70174 20.221 4.35776 20.2279C4.24679 20.2307 4.17744 20.2141 4.14276 20.1794C4.10808 20.1447 4.09422 20.0781 4.09838 19.97C4.11641 19.5289 4.11641 19.0656 4.09838 18.5538C4.09422 18.4428 4.10947 18.3749 4.14415 18.3388C4.17882 18.3027 4.2454 18.2875 4.35359 18.2903C4.92227 18.3014 5.49928 18.2986 6.05825 18.2972H6.56869C7.09992 18.2944 7.28161 18.1113 7.28716 17.5718L7.28993 17.2763C7.28993 17.1293 7.29271 16.9823 7.2941 16.8367C7.2941 16.8311 7.29825 16.8242 7.30241 16.8131L10.1444 19.264L7.28716 21.7287V21.5151C7.28716 21.3195 7.28854 21.1226 7.28716 20.927V20.9242Z" fill="#F3F3F3"/>
<path d="M19.0449 9.82385C19.1198 9.82385 19.1947 9.82385 19.2682 9.82385C19.3431 9.82385 19.4166 9.82385 19.4915 9.82385C19.5705 9.82385 19.6413 9.82385 19.7176 9.82385C19.8868 9.82385 20.0615 9.82662 20.2335 9.82108C20.5775 9.81137 20.7967 9.60747 20.805 9.29123C20.8133 8.96805 20.59 8.73642 20.2613 8.72671C19.78 8.71284 19.2862 8.71284 18.7536 8.72671C18.4249 8.73503 18.196 8.96112 18.1974 9.27736C18.1974 9.59499 18.4179 9.80859 18.7564 9.82108C18.8521 9.82385 18.9478 9.82524 19.0435 9.82524L19.0449 9.82385Z" fill="#F3F3F3"/>
<path d="M19.4957 23.4306C19.1961 23.4334 18.995 23.6137 18.97 23.8994C18.9451 24.181 18.9465 24.4542 18.9728 24.7122C19.0019 24.9966 19.1989 25.1658 19.4999 25.1658H19.5082C19.8023 25.163 19.9895 24.9993 20.0367 24.7053C20.0505 24.6151 20.0533 24.5264 20.0561 24.432C20.0561 24.3904 20.0589 24.346 20.0602 24.303C20.0602 24.3003 20.0602 24.2975 20.0602 24.2961C20.0589 24.2587 20.0575 24.2184 20.0561 24.1782C20.0533 24.0825 20.0505 23.984 20.0339 23.8842C19.9853 23.597 19.7842 23.432 19.4957 23.4306Z" fill="#F3F3F3"/>
</svg>
