<svg width="37" height="34" viewBox="0 0 37 34" fill="none" xmlns="http://www.w3.org/2000/svg">
<circle cx="16.5" cy="17.5" r="16.5" fill="#585858"/>
<path d="M11.0287 10.9247C10.8012 11.2172 10.5973 11.4787 10.4541 11.6633C9.89572 11.4993 9.40087 11.2645 8.88979 11.2231C7.457 11.1064 6.16749 12.2231 6.09511 13.6751C6.02864 15.0252 6.08034 16.3812 6.08034 17.7874C6.16454 17.7121 6.22213 17.6692 6.2694 17.6175C8.61505 15.0518 10.9607 12.4846 13.3064 9.91587C13.3891 9.82577 13.4674 9.73123 13.5353 9.63079C15.0272 7.42398 18.0302 7.45943 19.4541 9.70021C19.4881 9.75487 19.528 9.80509 19.5693 9.86417C19.8322 9.6367 19.9401 9.35605 19.9401 9.0296C19.9401 8.5525 19.9371 8.07391 19.9401 7.59681C19.943 7.12118 20.1291 6.93949 20.6122 6.93654C20.9903 6.93358 21.367 6.93506 21.7451 6.93358C21.7672 6.93358 21.7879 6.92472 21.8293 6.91438C21.816 6.84348 21.8116 6.76815 21.7894 6.7002C21.5073 5.84791 21.2222 4.99561 20.9356 4.14332C20.8972 4.02811 20.8426 3.91732 20.8042 3.80211C20.6579 3.34716 20.395 3.1315 19.8736 3.18911C19.3359 3.24819 18.7879 3.2024 18.2222 3.2024C18.0819 3.73859 17.946 4.26149 17.8071 4.78439C17.6446 5.40182 17.2133 5.52442 16.7658 5.07833C16.5457 4.85824 16.3344 4.62929 16.1084 4.41511C15.8293 4.15218 15.4925 4.14775 15.2443 4.39C15.005 4.62486 15.0065 4.9705 15.2473 5.25854C15.8352 5.95869 15.8322 5.97937 15.1719 6.6293C14.0405 7.74452 12.9135 8.86417 11.7835 9.98086C11.7052 10.0577 11.6239 10.133 11.5323 10.2216C11.299 9.96166 11.0744 9.71055 10.8189 9.42547C11.2473 8.99858 11.717 8.51557 12.2074 8.05176C12.3994 7.87007 12.4807 7.68691 12.4777 7.41808C12.4629 6.06209 12.4688 4.70758 12.4718 3.35159C12.4747 1.37521 13.847 0.00593241 15.8278 0.00297819C17.3271 0.00150108 18.8278 0.00741002 20.3271 2.44632e-05C21.0346 -0.00292976 21.5885 0.261472 21.9017 0.908447C22.2148 1.55542 22.0922 2.15513 21.6343 2.70461C21.5797 2.77108 21.5752 2.92175 21.6063 3.01185C22.1026 4.44613 22.6151 5.87597 23.1055 7.31172C23.2326 7.68248 22.9741 7.98972 22.5619 7.99858C22.0538 8.00892 21.5457 8.00153 21.0656 8.00153C20.9918 8.72975 20.9194 9.42547 20.847 10.136H27.3803V11.2024H19.9977C19.915 11.6766 19.8854 12.1227 19.7554 12.5392C19.3374 13.8834 18.1779 14.7815 16.748 14.8893C16.494 14.9085 16.3167 14.9971 16.1424 15.1714C15.4378 15.8686 14.8056 16.6175 14.2488 17.4418C12.9858 19.3088 11.6815 21.1478 10.4112 23.0105C10.1778 23.3531 9.91195 23.4905 9.50132 23.4802C8.56926 23.4551 7.63573 23.4758 6.7022 23.4713C5.68004 23.4669 5.005 22.7992 5.005 21.783C5.00205 19.1714 4.99466 16.5614 5.00648 13.9499C5.01682 11.7564 6.75686 10.0651 8.90606 10.1448C9.68006 10.1729 10.3802 10.4299 11.0272 10.9277L11.0287 10.9247ZM11.4467 13.588C11.3891 13.6293 11.3595 13.6441 11.3374 13.6677C9.6254 15.5348 7.91048 17.3989 6.20589 19.2734C6.1217 19.3664 6.08034 19.5289 6.07739 19.6604C6.06557 20.3487 6.06999 21.0385 6.07147 21.7269C6.07295 22.2217 6.2576 22.4004 6.76277 22.4019C7.5737 22.4034 8.38463 22.393 9.19556 22.4078C9.4319 22.4122 9.5737 22.3443 9.7096 22.1449C10.9843 20.2852 12.2709 18.4344 13.553 16.5806C13.7913 16.2359 13.7603 15.9129 13.46 15.6116C12.7879 14.9366 12.1173 14.2615 11.4452 13.5865L11.4467 13.588ZM14.6402 15.1744C14.8913 14.9041 15.1882 14.619 15.4423 14.2999C15.7067 13.9676 16.0036 13.8376 16.4423 13.8553C17.5796 13.9011 18.5604 13.1094 18.8145 12.0089C19.07 10.9026 18.528 9.77702 17.5058 9.29401C16.4866 8.81099 15.2739 9.10789 14.5723 9.99859C14.2369 10.424 13.8839 10.8391 13.5279 11.2467C13.0833 11.7549 12.6254 12.2527 12.1764 12.7519C13.0006 13.5629 13.813 14.3605 14.6417 15.1744H14.6402ZM14.3167 5.82575C13.844 4.9321 13.8987 4.18025 14.5265 3.59531C15.1852 2.98231 15.9016 3.01038 16.9814 3.70905C17.0656 3.38409 17.1483 3.06651 17.2325 2.74893C17.3714 2.22751 17.4881 2.13593 18.0169 2.13593C18.7938 2.13593 19.5723 2.1374 20.3492 2.13593C20.7613 2.13445 21.0095 1.92322 21.0021 1.59235C20.9947 1.27182 20.7569 1.07241 20.3596 1.07241C18.8042 1.06945 17.2488 1.06502 15.6934 1.07241C14.4688 1.07831 13.5486 2.00299 13.5398 3.22899C13.5324 4.29546 13.5383 5.36194 13.5383 6.42841C13.5383 6.50079 13.5383 6.57317 13.5383 6.72383C13.8278 6.39148 14.0626 6.1197 14.3152 5.8287L14.3167 5.82575Z" fill="#F3F3F3"/>
<path d="M20.4378 15.4815C20.3034 15.9881 20.1955 16.4756 20.0419 16.9497C19.5722 18.3914 18.6933 19.5332 17.4777 20.4313C17.3477 20.5273 17.2369 20.7193 17.2177 20.8803C17.0537 22.2023 16.878 23.5244 16.7775 24.8523C16.7081 25.7578 16.748 26.6721 16.748 27.5835C16.748 27.6765 16.8056 27.7725 16.844 27.8641C17.3004 28.935 17.7613 30.0044 18.2177 31.0768C18.4762 31.6824 18.2694 32.003 17.6224 32.003C14.1896 32.003 10.7568 32.003 7.324 32.003C6.77895 32.003 6.6076 31.8316 6.6076 31.2866C6.6076 29.2762 6.6076 27.2659 6.6076 25.2541C6.6076 24.7075 6.77747 24.5362 7.32252 24.5362C9.98871 24.5362 12.6549 24.5362 15.3211 24.5362H15.7288C15.8691 23.2821 16.005 22.062 16.1453 20.8035H14.6239V19.7356C15.1527 19.7356 15.6815 19.7208 16.2103 19.7415C16.4954 19.7533 16.7199 19.6676 16.9415 19.4978C18.2975 18.4623 19.0907 17.1004 19.3374 15.4165C19.3403 15.3943 19.3403 15.3722 19.3433 15.35C19.4526 14.4519 19.5072 14.4017 20.4215 14.4017H28.4762C28.4762 13.6838 28.4762 12.9985 28.4762 12.3131C28.4762 11.7917 28.4718 11.2688 28.4777 10.7474C28.4821 10.3338 28.6801 10.1388 29.0966 10.1373C30.6845 10.1343 32.2739 10.1225 33.8618 10.1403C35.2591 10.1565 36.6786 11.4623 36.9416 12.935C37.2311 14.5613 36.4246 16.1181 34.9548 16.7666C33.4541 17.4298 31.779 16.9852 30.751 15.6647C30.6756 15.5686 30.5235 15.4785 30.4068 15.4785C27.1188 15.4682 23.8307 15.4712 20.5427 15.4712C20.5102 15.4712 20.4777 15.4785 20.4393 15.4844L20.4378 15.4815ZM29.553 14.4002C29.943 14.4002 30.299 14.4209 30.652 14.3943C31.0538 14.3648 31.3034 14.511 31.5146 14.8655C32.1129 15.8655 33.3418 16.257 34.4172 15.8301C35.4718 15.4106 36.0996 14.2968 35.8987 13.2053C35.6816 12.0265 34.7215 11.2097 33.5457 11.2053C32.3241 11.2008 31.104 11.2008 29.8824 11.2008C29.7761 11.2008 29.6683 11.2112 29.553 11.2156V14.4002ZM7.69771 28.2762V30.9232H16.9917C16.6077 30.0236 16.2339 29.1522 15.8602 28.2762H7.69771ZM15.6564 27.1861V25.6204H14.0965V27.1861H15.6564ZM8.72282 27.1861V25.6219H7.69623V27.1861H8.72282ZM9.8218 27.1817H10.8513V25.6248H9.8218V27.1817ZM12.9917 25.6233H11.9666V27.1832H12.9917V25.6233Z" fill="#F3F3F3"/>
<path d="M19.937 5.60113C19.937 6.03836 19.5692 6.4032 19.132 6.39877C18.6948 6.39434 18.3329 6.02063 18.3432 5.58488C18.3521 5.16095 18.7081 4.8094 19.132 4.80349C19.5707 4.79906 19.937 5.16243 19.937 5.60113Z" fill="#F3F3F3"/>
</svg>
