<svg width="33" height="35" viewBox="0 0 33 35" fill="none" xmlns="http://www.w3.org/2000/svg">
<circle cx="16.5" cy="18.5" r="16.5" fill="#585858"/>
<path d="M29.5782 28.6462C26.2948 24.4859 22.7256 19.9546 18.6649 14.7956C18.5784 14.6855 18.5129 14.5675 18.4736 14.4508C18.0777 13.2817 17.3555 12.3773 16.3292 11.7638C16.2283 11.7035 16.2086 11.6668 16.2099 11.541C16.2191 10.7703 16.2257 9.94321 16.2073 9.12793C16.2034 8.97064 16.2204 8.96147 16.3476 8.93657C17.0121 8.80812 17.7186 8.57087 18.0161 7.80016C18.9336 8.06361 19.8931 7.84341 20.5603 7.20246C21.1501 6.63753 21.4149 5.84977 21.3153 5.0227C21.7085 5.41068 21.9431 5.90089 22.0296 6.50514C22.0663 6.76467 22.0965 7.03075 22.1253 7.28897C22.1803 7.77787 22.2367 8.28382 22.3429 8.77666C22.4228 9.14497 22.5788 9.49232 22.7295 9.82918C22.7558 9.88685 22.782 9.94584 22.8082 10.0035C22.7649 10.0035 22.7204 10.0035 22.6771 10.0022C22.5513 10.0009 22.4268 9.99958 22.3009 9.99827C21.8369 9.99433 21.6613 10.1215 21.5145 10.5658C21.466 10.7126 21.4175 10.8607 21.3677 11.0141C20.7556 10.4714 20.285 9.83573 19.9351 9.07813C19.8341 8.85923 19.6886 8.71112 19.5143 8.6482C19.3636 8.59446 19.1997 8.60626 19.0385 8.68228C18.6885 8.85006 18.5876 9.21051 18.7764 9.62471C19.3203 10.8188 20.1657 11.811 21.2877 12.5726C21.4896 12.7089 21.7032 12.7508 21.892 12.6892C22.0794 12.6289 22.2288 12.4703 22.3114 12.2436C22.4228 11.9395 22.5211 11.6354 22.605 11.3378C22.6155 11.2998 22.626 11.2854 22.6247 11.2854C22.6286 11.2854 22.6457 11.2789 22.7086 11.2815C23.1333 11.2985 23.571 11.3169 24.0062 11.292C24.1884 11.2815 24.503 11.1648 24.6 10.9459C24.6904 10.7428 24.6485 10.419 24.5082 10.2394C23.7572 9.27605 23.3784 8.18551 23.3495 6.90754C23.3102 5.19965 22.5342 3.98721 21.0413 3.30563C20.3676 2.9976 19.5995 2.85473 18.7501 2.87833C17.6517 2.90978 16.7395 3.58875 16.4262 4.6085C16.3541 4.84313 16.3253 5.08037 16.2951 5.33203C16.2886 5.3897 16.2807 5.44869 16.2728 5.50898H15.2583C14.9215 5.50898 14.637 5.50243 14.5597 5.42247C14.4824 5.34252 14.4876 5.05416 14.4994 4.74089C14.5007 4.6937 14.5532 4.60719 14.5846 4.58884C15.9229 3.77225 17.2598 2.97401 18.5522 2.20067C18.8891 2.00013 19.2679 1.89789 19.6781 1.89789C21.4686 1.89789 23.2591 1.8992 25.0496 1.89789H25.0535C25.2763 1.89789 25.2776 1.92804 25.2802 1.98833C25.2842 2.05125 25.2855 2.08271 25.0679 2.09844L24.9368 2.10761C24.3444 2.15218 23.731 2.19805 23.1293 2.27408C22.9222 2.30029 22.6876 2.46413 22.5827 2.6555C22.4805 2.84425 22.5356 3.18504 22.6915 3.31873C22.8475 3.45374 23.1044 3.53632 23.3299 3.52583C23.7441 3.50486 24.1635 3.46554 24.5685 3.42884C24.7913 3.40787 25.0129 3.3882 25.2357 3.36985C26.0221 3.30694 26.5962 2.70007 26.5713 1.95819C26.5464 1.18354 25.9409 0.621232 25.1334 0.619922C23.4767 0.6173 21.8199 0.618611 20.1631 0.619922H19.6441C19.0215 0.619922 18.45 0.773278 17.9453 1.07344C15.7512 2.38025 13.9777 3.44457 12.3629 4.42369C11.7324 4.80642 11.3353 5.4015 11.216 6.14731C11.1885 6.31771 11.1767 6.48679 11.1649 6.66505C11.1636 6.68734 11.1623 6.70962 11.161 6.7319H10.9984C10.6445 6.7319 10.2893 6.7319 9.93541 6.7319C9.10047 6.73059 8.2367 6.72928 7.38603 6.73714C6.61662 6.74501 6.02155 7.31518 6.00057 8.06492C5.9796 8.80811 6.53535 9.4163 7.29296 9.4779C7.62327 9.50543 7.95226 9.53033 8.28257 9.55655L11.625 9.81869L11.6866 10.229C11.8124 11.0626 11.9422 11.9237 12.0588 12.7692C12.0588 12.7901 12.0326 12.8596 11.988 12.9081C10.6262 14.3919 9.21975 15.9163 7.69142 17.5678C6.75424 18.5797 6.60876 19.5758 7.21956 20.7961L7.87362 22.1043C8.76361 23.8829 9.68506 25.7232 10.5842 27.536C10.634 27.6356 10.6563 27.7758 10.6406 27.8859C10.5501 28.5138 10.4256 29.3409 10.267 30.1614C10.1923 30.548 10.305 30.8364 10.6091 31.0435C10.6419 31.0658 10.6812 31.0789 10.7219 31.0789H11.8373C11.857 31.0789 11.8766 31.0763 11.8963 31.0697C12.6001 30.8548 13.0274 30.3711 13.2031 29.5912C13.3106 29.1154 13.4547 28.6475 13.6055 28.1704C13.8231 27.4848 13.7955 26.8046 13.5229 26.0915C13.0576 24.8765 12.5936 23.6365 12.144 22.4385C11.8307 21.5996 11.5162 20.7621 11.199 19.9245C11.1557 19.8118 11.1596 19.796 11.2435 19.724C11.9513 19.1158 12.6644 18.4906 13.3538 17.8863L14.0302 17.2938C14.0839 17.2467 14.1376 17.2008 14.1914 17.1549C14.3225 17.0422 14.4588 16.9255 14.5872 16.8023C14.8585 16.5402 14.8782 16.1574 14.637 15.8927C14.4116 15.6462 14.0524 15.6213 13.7628 15.8311C13.7235 15.8599 13.6868 15.8914 13.6514 15.9228L12.6827 16.7722C11.8307 17.5193 10.9512 18.2913 10.0809 19.045C9.77813 19.3071 9.70734 19.6073 9.85677 19.994C10.153 20.7608 10.4466 21.5446 10.7284 22.3022C10.8293 22.5735 10.9316 22.8448 11.0325 23.1162C11.2226 23.6247 11.4126 24.1333 11.6053 24.6484L11.7547 25.0495L10.9879 25.4689L10.3666 24.2277C9.6772 22.8488 8.98644 21.4712 8.29961 20.091C8.02042 19.5287 8.08727 19.0358 8.5054 18.581C9.83711 17.1326 11.2737 15.5781 13.0248 13.6893C13.0786 13.6303 13.1572 13.5792 13.2293 13.5543C13.8781 13.3302 14.6449 13.068 15.4195 12.8242C15.4772 12.8059 15.5808 12.8177 15.6345 12.8491C16.4328 13.3066 16.9688 13.9803 17.2756 14.9096C17.3476 15.1272 17.4499 15.3264 17.5731 15.4824C19.205 17.5625 20.8421 19.6388 22.4792 21.715L23.7624 23.3429C24.3024 24.0284 24.8425 24.7139 25.3864 25.406L26.0536 26.2541L25.4873 26.7456C25.4493 26.7023 25.4139 26.663 25.3759 26.625C22.7269 23.9747 20.0779 21.3257 17.4276 18.6754L16.2047 17.4524C15.704 16.9517 15.354 17.0789 15.1469 17.2729C15.0119 17.4 14.9424 17.5429 14.9398 17.6962C14.9372 17.8994 15.0499 18.1091 15.2963 18.3555L17.577 20.6362C20.7739 23.8331 24.0796 27.1401 27.3368 30.3868C27.5203 30.5703 27.7353 30.7145 27.9424 30.8548C28.0341 30.9164 28.1259 30.9793 28.215 31.0435C28.2491 31.0684 28.291 31.0828 28.333 31.0828H28.8612C28.8861 31.0828 28.911 31.0776 28.9346 31.0697C29.2728 30.9373 29.7446 30.6948 29.9321 30.1129C30.1392 29.468 29.8298 28.9712 29.5795 28.654L29.5782 28.6462ZM28.6488 29.7511C28.6161 29.7577 28.5597 29.759 28.5309 29.7511C27.9306 29.1705 27.3289 28.5636 26.7483 27.9777L26.4088 27.6356L26.8466 27.2542L27.1467 27.6356C27.5688 28.1717 27.9843 28.6973 28.3998 29.2242C28.4313 29.2648 28.4667 29.3042 28.5007 29.3435C28.5702 29.4221 28.6357 29.4955 28.6593 29.5637C28.6777 29.6174 28.6672 29.7105 28.6502 29.7511H28.6488ZM12.4612 6.72797C12.4494 6.10013 12.6932 5.67151 13.2162 5.4015C13.2699 5.78555 13.439 6.10799 13.7261 6.37538C13.612 6.41208 13.5019 6.45271 13.3931 6.49204C13.0786 6.60607 12.7784 6.71486 12.4612 6.72928V6.72797ZM16.6189 7.52883C16.341 7.60486 16.0631 7.6835 15.7852 7.76214C14.7851 8.04395 13.751 8.33494 12.722 8.53679C12.2934 8.62068 11.8347 8.57218 11.3497 8.51975C11.1754 8.5014 10.9971 8.48174 10.8202 8.46994C10.1373 8.42276 9.44388 8.36639 8.77278 8.31134C8.34417 8.27595 7.91556 8.24187 7.48695 8.20911C7.28641 8.19338 7.28641 8.16585 7.28772 8.11211C7.28903 8.04788 7.29034 8.0125 7.50399 8.0125H7.50793C8.1397 8.0125 8.77147 8.0125 9.40325 8.0125H10.0914C10.1805 8.0125 10.2697 8.00987 10.3575 8.00594C10.5436 7.99939 10.7179 7.99415 10.8883 8.01512C12.5267 8.21435 14.0131 7.67695 15.4497 7.15658C15.7774 7.0373 16.0736 6.939 16.3567 6.85511C16.5664 6.7922 16.7486 6.88002 16.8194 7.07925C16.8561 7.18149 16.8509 7.29159 16.8037 7.37941C16.7762 7.43184 16.7224 7.5 16.6176 7.52883H16.6189ZM17.5692 5.40543C17.5652 5.07775 17.6937 4.76448 17.9322 4.52462C18.1708 4.28475 18.4827 4.15368 18.8104 4.15368C18.8131 4.15368 18.8157 4.15368 18.8183 4.15368C19.4973 4.15892 20.0478 4.71598 20.0478 5.39626C20.0478 6.07784 19.4946 6.6336 18.817 6.63491H18.8131C18.1354 6.63491 17.577 6.0844 17.5679 5.40543H17.5692ZM14.9254 11.5397C14.9228 11.5633 14.8953 11.6131 14.8756 11.6314C14.4312 11.7927 13.9856 11.9395 13.5124 12.0954C13.4338 12.1217 13.3551 12.1479 13.2765 12.1741L12.9318 9.8554L14.9333 9.33634V9.66665C14.9359 10.2827 14.9385 10.9184 14.9267 11.541L14.9254 11.5397ZM11.6656 29.5558C11.7115 29.2412 11.7587 28.9162 11.8321 28.6082C11.9684 28.0406 12.0601 27.3027 11.562 26.6106L12.2056 26.258C12.4992 26.8845 12.5385 27.418 12.3328 27.9633C12.2082 28.2949 12.1165 28.6383 12.0274 28.9712C11.9789 29.1534 11.9304 29.3369 11.8766 29.5165C11.8307 29.6685 11.7875 29.7524 11.6328 29.7708C11.6433 29.6987 11.6538 29.6279 11.6643 29.5558H11.6656Z" fill="#F3F3F3"/>
</svg>
