<svg width="37" height="33" viewBox="0 0 37 33" fill="none" xmlns="http://www.w3.org/2000/svg">
<circle cx="16.5" cy="16.5" r="16.5" fill="#585858"/>
<path d="M34.9927 21.1811C34.9345 21.1647 34.8752 21.1504 34.8125 21.135C34.7939 21.1306 34.7796 21.1174 34.7741 21.0998C34.7675 21.0823 34.7708 21.0625 34.7829 21.0482L34.8071 21.0175C34.8938 20.9054 34.9762 20.7999 35.0498 20.6879C35.2003 20.4583 35.2421 20.2331 35.1652 20.0518C35.0916 19.8772 34.9103 19.7541 34.6544 19.7047C32.4265 19.2774 30.3129 18.4754 28.5069 17.757C27.304 17.2791 25.9978 16.7891 24.395 16.2157C24.1786 16.1388 24.1149 16.0597 24.1116 15.8642C24.1006 15.3325 24.0841 14.7931 24.0687 14.2713C24.0336 13.1123 23.9973 11.916 24.0193 10.7405C24.0369 9.82434 24.1193 8.89387 24.1995 7.99416C24.2423 7.5086 24.2863 7.01535 24.3203 6.5287C24.4049 5.30272 23.7194 4.16242 22.6154 3.68895C22.3638 3.58129 22.132 3.58239 21.9628 3.69115C21.8024 3.79551 21.7113 3.99215 21.7069 4.24481C21.675 6.11674 21.3312 7.95242 21.0357 9.34318C20.8906 10.0232 20.7313 10.7131 20.5776 11.3799C20.3831 12.2225 20.1832 13.0837 20.0107 13.9362C19.9151 14.4097 19.8767 14.9007 19.8393 15.3764C19.8239 15.5687 19.8086 15.7664 19.7899 15.9608C19.7877 15.9828 19.7734 16.0004 19.7525 16.007C18.7265 16.3552 17.9465 16.4365 17.1457 16.2772C17.1281 16.2739 17.1127 16.2618 17.1061 16.2454C17.0985 16.2289 17.1006 16.2091 17.1105 16.1948L18.0959 14.6294C18.2838 14.3317 18.4727 14.0329 18.6617 13.7363C19.1033 13.0409 19.5592 12.3224 19.992 11.6062C20.4084 10.9185 20.2436 10.0473 19.6108 9.57827C19.4208 9.43765 19.2406 9.38383 19.078 9.42008C18.9122 9.45633 18.7671 9.58266 18.6485 9.79688L18.5804 9.92102C18.4057 10.2385 18.2245 10.5659 18.0026 10.8493C16.6063 12.6388 15.1804 14.4372 13.8017 16.1762L13.5611 16.4794C13.4864 16.5727 13.3974 16.6408 13.3205 16.6628C12.099 16.999 11.1158 17.534 10.316 18.2975C10.2951 18.3172 10.2611 18.3172 10.2402 18.2975C9.55032 17.6449 8.7319 17.3615 7.73772 17.434C6.96654 17.4889 6.25797 17.8437 5.79548 18.4095C5.37913 18.917 5.19458 19.5476 5.27477 20.1859C5.30443 20.4198 5.38792 20.6472 5.46921 20.8681C5.49009 20.9241 5.51096 20.9823 5.53073 21.0394C5.53623 21.0559 5.53403 21.0746 5.52414 21.0889C5.51425 21.1031 5.49888 21.1119 5.4813 21.113C5.43077 21.1152 5.37804 21.1185 5.3264 21.1229C4.53984 21.1998 3.98178 21.8227 4.00046 22.6038C4.02023 23.4387 4.65739 24 5.58456 24C11.8221 24 18.0597 24 24.2972 24H34.5346C34.5786 24 34.6225 24 34.6664 23.9978C35.3563 23.9693 35.9408 23.4464 36.0265 22.7806C36.122 22.0347 35.698 21.3756 34.9938 21.1789L34.9927 21.1811ZM20.9884 15.4632C21.0071 15.1248 21.0236 14.8118 21.0851 14.5075C21.2125 13.8824 21.3564 13.2496 21.4948 12.6366C21.675 11.8435 21.8596 11.0262 22.0134 10.2132C22.2188 9.12347 22.3935 8.00954 22.5615 6.93296L22.5648 6.90879C22.6395 6.42873 22.7153 5.94866 22.7933 5.4686C22.7955 5.45212 22.7988 5.43674 22.8021 5.42026C22.8065 5.39829 22.823 5.38181 22.845 5.37742C22.8669 5.37302 22.8889 5.38181 22.901 5.40049C23.1152 5.72017 23.2031 6.08378 23.169 6.51332C23.1383 6.9066 23.1009 7.30647 23.0647 7.69426C22.9834 8.56431 22.8999 9.46292 22.8812 10.3495C22.8559 11.5315 22.8812 12.7344 22.9065 13.8967C22.9175 14.4119 22.9285 14.9271 22.935 15.4412C22.9361 15.55 22.935 15.6587 22.935 15.7697V15.8213C22.935 15.8521 22.9098 15.8763 22.8801 15.8763H21.0181C21.0027 15.8763 20.9884 15.8697 20.9774 15.8587C20.9675 15.8477 20.962 15.8323 20.9631 15.8169C20.9719 15.6972 20.9785 15.5785 20.984 15.4632H20.9884ZM19.3219 20.2507C19.5164 19.4015 19.7009 18.4051 19.4285 17.3164C19.4252 17.3022 19.4285 17.2857 19.4362 17.2725C19.445 17.2593 19.4581 17.2505 19.4735 17.2483C19.6185 17.2242 19.7602 17.1978 19.9008 17.1725L19.9195 17.1692C20.3183 17.0967 20.694 17.0275 21.0752 17.0023C22.5462 16.9045 24.0929 17.1945 25.9451 17.9152L26.6503 18.1898C28.2949 18.8302 29.9965 19.4927 31.6894 20.1276C32.0914 20.2781 32.5034 20.3891 32.9395 20.5055C33.0571 20.5374 33.1746 20.5682 33.2933 20.6011C33.3152 20.6077 33.3317 20.6275 33.3339 20.6505C33.3361 20.6736 33.3218 20.6956 33.301 20.7044C33.0933 20.7944 32.8769 20.8384 32.6396 20.8384C32.4869 20.8384 32.3265 20.8197 32.1541 20.7835C31.6795 20.6824 31.1972 20.5725 30.771 20.4759C29.6164 20.2133 28.4256 19.9431 27.2381 19.786C26.1011 19.6344 24.9311 19.5893 23.8007 19.5465H23.7842C23.3074 19.5278 22.8142 19.5081 22.3308 19.4817C21.976 19.4619 21.697 19.5817 21.4388 19.864C20.9313 20.4176 20.1535 20.5857 19.3593 20.3133C19.3329 20.3045 19.3175 20.277 19.323 20.2496L19.3219 20.2507ZM27.7873 21.0548C27.7851 21.0834 27.761 21.1053 27.7324 21.1053H21.9112C21.8881 21.1053 21.8684 21.0911 21.8596 21.0702C21.8519 21.0493 21.8574 21.0251 21.8738 21.0098C22.2012 20.7154 22.5363 20.5945 22.9911 20.6077C24.8619 20.6681 26.3713 20.7912 27.7401 20.9966C27.7687 21.001 27.7884 21.0262 27.7862 21.0548H27.7873ZM11.8727 18.5325C11.9715 18.471 12.0726 18.4084 12.1715 18.3425C12.1835 18.3337 12.1989 18.3315 12.2132 18.3348C12.2275 18.3381 12.2407 18.3469 12.2484 18.359C12.255 18.3689 12.2582 18.3765 12.2615 18.3842C12.3626 18.6468 12.5307 18.8105 12.7339 18.8445C12.9317 18.8775 13.1371 18.783 13.3107 18.5787C14.028 17.7361 14.7135 16.9023 15.3485 16.1267C15.8164 15.5544 16.2888 14.9699 16.7711 14.3723C16.7898 14.3493 16.8216 14.3449 16.8458 14.3624C16.87 14.3789 16.8754 14.4119 16.8601 14.4361L16.3635 15.2182L16.3383 15.2589C15.5967 16.4277 14.831 17.6361 14.0829 18.828C13.9291 19.0719 13.8742 19.251 13.9138 19.374C13.9742 19.5619 14.1598 19.7618 14.3543 19.8497C14.5806 19.9519 14.8146 19.8486 14.998 19.563C15.0815 19.4323 15.1683 19.3026 15.254 19.173L15.2639 19.1576C15.5165 18.7775 15.778 18.3842 15.9834 17.9701C16.2141 17.5043 16.5261 17.3494 17.0611 17.4384C17.3654 17.4889 17.6785 17.4999 17.9828 17.5098L18.1047 17.5142C18.2596 17.5197 18.3299 17.5878 18.3629 17.7636C18.5211 18.5941 18.3552 19.3927 18.1531 20.132C18.1377 20.187 18.0696 20.2584 18.0059 20.2847C16.6711 20.8483 15.4067 21.1306 14.1939 21.1306C13.1492 21.1306 12.1429 20.9219 11.1608 20.5033C10.9817 20.4275 10.9631 20.3287 10.9268 20.132L10.9224 20.1068C10.7576 19.2246 11.2992 18.8896 11.8716 18.5347L11.8727 18.5325ZM7.98929 18.6237C7.99917 18.605 8.01785 18.5941 8.03872 18.5941C8.89339 18.5941 9.56241 19.0269 9.74586 19.6959C9.83814 20.0321 9.74037 20.422 9.4921 20.7132C9.28667 20.9526 9.02082 21.0878 8.74179 21.0922C8.72641 21.0922 8.71213 21.0856 8.70224 21.0757C8.69126 21.0647 8.68577 21.0493 8.68686 21.035C8.7363 20.1507 8.51 19.3817 7.99588 18.683C7.98379 18.6666 7.9816 18.6446 7.99148 18.6259L7.98929 18.6237ZM6.72595 19.1181C6.74573 19.0983 6.77539 19.0961 6.79736 19.1126C7.33894 19.5168 7.63775 20.3506 7.49274 21.0515C7.48725 21.0779 7.46418 21.0955 7.43891 21.0955C7.43562 21.0955 7.43342 21.0955 7.43012 21.0955C7.00828 21.0273 6.59523 20.6659 6.44912 20.2375C6.3118 19.8332 6.40957 19.4366 6.72485 19.1192L6.72595 19.1181ZM34.8664 22.6038C34.8532 22.6708 34.7203 22.7839 34.6049 22.8487C34.5786 22.863 34.5445 22.8685 34.5028 22.8685C34.4731 22.8685 34.439 22.8663 34.4006 22.863C34.3632 22.8597 34.3259 22.8564 34.2907 22.8564H5.84382H5.74385C5.67245 22.8564 5.60214 22.8564 5.53073 22.8564C5.39012 22.8619 5.28795 22.8334 5.22863 22.7762C5.18139 22.7312 5.15723 22.6664 5.15613 22.5763C5.15393 22.4796 5.1759 22.4093 5.22424 22.3599C5.28686 22.2962 5.39122 22.2665 5.54282 22.2687C6.45681 22.2687 7.3719 22.2687 8.28589 22.2687H9.35258H34.3347C34.3665 22.2687 34.4006 22.2654 34.4357 22.2621C34.528 22.2533 34.5731 22.2522 34.6016 22.2687C34.7631 22.3884 34.8598 22.5049 34.8686 22.5851C34.8686 22.5906 34.8686 22.5961 34.8686 22.6016L34.8664 22.6038Z" fill="#F3F3F3"/>
<path d="M14.8848 3.56043C14.8991 3.57362 14.9189 3.57801 14.9364 3.57252C14.9892 3.55714 15.0342 3.54725 15.0727 3.53846C15.1507 3.52089 15.2056 3.5088 15.255 3.47475L15.5154 3.29568C15.9065 3.02764 16.3107 2.7497 16.6919 2.4542C16.9072 2.28722 16.9391 2.00599 16.771 1.75332C16.5909 1.48088 16.3085 1.39849 16.0668 1.54899C15.5066 1.89833 15.0353 2.23229 14.6266 2.56735C14.4816 2.68709 14.4553 3.01336 14.5025 3.17704C14.5377 3.30118 14.6618 3.39126 14.7695 3.47035L14.7365 3.51429L14.7706 3.47145C14.8123 3.50221 14.8518 3.53077 14.8826 3.55933L14.8848 3.56043Z" fill="#F3F3F3"/>
<path d="M28.5914 3.85593C28.6957 3.94491 28.8001 4.03389 28.9023 4.12397C29.1769 4.36675 29.5229 4.37444 29.7459 4.14155C29.8591 4.024 29.9173 3.88669 29.914 3.74388C29.9107 3.58898 29.8338 3.43518 29.6921 3.30006C29.3164 2.94193 28.922 2.60468 28.5507 2.29379C28.4782 2.23337 28.3892 2.19602 28.2849 2.15318C28.2311 2.13121 28.1739 2.10704 28.1124 2.07738C28.0915 2.06749 28.0663 2.07188 28.0509 2.08726C28.008 2.12901 27.9575 2.16856 27.9081 2.2081C27.7872 2.30368 27.6631 2.40145 27.6356 2.52998C27.5961 2.71783 27.6818 3.00235 27.8224 3.15066C28.0619 3.40333 28.331 3.63292 28.5914 3.85483V3.85593Z" fill="#F3F3F3"/>
<path d="M19.3296 1.41054C19.791 1.33913 20.27 1.26113 20.794 1.17215C21.1356 1.11393 21.351 0.853573 21.3191 0.539388C21.2883 0.236188 21.0423 0.0296608 20.6775 0C20.6764 0 20.6753 0 20.6731 0C20.6699 0 20.6655 0 20.6622 0C20.5051 0.0296608 20.348 0.059322 20.1909 0.0878842C19.8229 0.154896 19.4428 0.225203 19.0704 0.31089C18.91 0.34824 18.7836 0.433927 18.7067 0.56026C18.6287 0.687691 18.609 0.848079 18.6496 1.01066C18.7221 1.29848 18.9957 1.46107 19.3285 1.41054H19.3296Z" fill="#F3F3F3"/>
<path d="M23.3844 0.990876C23.4514 1.09414 23.5437 1.23475 23.6766 1.28199C24.2149 1.47424 24.7774 1.61925 25.3047 1.74778C25.5903 1.81698 25.8429 1.67088 25.9385 1.37976C26.044 1.06228 25.9187 0.78325 25.6287 0.683282C25.1047 0.504218 24.5467 0.344928 23.9677 0.20761C23.8282 0.174653 23.6865 0.205413 23.5689 0.295494C23.4119 0.415236 23.3174 0.622862 23.3086 0.864542C23.3086 0.878824 23.313 0.892006 23.3218 0.901893C23.3383 0.920568 23.3602 0.953525 23.3833 0.989777L23.3844 0.990876Z" fill="#F3F3F3"/>
<path d="M31.773 10.9163L31.7478 11.5051C31.7357 11.7797 31.7247 12.0544 31.7126 12.329C31.6983 12.6817 31.8994 12.9409 32.2136 12.975C32.5431 13.0101 32.7958 12.8003 32.8419 12.4586C32.8716 12.2345 32.8881 12.0071 32.9046 11.7874C32.9111 11.6897 32.9188 11.5919 32.9276 11.4952C32.9276 11.4886 32.9276 11.4809 32.9232 11.4732C32.9199 11.4656 32.9188 11.4579 32.9188 11.4502C32.9188 11.4029 32.9188 11.3546 32.9199 11.3074C32.921 11.1679 32.9221 11.0338 32.9166 10.9009C32.9013 10.5054 32.6969 10.2769 32.3586 10.2725L32.3509 10.2176V10.2725C32.0059 10.2725 31.7895 10.5131 31.773 10.9163Z" fill="#F3F3F3"/>
<path d="M31.3388 8.05233C31.4114 8.19075 31.664 8.27644 31.8563 8.27644C31.8925 8.27644 31.9244 8.27314 31.9518 8.26765C32.0826 8.23799 32.1836 8.11495 32.2902 7.98422C32.3363 7.9271 32.388 7.86338 32.444 7.80626C32.4605 7.78978 32.4638 7.76561 32.4539 7.74474C32.366 7.55689 32.2814 7.37453 32.199 7.19437C31.9936 6.74726 31.8002 6.32651 31.5794 5.91895C31.463 5.70364 31.184 5.64981 30.9159 5.79262C30.6545 5.93103 30.5424 6.17052 30.6281 6.40341C30.8148 6.90764 31.0455 7.49866 31.3378 8.05343L31.3388 8.05233Z" fill="#F3F3F3"/>
<path d="M12.2604 7.20099C12.3427 7.1922 12.3955 7.16913 12.4229 7.13068C12.7239 6.70334 12.9931 6.25843 13.2765 5.78715C13.3699 5.63336 13.4644 5.47627 13.561 5.31807C13.5742 5.2972 13.5709 5.27084 13.5544 5.25216C13.5039 5.19613 13.4578 5.13462 13.4138 5.07639C13.315 4.94457 13.2216 4.82043 13.0963 4.78967C13.0557 4.77979 13.0096 4.77539 12.9612 4.77539C12.7745 4.77539 12.5515 4.8457 12.4691 4.96654C12.1428 5.44111 11.8572 5.94644 11.6188 6.47045C11.5408 6.64292 11.6507 6.97139 11.7924 7.09882C11.8989 7.19549 12.1351 7.21527 12.2604 7.20099Z" fill="#F3F3F3"/>
<path d="M10.5972 10.4395C10.5917 10.824 10.7916 11.0778 11.1179 11.1008C11.4507 11.1239 11.6924 10.8998 11.7386 10.5252C11.766 10.3011 11.7968 10.0352 11.8111 9.76609C11.8286 9.43323 11.6012 9.16189 11.2838 9.13443C11.2673 9.13333 11.2497 9.13223 11.2332 9.13223C10.9564 9.13223 10.7257 9.33986 10.6752 9.64196C10.6499 9.79246 10.6334 9.94626 10.6169 10.0935C10.6092 10.1605 10.6027 10.2275 10.5939 10.2934C10.5939 10.2989 10.5939 10.3055 10.5972 10.3132C10.6005 10.3209 10.6016 10.3286 10.6005 10.3362L10.5455 10.3384L10.6005 10.3417C10.5983 10.3736 10.5972 10.4065 10.5961 10.4395H10.5972Z" fill="#F3F3F3"/>
<path d="M30.7996 16.6727C30.9017 16.7342 31.0105 16.766 31.1137 16.766C31.2873 16.766 31.44 16.6771 31.5422 16.5167C31.73 16.2212 31.8794 15.9169 31.9871 15.6137C32.0453 15.4467 32.0233 15.2731 31.9267 15.1369C31.808 14.9699 31.5949 14.8743 31.3411 14.8743C31.328 14.8743 31.3159 14.8787 31.306 14.8864C31.2906 14.8985 31.2686 14.9128 31.2434 14.9282C31.1566 14.9831 31.0336 15.0611 30.961 15.1731C30.8094 15.4093 30.6952 15.673 30.5864 15.9279L30.5623 15.9828C30.4425 16.2607 30.5282 16.5123 30.7985 16.6738L30.7996 16.6727Z" fill="#F3F3F3"/>
</svg>
