<svg width="35" height="37" viewBox="0 0 35 37" fill="none" xmlns="http://www.w3.org/2000/svg">
<circle cx="16.5" cy="20.5" r="16.5" fill="#585858"/>
<path d="M16.4709 26.1674C16.1908 25.9445 15.9407 25.7446 15.6674 25.5257C16.1473 24.9519 16.5008 24.2762 17.269 24.0315C17.3397 24.0084 17.405 23.9676 17.4716 23.9336C19.0533 23.1486 20.455 22.118 21.6769 20.8418C21.719 20.7983 21.7558 20.7521 21.8319 20.6651H21.0637V19.6263C21.4648 19.6263 21.8591 19.6195 22.2547 19.6263C23.1181 19.6426 23.1262 19.6331 23.1099 18.7548C23.1018 18.37 23.1099 17.9839 23.1099 17.5801H24.1419C24.1419 18.1266 24.1337 18.661 24.1473 19.1953C24.1501 19.3218 24.1936 19.4767 24.2751 19.5692C25.9828 21.5039 27.7 23.4305 29.4145 25.3585C29.4281 25.3748 29.4485 25.3857 29.4403 25.3789C29.8224 25.0022 30.2017 24.6297 30.5878 24.2504C30.5878 24.2504 30.5851 24.2232 30.5715 24.2109C29.129 22.971 28.3214 21.2701 27.3248 19.7092C26.9441 19.1137 26.6286 18.4747 26.2901 17.852C25.4023 16.2164 24.0399 15.2728 22.1949 15.0104C21.9583 14.9764 21.8509 15.0403 21.7585 15.2524C21.2282 16.4733 20.6939 17.6929 20.1405 18.9043C20.0277 19.1504 19.8645 19.3979 19.6647 19.576C18.3105 20.7874 16.9427 21.9839 15.5722 23.1763C15.4186 23.3109 15.3615 23.4414 15.3615 23.6426C15.3683 25.8466 15.3655 28.0519 15.3655 30.2558C15.3655 30.8269 15.2106 30.9819 14.6395 30.9832C13.768 30.9832 12.8978 30.9832 12.0263 30.9832C11.4158 30.9832 11.1874 30.8663 10.8162 30.3578C10.7401 30.4013 10.649 30.4339 10.5824 30.4924C10.112 30.9112 9.56676 31.0362 8.94541 30.9914C8.38933 30.9519 7.82779 30.9873 7.26899 30.9819C6.6354 30.9764 6.16906 30.593 6.0834 30.0165C6.00318 29.4781 6.31454 28.9397 6.90734 28.7983C7.74487 28.5984 8.34583 28.0723 8.96038 27.5325C9.9529 26.6596 10.9481 25.7881 11.9665 24.9438C12.252 24.7072 12.301 24.4611 12.2493 24.1321C12.1378 23.421 12.063 22.7045 11.9352 21.9961C11.7653 21.0485 11.7285 20.0967 11.7517 19.1382C11.753 19.0539 11.7517 18.9696 11.7517 18.8676C11.3438 18.8282 11.0093 18.8364 10.6653 19.1205C9.8074 19.8316 8.838 20.2912 7.6225 20.1008C7.6225 20.2123 7.6225 20.3143 7.6225 20.4149C7.6225 21.1355 7.62794 21.8561 7.62114 22.5767C7.61026 23.7052 6.94405 24.661 5.89035 25.0594C5.50965 25.2035 5.11672 25.319 4.73195 25.4536C4.50353 25.5339 4.30366 25.4958 4.14458 25.319C3.98279 25.1409 3.9488 24.918 4.0834 24.7222C4.45322 24.1838 4.46545 23.5828 4.4505 22.9642C4.43146 22.1906 4.44641 21.4156 4.44777 20.6419C4.44777 20.1348 4.58376 19.6698 4.88016 19.2225C5.16568 19.4088 5.44168 19.5882 5.62387 19.7079C5.56948 20.2354 5.4947 20.6855 5.48382 21.1382C5.46207 21.9975 5.47702 22.8581 5.47702 23.7188C5.47702 23.833 5.47702 23.9472 5.47702 24.0695C6.0902 23.9295 6.57017 23.3258 6.5824 22.6555C6.60008 21.6766 6.60007 20.6977 6.57696 19.7201C6.57288 19.5651 6.43826 19.3925 6.3227 19.266C5.51644 18.3795 5.31658 17.16 5.81284 16.0668C6.08612 15.4645 6.53616 15.0308 7.17382 14.8812C7.55723 14.7901 7.82238 14.5998 8.07527 14.3279C8.55113 13.8153 8.66261 13.8207 9.21461 14.2748C9.28803 14.336 9.40361 14.37 9.50151 14.3754C9.75848 14.389 10.0168 14.3768 10.2751 14.3809C10.717 14.3877 10.891 14.5644 10.8992 15.0145C10.9033 15.2171 10.8992 15.421 10.8992 15.644H11.7503C11.7503 15.527 11.7544 15.4224 11.7503 15.3177C11.6443 13.1586 11.8849 11.0267 12.2411 8.90298C12.2996 8.55763 12.2656 8.19461 12.267 7.84111C12.2697 6.73302 12.2724 5.62629 12.2629 4.5182C12.2615 4.35504 12.2167 4.17965 12.146 4.03009C11.9148 3.53383 11.6633 3.04709 11.4186 2.55626C11.0188 1.75273 11.3329 1.22927 12.2466 1.21296C12.2547 1.1341 12.2615 1.05252 12.2697 0.970946C12.3173 0.436615 12.732 0.0287287 13.2649 0.009694C13.6307 -0.00390221 13.9964 -0.00254259 14.3622 0.009694C14.9237 0.0287287 15.3492 0.461088 15.3628 1.02941C15.3737 1.49168 15.3655 1.95395 15.3655 2.41622C15.3655 5.73914 15.3683 9.06205 15.3601 12.385C15.3601 12.6079 15.4172 12.767 15.5804 12.9179C15.9352 13.247 16.218 13.7242 16.6327 13.8955C17.0474 14.0668 17.5845 13.9431 18.0685 13.9431C19.197 13.9444 20.3268 13.9322 21.4553 13.9458C23.8673 13.9744 25.734 14.971 26.9876 17.0661C27.9964 18.7534 29.0216 20.4298 30.0454 22.1076C30.1555 22.2884 30.2874 22.4679 30.4451 22.608C31.7639 23.7867 32.7592 25.2347 33.783 26.6528C34.5579 27.7242 34.9305 28.9519 34.9753 30.2735C34.993 30.7983 34.8149 30.9778 34.2969 30.9778C33.4254 30.9791 32.5552 30.9778 31.6837 30.9778C30.9808 30.9778 30.5539 30.7031 30.3866 30.1457C30.2248 29.6059 30.4233 29.1572 31.0365 28.7385C28.5607 25.9513 26.0875 23.1695 23.5994 20.37C22.577 21.3952 21.5776 22.4027 20.5688 23.4006C20.4043 23.5638 20.2058 23.7038 20.0005 23.8112C19.2772 24.1878 18.5511 24.5631 17.8101 24.903C17.405 25.0893 17.0814 25.3394 16.8339 25.7065C16.732 25.8574 16.6069 25.9921 16.4696 26.162L16.4709 26.1674ZM12.7999 14.4597C13.6076 14.4353 14.339 14.2517 15.0365 13.8479C14.9509 13.7555 14.8937 13.6739 14.8176 13.6181C14.4152 13.3217 14.32 12.9302 14.3227 12.438C14.3418 8.77245 14.3322 5.10555 14.3322 1.43866V1.0634H13.3003C13.3003 1.33261 13.3003 1.58006 13.3003 1.82615C13.3003 2.40807 13.1983 2.52635 12.5294 2.62968C13.4757 3.63308 13.2867 4.85538 13.303 6.04097C13.3261 7.70787 13.3139 9.37068 12.9862 11.0158C12.7632 12.1389 12.7496 13.2755 12.7999 14.457V14.4597ZM12.7455 19.6984C12.7918 20.2449 12.8149 20.7806 12.8883 21.3095C13.114 22.9261 13.39 24.5345 13.3084 26.181C13.269 26.9751 13.3016 27.7718 13.3016 28.5672C13.3016 29.2728 13.2867 29.2905 12.6069 29.523C12.32 29.6209 12.0358 29.7242 11.7503 29.8262C11.7571 29.8561 11.7639 29.886 11.7707 29.9159H14.32V20.4747C13.7965 20.2164 13.303 19.973 12.7469 19.6984H12.7455ZM13.5613 18.884C14.2099 19.5203 15.163 19.5529 15.8224 18.9451C16.1854 18.6107 16.5199 18.2449 16.8775 17.905C17.0365 17.7541 17.2214 17.6317 17.4077 17.4863V15.0022C16.8489 14.8948 16.218 15.2089 15.8441 14.6501C15.1888 14.9166 14.5701 15.1681 13.9624 15.4156C15.254 16.2544 15.1793 18.2055 13.5613 18.884ZM8.50898 17.9268C8.54433 17.9213 8.57968 17.9145 8.61503 17.9091C8.68165 17.8221 8.75235 17.7392 8.81217 17.6494C9.12216 17.1912 9.26357 17.126 9.77343 17.368C10.5171 17.7215 11.2826 17.9037 12.1079 17.8235C12.2398 17.8112 12.3934 17.833 12.5117 17.8914C13.0256 18.143 13.7666 17.7174 13.8142 17.1287C13.8577 16.5876 13.4838 16.2082 12.8094 16.113C12.7211 16.5304 12.5865 16.6882 12.2452 16.6963C11.632 16.7099 11.0188 16.7099 10.407 16.6963C10.0562 16.6882 9.8822 16.4937 9.87132 16.143C9.86452 15.9105 9.86996 15.6766 9.86996 15.4631C9.42944 15.4115 9.03513 15.3639 8.69387 15.3245C8.28054 15.5067 7.86994 15.6725 7.47565 15.8683C7.23772 15.9866 7.02289 16.1525 6.72378 16.3428C7.19013 16.5658 7.54365 16.7453 7.90531 16.9057C8.33223 17.0961 8.77682 17.2619 8.50898 17.9268ZM30.2126 26.2531C30.286 26.3374 30.3812 26.4516 30.4804 26.5617C31.0433 27.1953 31.6089 27.8289 32.1705 28.4625C32.5308 28.869 32.4709 29.1926 31.9964 29.4387C31.8251 29.5271 31.6484 29.6073 31.4811 29.7025C31.4349 29.7283 31.3846 29.8044 31.3914 29.8479C31.3982 29.8887 31.4798 29.9445 31.5287 29.9458C32.3187 29.9513 33.11 29.9499 33.9013 29.9499C33.7993 27.901 32.3962 26.5916 31.352 25.1083C30.9713 25.4917 30.6096 25.8547 30.2126 26.2531ZM11.114 27.0362C10.4423 27.6154 9.77342 28.1539 9.14799 28.7412C8.65717 29.2021 8.11741 29.5366 7.46344 29.6929C7.34107 29.7229 7.22821 29.7881 7.10992 29.8384C7.17382 29.9241 7.2214 29.9485 7.26763 29.9499C7.97735 29.9526 8.68709 29.9567 9.39545 29.9472C9.50286 29.9458 9.62113 29.8874 9.71494 29.8262C10.407 29.3734 11.095 28.9125 11.783 28.453C11.8673 28.3972 11.9475 28.3347 12.0399 28.2667C11.719 27.8411 11.424 27.4482 11.114 27.0376V27.0362ZM19.2649 18.3619C19.7571 17.2538 20.252 16.1348 20.7578 14.9954H18.4655C18.4655 15.7582 18.5144 16.5101 18.4505 17.2524C18.3961 17.8833 18.5933 18.249 19.2663 18.3619H19.2649ZM17.5409 18.7113C16.8598 19.3313 16.3255 20.1171 15.3873 20.3279V21.9785C16.4669 21.0444 17.507 20.1457 18.5715 19.2252C18.1949 19.0376 17.87 18.8758 17.5423 18.7113H17.5409ZM6.60687 17.436C6.61639 18.7126 7.85228 19.4917 8.91278 18.9397C7.99776 18.9397 7.83053 18.8201 7.49743 17.939C7.47431 17.8792 7.41176 17.8207 7.3533 17.7908C7.11673 17.6698 6.87335 17.561 6.60687 17.436ZM12.2425 26.8119V26.0573C12.1065 26.181 12.0086 26.2694 11.9026 26.3659C12.0182 26.5169 12.112 26.642 12.2425 26.8119Z" fill="#F3F3F3"/>
</svg>
