<svg width="37" height="34" viewBox="0 0 37 34" fill="none" xmlns="http://www.w3.org/2000/svg">
<circle cx="16.5" cy="17.5" r="16.5" fill="#585858"/>
<path d="M12.7291 27.0062C12.6675 27.0563 12.6117 27.0993 12.5587 27.148C12.1505 27.5232 11.9084 27.5175 11.5059 27.1208C11.2911 26.9088 11.072 26.6982 10.8657 26.4777C10.4117 25.9921 9.92325 25.6111 9.26296 25.3734C7.85214 24.8663 6.99707 23.4355 7.0959 21.9358C7.15892 20.9948 7.2735 20.0567 7.34798 19.1156C7.35944 18.9767 7.31074 18.802 7.22767 18.6946C6.64329 17.9383 6.04459 17.1935 5.44016 16.453C5.35566 16.3484 5.21959 16.2697 5.09068 16.221C4.67245 16.0663 4.24705 15.9288 3.82309 15.7913C3.49223 15.6839 3.33325 15.4647 3.34184 15.1138C3.35044 14.7872 3.33039 14.4592 3.34758 14.1327C3.36047 13.9092 3.29744 13.7703 3.08116 13.6872C2.89067 13.6142 2.70877 13.5154 2.52973 13.4137C2.19744 13.226 2.08858 12.9539 2.2533 12.6216C2.86919 11.3755 3.47218 10.1222 4.12961 8.89906C4.98469 7.30778 7.48262 6.87379 8.7989 7.61143C9.00229 7.72601 9.11831 7.70596 9.29448 7.557C10.194 6.79501 11.5145 6.95114 12.2149 7.88643C12.9182 8.82458 12.7048 10.1337 11.7136 10.7825C11.4544 10.9515 11.3727 11.1163 11.3971 11.4185C11.4601 12.169 11.2653 12.878 10.923 13.5483C10.9445 13.5812 10.966 13.6142 10.9875 13.6486C12.1777 13.1473 13.3837 12.6789 14.5539 12.1346C15.8673 11.5245 17.1492 10.847 18.4411 10.1939C18.6116 10.1079 18.7763 10.0005 18.9281 9.88305C20.5036 8.65987 22.0763 7.43382 23.6504 6.20777C23.7363 6.14045 23.818 6.03876 23.9139 6.02157C24.358 5.9385 24.3995 5.6148 24.4353 5.25243C24.547 4.13237 24.6845 3.01518 24.7977 1.89656C24.8349 1.52989 25.0097 1.33366 25.3663 1.25059C26.0237 1.09733 26.6768 0.919728 27.3314 0.756446C28.0203 0.586002 28.2882 0.793686 28.2882 1.49408C28.2882 2.60841 28.281 3.7213 28.2968 4.83563C28.2996 5.01324 28.3655 5.21519 28.4658 5.36129C29.3166 6.5859 30.2762 7.71312 31.3519 8.75154C32.7699 10.1208 34.1449 11.5345 35.5356 12.9324C37.379 14.7829 37.4878 17.1734 35.8292 19.193C33.0764 22.5446 29.7262 25.0998 25.7301 26.787C23.8395 27.5848 21.8557 27.9787 19.8061 27.9959C18.4053 28.0074 17.0031 27.9973 15.6052 27.9357C14.5782 27.8899 13.6315 27.5089 12.7277 27.0105L12.7291 27.0062ZM19.0098 22.662C19.0456 24.0843 19.3292 25.4106 19.8935 26.671C19.9322 26.757 20.1226 26.8214 20.2387 26.8157C21.8299 26.7412 23.3854 26.459 24.8679 25.8718C28.9127 24.2719 32.2642 21.7224 35.0085 18.3594C36.1988 16.8999 36.1085 15.1553 34.7794 13.819C33.0907 12.1203 31.3963 10.4273 29.7033 8.73291C29.6217 8.65127 29.5357 8.57393 29.4197 8.46508C28.9256 9.14685 28.3555 9.61235 27.4617 9.36313C27.8814 10.1967 28.2767 10.9544 28.6477 11.725C29.434 13.3592 30.5369 14.7257 31.9892 15.8128C32.5149 16.2066 32.4762 16.6435 31.8976 16.9658C30.2633 17.8781 28.6291 18.7905 26.992 19.6972C26.8573 19.7716 26.7055 19.8375 26.5551 19.8576C25.9091 19.9421 25.2603 20.0194 24.6115 20.0782C22.7867 20.24 21.2785 20.9991 20.1298 22.4414C19.9078 22.7207 19.6543 22.8368 19.3077 22.7136C19.2289 22.6864 19.143 22.6835 19.0112 22.6606L19.0098 22.662ZM26.061 9.51352C24.4468 10.9501 22.8956 12.3351 21.3387 13.713C21.1682 13.8634 20.9792 13.9995 20.7801 14.1083C19.0355 15.068 17.2853 16.0204 15.5379 16.9758C15.4261 17.0374 15.3173 17.1061 15.1912 17.182C15.7685 18.1073 16.3972 18.9624 16.8613 19.9005C17.3383 20.8631 18.0372 21.3572 19.0742 21.4703C19.2905 21.4933 19.4165 21.4761 19.5669 21.3099C20.5237 20.2515 21.6925 19.5167 23.0746 19.1772C23.785 19.0025 24.527 18.9509 25.2531 18.8421C25.796 18.7604 26.3446 18.7647 26.8545 18.4625C28.0175 17.7736 29.2106 17.1362 30.3908 16.4759C30.4911 16.4201 30.587 16.3585 30.6443 16.3255C30.0442 15.6538 29.4383 15.0279 28.8926 14.3533C27.996 13.2432 27.4761 11.9141 26.8143 10.6651C26.6081 10.2755 26.3302 9.92316 26.0595 9.51495L26.061 9.51352ZM28.6563 7.56989C28.3154 7.11155 27.9702 6.63173 27.6007 6.17053C27.5448 6.10035 27.3644 6.07027 27.267 6.10035C26.6439 6.29228 26.0323 6.52001 25.4093 6.70765C24.812 6.88668 24.2778 7.15166 23.7922 7.557C23.003 8.21442 22.1794 8.83031 21.3659 9.45909C20.6684 9.99907 20.0295 10.6622 19.2532 11.0446C16.8226 12.2406 14.5009 13.6615 11.8898 14.4922C10.0464 15.0794 9.08965 16.5461 8.68431 18.3895C8.66426 18.4811 8.75163 18.6358 8.83614 18.7046C9.61817 19.3377 10.5076 19.5539 11.4873 19.3133C12.3224 19.1085 12.9526 18.6215 13.4267 17.7979C12.964 17.9054 12.5816 17.997 12.1963 18.083C11.8583 18.1589 11.5761 18.0013 11.4859 17.6919C11.3985 17.3926 11.5661 17.0846 11.8884 16.9801C12.1061 16.9099 12.3295 16.854 12.5544 16.8111C13.62 16.6091 14.6026 16.2109 15.5407 15.6595C16.6121 15.0293 17.7078 14.4363 18.815 13.872C19.9006 13.3177 20.8775 12.6345 21.7626 11.7952C22.6664 10.9387 23.6733 10.1853 24.5327 9.28865C25.3333 8.45362 26.2128 8.03968 27.3543 8.23877C27.9473 8.3419 28.3412 8.07263 28.6563 7.56989ZM8.44512 19.8862C8.37923 20.5752 8.31048 21.1896 8.26322 21.8041C8.15723 23.1948 8.89629 24.176 10.2527 24.504C10.4733 24.5569 10.6953 24.6902 10.8643 24.8448C11.2639 25.2101 11.632 25.6083 11.9886 25.9692C13.4997 24.4553 14.9836 22.9685 16.4903 21.4603C15.8515 20.4391 15.1898 19.3778 14.498 18.2692C13.8821 19.3892 13.0099 20.114 11.8311 20.4276C10.6523 20.7427 9.53796 20.5293 8.44512 19.8862ZM5.2067 9.37458C5.3356 9.47055 5.45592 9.55219 5.56764 9.64386C6.42272 10.3443 7.02571 11.2008 7.25201 12.3051C7.28066 12.4426 7.39381 12.5844 7.50553 12.6789C7.94811 13.0527 8.41361 13.4008 8.85476 13.776C9.03236 13.9279 9.14838 13.9178 9.3088 13.7589C10.0822 12.9969 10.3945 12.0759 10.1968 11.016C9.96479 9.76847 9.10685 9.01508 8.01114 8.54385C7.15462 8.17575 5.83834 8.58252 5.2067 9.37315V9.37458ZM7.67168 17.3754C8.0498 16.6478 8.41648 15.9445 8.79747 15.2141C8.20736 14.74 7.59577 14.2086 6.94264 13.7359C6.48574 13.4065 6.1735 13.0126 6.07467 12.4612C5.91568 11.5674 5.33703 10.9716 4.64953 10.4058C4.28143 11.1435 3.9162 11.8739 3.53521 12.6388C4.15682 12.8565 4.58651 13.1473 4.52062 13.915C4.44471 14.7901 4.49771 14.813 5.35136 15.0637C5.81399 15.1997 6.16347 15.4361 6.44706 15.8285C6.83522 16.3656 7.26777 16.8698 7.67168 17.374V17.3754ZM17.8439 22.3856C17.5603 22.2051 17.3855 22.2968 17.1893 22.4973C16.0821 23.626 14.9592 24.7403 13.8435 25.8603C13.7604 25.9434 13.683 26.0336 13.5971 26.1267C15.2013 27.0448 16.9315 26.8085 18.6818 26.8357C18.1289 25.3791 17.8353 23.9081 17.8439 22.3856ZM25.5811 5.42431C26.0882 5.25673 26.5451 5.11206 26.9934 4.94735C27.0564 4.92443 27.1223 4.80555 27.1223 4.72964C27.1309 3.83589 27.128 2.9407 27.128 2.0183C26.9203 2.06413 26.7456 2.09994 26.5723 2.14148C25.9249 2.30046 25.9192 2.30046 25.8432 2.95932C25.7516 3.76141 25.6714 4.56636 25.5797 5.42431H25.5811ZM11.0863 9.80571C11.5289 9.43188 11.5905 8.91195 11.2295 8.52094C10.8987 8.16143 10.4059 8.14424 10.0794 8.45505C10.4117 8.90193 10.7425 9.34451 11.0863 9.80571Z" fill="#F3F3F3"/>
</svg>
