<svg width="33" height="37" viewBox="0 0 33 37" fill="none" xmlns="http://www.w3.org/2000/svg">
<circle cx="16.5" cy="20.5" r="16.5" fill="#585858"/>
<path d="M14.8839 25.8242C14.8839 25.6925 14.8839 25.5768 14.8839 25.4626C14.8839 23.4737 14.8839 21.4849 14.8839 19.4961C14.8839 19.0552 14.9203 19.0171 15.3517 19.0171C15.7577 19.0171 16.1638 19.0361 16.5682 19.0107C16.8822 18.9901 16.998 19.1265 17.071 19.412C17.1772 19.8307 17.3041 20.251 17.4754 20.6475C17.8592 21.5372 18.5475 22.021 19.5277 22.0463C19.7798 22.0527 19.8829 22.1574 19.8797 22.4064C19.8718 22.8806 19.8702 23.3564 19.8797 23.8306C19.8845 24.0954 19.7782 24.2049 19.5102 24.2001C18.6649 24.1874 17.8338 24.1129 17.0377 23.6181C17.0377 23.7782 17.0377 23.8813 17.0377 23.986C17.0377 25.0645 17.0266 26.143 17.0424 27.2214C17.0503 27.8083 16.8045 28.2444 16.3128 28.522C15.301 29.0929 14.2622 29.0977 13.2709 28.495C12.332 27.924 12.3368 26.8202 13.2804 26.2587C13.6341 26.0494 14.0702 25.9764 14.4731 25.8559C14.592 25.821 14.7253 25.8337 14.8839 25.8242Z" fill="#F3F3F3"/>
<path d="M23.81 19.5675C23.6451 19.6896 23.5547 19.8022 23.4437 19.8292C22.7316 20.0052 22.3049 20.4493 22.1241 21.155C22.0987 21.2502 21.9655 21.3818 21.8831 21.3818C21.8006 21.3818 21.669 21.2502 21.6436 21.1535C21.4612 20.4477 21.0361 20.0052 20.324 19.826C20.2209 19.8006 20.148 19.6547 20.0623 19.5643C20.148 19.4834 20.2225 19.3549 20.3224 19.3312C21.025 19.1599 21.4437 18.7205 21.6404 18.0354C21.6705 17.9307 21.8006 17.853 21.8847 17.7642C21.9687 17.853 22.1003 17.9291 22.1305 18.0354C22.3271 18.7205 22.7458 19.1615 23.4484 19.3296C23.5547 19.3549 23.6419 19.4533 23.8116 19.5675H23.81Z" fill="#F3F3F3"/>
<path d="M18.327 16.1369C18.4554 16.3098 18.5554 16.3875 18.5792 16.4843C18.7203 17.0584 19.0676 17.4073 19.6418 17.5501C19.7306 17.5723 19.8607 17.7055 19.8543 17.7753C19.8448 17.8704 19.7369 18.0116 19.6465 18.0338C19.074 18.1797 18.7267 18.527 18.5776 19.098C18.5538 19.19 18.4079 19.3153 18.3254 19.3105C18.2397 19.3058 18.1176 19.1741 18.0907 19.0758C17.9384 18.5334 17.6069 18.194 17.0614 18.0417C16.9567 18.0132 16.8853 17.8704 16.7981 17.7816C16.8933 17.7007 16.9757 17.577 17.0852 17.5437C17.599 17.3851 17.9257 17.06 18.0843 16.5477C18.1208 16.4272 18.2128 16.3241 18.327 16.1369Z" fill="#F3F3F3"/>
<path d="M24.3952 9.12363C24.2588 8.89525 24.0526 8.77154 23.783 8.75568C23.5435 8.73982 23.3452 8.80009 23.1945 8.9349C23.0201 9.09033 22.9202 9.33774 22.9043 9.65177C22.8663 10.4051 22.5094 11.0998 21.9242 11.5581C21.3501 12.0086 20.6094 12.1862 19.8925 12.0466C18.638 11.8024 17.8244 10.781 17.8212 9.44559C17.818 7.72161 17.818 5.99922 17.818 4.27525V2.0723C17.818 1.95018 17.8196 1.82647 17.8212 1.70435C17.8244 1.41729 17.826 1.11912 17.8133 0.83047C17.7927 0.356257 17.485 0.0231979 17.0473 0.000993958C16.7792 -0.011694 16.5635 0.0961532 16.2971 0.37846C13.7531 3.06672 11.5106 6.0024 9.63115 9.10778C7.39649 12.8 6.05312 16.075 5.40128 19.4183C5.06188 21.1566 4.74629 23.442 5.30614 25.6973C6.49247 30.4775 9.51217 33.5432 14.2797 34.812C14.692 34.9214 15.1298 34.9864 15.5532 35.0499C15.7515 35.08 15.9497 35.1086 16.1464 35.1435H17.8387C17.8577 35.1387 17.8751 35.1339 17.8942 35.1308C17.9608 35.1133 18.029 35.0975 18.1067 35.0879C22.8234 34.517 26.1858 32.0191 28.1001 27.6655C28.9787 25.6656 29.2071 23.4293 28.8153 20.6253C28.3015 16.9442 26.8979 13.29 24.3936 9.12681L24.3952 9.12363ZM27.3689 23.4927C27.2563 28.4252 23.4943 32.6852 18.619 33.4005C18.0924 33.4782 17.5659 33.5162 17.0441 33.5162C14.9966 33.5162 13.0029 32.931 11.3012 31.8145C9.16642 30.4124 7.62645 28.2571 6.96509 25.7464C6.57969 24.281 6.53053 22.6934 6.81443 20.7506C7.29022 17.4834 8.51935 14.2242 10.6842 10.4939C12.0371 8.16093 13.631 5.91834 15.5532 3.63768C15.5897 3.59327 15.6294 3.55045 15.6674 3.50763L15.8149 3.3411L16.2083 3.46005V4.00722C16.2083 4.57976 16.2083 5.1523 16.2051 5.72485C16.2019 6.99682 16.1988 8.31319 16.213 9.60578C16.2273 10.7398 16.6809 11.7897 17.4929 12.5668C18.3018 13.3392 19.3692 13.7436 20.492 13.7087C21.6752 13.6707 22.6855 13.1901 23.4959 12.2829C23.5816 12.1878 23.6656 12.0926 23.7528 11.999C23.8004 11.9451 23.8591 11.9293 23.8829 11.9213L24.078 11.85L24.1874 12.0292C24.9645 13.4835 25.6132 14.9458 26.1128 16.3716C27.0089 18.9283 27.4196 21.2597 27.3689 23.4991V23.4927Z" fill="#F3F3F3"/>
</svg>
