<svg width="8" height="42" viewBox="0 0 8 42" fill="none" xmlns="http://www.w3.org/2000/svg">
<mask id="path-1-outside-1_138_3062" maskUnits="userSpaceOnUse" x="-1" y="-1" width="10" height="44" fill="black">
<rect fill="white" x="-1" y="-1" width="10" height="44"/>
<path d="M0.15625 0.09375H7.28125V42H2.03125V5.34375H0.15625V0.09375Z"/>
</mask>
<path d="M0.15625 0.09375V-0.90625H-0.84375V0.09375H0.15625ZM7.28125 0.09375H8.28125V-0.90625H7.28125V0.09375ZM7.28125 42V43H8.28125V42H7.28125ZM2.03125 42H1.03125V43H2.03125V42ZM2.03125 5.34375H3.03125V4.34375H2.03125V5.34375ZM0.15625 5.34375H-0.84375V6.34375H0.15625V5.34375ZM0.15625 1.09375H7.28125V-0.90625H0.15625V1.09375ZM6.28125 0.09375V42H8.28125V0.09375H6.28125ZM7.28125 41H2.03125V43H7.28125V41ZM3.03125 42V5.34375H1.03125V42H3.03125ZM2.03125 4.34375H0.15625V6.34375H2.03125V4.34375ZM1.15625 5.34375V0.09375H-0.84375V5.34375H1.15625Z" fill="white" mask="url(#path-1-outside-1_138_3062)"/>
</svg>
