<svg width="56" height="28" viewBox="0 0 56 28" fill="none" xmlns="http://www.w3.org/2000/svg">
<path d="M9.87179 15.2805C9.85445 15.2805 9.66223 15.3629 9.66223 15.3838L9.81904 15.4662C9.87107 15.4453 9.9585 15.4453 9.97585 15.4041C9.97585 15.4041 9.97585 15.3831 9.9585 15.3831C9.97585 15.321 9.92382 15.2798 9.87107 15.2798L9.87179 15.2805Z" fill="black"/>
<path d="M13.974 9.34312L13.9213 9.26074L13.9039 9.46669L14.0261 9.54907L13.974 9.34312Z" fill="black"/>
<path d="M18.757 3.92139C18.7396 3.94234 18.7223 3.96258 18.7223 3.98353C18.7223 4.02472 18.8097 4.02472 18.8271 4.02472C18.8444 4.02472 18.8972 4.02472 18.8972 3.98353C18.8972 3.92139 18.8097 3.92139 18.775 3.92139H18.7577H18.757Z" fill="black"/>
<path d="M21.4284 20.2065L21.3937 20.3511C21.5158 20.3301 21.6907 20.2477 21.708 20.083L21.5331 20.062L21.4284 20.2065Z" fill="black"/>
<path d="M21.7073 19.8978V20.0835L21.8648 19.9801L21.9168 19.7944L21.742 19.8978H21.7073Z" fill="black"/>
<path d="M5.68214 25.2367C5.61204 25.2577 5.54267 25.2989 5.47258 25.2779L5.3678 25.4015L5.52461 25.3393L5.80353 25.3805C5.89097 25.3191 6.18797 25.236 6.27468 25.2982L6.30937 25.257C6.18724 25.257 6.06512 25.236 5.96034 25.1948C5.87291 25.236 5.76813 25.2772 5.68069 25.236L5.68214 25.2367Z" fill="black"/>
<path d="M16.8196 11.5073L16.8022 11.5897L16.8716 11.5485L16.8196 11.5073Z" fill="black"/>
<path d="M22.3708 19.1142L22.2313 19.2175V19.3209L22.0745 19.4242H21.9871V19.5478L22.0918 19.6301L22.2313 19.5889L22.4235 19.3418L22.563 19.2797C22.6331 19.2175 22.7024 19.1149 22.7024 19.0116C22.615 18.9704 22.5276 18.9292 22.4228 18.9292L22.3708 19.1149V19.1142Z" fill="black"/>
<path d="M18.9491 2.14889C18.9491 2.12793 18.8617 2.12793 18.8444 2.12793L18.827 2.23126L18.9145 2.29341C18.9145 2.25222 18.9491 2.21103 18.9491 2.14889Z" fill="black"/>
<path d="M24.8145 25.4013C24.9366 25.4013 25.0067 25.3601 25.0067 25.1953C24.8845 25.1953 24.8145 25.2575 24.8145 25.4013Z" fill="black"/>
<path d="M26.1591 8.88968C26.1765 8.88968 26.1938 8.86872 26.1938 8.84849C26.1938 8.8073 26.1591 8.78635 26.1418 8.76611C26.0835 8.80754 26.0777 8.85572 26.1244 8.91064L25.985 8.99301C26.0197 9.0342 25.9676 9.17873 26.0023 9.17873C26.0724 9.17873 26.1418 9.07539 26.2292 9.13754C26.2639 9.09635 26.3167 9.05516 26.3167 8.99301C26.282 8.91064 26.2119 8.95183 26.1599 8.88968H26.1591Z" fill="black"/>
<path d="M27.5035 9.26081L27.3988 9.23986C27.3467 9.302 27.2593 9.302 27.1892 9.26081C27.1191 9.302 27.0497 9.26081 26.9796 9.302L26.9095 9.40534L26.9796 9.48772H27.2412C27.3113 9.44653 27.398 9.44653 27.4681 9.40534C27.5382 9.42629 27.6076 9.40534 27.6603 9.36415L27.643 9.1582L27.5035 9.26154V9.26081Z" fill="black"/>
<path d="M25.6001 8.82781V8.97233C25.6521 8.97233 25.8097 8.95138 25.8097 8.869C25.8097 8.84804 25.7923 8.80685 25.775 8.78662C25.7229 8.80758 25.6528 8.82781 25.6001 8.82781Z" fill="black"/>
<path d="M24.8848 14.8673C24.9195 14.9085 24.9895 14.9497 25.0416 14.9497C25.0763 14.9497 25.0936 14.9287 25.0936 14.8875C25.0589 14.8463 24.9888 14.7842 24.9368 14.7842C24.9021 14.7842 24.8848 14.8254 24.8848 14.8666V14.8673Z" fill="black"/>
<path d="M28.1143 9.15775C28.1143 9.17798 28.1316 9.15775 28.1489 9.15775L28.2364 9.13679C28.2537 9.15775 28.2884 9.19894 28.3238 9.19894C28.3412 9.19894 28.3412 9.17798 28.3412 9.15775C28.3412 9.11656 28.3065 9.05441 28.2891 9.03418C28.2371 9.07537 28.1143 9.07537 28.1143 9.15775Z" fill="black"/>
<path d="M47.9281 11.8993C47.858 11.8993 47.7713 11.8581 47.7713 11.9817C47.7193 11.9817 47.6145 12.0229 47.6145 12.1053C47.6145 12.1262 47.6492 12.1262 47.6665 12.1262H47.6839C47.806 12.0229 48.0329 12.085 48.0329 11.8379H47.9982C47.9635 11.8379 47.9281 11.8588 47.9281 11.9V11.8993Z" fill="black"/>
<path d="M40.4737 8.97212C40.5083 8.97212 40.5257 8.93093 40.5257 8.88974V8.86879C40.491 8.84783 40.4556 8.80664 40.4209 8.80664C40.3862 8.80664 40.3862 8.86879 40.3862 8.88902C40.3862 8.93021 40.4383 8.9714 40.4737 8.9714V8.97212Z" fill="black"/>
<path d="M42.0802 18.1241C42.0976 18.083 42.1149 18.0208 42.1149 17.9796C42.1149 17.9587 42.1149 17.9175 42.0802 17.9175C42.0101 17.9175 41.9234 18.041 41.836 18.041L41.6091 18.2679C41.5216 18.2679 41.5917 18.3503 41.4869 18.3503C41.4349 18.4327 41.3301 18.5975 41.3301 18.7008C41.3301 18.8041 41.4696 18.7218 41.4696 18.8041C41.4696 18.9277 41.1726 19.0513 41.1726 19.1958C41.1726 19.2167 41.2246 19.237 41.2427 19.237C41.3822 19.237 41.5397 18.9487 41.5397 18.8041L41.6965 18.742C41.7138 18.7629 41.7666 18.8244 41.8013 18.8244C41.8186 18.8244 41.8186 18.7832 41.8186 18.7622L41.836 18.6177L41.9234 18.5765L42.0108 18.432L42.1857 18.3698C42.1857 18.2875 42.2731 18.2875 42.2731 18.2051C42.1857 18.2051 42.1857 18.1017 42.0809 18.1227L42.0802 18.1241Z" fill="black"/>
<path d="M55.2779 1.71596C55.1905 1.71596 55.1031 1.79834 55.051 1.86049C54.9116 1.86049 54.6319 2.08739 54.5625 2.19C54.5278 2.19 54.4578 2.19 54.4404 2.23119L54.3703 2.29333V2.23119C54.3703 2.23119 54.405 2.23119 54.405 2.21023H54.3703L54.2655 2.18928L54.1608 2.23046C54.0733 2.20951 54.0386 2.29261 53.9859 2.35403H53.8464L53.759 2.45737C53.6369 2.47832 53.4974 2.64308 53.41 2.74569C53.41 2.80783 53.3579 2.80783 53.3399 2.80783C53.2698 2.80783 53.2524 2.82879 53.2524 2.91117C53.1303 2.95236 53.0255 3.11711 52.8861 3.11711V3.09616H52.8687C52.7813 3.09616 52.5197 3.34329 52.4496 3.42567L52.24 3.48782C52.1526 3.57019 52.0478 3.61138 51.9431 3.67353C51.9431 3.77686 51.6287 3.94162 51.5767 3.94162C51.5247 3.94162 51.542 4.00376 51.542 4.04495L51.4025 4.1071L51.2978 4.25162C51.2804 4.31377 51.2103 4.31377 51.1756 4.31377C51.0882 4.31377 51.0535 4.47852 51.0362 4.5609L50.9314 4.64328L50.8794 4.76685H50.8447C50.7746 4.76685 50.7399 4.82899 50.6525 4.80803L50.5824 4.99375C50.4602 5.05589 50.3208 5.11731 50.2333 5.24088C50.1112 5.26184 49.9891 5.36445 49.8843 5.44683C49.7795 5.44683 49.7094 5.63254 49.6054 5.65277L49.3785 5.81753H49.3438L49.2564 5.96205H49.2217V5.98301L49.0649 6.10658C49.0649 6.20991 48.9428 6.12753 48.9081 6.12753C48.8206 6.12753 48.8734 6.23087 48.856 6.27205H48.8214L48.7339 6.35443H48.6819C48.5771 6.49896 48.5771 6.60157 48.4022 6.60157C48.3148 6.60157 48.2801 6.76632 48.2801 6.8487H48.2628C48.2454 6.82775 48.2107 6.76632 48.1753 6.76632C48.158 6.76632 48.158 6.80751 48.158 6.80751C48.158 6.93108 48.0359 6.93108 48.0879 7.01346C47.9831 7.01346 48.0178 7.09584 48.0178 7.17821H47.9831C47.8957 7.17821 47.8783 7.26059 47.7562 7.24036L47.6514 7.4463C47.512 7.52868 47.3371 7.63202 47.2323 7.77582C47.1102 7.77582 46.9006 7.94057 46.7959 8.02295C46.6564 8.02295 46.5863 8.24985 46.4468 8.27009L46.3247 8.41461L46.2373 8.39365C46.1498 8.39365 46.1672 8.53818 46.1498 8.62055L46.0978 8.66174V8.70293C46.0978 8.72317 46.0978 8.76508 46.0631 8.76508C46.0284 8.76508 45.9757 8.70293 45.9584 8.66174C45.9063 8.76508 45.8015 8.97102 45.6968 8.97102L45.6447 9.0534H45.4699C45.4699 9.15674 45.3998 9.17697 45.3304 9.15674C45.2784 9.19792 45.243 9.2803 45.243 9.36268C45.1729 9.36268 45.1729 9.40387 45.1729 9.46602C45.1729 9.52816 45.1382 9.52816 45.1028 9.52816L44.9633 9.5903C44.946 9.69364 44.8585 9.75506 44.7711 9.75506C44.7364 9.71387 44.701 9.65173 44.649 9.65173C44.6316 9.65173 44.6316 9.69292 44.6316 9.71387C44.6316 9.77602 44.5969 9.87863 44.5442 9.89958L44.4047 10.0853L44.3173 10.1063C44.2653 10.1063 44.2653 10.0029 44.2653 9.96173C44.2132 9.89958 44.1952 9.81721 44.2132 9.73483C44.1612 9.67268 44.1258 9.57007 44.1085 9.48769L44.0384 9.42555V9.17841C44.0384 9.01366 43.8989 8.74557 43.9162 8.49843C43.8642 8.49843 43.8642 8.31272 43.8642 8.29249L43.7768 8.08654V8.04535C43.7768 7.8806 43.7067 7.71584 43.6893 7.55036L43.5846 7.3856C43.5846 6.62252 43.5499 6.27278 42.8684 6.27278C42.8684 6.25182 42.8338 6.14921 42.8164 6.14921C42.7817 6.14921 42.7991 6.35515 42.8684 6.39634C42.8684 6.4173 42.8684 6.45849 42.8338 6.45849C42.729 6.45849 42.6415 6.25254 42.5895 6.17017L42.5722 5.98445L42.5201 5.94326L42.4681 5.79874V5.57184L42.3287 5.38613C42.3287 5.22137 42.2586 5.03566 42.2239 4.8709C42.1538 4.8709 42.1538 5.30375 42.1538 5.36589L42.1711 5.98445C42.1364 6.00541 42.101 6.0466 42.0663 6.0466C42.0317 6.0466 42.0317 5.98445 42.0317 5.96422L41.9796 5.8197C41.9796 5.67517 41.8922 5.5928 41.8922 5.44827C41.859 5.44827 41.7896 5.45333 41.7086 5.46417L41.7527 5.32471C41.4384 5.32471 41.1768 5.24233 40.8278 5.26256C40.4961 5.07685 40.5662 5.11804 40.1124 5.11804C40.095 5.11804 39.9729 5.11804 39.9729 5.07685C39.9729 5.03566 40.043 5.03566 40.0604 5.03566H40.8805C40.9152 5.07685 40.968 5.0978 41.02 5.0978C41.0547 5.0978 41.2816 5.0978 41.2816 5.05661C41.2296 5.01543 41.1421 5.01543 41.072 5.01543V4.99447C41.072 4.8709 40.6356 5.05661 40.5134 4.8709L36.865 4.93305C36.8303 4.93305 36.7255 4.93305 36.7255 5.01543H36.6207L36.5687 4.93305L36.1669 5.05661C36.1669 5.13899 35.94 5.0978 35.9053 5.0978C35.8533 5.0978 35.7659 5.0978 35.7659 5.18018C35.8179 5.15923 35.9754 5.13899 35.9754 5.24233C35.8533 5.26328 35.7138 5.26328 35.5917 5.26328C35.5744 5.26328 35.5043 5.26328 35.5043 5.30447C35.5043 5.34566 35.5917 5.34566 35.6091 5.34566L35.6965 5.51042H35.1899L35.1198 5.42804C35.0324 5.42804 34.9977 5.34566 35.0324 5.26328C34.9804 5.26328 34.8055 5.22209 34.8055 5.22209C34.8055 5.20186 34.8756 5.20186 34.8756 5.20186L34.963 5.0371C34.3517 5.05806 33.7411 5.24305 33.1298 5.24305C33.0423 5.24305 32.9729 5.1809 32.9903 5.07829C32.9383 5.07829 32.8682 5.05734 32.8508 4.99591H32.7114C32.6593 4.99591 32.5719 4.99591 32.5719 4.91354L32.6066 4.83116C32.6066 4.60426 32.4845 4.15118 32.694 4.15118L32.746 4.13022L32.7114 3.90332C32.694 3.96546 32.6239 3.96546 32.5892 3.96546L32.4144 4.29498C32.4144 4.45973 32.2749 4.54211 32.2749 4.70759H32.2402C32.1528 4.70759 32.1354 4.74878 32.1354 4.83116C32.1354 4.87235 32.1354 4.93449 32.1007 4.97568L32.0307 5.16139C32.0307 5.16139 32.0307 5.26473 32.0133 5.26473C31.9786 5.26473 31.9613 5.07902 31.9613 5.05878L31.6824 5.26473C31.6824 5.16139 31.5602 5.01759 31.4901 5.01759C31.4381 5.01759 31.4381 5.09997 31.4381 5.14116C31.3861 5.18235 31.368 5.26473 31.368 5.32687C31.2979 5.32687 31.2979 5.36806 31.2979 5.43021C31.2979 5.49235 31.2459 5.49235 31.2105 5.49235C31.1931 5.51331 31.0884 5.67806 31.0884 5.5545C31.0183 5.53354 30.9489 5.51331 30.8788 5.51331C30.5298 5.51331 30.0406 5.7814 29.6569 5.7814H29.2905C29.1857 5.7814 29.1156 5.86378 29.0116 5.86378C28.9942 5.86378 28.7319 5.84282 28.802 5.92592C28.7146 5.92592 28.4183 5.90497 28.3656 6.02926C28.2781 6.0083 28.156 6.05021 28.0686 6.0914L27.9811 6.05021C27.911 6.11236 27.8937 6.0914 27.8243 6.0914C27.6494 6.0914 27.1082 6.21497 27.0388 6.15355H26.882C26.8473 6.21569 26.7599 6.25688 26.7071 6.19473L26.4275 6.23592C26.3928 6.25688 26.3227 6.29807 26.288 6.25688C26.0785 6.36021 25.8516 6.31902 25.6594 6.44259L25.5199 6.4014L25.293 6.54593L25.241 6.52569C25.2063 6.52569 24.8573 6.67022 24.8045 6.7114H24.7525C24.316 6.7114 23.7574 6.73236 23.321 6.83497C23.2957 6.85304 23.2704 6.86388 23.2451 6.87182C23.1786 6.81546 23.1078 6.76921 23.024 6.73236C22.9893 6.60879 22.9365 6.46427 22.8491 6.36094C22.727 6.31975 22.6222 6.2576 22.5174 6.17522C22.4473 6.17522 22.378 6.15427 22.3252 6.15427L22.3079 6.09212C21.9935 5.88618 21.6445 5.67951 21.3128 5.51475L21.156 5.59713C20.8243 5.53499 20.6321 5.28785 20.3532 5.20547L20.2658 5.08191C20.161 5.06095 20.0562 5.06095 19.9514 5.06095L19.7946 4.95762L19.6197 5.06095L19.5496 4.95762C19.4976 4.95762 19.4275 4.93666 19.3748 4.93666C19.3863 4.92269 19.3921 4.90896 19.3921 4.89547C19.3921 4.85428 19.3921 4.83333 19.3574 4.83333C19.3574 4.79214 19.3921 4.64761 19.3401 4.64761C19.2881 4.64761 19.2006 4.79214 19.1652 4.83333L19.1479 4.89547C19.0431 4.89547 18.921 4.87452 18.8162 4.85428C18.8682 4.79214 18.8863 4.73071 18.921 4.64834C18.921 4.58619 18.9383 4.52477 18.9911 4.50381C19.1305 4.33906 19.2006 4.0912 19.2881 3.88525C19.3227 3.8643 19.4449 3.80288 19.4449 3.7205C19.4449 3.69954 19.3748 3.69954 19.3574 3.69954H19.3227C19.2526 3.78192 19.2006 3.88525 19.1479 3.98787C19.0431 4.02905 19.1305 4.27619 18.9911 4.29715C18.8689 4.44167 18.7642 4.64761 18.6594 4.85356C18.5893 4.8326 18.5199 4.8326 18.4498 4.8326C18.4498 4.79141 18.4845 4.77046 18.5199 4.77046C18.5719 4.62594 18.6948 4.50237 18.6948 4.33761C18.6948 4.31738 18.6774 4.29642 18.6601 4.29642L18.5553 4.19309L18.6601 4.06952L18.6774 3.96619C18.6948 3.94523 18.7295 3.88381 18.7295 3.84262C18.7295 3.82166 18.7121 3.82166 18.6948 3.82166C18.6247 3.82166 18.5553 3.86285 18.5026 3.88381C18.5026 3.98714 18.4852 4.11071 18.4505 4.19309V4.23428C18.4505 4.29642 18.3284 4.27547 18.3284 4.41999C18.3284 4.41999 18.3284 4.46118 18.3111 4.46118C18.2937 4.46118 18.2591 4.33761 18.2591 4.31666L18.189 4.27547L18.1015 4.11071C18.1362 3.98714 18.2236 3.88381 18.2937 3.80143V3.76024C18.2937 3.71905 18.2937 3.65691 18.3284 3.63667L18.3804 3.43073L18.4679 3.34835C18.4679 3.22478 18.5553 3.20383 18.5553 3.01884C18.5553 2.93646 18.6254 2.89527 18.6254 2.81289C18.6955 2.75075 18.7475 2.62718 18.7649 2.52457L18.6948 2.401L18.4852 2.60695V2.79266L18.4505 2.8548C18.3804 2.8548 18.3631 2.91695 18.3804 2.97837C18.3631 2.97837 18.3104 2.97837 18.3104 2.95742C18.3104 2.87504 18.4151 2.83385 18.3804 2.75147L18.4852 2.60695C18.6247 2.1741 18.7295 1.74125 18.9737 1.36983L18.8689 1.24626L18.7815 1.36983C18.9564 1.08151 19.0958 0.668892 19.2526 0.339379L19.3748 0.236045L19.3921 0.0712891H19.3748C19.27 0.0712891 19.1479 0.380569 19.1132 0.483903L18.9564 0.648659C18.9043 0.834371 18.7642 0.957938 18.6774 1.10246C18.6948 1.10246 18.7295 1.12342 18.7295 1.16461C18.7295 1.18556 18.7121 1.18556 18.6948 1.18556L18.6247 1.12342V1.18556C18.6073 1.18556 18.5546 1.18556 18.5546 1.22675C18.5546 1.26794 18.6066 1.30913 18.642 1.33009C18.5546 1.45365 18.4151 1.49484 18.3277 1.61841C18.293 1.80412 18.0835 2.05126 17.9787 2.21601C17.9266 2.21601 17.9266 2.27816 17.944 2.31935H17.9266C17.8566 2.31935 17.7698 2.4841 17.7518 2.56648C17.595 2.64886 17.647 2.95814 17.4548 2.99933V3.06147C17.4548 3.12362 17.4201 3.12362 17.3673 3.12362C17.3153 3.30933 17.2452 3.59765 17.1058 3.72122C17.0357 3.92717 17.0183 4.00954 16.8962 4.17502C16.8261 4.17502 16.8088 4.2574 16.8088 4.31955L16.7387 4.50526C16.6686 4.54645 16.5992 4.62883 16.5465 4.7112V4.75239C16.2675 4.75239 15.9879 4.77263 15.7436 4.77263L15.6916 4.81382C15.5167 4.855 15.43 4.81382 15.2551 4.83477L15.0983 4.91715C14.8888 4.93811 14.6445 4.87596 14.4176 4.87596L14.4003 4.93811H14.1033L13.9465 5.02048H13.6849L13.6148 5.14405C13.4753 5.1231 13.3178 5.16501 13.1783 5.1231L13.0215 5.20547C12.7946 5.20547 12.6552 5.18452 12.4456 5.32904C12.3235 5.30808 12.184 5.32904 12.0619 5.37023L11.9224 5.4938L11.7476 5.51475L11.6428 5.59713C11.5727 5.63832 11.486 5.61809 11.4159 5.59713L11.2764 5.65928C10.9274 5.65928 10.6131 5.86522 10.264 5.84499L10.1766 6.05093C10.0892 6.02998 9.98438 6.07189 9.89694 6.07189C9.68738 6.27783 9.3557 6.19546 9.16349 6.44259C9.05871 6.46355 8.95393 6.42164 8.83181 6.42164C8.72703 6.42164 8.60491 6.46282 8.57022 6.60735C8.46544 6.64854 8.36066 6.73092 8.25588 6.71068L8.13376 6.77283H7.94155L7.90686 6.87616L7.9943 7.04092L8.04632 6.95854C8.48278 6.93758 8.93659 6.89639 9.37305 6.89639L9.44314 6.81402C10.1939 6.83497 10.9267 6.60807 11.6775 6.60807H11.7649L11.7822 6.75259C11.6428 6.77283 11.5553 6.75259 11.4159 6.75259L11.241 6.77283L11.1362 6.85521C11.4506 6.91735 11.7295 6.77283 12.0265 6.81402L12.0785 6.89639C12.0084 6.93758 11.9217 6.99973 11.8863 7.08211C11.6767 7.1233 11.4845 7.18544 11.275 7.18544C11.3798 7.22663 11.4672 7.28877 11.5546 7.3502H11.5893C11.4672 7.45353 11.3104 7.43257 11.1702 7.43257C11.0134 7.43257 10.629 7.55614 10.4895 7.70066C10.5596 7.74185 10.629 7.78304 10.7164 7.78304C10.8038 7.78304 10.8732 7.74185 10.9433 7.67971C11.1528 7.67971 11.327 7.57638 11.5366 7.57638C12.4796 7.57638 13.3698 7.24686 14.3295 7.28805L14.4169 7.3502L14.4516 7.26782H14.6265L14.6611 7.45353L14.836 7.49472L14.9061 7.5771V7.70066L14.8187 7.88638V7.96876L14.6792 8.00994C14.6619 8.15447 14.6272 8.29827 14.5744 8.42256C14.5918 8.4847 14.5397 8.66969 14.5224 8.73184L14.3829 8.81422C14.3309 8.95874 14.3309 9.14373 14.2435 9.26802C14.0166 9.43278 14.0339 9.76301 13.9819 10.0311L13.8771 10.2168V10.258L13.8251 10.1959L13.6683 10.258L13.6509 10.3613L13.7384 10.6497L13.5989 10.732C13.5115 10.938 13.3893 11.1237 13.372 11.3506L13.2325 11.4742C13.1805 11.5977 13.1104 11.7011 13.0403 11.8037C12.9883 12.0718 12.8835 12.2987 12.7961 12.5458L12.9529 12.6491L12.8828 12.7525L12.7079 12.8146V12.9179C12.7079 13.0625 12.6906 13.2272 12.5511 13.2684C12.5338 13.4541 12.429 13.5777 12.429 13.7634V13.8046L11.8531 14.0105H11.7309L11.801 13.9903C11.8184 13.9694 11.6088 13.9079 11.6088 13.9079C11.5915 13.887 11.5387 13.887 11.504 13.9079C11.504 13.9491 11.5387 13.9903 11.5915 14.0113C11.5214 14.0113 11.4694 14.0322 11.452 14.0525C11.4347 14.0936 11.5568 14.1348 11.5915 14.1348L11.7136 14.0936L11.6435 14.197L11.5387 14.2382C11.504 14.2794 11.4867 14.3205 11.3993 14.3205L11.2771 14.4239C11.2771 14.4239 11.2251 14.4239 11.2251 14.4448L11.3472 14.507L11.5394 14.486C11.5394 14.4239 11.6442 14.4239 11.6963 14.4448L11.8184 14.3625L12.1501 14.4036L12.0453 14.5684H12.0106V14.5894C11.9405 14.6515 11.8711 14.6927 11.749 14.6717C11.6095 14.7129 11.5048 14.7339 11.3472 14.7953L11.3819 14.8365C11.3646 14.8575 11.2945 14.8777 11.2251 14.8986C11.2251 14.8575 11.1731 14.8365 11.1377 14.8365L11.0676 14.8155C11.0156 14.9189 10.9108 14.8155 10.858 14.9391L10.6485 15.0424C10.4917 15.0215 10.4042 15.166 10.5437 15.187L10.3869 15.2282L10.2474 15.3105C10.2474 15.3308 10.2821 15.3517 10.2821 15.3517C10.3341 15.3727 10.7532 15.2896 10.8233 15.2896V15.3308C10.1947 15.5779 9.65342 15.9284 8.93803 16.0107L8.99006 16.2167L9.2343 16.1755L8.51892 16.4226H8.20458C8.15255 16.505 8.04777 16.4638 7.99502 16.5462C7.71609 16.6495 7.19219 16.6495 6.99998 16.8345H7.05201C7.20881 16.8757 7.47112 16.69 7.62793 16.7312C7.88952 16.6279 8.41341 16.6076 8.76244 16.5252C8.81446 16.4429 8.98934 16.4219 9.09412 16.4429C9.07677 16.4226 9.07677 16.3807 9.07677 16.3605H9.14687L9.1989 16.4638L9.28633 16.4226C9.46121 16.505 9.49589 16.3814 9.44314 16.2991L9.67004 16.2781C9.67004 16.2991 9.6527 16.3193 9.70473 16.3193C9.75675 16.3403 9.82685 16.3193 9.8796 16.2983C10.0364 16.2774 10.246 16.2572 10.3862 16.1748C10.6131 16.1748 11.0669 16.1126 11.2417 16.0303C11.2938 15.9891 11.3292 15.9891 11.3985 15.9891H11.486V16.1126L11.3812 16.2362L11.3639 16.4631L11.2764 16.6488L11.2417 16.6698C11.2244 16.8555 11.2244 17.0614 11.0849 17.185L10.9801 17.4733L10.9975 17.5969C10.9975 17.6381 10.9801 17.7205 10.9274 17.7205C10.8927 17.8238 10.8573 17.9676 10.7879 18.05C10.8053 18.2769 10.7706 18.5861 10.7532 18.813L10.7879 18.9164C10.91 18.6483 10.9801 18.36 11.1023 18.0919L11.1897 18.1952L11.1023 18.4221V18.5666C11.1023 18.67 11.1023 18.7935 11.0322 18.8759C10.9801 19.1852 10.7352 19.8861 10.7352 20.0718C10.6304 20.1954 10.543 20.2987 10.543 20.4845L10.6131 20.5054C10.7525 20.2583 10.8746 19.9078 11.0669 19.7011V19.6802C11.2237 19.4331 11.2237 19.165 11.3111 18.8969H11.3284C11.4332 18.6497 11.5033 18.464 11.59 18.1959C11.8516 17.8455 11.9044 17.495 12.1313 17.1445L12.1486 17.4126L12.2006 17.516L12.1132 17.5781C12.0785 17.7226 12.0084 17.8664 11.9911 18.0319L11.7642 18.3614C11.7122 18.8354 11.6247 18.7119 11.5546 19.5776L11.3624 19.7011L11.3797 19.8659L11.4672 19.9692C11.5893 19.8659 11.624 19.66 11.7288 19.5776C11.7461 19.5154 11.7989 19.3716 11.7808 19.3095L11.9376 19.3919C12.025 19.3709 12.1298 19.3709 12.2173 19.3709C12.1826 19.7004 12.1125 20.0307 12.0077 20.3399V20.3609L11.8509 20.4845V20.5878L11.7114 20.6702H11.6941L11.7114 20.4642L11.5366 20.5676C11.3443 20.5676 10.7684 20.6087 10.6636 20.8559C10.5068 20.8559 10.3666 20.918 10.2098 20.8768L10.1578 20.939C10.0357 20.918 9.89622 20.939 9.79144 21.0011L9.59923 20.9802L9.5472 21.0423C9.33764 21.0423 9.2502 21.1868 9.07605 21.3306L8.88384 21.2273C8.65693 21.3509 8.46472 21.5366 8.23782 21.6602L8.2725 21.598L8.1157 21.619C8.06367 21.6602 7.99357 21.7425 7.92348 21.7635H7.55711V21.7844L7.41765 21.929V21.9499C7.29553 21.9911 7.13872 22.0121 7.03394 22.0944L6.89448 22.0735L6.85979 22.1559L6.70298 22.1147L6.6683 22.1768L6.49342 22.1978L6.45874 22.2599H6.21449C6.03962 22.4044 5.93484 22.4868 5.72601 22.4868C5.58654 22.549 5.44635 22.6516 5.30689 22.7137C5.2368 22.7137 5.13202 22.6725 5.06264 22.6935L4.8184 22.7549C4.74831 22.8583 4.66159 22.9406 4.57416 23.023L4.34726 23.0852L4.22513 23.2297L4.01557 23.2087L3.85877 23.2911C3.78867 23.2911 3.7193 23.2701 3.64921 23.2701C3.54443 23.3525 3.37028 23.4147 3.24743 23.3937L3.09063 23.497L2.91575 23.4559L2.89841 23.5382L3.05522 23.6618L3.19468 23.5794L3.49168 23.6206L3.77061 23.4559L3.78795 23.5592C3.89273 23.6004 3.98017 23.6416 4.08495 23.6416L4.24175 23.518C4.27644 23.5592 4.34653 23.6416 4.27644 23.6828L4.31112 23.7861C4.39856 23.807 4.66015 23.807 4.73024 23.8894C4.9398 23.6835 5.27148 23.7247 5.53307 23.7659L5.67253 23.7037L5.89943 23.7247C6.00421 23.6835 6.12633 23.6423 6.24846 23.6423L6.42333 23.6632L6.61555 23.6423L6.63289 23.6835L6.54545 23.7247L6.42333 23.6625V23.7449L6.38864 23.8482L6.19643 23.7449L6.16174 23.8482L6.10971 23.8894L6.00494 23.9104C5.95291 23.8894 5.88281 23.8894 5.83006 23.8894C5.74263 23.9516 5.65519 24.013 5.55041 24.0542H5.44563L5.35819 24.1575L5.21873 24.1366C4.95714 24.1366 4.71218 24.2601 4.46793 24.2399L4.4159 24.302C4.13625 24.2399 3.59574 24.5904 3.35077 24.3642L3.26333 24.5289H3.15855L3.00174 24.6323C2.87962 24.5911 2.7575 24.6113 2.63538 24.6113C2.51326 24.6113 2.32104 24.5492 2.21626 24.6323C2.09414 24.6532 1.95468 24.6532 1.83255 24.6323L1.71043 24.6944L1.6584 24.7768L1.8853 24.8592L2.02477 24.7768L2.21698 24.8592H1.99008L1.83328 24.9625L1.62372 24.8801C1.51894 24.9416 1.41416 25.0037 1.29204 25.0247C1.2046 24.9835 1.11716 24.9625 1.03045 24.9423L0.838234 25.0247L0.716112 24.9625C0.59399 24.9835 0.454525 24.9835 0.349746 25.0658L0.174873 25.0449C0.122845 25.0449 0.0527509 25.0658 0 25.0861C0.174873 25.1482 0.383709 25.1685 0.575925 25.1685C0.646018 25.1685 0.732732 25.1475 0.785483 25.1063L0.942291 25.1475L0.959633 25.0854C1.0991 25.1265 1.27397 25.1063 1.41344 25.1265L1.53556 25.0644L1.64034 25.188C2.0067 25.188 2.39113 25.167 2.7575 25.167C2.87962 25.167 3.07184 25.2494 3.2113 25.2703L3.31608 25.0846C3.47289 25.1258 4.08422 25.167 4.15432 25.2292L4.34653 25.2501C4.53875 25.2501 4.7129 25.2089 4.88777 25.188L4.99255 25.1258C5.25414 25.2082 5.56848 25.0846 5.83079 25.1258C5.88281 25.1468 5.97025 25.188 6.023 25.167L6.14512 25.0637C6.17981 25.0846 6.30193 25.1872 6.33734 25.1872L6.37202 25.1461L6.51149 25.167L6.63361 24.9611H6.6683C6.75573 24.982 6.84317 25.0232 6.92988 25.0023L6.87785 25.1056H6.70298L6.6683 25.2089L6.68564 25.3123L6.92988 25.3534L7.10476 25.2711L7.29697 25.292V25.1273L7.43644 25.0651L7.40175 24.9004L7.52387 24.8382C7.54122 24.9618 7.55856 25.0854 7.59397 25.1887L7.82087 25.3123L7.96033 25.1475L7.85555 25.0442C7.92565 25.0232 7.99502 24.9618 8.04777 24.8996L8.01308 24.7349L8.18796 24.7761L8.17061 24.8584C8.31008 24.8584 8.45027 24.8584 8.58973 24.8794L8.7646 24.8173C8.99151 24.8794 9.21841 24.7761 9.42797 24.8584C9.55009 24.7551 9.75965 24.7551 9.89911 24.6727H9.91645L10.0039 24.5904C10.1607 24.6113 10.5104 24.6113 10.6499 24.5282L10.6673 24.4661C10.7547 24.4661 10.8768 24.4661 10.9642 24.487L11.1391 24.4046C11.1911 24.4256 11.2612 24.3837 11.314 24.3635L11.4361 24.3844L11.611 24.302H11.8379V24.1163L11.96 24.0339L11.9253 23.8692L12.0648 23.7659C12.0995 23.8894 12.1522 24.013 12.1522 24.1575C12.2397 24.1575 12.3271 24.1987 12.4138 24.2399L12.5533 24.0954L12.4312 23.9718C12.5186 23.9306 12.606 23.8685 12.6581 23.7861L12.6234 23.6416L12.7982 23.6625V23.7659C13.0425 23.6835 13.3742 23.7037 13.6365 23.7037C13.8287 23.7037 14.0209 23.6416 14.2124 23.6416L14.2825 23.5592C14.4393 23.518 14.7016 23.4356 14.8064 23.2911L14.9285 23.3121C15.0333 23.3121 15.5044 23.2499 15.5218 23.1061C15.6266 23.0852 15.7487 23.0852 15.8535 23.1061L16.2198 22.9414L16.2545 22.5085C16.1497 22.5085 16.045 22.5497 15.9402 22.5909V22.653L15.8181 22.8387L15.748 22.7564C15.6432 22.7564 15.5211 22.6949 15.4336 22.6118V22.5085C15.5557 22.4875 15.7133 22.4261 15.8354 22.4464L15.8701 22.364H15.9575L16.0276 22.2816L16.1324 22.3026C16.3073 22.3026 16.4988 22.2411 16.6563 22.158C16.7437 22.179 17.0053 22.0959 17.04 21.9933C17.1795 21.9311 17.337 21.9723 17.4591 21.8697C17.5111 21.8907 17.5986 21.9311 17.6513 21.9109L17.7034 21.8285H17.8782C17.983 21.7252 18.1051 21.4983 18.2619 21.4781V21.6016L18.332 21.7664L18.2619 21.8899L18.0871 21.9109L18.017 21.8285L17.9996 21.7461L17.9476 21.9521L17.8956 21.9933L17.7207 22.0345L17.6506 22.1168C17.441 22.1992 17.2141 22.1992 17.0219 22.3228H16.9699L16.8998 22.2404L16.7603 22.364C16.6729 22.3849 16.5681 22.4261 16.4807 22.4052L16.3586 22.4875C16.3933 22.6111 16.3933 22.9002 16.498 22.9616L16.6375 22.8792C16.6722 22.7759 16.7249 22.6523 16.7943 22.5699L17.1086 22.7968L17.2655 22.6733H17.2828L17.4396 22.5287L17.6145 22.5078L17.6492 22.4044C17.7886 22.3221 17.9808 22.3633 18.0683 22.1985L18.3299 22.1364L18.4867 21.9918H18.504L18.6789 21.9095C18.5915 21.8473 18.504 21.7649 18.452 21.6826V21.3942C18.4867 21.353 18.5568 21.2707 18.6269 21.2707C18.6442 21.2707 18.6615 21.2707 18.6789 21.2916L18.5394 21.4361V21.4571L18.5568 21.684H18.6442L18.7316 21.4781V21.5604C18.8017 21.684 18.8884 21.8076 19.0113 21.8076C19.0633 21.8076 19.2555 21.7252 19.3083 21.684C19.3957 21.5604 19.5005 21.4781 19.64 21.4983C19.7274 21.4159 19.8322 21.3538 19.937 21.3126L20.0417 21.3335L20.2166 21.2302L20.2686 21.1269L20.4081 21.1478L20.583 21.0445H20.635L20.7051 20.8797C20.5129 20.7973 20.286 20.7974 20.0938 20.7764L19.7274 20.9209V20.9419H19.6226C19.6747 20.9007 19.7447 20.7974 19.8148 20.7771L19.9196 20.6124C20.0244 20.5712 20.2686 20.4476 20.3387 20.3443L20.3214 20.509C20.4088 20.5502 20.5136 20.5914 20.6184 20.5914C20.7752 20.5914 20.9327 20.4678 21.1069 20.4678C21.0722 20.5712 20.9848 20.6535 20.9147 20.715C21.0021 20.694 21.2117 20.6326 21.2117 20.509C21.2117 20.4469 21.1943 20.4057 21.1596 20.3645L20.9848 20.3233L20.8626 20.1997C21.1596 19.9728 21.3338 19.8905 21.5961 19.5812V19.5602L21.7356 19.3955V19.3745C21.8924 19.23 22.0846 19.1274 22.1894 18.9207C22.2414 18.7762 22.1894 18.6526 22.2067 18.5081C22.3115 18.5081 22.3989 18.4669 22.4683 18.3636H22.5904L22.6251 18.1779L22.7646 18.0131L22.7472 17.8895L22.8867 18.0131L22.7819 18.1988L22.7646 18.3022L22.6771 18.4669L22.5203 18.5905V18.6526L22.6771 18.6324C22.7292 18.5291 22.8339 18.4055 22.9387 18.3643L22.9561 18.0348L23.0435 17.9524C23.0955 17.8079 23.2003 17.6641 23.3051 17.5398L23.1656 17.3953L23.3405 17.1893L23.4279 17.4365C23.3578 17.7046 23.3231 17.9929 23.2184 18.261H23.201L23.0088 18.3643L22.9387 18.5912L22.9907 18.7972L23.1656 18.6938H23.2176C23.2877 18.5702 23.3224 18.4055 23.3744 18.261C23.6187 18.1164 23.5493 17.6836 23.8109 17.56C23.8282 17.4567 23.8983 17.1474 24.0031 17.1062L24.0407 16.1907C24.3782 16.1661 24.777 16.0895 25.0683 16.0548L25.1203 16.0758C25.1723 16.0758 25.2251 16.0548 25.2598 16.0136C25.3819 16.0548 25.2944 15.9103 25.3819 15.9103H25.4166V15.9313C25.4166 15.9724 25.4512 15.9934 25.4686 15.9934C25.5387 15.9934 25.6081 15.9522 25.6781 15.9313C25.6781 15.8279 25.9925 15.8489 26.0619 15.8489L26.2367 15.7867L26.1847 15.9927H26.1146C25.9751 15.9927 26.1319 16.1784 25.9397 16.3222L25.7829 16.281L25.3985 16.4046C25.3985 16.4458 25.3985 16.4667 25.3638 16.4667L25.3118 16.4877L25.4686 16.6936C25.556 16.6524 25.6435 16.57 25.7302 16.57H25.9224C25.8877 16.6112 25.8704 16.6734 25.8704 16.7348C25.7656 16.9205 25.556 17.0643 25.556 17.271C25.556 17.3743 25.6781 17.2919 25.6781 17.3946C25.6781 17.4769 25.5033 17.7862 25.4686 17.8686C25.4686 17.9719 25.3985 17.951 25.4166 18.0333L25.3645 18.1367V18.3224L25.2251 18.4257C25.2251 18.5291 25.1904 18.7552 25.0856 18.7762C25.0856 18.8795 24.9461 19.1057 24.9461 19.23H24.9114C24.8067 19.23 24.7546 19.6217 24.7366 19.725L24.6318 19.8486C24.6318 20.0545 24.4222 20.3226 24.4396 20.6528L24.3175 21.0654V21.1066C24.3175 21.1066 24.2828 21.1066 24.3001 21.1276L24.2654 21.2309C24.2654 21.4166 24.126 21.3754 24.126 21.5814C24.0739 21.6226 24.0739 21.705 24.0739 21.7671H24.0393C23.9518 21.7671 23.9171 22.0966 23.8998 22.1797L23.8124 22.283C23.8124 22.4478 23.6375 22.6957 23.6555 22.9428C23.6035 23.0461 23.4987 23.5404 23.4633 23.5816C23.4633 23.6437 23.4807 23.7052 23.5154 23.7463C23.3932 23.7463 23.3405 24.0556 23.3405 24.1792C23.3405 24.3237 23.2357 24.3649 23.2357 24.4885C23.253 24.5094 23.3058 24.5709 23.3058 24.612C23.3058 24.6532 23.2885 24.6532 23.2538 24.6532L23.149 24.7978L23.1316 25.1685C23.097 25.2306 23.0796 25.3332 23.0796 25.4156L22.9922 25.498C22.9922 25.8484 22.8 26.1165 22.8 26.2603C22.7826 26.3015 22.7479 26.3427 22.7479 26.3839C22.7479 26.4251 22.7826 26.4251 22.8 26.4251C22.8874 26.1779 23.0442 25.951 23.149 25.7039L23.2364 25.6418L23.2885 25.7039L23.4633 25.4156L23.5681 25.3744C23.6382 25.0651 23.8297 24.8382 24.0219 24.6323V24.4675C24.092 24.2616 24.2488 24.138 24.3189 23.8901L24.5458 23.6632C24.5631 23.6221 24.7727 23.0859 24.8428 23.0859C24.8601 23.0859 24.8948 23.0859 24.8948 23.1271C24.8948 23.1473 24.8948 23.1683 24.8775 23.1885C24.8601 23.3121 24.6853 23.6625 24.5986 23.7449L24.5465 23.7659L24.4945 23.9306V24.1777L24.3897 24.2399V24.2811C24.3897 24.3844 24.3377 24.4668 24.3377 24.5694L24.2329 24.8996L24.3377 24.7761C24.3377 24.5701 24.4598 24.6937 24.4598 24.5492C24.4598 24.508 24.4772 24.508 24.5118 24.508C24.5292 24.4046 24.5639 24.2811 24.5993 24.1785C24.6694 24.0751 24.7387 23.9928 24.8262 23.9104C24.8782 23.8894 24.8782 23.807 24.8782 23.7659C25.035 23.6213 25.1752 23.4363 25.2973 23.2506C25.3147 23.1683 25.3848 23.0035 25.4722 23.0035C25.4895 22.9825 25.7511 22.4673 25.7511 22.5707L25.8032 22.4883L25.9253 22.5504C25.8552 22.6949 25.7685 22.8387 25.681 22.9833L25.7685 23.169L25.4895 24.0347C25.4549 24.0759 25.4375 24.1582 25.4375 24.2204C25.4028 24.3028 25.1232 24.8592 25.1232 24.9625C25.1232 25.0037 25.1232 25.0247 25.1579 25.0247L25.4021 24.612C25.4541 24.612 25.4541 24.5709 25.4541 24.5297C25.4541 24.4885 25.4715 24.4885 25.5062 24.4885C25.5763 24.0759 26.0821 23.5816 26.0821 23.4168L26.1522 23.3547L26.2396 23.169H26.257C26.3791 22.9833 26.5012 22.7564 26.6407 22.5916L26.7801 22.6328C26.7454 22.6949 26.7454 22.7773 26.7454 22.8387C26.8849 22.8387 26.8849 22.7354 26.9023 22.6118L26.9543 22.5909C27.0063 22.4876 27.0591 22.3849 27.0591 22.2614C27.1111 22.2202 27.1292 22.1378 27.1292 22.0757L27.2339 21.9933C27.2339 21.9311 27.2339 21.8488 27.2686 21.7873L27.1638 21.8083C27.1118 21.8083 27.1118 21.7461 27.1118 21.705C27.1819 21.5814 27.2686 21.4781 27.3214 21.3343V21.2721L27.4088 21.2309V21.3343L27.2693 21.6638C27.2693 21.6847 27.2693 21.7461 27.2867 21.7461C27.304 21.7461 27.4616 21.4781 27.4789 21.4578L27.5136 21.3343H27.601L27.549 21.1897C27.6364 21.0452 27.7239 20.9014 27.7932 20.7569C27.7932 20.6536 27.7932 20.5509 27.8279 20.4476L27.8453 20.5098L27.9154 20.3652L28.0548 20.2417L28.247 20.2829C28.247 20.3862 28.1769 20.4274 28.1769 20.53C28.2644 20.53 28.3518 20.4678 28.3518 20.3652L28.3865 20.2619C28.5086 20.1795 28.5787 19.9736 28.5787 19.829C28.6308 19.7669 28.6488 19.6845 28.6488 19.6021L28.7883 19.4988C28.7709 19.4164 28.7883 19.3131 28.8403 19.2517L28.7182 19.2726C28.6481 19.2726 28.6308 19.2314 28.6308 19.1491C28.6828 18.9843 28.7702 18.8398 28.8403 18.6953C28.8577 18.6953 28.9624 18.6953 28.9624 18.6743C28.9624 18.6331 28.7876 18.6331 28.7702 18.6331C28.7182 18.6331 28.6828 18.6122 28.6828 18.5507C28.6828 18.4893 28.7529 18.4684 28.7876 18.4684C28.7876 18.4062 28.8577 18.365 28.8923 18.365L28.9624 18.4474L28.9971 18.6945L28.8403 19.1072C28.8403 19.1281 28.8403 19.2105 28.8577 19.2105C28.8923 19.2105 28.9451 19.0248 28.9624 18.9836L29.0672 18.86L29.1192 18.6953H29.224L29.172 18.5305C29.2941 18.3657 29.3815 18.18 29.469 17.9943V17.9531C29.469 17.8498 29.469 17.5203 29.5911 17.5203C29.6959 17.3758 29.8354 17.1489 29.8881 16.9639C29.8881 16.8605 29.9582 16.8605 29.9582 16.737L30.0102 16.5722V16.531C30.0102 16.4689 30.0623 16.4277 30.0623 16.3453L30.1497 16.1596L30.3419 16.0772C30.3419 15.9948 30.3592 15.9327 30.412 15.8713C30.412 15.8301 30.412 15.7268 30.464 15.7065L30.6562 15.3149C30.6389 15.2527 30.6216 15.1913 30.6216 15.1292C30.6216 15.088 30.6389 15.0468 30.6736 15.0468C30.6909 15.0677 30.7256 15.1292 30.761 15.1292C30.7784 15.1292 30.7784 15.067 30.7784 15.0468C31.4591 14.882 32.2099 14.6761 32.926 14.6761L33.0654 14.5937C33.5893 14.5937 34.0778 14.408 34.5844 14.3054L34.6364 14.2642C34.8286 14.2642 35.0902 14.1818 35.2998 14.1608L35.2651 14.0785C35.2998 14.0575 35.5621 14.0163 35.5621 13.9751C35.5621 13.8306 35.1957 13.8516 34.9862 13.8516C34.8987 13.8516 34.864 13.9549 34.7593 13.9549C34.7072 13.9549 34.6371 13.9339 34.6198 13.8725C34.6024 13.8725 34.4449 13.8104 34.4449 13.7901H34.7419C35.1256 13.7901 35.5447 13.6254 35.9118 13.6254C35.9118 13.543 36.0166 13.543 36.0513 13.543C36.4003 13.5221 36.7847 13.4397 37.1164 13.4397C37.1511 13.4809 37.1865 13.5221 37.2212 13.5221C37.2385 13.5221 37.2385 13.4809 37.2385 13.4809L37.4828 13.4187L37.6396 13.5423L37.8318 13.5835C37.7798 13.5011 37.6569 13.3363 37.5522 13.3363C37.5001 13.2742 37.43 13.2742 37.3599 13.2742C37.2031 13.2742 37.0283 13.2121 36.8715 13.1918C36.8368 13.1297 36.7667 13.0683 36.7667 13.1918C36.7146 13.1709 36.3822 13.1506 36.3822 13.0885C36.3822 13.0473 36.3476 13.0473 36.3302 13.0473L35.5274 13.0683L35.44 12.9859L35.4226 13.0683C35.3178 13.0473 35.2131 13.0683 35.1083 13.1094L35.0909 13.1506C34.9688 13.1716 34.864 13.0885 34.7419 13.0885C34.6718 13.0885 34.2354 13.2742 34.2354 13.1094C33.9911 13.1506 33.7469 13.1918 33.5019 13.1918C33.4846 13.1918 33.4318 13.1918 33.4318 13.1709C33.4318 13.0473 34.0251 13.1709 34.0251 13.0061C34.2346 13.0061 34.4962 12.9237 34.6364 12.9237C34.7585 12.9237 35.5614 12.8825 35.5614 12.738C35.8056 12.738 36.0679 12.6556 36.3122 12.5935C36.3122 12.4902 36.2074 12.4902 36.1553 12.4902C36.0332 12.4902 35.5621 12.4699 35.5093 12.5935H35.3872L35.3525 12.5111L35.2477 12.4287V12.4497C35.2477 12.553 34.9862 12.5118 34.9334 12.5118C34.8633 12.5118 34.6545 12.4295 34.567 12.4085L34.9862 12.4295L35.1083 12.3059C35.4053 12.2849 35.737 12.2437 36.0332 12.1411L36.2254 12.1823V12.0176L36.086 12.0385C36.086 11.8738 35.9465 12.0385 35.9465 11.894C35.8417 11.873 35.5101 11.7292 35.4053 11.7292L35.2658 11.6469C35.2485 11.6259 35.2138 11.5645 35.1784 11.5645C35.161 11.5645 35.161 11.5854 35.161 11.6057C35.0909 11.6266 35.0042 11.6469 34.9168 11.6469C34.7773 11.6469 34.6024 11.5847 34.4283 11.5847L34.3409 11.5023C34.3235 11.5645 34.2708 11.6259 34.2361 11.6671L34.166 11.5847C34.1486 11.605 34.0786 11.7292 34.0786 11.6259L34.0085 11.5435L34.0786 11.4612C34.2534 11.4402 34.4449 11.42 34.6198 11.42C34.6371 11.42 34.7593 11.42 34.7593 11.399C34.7593 11.3578 34.7072 11.3369 34.6892 11.3369C34.6892 11.2545 34.4969 11.2545 34.4623 11.2545C34.1653 11.2545 33.8863 11.2957 33.6067 11.2957C33.5192 11.2957 33.4846 11.2133 33.3971 11.2133C33.3451 11.2133 33.275 11.2343 33.2577 11.2957C32.874 11.2957 32.5242 11.399 32.1405 11.399C32.0885 11.399 32.001 11.3578 31.9483 11.3166C32.0184 11.0485 32.2973 10.3274 32.4722 10.1828L32.6817 9.64667C32.6817 9.56429 32.7338 9.58453 32.7865 9.58453C32.8212 9.58453 32.8212 9.56357 32.8212 9.54333C32.8732 9.50215 32.8913 9.41977 32.8913 9.35762L33.1883 9.27524C33.2403 9.31643 33.3104 9.35762 33.3805 9.35762C33.4152 9.29548 34.2708 9.02811 34.3582 9.02811C34.4102 9.02811 34.4803 9.00715 34.4803 8.94573H34.7419L34.7246 8.90454C34.7246 8.8424 34.8467 8.86335 34.8814 8.86335L34.9862 8.67764L35.1083 8.8424H35.3525C35.3178 8.82144 35.2131 8.76002 35.2131 8.71883C35.2131 8.67764 35.2651 8.67764 35.2831 8.67764L35.4226 8.6155C35.5101 8.69788 35.6322 8.76002 35.737 8.76002C35.807 8.76002 35.8764 8.73906 35.9292 8.67764C36.1387 8.65669 36.9416 8.53312 36.977 8.49193C37.0817 8.49193 37.2913 8.49193 37.2913 8.47097C37.2913 8.45002 37.0116 8.42978 37.0116 8.36764C37.0116 8.34668 37.0463 8.34668 37.0463 8.34668C37.0637 8.28454 37.1164 8.26431 37.1685 8.26431C37.2031 8.26431 37.2906 8.28526 37.2732 8.34668C37.4655 8.42906 37.675 8.40883 37.8846 8.40883C38.1462 8.40883 38.618 8.30549 38.9316 8.30549C38.9663 8.16097 39.2633 8.26431 39.2633 8.16097C39.1932 8.09883 39.0884 8.05764 39.0017 8.05764C38.8796 8.05764 38.1288 7.99549 38.0941 8.16097H37.7971C37.7971 8.14002 37.9193 8.07859 37.9366 8.07859C37.9366 8.05764 38.2509 7.91384 38.2683 7.91384C38.4605 7.91384 38.5479 8.07859 38.8269 7.91384C38.8615 7.93479 39.2106 8.0374 39.2106 7.93479C39.2106 7.8936 39.2453 7.8936 39.2626 7.8936L39.4375 7.97598C39.4895 7.91384 39.6123 7.81123 39.6123 7.97598L39.7518 7.8936C39.6998 7.85241 39.6817 7.77004 39.6644 7.68766C39.7453 7.62045 40.0033 7.57565 40.275 7.54747V7.56409C40.275 7.72885 40.4672 8.26503 40.5019 8.49193C40.624 8.51289 40.5366 8.76002 40.5366 8.8424C40.5366 8.98692 40.7461 8.8424 40.5539 9.11049C40.5886 9.15168 40.624 9.21382 40.624 9.25501C40.624 9.27597 40.6067 9.27597 40.5893 9.27597C40.572 9.25501 40.5373 9.19359 40.5192 9.19359C40.4672 9.19359 40.4672 9.48191 40.4672 9.5231C40.4672 9.60548 40.5893 10.1417 40.6067 10.1619H40.572C40.5546 10.1619 40.5373 10.1619 40.5373 10.1828C40.5373 10.224 40.5893 10.245 40.6074 10.2652C40.6074 10.4712 40.7642 10.4098 40.7642 10.6359C40.7642 11.11 40.9037 11.5638 41.0438 11.9966L41.0265 12.3059C41.0966 12.3471 41.1139 12.4504 41.1139 12.5328C41.184 12.6361 41.2534 12.7387 41.2888 12.8623L41.2715 13.0892L41.1667 13.2128H41.132C41.08 13.2128 41.0272 13.2337 41.0272 13.3161C40.9925 13.4606 40.8003 13.6254 40.6955 13.7078L40.6081 13.6868C40.5561 13.6868 40.538 13.749 40.538 13.8104C40.4679 13.9339 40.3458 14.0373 40.241 14.1197L40.1016 14.1608V14.202C40.1016 14.3878 39.9968 14.4492 39.892 14.5525V14.5735C39.892 14.6558 39.8746 14.7382 39.8046 14.7382C39.8046 14.8004 39.6998 14.8206 39.6651 14.8206L39.6824 14.9854C39.6824 15.0475 39.595 15.0265 39.5603 15.0265L39.4208 15.1089L39.4035 15.2946L39.3161 15.377L39.246 15.5215C39.1239 15.5215 39.1065 15.5425 39.1239 15.6863H39.0364C38.9663 15.6863 38.9663 15.7484 38.9663 15.8099C38.8615 15.851 38.7394 15.9544 38.6874 16.0779L38.4952 16.1401C38.4077 16.4082 38.3904 16.6351 38.0934 16.6351L37.9539 16.7796V16.8208C37.9539 17.0477 37.7097 16.656 37.7097 17.336L37.3433 17.4805L37.1338 17.8101C37.1338 17.9958 36.9589 17.9546 36.8541 17.9546C36.8368 18.0781 36.8541 18.0781 36.7667 18.0781C36.7493 18.0781 36.732 18.0991 36.7146 18.1193L36.7667 18.2639L36.6792 18.3462C36.5918 18.3672 36.5918 18.4496 36.5044 18.4496L36.3649 18.5941L36.2948 18.7798C36.2948 18.9243 36.0853 18.9655 36.0853 19.1715L35.9978 19.1505C35.9458 19.1505 35.9104 19.4186 35.8584 19.501H35.7709C35.7362 19.501 35.6488 19.501 35.6661 19.5834C35.6141 19.6043 35.596 19.6657 35.596 19.7279L35.3865 20.0986C35.247 20.0986 35.2116 20.2431 35.1596 20.3667C35.1076 20.3876 35.0895 20.47 35.0895 20.5314C35.0375 20.5726 35.0021 20.676 35.0021 20.7374C35.0021 20.8819 34.8626 20.8609 34.8799 21.0257L34.6704 21.3552C34.653 21.6847 34.4608 21.4997 34.4608 21.7057C34.4608 21.809 34.4955 21.9116 34.5829 21.9116L34.7224 21.7881C34.7397 21.6435 34.9146 21.5821 35.0194 21.6023V21.5612C35.0194 21.52 35.0541 21.4166 35.1068 21.4166C35.1415 21.4166 35.1415 21.4788 35.1415 21.499C35.0021 21.52 35.1589 21.6638 35.0367 21.6847C34.9847 21.7259 34.9146 21.8292 34.9146 21.9116H34.8799C34.8098 21.9116 34.7925 21.9528 34.7925 22.015C34.7925 22.1595 34.5128 22.6126 34.5128 22.7773C34.4254 22.7773 34.3907 22.8597 34.3907 22.963C34.4608 23.0664 34.4955 23.169 34.635 23.169C34.7224 23.169 34.7744 23.0866 34.7571 23.0042L34.8619 22.8185C34.8966 22.7773 34.9139 22.7152 34.9139 22.6538C34.9139 22.489 35.2109 22.5916 35.2109 22.468C35.2109 22.3445 35.2109 22.3033 35.333 22.3033L35.4204 22.2209L35.5252 22.2419C35.5773 22.2419 35.5599 22.1595 35.5599 22.1183L35.7167 22.0561L35.8562 21.9116C35.8562 21.8083 35.9263 21.7881 35.9957 21.8083L36.2572 21.499C36.2572 21.3754 36.3967 21.4376 36.4668 21.4376C36.6063 21.2931 36.7811 21.1493 36.8859 20.9426C37.008 20.9426 37.2002 20.9216 37.1829 20.7157C37.2703 20.6333 37.2349 20.3862 37.3397 20.3862C37.3571 20.3862 37.3917 20.5509 37.3917 20.5719L37.1302 20.9014C37.1302 21.0459 37.0427 21.2931 36.9033 21.2309C36.9033 21.3133 36.8332 21.3754 36.7638 21.3545C36.7464 21.6016 36.607 21.8495 36.607 22.0757C36.8165 21.9109 36.956 21.7252 37.2002 21.6016V21.5395C37.2002 21.3126 37.3925 21.3538 37.5319 21.3538V21.189L37.6714 21.21C37.6714 21.2923 37.7061 21.2923 37.7588 21.2923C37.7935 21.2923 37.8109 21.3335 37.8109 21.3747L37.9677 21.4983L38.0197 21.7252L37.9496 21.9109C37.9496 21.9933 37.8622 22.0142 37.8101 21.9933L37.8275 22.2614C37.8795 22.2816 37.8795 22.3647 37.8795 22.4059L37.9496 22.5295L37.8101 22.6118C37.8101 22.674 37.8802 22.6942 37.9323 22.6942C38.0024 22.6942 38.0891 22.6733 38.1765 22.6733V22.5497L38.1064 22.4875L38.1765 22.4052C38.316 22.3018 38.4554 22.364 38.4554 22.1371C38.4554 22.0749 38.4901 22.0135 38.5255 21.9926L38.5776 22.0135C38.6296 22.0135 38.6476 21.9723 38.6476 21.9311L38.7177 21.8899V21.7664L38.9446 21.7454L39.0321 21.663L38.962 21.4983C38.9793 21.4571 39.014 21.4159 39.0494 21.4159C39.0668 21.4159 39.0841 21.4571 39.0841 21.4781C39.1015 21.6016 39.1015 21.5814 39.2062 21.6016L39.5206 21.3335V21.2302C39.5206 21.1478 39.4859 21.1269 39.4158 21.1269L39.3284 21.0445C39.4505 21.0445 39.6253 20.7764 39.7121 20.6731C39.7121 20.5285 39.9917 20.3847 40.0784 20.3226L40.1305 20.0957C40.1651 20.0957 40.2006 20.1166 40.2006 20.1578C40.2006 20.2814 39.7467 20.7966 39.7294 20.8176H39.7121C39.66 20.8176 39.6073 20.8588 39.6073 20.9209C39.6246 21.0033 39.6947 21.0445 39.7467 21.0445L40.0264 20.7974C40.0611 20.6326 40.0437 20.4678 40.2186 20.5704C40.236 20.4057 40.4282 20.4057 40.4282 20.199L40.7252 20.0343C40.7953 19.9107 40.882 19.7871 40.9868 19.7048L41.1262 19.3752H41.1436C41.2483 19.3752 41.1436 19.1895 41.1262 19.1483V18.9836L41.283 18.9626C41.3004 18.9417 41.3351 18.9214 41.3351 18.8803C41.3351 18.8391 41.1255 18.8181 41.0735 18.7769L41.2129 18.3441C41.2129 18.1793 41.3351 18.076 41.4745 18.076C41.5092 18.055 41.562 17.9936 41.562 17.9315C41.562 17.8903 41.4919 17.9105 41.4745 17.9105L41.4225 17.6836C41.562 17.5803 41.929 17.2508 42.1205 17.2508C42.1726 17.2508 42.1906 17.2919 42.1906 17.3331C42.1386 17.3743 41.929 17.5391 41.929 17.6215C41.929 17.6626 41.9637 17.6626 41.9811 17.6626C42.0512 17.7248 42.1733 17.8686 42.26 17.8686C42.2773 17.8686 42.2773 17.8476 42.2773 17.8274C42.3474 17.8274 42.4342 17.8064 42.4696 17.745C42.4869 17.745 42.557 17.745 42.557 17.7653C42.557 17.7855 42.4349 17.8476 42.4175 17.8476C42.2607 17.8888 42.2781 17.9922 42.2781 18.1569L42.3482 18.1779C42.4183 18.0745 42.5577 17.9098 42.6625 17.9098L42.7499 17.7241L42.8894 17.6829L42.9768 17.745V17.951L43.1163 18.0543V18.3636L43.2384 18.4669C43.2384 18.6526 43.3085 18.7552 43.3952 18.9207C43.5 19.0031 43.4126 19.1679 43.6048 19.1679L43.5874 19.3948L43.6575 19.4359L43.745 19.6419V19.6831C43.745 19.8478 43.8671 19.8688 43.8671 20.0747C44.0239 20.1159 43.797 20.3428 44.094 20.3428C44.094 20.4252 44.1287 20.6723 44.2161 20.6723L44.3556 20.9607C44.3556 21.0842 44.4076 21.2902 44.5305 21.2902C44.5825 21.4137 44.6352 21.5785 44.6352 21.723L44.7747 21.8054C44.7747 21.8466 44.8094 21.929 44.8448 21.9087C44.9149 22.0735 44.9669 22.2382 45.0544 22.3828C45.1591 22.4651 45.1064 22.6097 45.2639 22.6097L45.2466 22.8156L45.3167 22.8568L45.4041 23.0425C45.4041 23.2073 45.5089 23.2694 45.5262 23.4342L45.5963 23.5577C45.5963 23.6813 45.631 23.6813 45.7358 23.6813C45.7531 23.7637 45.7878 23.9906 45.8752 23.9906L45.9974 24.2587C45.9974 24.362 46.0494 24.547 46.1722 24.5268C46.2243 24.6503 46.277 24.7949 46.277 24.9394L46.4692 25.063V25.1251C46.4692 25.1872 46.4692 25.2696 46.5393 25.2696L46.6268 25.4141H46.6615C46.7135 25.4141 46.7489 25.4763 46.7489 25.5377L46.8884 25.826C46.9404 25.826 46.9404 25.9084 46.9404 25.9496L47.0625 26.0732L47.1499 26.2589C47.4296 26.3622 47.9701 27.2279 48.2671 27.496C48.3018 27.5993 48.5113 27.9288 48.5988 27.9288C48.6335 27.9288 48.6335 27.8667 48.6335 27.8465C48.6335 27.7641 48.6161 27.7019 48.546 27.7019C48.5287 27.5784 48.4759 27.3927 48.3365 27.3927C48.3365 27.2481 48.2317 27.2279 48.2317 27.0834C48.1797 27.0624 48.1443 27.001 48.1443 26.9389L47.9875 26.8565C47.9174 26.5682 47.7432 26.2379 47.603 25.9908V25.9698C47.603 25.7841 47.4636 25.6815 47.4636 25.4337C47.4636 25.3715 47.5156 25.3925 47.551 25.3925L47.603 25.2479C47.4982 25.227 47.4636 24.9596 47.4462 24.8563L47.3241 24.7739L47.254 24.6503L47.1839 24.2175H47.1666C47.0618 24.2175 47.0444 24.0527 47.0444 23.9704C46.9397 23.888 46.957 23.867 46.957 23.7232L46.905 23.6199C46.905 23.5787 46.905 23.4342 46.9751 23.4342C47.0271 23.4963 47.0452 23.5787 47.0452 23.6611L47.3248 24.2796L47.4997 24.362L47.517 24.568L47.5871 24.6503L47.6572 24.6713L47.6399 24.857C47.7273 24.9603 47.8494 25.0218 47.8494 25.1865C47.8494 25.2277 48.1985 25.4337 48.1985 25.5572L48.3032 25.6396C48.3379 25.6396 48.3733 25.6186 48.3733 25.5775C48.3733 25.4539 48.2339 25.2891 48.1811 25.2068C48.1811 25.1656 48.1638 25.0832 48.111 25.1034C48.111 24.9799 47.7967 24.5672 47.9542 24.5672L47.8841 24.4025C47.9015 24.3403 47.9188 24.1965 47.8321 24.1965L47.8494 24.073C47.8494 23.8258 47.6052 23.9906 47.7447 23.7637L47.6052 23.6813C47.6052 23.4342 47.5532 23.1863 47.5532 22.9601L47.4831 22.8156C47.4657 22.6509 47.413 22.4861 47.413 22.3206C47.3956 22.2997 47.3429 22.1971 47.413 22.1971C47.3956 22.0735 47.3255 21.929 47.2562 21.8264L47.431 21.8675C47.5185 22.0121 47.6059 22.1559 47.6753 22.3004C47.7273 22.3213 47.7627 22.3828 47.7454 22.4449L47.9203 22.713C47.9203 22.8987 48.1298 22.8575 48.1298 23.0013C48.1818 23.1249 48.3047 23.2485 48.4087 23.3106L48.4788 23.4342L48.6356 23.4963C48.7751 23.5375 48.8452 23.7232 48.8972 23.7232L49.0721 24.0737V24.0946C49.0721 24.1358 49.1422 24.1358 49.1769 24.1358C49.1942 24.1358 49.3163 24.1149 49.2289 24.0946H49.2116L49.2817 23.8887C49.2296 23.8677 49.1942 23.7854 49.1769 23.7239C49.0894 23.6828 48.9847 23.6004 48.9326 23.518V23.4559C48.9326 23.3937 48.9326 23.3113 48.8625 23.2911C48.8279 23.1878 48.7404 23.2499 48.7057 23.1466C48.6884 23.1263 48.6537 23.0852 48.6537 23.0642C48.6537 23.0021 48.6884 22.9818 48.7238 22.9818L48.8286 23.1466C48.8286 23.1878 48.8459 23.229 48.8987 23.229C48.9514 23.229 49.0555 23.1256 49.0555 23.0432C49.0555 23.0021 49.0381 23.0021 49.0035 23.0021C49.0035 22.8163 48.9688 22.7137 48.7939 22.6928C48.7065 22.4868 48.6371 22.2802 48.5843 22.054L48.5496 22.0749C48.4796 22.0749 48.515 21.9304 48.515 21.8892L48.4449 21.7859L48.4275 21.6002L48.3574 21.5178L48.3054 21.3321C48.2006 21.2699 48.1833 21.3733 48.1305 21.3733C48.0958 21.3733 48.0958 21.2085 48.0958 21.1876H48.1833C48.218 21.1876 48.218 21.1254 48.218 21.0842C48.218 21.0228 48.2006 20.9397 48.1479 20.9195C48.1479 20.8573 48.1305 20.7959 48.0778 20.775C48.0604 20.6926 48.0077 20.6102 47.9557 20.548C47.9557 20.1976 48.0258 20.1354 47.7808 20.1354C47.7288 20.1354 47.676 20.1145 47.676 20.0531C47.6587 20.0119 47.6413 19.9295 47.6059 19.9085C47.6406 19.8673 47.676 19.8262 47.676 19.764C47.676 19.7228 47.6413 19.7228 47.624 19.7228C47.624 19.5169 47.6066 19.4135 47.4144 19.3933L47.3971 19.3109C47.2923 19.29 47.3624 19.1874 47.3624 19.105L47.3104 19.084L47.2056 18.6924H47.1536C47.0835 18.6924 47.1189 18.5688 47.1189 18.5067L47.0488 18.3831V18.1771L46.9787 18.0948L46.9086 17.9091C46.8038 17.8267 46.7865 17.93 46.7164 17.93C46.699 17.93 46.699 17.7653 46.699 17.7443H46.7865C46.8212 17.7443 46.8212 17.6822 46.8212 17.641C46.8212 17.5788 46.8212 17.4964 46.7691 17.4553C46.7691 17.3931 46.7518 17.3107 46.699 17.2905L46.5596 17.0434C46.5596 16.7341 46.647 16.5896 46.3847 16.5896C46.3327 16.5896 46.2799 16.5896 46.2799 16.5072C46.2279 16.4862 46.2098 16.4248 46.2098 16.3627L46.105 16.2391V16.1979C46.105 16.1358 46.0877 16.1155 46.0349 16.1155C46.0176 16.1155 46.0003 16.0946 46.0003 16.0743C46.0003 16.0122 46.0523 15.9508 46.0877 15.9096C46.0877 15.8062 46.0003 15.8062 46.0003 15.7036C45.8781 15.6827 45.9482 15.5591 45.9482 15.4767C45.8261 15.4558 45.7914 15.1263 45.8088 15.0229H45.7914C45.5472 15.0229 45.704 14.5901 45.5819 14.5489C45.6339 14.4867 45.6693 14.4253 45.704 14.3429L45.8789 14.2606L45.8615 13.9925L45.949 13.848C45.949 13.5799 46.246 13.6211 46.4028 13.6211L46.4902 13.4563H46.5075C46.5776 13.4563 46.647 13.4151 46.6297 13.3327L46.8045 13.2706L46.9267 13.147L46.944 12.9411C47.0488 12.9201 47.1362 12.8377 47.2229 12.8377C47.2576 12.7756 47.3277 12.7756 47.3797 12.7756C47.4498 12.7756 47.4318 12.5696 47.4318 12.5075L47.5192 12.3839C47.5539 12.3839 47.5893 12.363 47.5893 12.3218C47.5893 12.3008 47.5546 12.2394 47.5192 12.2394C47.5019 12.2394 47.5019 12.2596 47.5019 12.2806L47.3451 12.4042L47.1882 12.4454C47.2757 12.3008 47.4498 12.0739 47.59 12.0125L47.6948 11.7654C47.8343 11.7032 47.9737 11.6418 48.1139 11.6006L48.1313 11.7654C48.1659 11.7242 48.2707 11.6006 48.2707 11.7242L48.4275 11.662C48.515 11.662 48.6197 11.662 48.6891 11.5999C48.7065 11.4966 48.619 11.5378 48.619 11.4142C48.619 11.2906 48.968 11.373 48.968 11.1461C49.0728 11.084 49.1949 10.9813 49.2123 10.8368C49.3872 10.7544 49.6141 10.5073 49.8056 10.5073C49.8402 10.2392 50.0325 10.4452 50.0498 10.1568L50.1018 10.0535C50.1018 9.88875 50.0671 9.74422 50.2586 9.78541C50.3287 9.66184 50.4335 9.51732 50.5383 9.4559V9.43494C50.5383 9.29042 50.7305 9.27019 50.7478 9.08447L50.5209 9.06352L50.3988 9.10471V9.04256C50.3988 8.98042 50.4863 8.96018 50.5036 8.91899H50.591V8.85685C50.591 8.77447 50.6431 8.75352 50.6958 8.75352C50.7478 8.71233 50.8179 8.62995 50.8707 8.54757H50.888C50.9401 8.54757 51.0102 8.52662 51.0275 8.46519L51.0795 8.40305V8.424L51.2016 8.36186C51.2717 8.36186 51.3585 8.36186 51.4112 8.32067C51.3592 8.29971 51.3592 8.21734 51.3592 8.17615L51.4293 8.114C51.4994 8.09305 51.6388 8.05186 51.6388 7.94924C51.7263 7.90806 51.8137 7.82568 51.831 7.70211C51.9532 7.63997 52.1627 7.43402 52.3022 7.43402C52.3369 7.24831 52.4944 7.37187 52.4944 7.16593L52.5464 7.0626V6.93903L52.6686 6.85665L52.7733 6.69189L52.8955 6.60952V6.58856C52.8955 6.46499 53.0349 6.44404 53.0523 6.30024L52.8774 6.27928L52.6852 6.40285L52.6678 6.36166L52.7726 6.21714C52.8427 6.21714 52.8601 6.15499 52.9294 6.15499V6.1138C52.9294 6.05166 52.9814 6.03142 53.0342 6.03142L53.1043 5.90786C53.1216 5.80452 53.2264 5.78429 53.2965 5.80452C53.3666 5.76333 53.8031 5.37167 53.8031 5.24811C53.8031 5.20692 53.7857 5.20692 53.751 5.20692C53.6809 5.20692 53.5942 5.22715 53.5241 5.24811C53.3146 5.35144 53.1404 5.63977 52.9482 5.70191C52.9309 5.68095 52.8781 5.63977 52.8781 5.61953C52.8781 5.57834 52.9301 5.59858 52.9301 5.59858L53.0002 5.47501L53.1224 5.37168C53.1925 5.37168 53.2792 5.33049 53.2972 5.24811C53.3847 5.20692 53.4721 5.12454 53.5241 5.04216H53.5415C53.5935 5.04216 53.6116 5.00097 53.6116 4.93883C53.6116 4.85645 53.699 4.83549 53.751 4.85645L53.699 4.69169C53.699 4.58836 53.5942 4.52694 53.5942 4.48575C53.5942 4.44456 53.6643 4.44456 53.6817 4.44456L53.8912 4.34123V4.21766C53.996 4.1967 54.1355 4.21766 54.1181 4.0529C54.1528 4.01171 54.2229 4.01171 54.2576 4.01171C54.2576 3.86719 54.2576 3.92933 54.3277 3.92933C54.345 3.92933 54.3624 3.90838 54.3797 3.88814L54.4845 3.826V3.64029L54.3096 3.68148C54.2395 3.74362 54.1528 3.80504 54.0654 3.826L53.9779 3.92933C53.9078 3.97052 53.6116 4.13528 53.5762 4.07386C53.4194 4.11505 52.8955 4.34195 52.8781 4.34195C52.8261 4.34195 52.7907 4.38314 52.808 4.44528C52.756 4.54862 52.6512 4.67218 52.5464 4.71337C52.5291 4.71337 52.5117 4.69242 52.5117 4.67218C52.5117 4.63099 52.5291 4.5898 52.5638 4.54862H52.6158C52.6859 4.54862 52.7379 4.52766 52.7379 4.44528L52.9475 4.19815C52.9475 4.09481 53.0523 4.03339 53.1224 4.01243L53.2972 3.7653H53.3673C53.4194 3.7653 53.4194 3.70316 53.4194 3.66197H53.4367L53.5935 3.41483L53.6983 3.37364V3.1677H53.733C53.7677 3.1677 53.8204 3.14674 53.8377 3.10555L54.0647 2.85842C54.3262 2.79627 54.3443 2.50795 54.5712 2.50795C54.6232 2.46676 54.676 2.38438 54.6933 2.302C54.7808 2.21963 54.9029 2.11629 55.025 2.11629L55.0597 1.97177L55.1818 1.95081C55.2165 1.90962 55.3567 1.82725 55.3567 1.7651C55.3567 1.72391 55.3047 1.72391 55.2866 1.72391L55.2779 1.71596ZM18.5481 4.31304C18.5654 4.31304 18.6001 4.31304 18.6001 4.35423V4.37519H18.5828C18.5654 4.37519 18.5481 4.37519 18.5481 4.334V4.31377V4.31304ZM10.134 16.1661H10.0118C9.97715 16.1661 9.95981 16.2073 9.9244 16.1871V16.1661C9.95909 16.1249 10.0639 16.0216 10.134 16.0628L10.3782 16.0418C10.2387 16.1242 10.2214 16.083 10.134 16.1654V16.1661ZM10.5357 16.0425L10.4837 16.0216C10.449 16.0216 10.4317 16.0216 10.449 16.0006C10.449 15.9804 10.449 15.9594 10.4837 15.9594C10.5357 15.9804 10.5538 16.0216 10.5357 16.0418V16.0425ZM10.6579 15.9804C10.6405 15.9804 10.6058 15.9392 10.6058 15.9183L10.6405 15.8973C10.6579 15.9183 10.6925 15.9183 10.6925 15.9594L10.6579 15.9804ZM10.8147 15.0937L10.7626 15.0728L10.9021 14.9695C10.9541 14.9695 11.0416 14.9485 11.129 14.9283C10.9895 14.9904 10.8501 15.0728 10.8147 15.093V15.0937ZM12.1067 14.0423L12.124 14.0214H12.1414C12.124 14.0423 12.1067 14.0423 12.1067 14.0423ZM4.58283 23.5866L4.44336 23.669L4.35593 23.6278L4.39061 23.5866C4.51273 23.5252 4.6522 23.5252 4.79239 23.5252L4.86248 23.6286L4.58355 23.5874L4.58283 23.5866ZM4.9846 23.5657L4.93257 23.6481L4.89789 23.6271L4.93257 23.565L4.91523 23.4414C5.02001 23.4826 5.14213 23.5447 5.24691 23.5447C5.15948 23.565 5.07204 23.565 4.98533 23.565L4.9846 23.5657ZM5.94496 23.669L6.03239 23.5043C6.08442 23.5043 6.15452 23.4833 6.22461 23.4833C6.11983 23.5245 6.01505 23.5866 5.94568 23.669H5.94496ZM7.14956 23.8338V23.7716L7.21965 23.8338H7.14956ZM7.44655 23.38L7.27168 23.4009L7.21965 23.38L7.51665 23.3178L7.44655 23.38ZM7.74355 24.4726L7.51665 24.5138L7.65611 24.4516L7.6908 24.3692H7.76089L7.74355 24.4726ZM8.87805 23.1531C8.77328 23.1321 8.68584 23.174 8.58106 23.174L8.38884 23.2976L8.05716 23.2564L8.16194 23.1119C8.24938 23.0707 8.33682 23.0707 8.4416 23.0707C8.58106 23.0707 8.73859 23.0707 8.84337 22.9471L9.01824 22.9681L9.03559 23.0302L8.87878 23.1538L8.87805 23.1531ZM9.00018 24.4726L8.93008 24.3902C8.98211 24.3692 9.05221 24.349 9.10496 24.349H9.19239L9.00018 24.4726ZM9.26176 24.349L9.24442 24.3281L9.29645 24.2869H9.33113L9.34848 24.3078L9.26104 24.349H9.26176ZM9.75025 22.9059L9.80228 22.9883L9.76759 23.0295H9.59272L9.57538 22.885L9.75025 22.9059ZM9.55803 24.3692L9.52335 24.2659L9.61079 24.2449L9.55876 24.3685L9.55803 24.3692ZM10.728 24.3902L10.6232 24.3692C10.5357 24.4104 10.431 24.4314 10.3262 24.4516L10.2041 24.534C9.9945 24.4928 9.95981 24.4516 9.73291 24.555L9.82034 24.4104C9.87237 24.3692 9.89044 24.4104 9.94247 24.4104V24.3895L10.0472 24.3483L10.2221 24.3692L10.3616 24.2869H10.5711C10.6412 24.2869 10.6933 24.3078 10.7634 24.3078L10.7287 24.3902H10.728ZM10.8327 22.5143L10.9549 22.5967L10.9202 22.6176H10.8327V22.5143ZM11.0249 24.1019L10.9729 24.2254H10.9382L10.9209 24.1431L10.9729 24.164L11.0604 23.9783H11.0777C11.0777 23.9783 11.095 23.9783 11.0257 24.1019H11.0249ZM11.2172 23.9985L11.1471 23.9776H11.2345L11.2172 23.9985ZM11.3566 24.1019H11.3393L11.3566 23.9985H11.3913L11.3566 24.1019ZM11.7757 22.1436L11.8979 22.1645C11.8104 22.1855 11.7411 22.2057 11.6536 22.2057L11.7757 22.1436ZM11.7411 23.4631L11.6536 23.4219L11.8285 23.3807L11.9333 23.4631H11.7411ZM12.265 23.3395C12.2129 23.3605 12.1428 23.4017 12.0901 23.4017H12.02C12.1074 23.3395 12.2295 23.2781 12.3343 23.2571L12.2642 23.3395H12.265ZM12.4572 18.8456L12.3871 18.7834V18.6187L12.4745 18.6599L12.4572 18.8456ZM23.6996 23.1538L23.7697 23.2774C23.6996 23.2774 23.7177 23.2152 23.6996 23.1538ZM23.9092 22.8033C23.8745 22.8033 23.8572 22.7621 23.8572 22.721V22.7C23.8918 22.7 23.9092 22.721 23.9272 22.7621L23.9099 22.8033H23.9092ZM25.2012 21.9376C25.2186 21.8553 25.2532 21.7519 25.306 21.6695L25.3407 21.6905C25.3407 21.835 25.306 21.8762 25.2012 21.9376ZM25.3761 21.6081L25.4982 21.5257C25.4809 21.5879 25.4281 21.6081 25.3761 21.6081ZM25.7598 20.7627C25.7251 20.7627 25.7078 20.7215 25.7078 20.7005L25.7598 20.7215V20.7627ZM25.7598 20.577L25.8118 20.5972C25.8118 20.6181 25.8118 20.6593 25.7945 20.6593C25.7598 20.6593 25.7598 20.5972 25.7598 20.577ZM25.7771 20.9274C25.7945 20.8653 25.8472 20.8241 25.8819 20.8039L25.9166 20.8241C25.8646 20.845 25.8118 20.8862 25.7771 20.9274ZM25.8993 20.4324C25.8819 20.4324 25.8819 20.4115 25.8819 20.3912H25.8993C25.9108 20.3912 25.9166 20.3982 25.9166 20.4122C25.9166 20.4122 25.9166 20.4332 25.8993 20.4332V20.4324ZM28.2911 8.31128L28.4132 8.24913L28.5007 8.22818L28.3612 8.31055V8.47531L28.2218 8.5165L28.2918 8.31055L28.2911 8.31128ZM27.9421 8.41461L28.0122 8.49699L27.9248 8.55913C27.9074 8.53818 27.8727 8.51794 27.8727 8.47675C27.8727 8.4558 27.9248 8.43556 27.9428 8.41461H27.9421ZM27.7672 8.37342C27.7846 8.37342 27.8019 8.39438 27.8019 8.41461C27.8019 8.43484 27.8019 8.4558 27.7846 8.4558C27.7672 8.4558 27.7499 8.43484 27.7499 8.41461C27.7499 8.39438 27.7672 8.37342 27.7672 8.37342ZM26.2309 7.28083L26.2656 7.3632H26.2483C26.2309 7.3632 26.2136 7.34225 26.2136 7.32201C26.2136 7.30178 26.2136 7.28083 26.2309 7.28083ZM25.6377 7.38416L25.8125 7.26059C25.8472 7.30178 25.9173 7.26059 25.952 7.23964C25.9867 7.30178 26.0568 7.32201 26.1088 7.30178L26.0568 7.40512L25.9 7.34297L25.7779 7.4463H25.6211L25.6384 7.38416H25.6377ZM25.5156 8.16747C25.5329 8.16747 25.5676 8.16747 25.5676 8.18843C25.5676 8.20939 25.358 8.312 25.3233 8.33295H25.1839C25.1492 8.37414 25.0791 8.35391 25.0444 8.312C24.9396 8.37414 24.8175 8.35319 24.7301 8.45652L24.5906 8.43556L24.3521 8.54107C24.3196 8.42111 24.2633 8.32139 24.2069 8.18771V8.14652L24.1368 8.002L24.0147 7.91962L23.9988 7.74836C24.1433 7.73824 24.2792 7.68404 24.4338 7.77509L24.7127 7.75414C24.7828 7.81628 24.8349 7.69199 24.8876 7.75414C24.9396 7.73318 24.9924 7.71295 25.0444 7.73318L25.2012 7.71223C25.2359 7.79461 25.306 7.77437 25.358 7.71223L25.2879 8.00055L25.3053 8.12412C25.34 8.16531 25.4101 8.2065 25.4621 8.16531H25.5141L25.5156 8.16747ZM22.8621 10.6822L23.0717 10.5998L23.1938 10.4141L23.2111 10.5586C23.2111 10.8057 23.0189 10.9293 22.8621 11.0738V10.6822ZM23.8051 9.71315L23.9446 9.7753L23.8051 9.85767H23.7177L23.8051 9.71315ZM24.8349 7.50773L24.9396 7.42535L25.1145 7.48749C25.1665 7.4463 25.2366 7.48749 25.2894 7.4463C25.3067 7.4463 25.4288 7.46726 25.4288 7.50845C25.4288 7.50845 25.4288 7.52941 25.4115 7.52941C25.3414 7.48822 25.2547 7.52941 25.2019 7.59155L24.9577 7.52941C24.923 7.59155 24.8703 7.55036 24.8356 7.50845C24.7481 7.57059 24.6434 7.54964 24.5566 7.61178C24.5393 7.59083 24.5046 7.52941 24.4692 7.52941C24.3818 7.52941 24.225 7.63274 24.0674 7.63274C24.0523 7.63274 24.0024 7.63274 23.9518 7.6378L23.9106 7.54964H23.8933C23.8796 7.52073 23.8651 7.49544 23.8506 7.47232L24.0855 7.42607C24.1729 7.54964 24.6788 7.48822 24.7489 7.44703L24.8363 7.50917L24.8349 7.50773ZM24.1715 7.01274C24.2062 7.07488 24.2763 7.07488 24.3283 7.03369H24.4678C24.4678 7.05465 24.3283 7.07488 24.2755 7.07488C24.1187 7.09584 23.9966 7.17821 23.8391 7.15726C23.7899 7.18616 23.6794 7.22518 23.5883 7.23891C23.5117 7.19556 23.4431 7.15726 23.3997 7.07705C23.4005 7.07705 23.4019 7.07632 23.4026 7.0756C23.6469 7.09656 23.9265 7.01346 24.1708 7.01346L24.1715 7.01274ZM20.9067 8.29104V8.39438C20.872 8.312 20.8019 8.22962 20.7846 8.12629L20.9067 8.29104ZM20.1733 7.94057L20.2253 8.06414L20.0504 8.02295L19.9984 7.94057H20.1733ZM18.288 3.07592C18.288 3.19949 18.2005 3.30283 18.1311 3.3852L18.1832 3.30283C18.2005 3.19949 18.2352 3.09688 18.288 3.03474V3.07592ZM18.3754 1.69501L18.4274 1.65382C18.4274 1.65382 18.4274 1.59167 18.4448 1.59167C18.4621 1.59167 18.4794 1.67405 18.4794 1.69501C18.4794 1.7362 18.4621 1.77738 18.4274 1.77738L18.34 1.81857C18.3573 1.79762 18.3747 1.71524 18.3747 1.69501H18.3754ZM18.3407 1.92191V1.94286C18.3407 1.96382 18.3407 1.98405 18.3234 1.98405C18.306 1.98405 18.2887 1.92191 18.2887 1.90167L18.3407 1.92191ZM18.2706 2.02524C18.2822 2.02524 18.288 2.03223 18.288 2.0462L18.3053 2.06715C18.3053 2.08811 18.288 2.08811 18.288 2.08811C18.2533 2.08811 18.2533 2.04692 18.2533 2.02596H18.2706V2.02524ZM18.2186 2.80856C18.2301 2.80856 18.2417 2.81554 18.2533 2.82951C18.2359 2.82951 18.2012 2.85047 18.1832 2.85047L18.1658 2.82951C18.1832 2.80856 18.2005 2.80856 18.2179 2.80856H18.2186ZM18.1485 2.93212C18.1601 2.93212 18.1658 2.93911 18.1658 2.95308C18.1832 2.97404 18.1485 2.99427 18.1311 2.99427C18.1138 2.99427 18.0965 2.97331 18.0965 2.95308C18.1138 2.95308 18.1311 2.93212 18.1485 2.93212ZM18.0784 3.09688H18.0957C18.1131 3.09688 18.1304 3.09688 18.1304 3.11784V3.13879H18.0957C18.0842 3.13879 18.0784 3.13181 18.0784 3.11784V3.09688ZM18.0264 3.30283C18.0264 3.30283 18.0264 3.34402 18.009 3.34402C17.9917 3.34402 17.9743 3.30283 17.9743 3.28187L18.0264 3.30283ZM17.9743 3.42639C17.9743 3.44663 17.9743 3.46758 17.9397 3.46758L17.9223 3.42639H17.9743ZM17.8696 3.52973C17.9042 3.52973 17.9216 3.55068 17.9216 3.59187C17.8869 3.59187 17.8696 3.55068 17.8515 3.52973H17.8688H17.8696ZM17.7995 3.07592C17.8342 3.07592 17.8515 3.11711 17.8515 3.13807C17.8342 3.13807 17.8168 3.15903 17.8168 3.15903C17.7995 3.15903 17.7821 3.11784 17.7821 3.09688C17.7821 3.07592 17.7995 3.07592 17.7995 3.07592ZM17.712 4.4778C17.712 4.49875 17.6419 4.49875 17.6419 4.49875C17.6246 4.60209 17.5899 4.49875 17.5899 4.45757L17.712 4.47852V4.4778ZM17.5473 4.74733L17.5379 4.72493C17.5502 4.72493 17.5458 4.73505 17.5473 4.74733ZM17.4678 9.52816H17.4851C17.5025 9.40459 17.5372 9.26007 17.6419 9.19865L17.6073 9.42555L17.4851 9.52888L17.4331 9.69364L17.3283 9.77602C17.3457 9.69364 17.3804 9.52888 17.4678 9.52888V9.52816ZM16.9966 10.1055L17.0667 10.1467V10.3115L16.9966 10.2905V10.1048V10.1055ZM16.8218 10.6829L16.9786 10.7862L16.8738 10.9719V11.0131C16.8218 11.1165 16.7864 11.2603 16.7343 11.3636C16.6823 11.3224 16.6469 11.2603 16.6469 11.1988C16.6469 11.0131 16.8037 10.8693 16.8218 10.6836V10.6829ZM12.7021 15.7744H12.8944C12.877 15.8366 12.8423 15.898 12.8069 15.9602H12.7549L12.6848 15.7954L12.7021 15.7744ZM12.7722 17.9799L12.7021 18.1446V18.0211L12.7722 17.9799ZM13.4876 21.8141C13.3127 21.835 13.0858 21.835 12.9464 21.9998C12.8243 21.9998 12.7195 21.9998 12.5974 21.9788L12.7021 21.8343C12.9464 21.731 13.2781 21.7722 13.4703 21.546L13.6625 21.5669L13.6798 21.6081C13.6278 21.6703 13.5577 21.7729 13.4876 21.8141ZM13.6972 23.2362L13.6271 23.1328C13.7665 23.1328 13.9241 23.0917 14.0289 22.9883L14.0809 23.0295C13.9588 23.1119 13.8366 23.1943 13.6965 23.2355L13.6972 23.2362ZM14.2904 21.4224C14.4126 21.4224 14.5 21.4434 14.552 21.5872H14.3251L14.2904 21.4224ZM15.0066 22.9479L14.8317 22.989L14.7442 23.1126C14.6742 23.0714 14.6048 23.0302 14.5347 22.9681L14.5173 22.7824L14.6922 22.7614L14.8317 22.8648L14.9711 22.679L15.0058 22.7614H15.1981L15.3028 22.6993L15.0058 22.9464L15.0066 22.9479ZM17.9743 18.2682C17.8696 18.2892 17.7648 18.3303 17.6773 18.4127C17.6427 18.3925 17.5205 18.3303 17.5205 18.2682V18.227C17.6253 18.1858 17.7301 18.1446 17.8349 18.1446L17.9743 18.0825V18.2682ZM18.2186 18.1446L18.0791 18.0001L18.2186 17.9792V18.1439V18.1446ZM19.0568 21.3603L18.8299 21.3812L18.9347 21.2367C18.9867 21.2157 19.0742 21.1746 19.1269 21.1955L19.0568 21.3603ZM18.7078 17.9177L18.551 17.8968L18.5163 17.9589L18.3414 17.9799V17.9177L18.551 17.732H18.5683C18.7251 17.732 18.8473 17.6084 18.9347 17.4639H19.1269L19.2143 17.5875C19.1096 17.6287 18.7605 17.7732 18.7078 17.917V17.9177ZM19.1443 17.2168L19.0395 17.2992L18.8646 17.3194C18.7945 17.3606 18.7425 17.4227 18.6897 17.4842C18.4975 17.5665 18.306 17.8137 18.1138 17.8137C17.9389 17.8137 17.7995 17.9784 17.6253 17.9784L17.4859 18.1229L17.4338 18.1439L17.329 18.3296C17.2589 18.3087 17.1896 18.412 17.1195 18.3918L16.9446 18.4741L16.9099 18.5153C16.7878 18.5153 16.0197 18.7834 15.9322 18.8448C15.8101 18.8448 15.6706 18.8658 15.5485 18.907L15.3917 19.0515L15.3744 19.1339C15.1995 19.1548 14.9907 19.1339 14.8331 19.2575C14.7984 19.2575 14.6763 19.2163 14.6409 19.2365L14.4314 19.3189L14.2218 19.2979C14.1517 19.4424 13.9949 19.566 13.8901 19.6484L13.6806 19.566L13.6979 19.3391C14.0469 18.7827 14.2738 17.7725 14.5361 17.5044V17.3396L14.711 16.948L14.763 16.927L14.7804 16.7001C15.0246 16.4118 15.1995 16.0613 15.2869 15.6697L15.4264 15.5251L15.4965 15.3604C15.5138 15.3604 15.6714 15.2982 15.6714 15.278L15.7761 15.4225C16.0377 15.278 17.0508 15.2578 17.3999 15.2578L17.4345 15.3199C17.574 15.3611 17.7135 15.3611 17.8363 15.4435H18.168L18.2901 15.5468L18.6218 15.5266C18.9708 15.7325 19.3899 15.6502 19.7043 15.9183C19.7917 16.104 19.8965 16.289 19.9138 16.4956C19.8264 16.7016 19.3206 17.1966 19.1457 17.2168H19.1443ZM19.3885 17.8354C19.4586 17.8144 19.5453 17.753 19.6154 17.6706L19.4933 17.8354H19.3885ZM20.0345 20.3501C19.9644 20.4122 19.7202 20.4946 19.5981 20.4946C19.5981 20.4946 19.5634 20.4946 19.5634 20.4736C19.5634 20.3912 19.8423 20.2677 19.9124 20.2677C19.9471 20.2677 20.0519 20.2677 20.0519 20.3089L20.0345 20.3501ZM20.174 9.98124C19.9297 10.0846 19.4058 10.4762 19.2664 10.7024H19.0742L18.9347 10.9084C18.7598 11.0117 18.5683 11.0117 18.3761 11.0117C18.2193 11.115 18.0791 11.2386 17.905 11.2798C17.8349 11.3419 17.7301 11.4243 17.6434 11.4445L17.5213 11.6093L17.4866 11.6302C17.2597 11.6512 17.0154 11.6302 16.8406 11.8362L16.8059 11.5891V11.5269L16.8232 11.506C16.928 11.3202 16.9627 11.0933 17.0501 10.9084C17.1896 10.826 17.2597 10.6815 17.2423 10.4957C17.3818 10.1662 17.4692 9.83599 17.6961 9.58886L17.7135 9.52672L17.8356 9.36196C17.8703 9.1972 17.923 9.03245 18.0278 8.92911L18.0979 8.72317C18.4643 8.5996 18.9708 8.61983 19.3545 8.61983L19.3892 8.5165L19.3018 8.33079H19.3191C19.3892 8.33079 19.494 8.33079 19.494 8.43412L19.6335 8.59888V8.61983L19.7209 8.49627C19.6862 8.39293 19.6689 8.29032 19.6508 8.18699L19.8257 8.22818V8.24913L19.9305 8.45508C19.9131 8.51722 19.8958 8.57864 19.8958 8.61983L19.9832 8.80554V8.95007C20.088 8.97102 20.1754 8.99126 20.2802 8.99126C20.3676 9.03245 20.4551 9.09459 20.5599 9.09459C20.5945 9.19792 20.63 9.30054 20.63 9.40387L20.5779 9.56863L20.4211 9.69219V9.71315L20.351 9.85767C20.3163 9.87863 20.1942 9.94005 20.1761 9.98124H20.174ZM23.9446 13.8978C23.7979 13.9672 23.2819 13.9932 23.1006 14.1963C23.0579 14.1348 23.0139 14.0582 22.9669 13.96L22.9445 13.9527C22.9459 13.9419 22.9474 13.9311 22.9495 13.9188C23.1244 13.9188 23.3159 13.8978 23.4908 13.8978C23.5609 13.8978 23.5609 13.8154 23.6476 13.8357C23.6996 13.7945 23.7697 13.7945 23.8225 13.7945V13.8154C23.8225 13.8978 23.9099 13.8978 23.9446 13.8978ZM23.5081 14.2895C23.4048 14.2895 23.3802 14.3545 23.3058 14.4073C23.2935 14.3986 23.2819 14.3892 23.2697 14.3798C23.3304 14.3386 23.3325 14.2071 23.4207 14.2071C23.4554 14.2071 23.6823 14.2483 23.6823 14.2895C23.6303 14.3104 23.5602 14.2895 23.5074 14.2895H23.5081ZM20.8547 19.9374H20.7326L20.7846 19.8139H20.9414L20.854 19.9374H20.8547ZM23.2639 17.0101L23.089 16.9277L23.2639 16.742L23.386 16.8042L23.2639 17.0101ZM24.2242 15.8973L24.1195 15.8561L24.1021 16.0006L24.0429 15.9869L24.0501 15.8156L24.0277 15.7636C24.1274 15.7296 24.2307 15.7036 24.329 15.6921L24.5039 15.7333L24.225 15.898L24.2242 15.8973ZM24.6434 15.6704C24.626 15.6704 24.5913 15.6704 24.5913 15.6494C24.5913 15.6285 24.6087 15.6082 24.6087 15.5873C24.6434 15.5873 24.6434 15.6082 24.6434 15.6494V15.6704ZM24.9404 15.5671C24.9057 15.5671 24.8703 15.5259 24.8703 15.4847H24.8876C24.9049 15.4847 24.9396 15.5056 24.9396 15.5468V15.5678L24.9404 15.5671ZM25.2547 14.7837L25.0451 14.7628L25.1673 14.9073L25.1499 15.0518L25.0278 15.0728C24.9758 15.1964 24.7481 15.1349 24.6614 15.1349C24.6614 15.2383 24.4519 15.2173 24.3998 15.2173C24.3825 15.2997 24.3652 15.2795 24.3124 15.2795C24.2777 15.2795 24.2604 15.3206 24.2604 15.3618L24.1036 15.4442C24.0869 15.5822 24.0696 15.5692 23.9764 15.5497C23.9511 15.3589 23.8528 15.0128 23.8239 14.9283L23.696 14.796C23.7329 14.7888 23.7697 14.7837 23.8066 14.7837C23.8586 14.7837 23.946 14.8661 23.9814 14.9283H23.9988C24.1556 14.9283 24.0335 14.8249 24.3478 14.8249C24.3825 14.8249 24.4352 14.804 24.4699 14.7628L24.5921 14.7837C24.7315 14.7216 24.871 14.7216 24.9938 14.619V14.6399C24.9938 14.7635 25.3956 14.619 25.3956 14.7021C25.3956 14.723 25.2735 14.7845 25.2561 14.7845L25.2547 14.7837ZM24.1896 13.7735C24.1896 13.7323 24.2242 13.7323 24.2416 13.7323L24.2589 13.8147C24.2416 13.8147 24.1888 13.7938 24.1888 13.7735H24.1896ZM25.4989 15.1342C25.4816 15.1342 25.4469 15.1342 25.4469 15.093C25.4469 15.0721 25.4989 15.0518 25.517 15.0518L25.4997 15.1342H25.4989ZM25.569 14.619C25.5517 14.619 25.517 14.619 25.517 14.5778C25.517 14.5568 25.5517 14.5366 25.569 14.5366C25.5864 14.5366 25.5864 14.5366 25.5864 14.5576C25.5864 14.5785 25.5864 14.5988 25.569 14.6197V14.619ZM25.6738 14.4542C25.7258 14.4752 25.7612 14.5366 25.7959 14.5988C25.7258 14.5778 25.6738 14.5576 25.6738 14.4542ZM26.2324 19.4634V19.4424C26.2324 19.2777 26.3545 19.2155 26.3545 19.0508L26.494 19.1332C26.494 19.2365 26.4239 19.2777 26.4239 19.3601C26.3538 19.381 26.3191 19.4424 26.249 19.4634L26.1616 19.6491V19.6903C26.1442 19.6903 26.0915 19.5458 26.0915 19.5255C26.1616 19.5255 26.1616 19.4634 26.2309 19.4634H26.2324ZM26.0756 20.0408C26.0929 20.0408 26.0929 20.0617 26.0929 20.082C26.0929 20.1022 26.0929 20.1231 26.0756 20.1231C26.0582 20.1231 26.0409 20.082 26.0409 20.061C26.0582 20.061 26.0582 20.04 26.0756 20.04V20.0408ZM26.0582 22.1024C26.0409 22.0814 25.9881 22.02 25.9881 21.9788C25.9881 21.9376 26.0228 21.9376 26.0402 21.9376H26.1103L26.0582 22.1024ZM26.2851 21.5048L26.2331 21.6493L26.163 21.7317C26.163 21.7317 26.163 21.7938 26.1457 21.7938C26.1283 21.7938 26.111 21.7115 26.111 21.6905L26.163 21.546C26.2505 21.525 26.1804 21.4224 26.2851 21.4015V21.5048ZM26.5467 19.7113H26.4246L26.4947 19.6079C26.512 19.6289 26.5821 19.6491 26.5821 19.6903C26.5821 19.7113 26.5475 19.7113 26.5475 19.7113H26.5467ZM26.512 19.0313L26.6869 18.4749L26.7043 18.4539C26.7216 18.4539 26.7216 18.4951 26.7216 18.5161C26.7216 18.7018 26.7043 19.0313 26.512 19.0313ZM26.9312 20.4743C26.9138 20.4743 26.9138 20.4534 26.9138 20.4332C26.9312 20.4332 26.9839 20.4332 26.9839 20.4743H26.9319H26.9312ZM27.0013 17.9799C27.0013 18.0008 27.0013 18.0211 26.9839 18.0211C26.9492 18.0211 26.9319 17.9589 26.9319 17.9387L27.002 17.9589V17.9799H27.0013ZM27.0186 19.9179V19.897C27.0186 19.897 27.0186 19.876 27.0359 19.876L27.0533 19.897C27.0359 19.897 27.0359 19.9179 27.0186 19.9179ZM27.0359 17.8773C27.0186 17.8773 27.0013 17.8151 27.0013 17.7949C27.0186 17.7949 27.0186 17.7739 27.0359 17.7739C27.0533 17.7739 27.0706 17.7949 27.0706 17.8151C27.0706 17.8354 27.0706 17.8773 27.0359 17.8773ZM27.1754 17.6301C27.1407 17.6301 27.1407 17.568 27.1407 17.5477L27.1927 17.5687C27.1927 17.5897 27.1927 17.6308 27.1754 17.6308V17.6301ZM27.3676 19.6296L27.3156 19.6506C27.2982 19.6094 27.2809 19.5682 27.2809 19.506C27.2809 19.4648 27.3156 19.4439 27.351 19.4439C27.351 19.4229 27.351 19.3615 27.3857 19.3615C27.4204 19.3615 27.4204 19.4237 27.4204 19.4439C27.3329 19.4439 27.3503 19.5675 27.3683 19.6296H27.3676ZM27.3329 17.1561C27.3503 17.1561 27.3503 17.1351 27.3676 17.1351C27.385 17.1351 27.4023 17.1561 27.4023 17.1763C27.4023 17.1966 27.4023 17.2385 27.3676 17.2385C27.3503 17.2385 27.3329 17.1763 27.3329 17.1561ZM27.4377 21.176L27.4724 21.0936C27.4724 21.1146 27.4724 21.1558 27.4897 21.176H27.4377ZM27.6126 20.8877L27.5078 20.991L27.6126 20.8674V20.8884V20.8877ZM27.6299 18.9084L27.5598 19.0941H27.5425C27.4724 19.0941 27.4905 19.2589 27.4724 19.2589C27.4543 19.2589 27.4204 19.1556 27.4204 19.1353L27.4905 18.9496C27.5425 18.9496 27.5425 18.9084 27.5425 18.8672C27.5425 18.8051 27.5772 18.7849 27.6299 18.7849L27.682 18.7025C27.682 18.7849 27.6299 18.8261 27.6299 18.9084ZM27.9616 16.7442H27.8048C27.8048 16.703 27.8221 16.6206 27.8749 16.6206V16.5997L27.8922 16.5787C27.9269 16.5787 27.997 16.6611 27.997 16.7023C27.997 16.7435 27.9797 16.7435 27.9623 16.7435L27.9616 16.7442ZM28.4328 17.672C28.3981 17.672 28.3981 17.6308 28.3981 17.6099C28.4328 17.6099 28.4682 17.6308 28.4682 17.672H28.4335H28.4328ZM28.5028 17.2182C28.4855 17.2182 28.4682 17.1561 28.4682 17.1359C28.4855 17.1359 28.4855 17.1149 28.5028 17.1149C28.5202 17.1149 28.5375 17.1359 28.5375 17.1561C28.5375 17.1763 28.5375 17.2182 28.5028 17.2182ZM28.5549 18.6403C28.5549 18.6269 28.5607 18.6131 28.5722 18.5992C28.5722 18.6201 28.5722 18.6403 28.5549 18.6403ZM28.5896 17.0528C28.5549 17.0528 28.5375 17.0116 28.5375 16.9704H28.5549C28.5896 16.9704 28.6069 16.9704 28.6069 17.0116C28.6069 17.0325 28.6069 17.0528 28.5896 17.0528ZM28.9212 8.9927L28.9039 9.01366L28.7818 9.03461L28.8338 9.26151C28.8165 9.71532 28.1177 10.6222 28.1177 11.055C28.0657 11.1584 27.9956 11.3022 27.9956 11.4257C27.8561 11.4257 27.9782 11.8384 27.8207 11.8384C27.6812 11.8384 27.7333 11.9417 27.7333 12.0443C27.7333 12.1267 27.6632 12.1476 27.6111 12.1476C27.5237 12.23 27.6111 12.23 27.4543 12.251C27.4543 12.3745 27.0352 12.3334 26.9304 12.3543L26.8603 12.4779L26.8257 12.4988H26.5988L26.5814 12.4779C26.5294 12.54 26.4593 12.5603 26.4065 12.54L26.3364 12.561L26.2664 12.6643L26.2143 12.6845H26.1796C26.0575 12.6845 25.8826 12.7257 25.7779 12.7467C25.7432 12.8703 25.4115 12.9114 25.3067 12.9324V12.9114C25.3067 12.8912 25.2894 12.8912 25.272 12.8912C25.1152 12.8912 25.0278 13.056 24.8883 13.0972L24.7135 13.0762L24.574 13.1383L24.3644 13.1181C24.0327 13.2626 23.7011 13.3241 23.3867 13.4888H23.3166C23.2119 13.4888 23.1598 13.53 23.037 13.5098L22.8975 13.6131C22.8628 13.6753 22.7927 13.6753 22.7407 13.6753C22.7255 13.8191 22.6302 13.6803 22.5947 13.7388C22.3693 13.59 22.1706 13.6362 22.06 13.4895C21.9552 13.4274 21.7811 13.4072 21.7283 13.2626C21.4487 13.2214 21.2398 13.2005 20.9775 13.0769L20.9074 12.8912H21.117L21.2391 12.7265L21.414 12.7055V12.6434C21.5708 12.5812 21.6929 12.4576 21.8331 12.3753L21.9032 12.1072L21.8331 11.9424H21.6582C21.5708 11.9836 21.4834 12.0869 21.4313 12.1896V12.2105L21.3439 12.1896C21.2919 12.1896 21.2391 12.2105 21.2391 12.2719C21.117 12.3753 20.9949 12.4779 20.9074 12.6224L20.82 12.4779C20.7853 12.5191 20.7152 12.5603 20.6632 12.5603C20.6458 12.5603 20.6285 12.5603 20.6112 12.5393C20.6813 12.3124 20.9428 12.3745 21.0303 12.1686C21.1871 12.1476 21.3273 12.0241 21.4841 12.045L21.5361 11.9005L21.6582 11.8796C21.815 11.6324 21.9025 11.4467 22.1648 11.4055V11.3846L22.3397 11.3022H22.3917L22.2869 11.5291L22.112 11.5703C22.06 11.6324 22.0246 11.7148 21.9899 11.7972L22.06 11.9005L22.0427 12.045C22.1128 12.066 22.1995 12.0862 22.2522 12.1274C22.409 11.9417 22.4271 11.8593 22.4618 11.5912C22.5492 11.571 22.6367 11.5291 22.7234 11.55L22.8281 11.3643C22.9676 11.261 23.055 11.1374 23.1598 10.9727L23.3166 10.8693L23.334 10.8281L23.5089 10.6836L23.6136 10.4365C24.2069 10.0239 23.9973 9.71532 24.2423 9.15818V9.13723C24.2423 9.05485 24.2423 8.93128 24.3297 8.91032L24.3818 8.7658C24.3818 8.7275 24.3789 8.69282 24.3753 8.65885C24.4533 8.63212 24.5292 8.61983 24.574 8.68342C24.6788 8.68342 24.9758 8.72461 25.0805 8.64223C25.1326 8.72461 25.1506 8.62128 25.2027 8.62128C25.22 8.62128 25.2373 8.66247 25.2373 8.66247L25.3942 8.80699L25.5336 8.78603C25.6557 8.70366 25.8126 8.76508 25.9354 8.66247L26.0922 8.74484L26.197 8.66247C26.2671 8.66247 26.6855 8.55913 26.7035 8.68342L26.8958 8.58009C26.9478 8.60104 27.1053 8.74484 27.1573 8.66247L27.2795 8.62128C27.3496 8.66247 27.4189 8.64223 27.489 8.64223L27.5938 8.62128C27.6639 8.66247 27.9081 8.64223 27.9956 8.64223L27.9081 8.80699C27.7687 8.7658 27.5765 8.78603 27.437 8.82795L27.3669 8.7658L27.2795 8.82795L27.2621 8.91032L27.1747 8.88937C27.0872 8.93056 26.9651 8.97175 26.8777 8.95151L26.5807 9.13723H26.4412C26.4239 9.13723 26.4065 9.15818 26.4065 9.17841C26.4065 9.19865 26.4586 9.19937 26.4766 9.19937C26.6688 9.19937 26.8958 9.15818 27.0699 9.09604C27.0872 9.11699 27.1046 9.11699 27.14 9.11699C27.2448 9.11699 27.3322 8.97247 27.437 9.09604L27.734 9.03389C27.8041 9.11627 28.0136 9.01294 28.1004 8.97175L28.2398 9.01294C28.3793 8.99198 28.5014 8.93056 28.6416 8.99198C28.729 8.92983 28.8165 8.9096 28.9205 8.88865V8.99198L28.9212 8.9927ZM28.9913 8.60104C28.9393 8.64223 28.8866 8.68342 28.8345 8.68342C28.7825 8.68342 28.6951 8.62128 28.6951 8.55986C28.6951 8.51867 28.7297 8.51867 28.7652 8.51867L28.9747 8.53962L29.1142 8.60177H29.0795C29.0795 8.64296 29.0094 8.64296 28.9921 8.60177L28.9913 8.60104ZM29.026 18.4546V18.3723L29.0961 18.5168C29.0614 18.5168 29.026 18.4958 29.026 18.4546ZM29.2876 17.9596V18.0008C29.2876 18.063 29.2356 18.063 29.2356 18.1656C29.2182 18.2068 29.1655 18.2892 29.1308 18.2892C29.0961 18.2892 29.0961 18.227 29.0961 18.2068L29.2356 18.0623C29.2356 18.0413 29.2703 17.8975 29.2876 17.8975C29.305 17.8975 29.2876 17.9387 29.2876 17.9596ZM29.2175 17.5889H29.2522C29.2695 17.5889 29.2869 17.6099 29.2869 17.6301C29.2869 17.6504 29.2869 17.6511 29.2695 17.6511C29.2349 17.6511 29.2175 17.6099 29.2175 17.5889ZM30.3173 15.4861C30.2472 15.6718 30.1605 15.8366 30.0557 16.0014C30.0557 16.1661 29.8809 16.393 29.8809 16.5787C29.8809 16.6409 29.8462 16.6409 29.8108 16.6409C29.7588 16.6409 29.7407 16.6618 29.7407 16.7232L29.6012 16.888C29.6012 16.9704 29.5311 17.0116 29.5311 17.0939C29.4964 17.1561 29.461 17.2175 29.409 17.2587C29.409 17.3208 29.3917 17.3823 29.3389 17.4032C29.3389 17.4444 29.3216 17.5066 29.2688 17.5066C29.2515 17.5066 29.1467 17.2797 29.1467 17.2182C29.1467 17.0737 29.4083 17.0947 29.4784 17.0947V17.0325C29.461 16.8678 29.3909 17.0116 29.3216 17.0116C29.2869 17.0116 29.2869 16.888 29.2869 16.867L29.409 16.7225C29.409 16.6192 29.461 16.6401 29.461 16.5166C29.461 16.4342 29.5131 16.393 29.5131 16.3106L29.6525 16.1661C29.6525 16.2073 29.6699 16.2485 29.7046 16.2485C29.7566 16.2485 29.8093 16.2073 29.8614 16.1661C29.8614 16.0628 29.9315 16.0216 29.9315 15.919C29.9315 15.898 29.8794 15.7744 29.8794 15.7744C29.8621 15.7744 29.8621 15.8366 29.8621 15.8366C29.8621 15.9602 29.8794 16.0014 29.7573 16.0014C29.7226 16.0014 29.7053 15.9602 29.7053 15.9392C29.7053 15.8156 29.7573 15.6921 29.7927 15.5887C29.8447 15.5475 29.8975 15.5064 29.9322 15.4442L29.9842 15.5887L30.0716 15.6509L30.1417 15.5685C30.1417 15.5685 30.1938 15.5685 30.1938 15.5475C30.1938 15.5266 30.0716 15.4854 30.0543 15.4854C30.0716 15.4442 30.1244 15.2997 30.1244 15.4233L30.2639 15.2997V15.2787C30.2639 15.1964 30.2292 15.3409 30.2118 15.3409C30.1945 15.3409 30.1945 15.2375 30.1945 15.2375C30.1945 15.1552 30.2465 15.114 30.2993 15.114L30.3867 15.2585C30.3347 15.2997 30.3166 15.403 30.3166 15.4854L30.3173 15.4861ZM30.3874 15.424C30.3874 15.41 30.3932 15.3963 30.4048 15.3828C30.4048 15.4037 30.4048 15.424 30.3874 15.424ZM34.0706 13.8776C34.0879 13.8776 34.1053 13.8985 34.1053 13.9188C34.1053 13.939 34.1053 13.9397 34.0879 13.9397C34.0533 13.9397 34.0359 13.8985 34.0359 13.8776H34.0706ZM33.8784 11.6722C33.8784 11.6931 33.8784 11.7343 33.8437 11.7343C33.8264 11.7343 33.809 11.6722 33.809 11.6519L33.8791 11.6729L33.8784 11.6722ZM31.6614 11.3629H31.5566C31.4865 11.3629 31.4692 11.3217 31.4692 11.2393L31.6961 11.2184L31.6614 11.3629ZM31.8009 11.136C31.7134 11.136 31.6614 11.0738 31.5913 11.0738C31.5913 10.9091 31.7662 10.5998 31.8529 10.4553L31.9049 10.4343C31.9569 10.4343 31.9924 10.4553 31.9924 10.5167L31.8001 11.1353L31.8009 11.136ZM32.22 10.1879L32.0632 10.2703V10.0434C32.0632 10.0022 32.168 9.65173 32.1853 9.58958L32.3421 9.44506L32.517 9.48625L32.22 10.1872V10.1879ZM34.158 5.44683C34.1927 5.46778 34.2975 5.55016 34.2975 5.57039C34.2975 5.61158 34.2455 5.61158 34.2274 5.61158C34.2274 5.69396 34.1573 5.71492 34.0879 5.71492C34.0533 5.71492 33.8264 5.71492 33.8264 5.63254C33.8264 5.44683 34.2281 5.61158 34.158 5.44683ZM33.9658 8.93056L33.8784 9.01294H33.7563L33.861 8.84818C33.861 8.70366 34.0359 8.78603 34.1053 8.78603C34.14 8.78603 34.1927 8.76508 34.1927 8.70366L34.4196 8.6827L34.5591 8.84746C34.3495 8.84746 34.1754 8.92983 33.9658 8.92983V8.93056ZM34.5417 7.52868L34.4543 7.4463H34.6465C34.6465 7.50845 34.5945 7.52868 34.5417 7.52868ZM34.6639 5.61158C34.6465 5.54944 34.5938 5.5292 34.5417 5.5292L34.4897 5.38468L34.7513 5.44683C34.786 5.42659 34.8387 5.38468 34.8908 5.38468C34.9428 5.38468 34.9609 5.42587 34.9609 5.48802C34.8734 5.55016 34.7686 5.61158 34.6639 5.61158ZM38.941 21.1753C38.8189 21.1962 38.9063 21.34 38.7315 21.361C38.7835 21.2786 39.0285 20.9281 39.0285 20.7836C39.0805 20.7836 39.1506 20.7424 39.1506 20.6601L39.1679 20.866C39.1332 20.9896 39.0285 21.1131 38.941 21.1753ZM39.2554 21.2988C39.238 21.2988 39.2207 21.2367 39.2207 21.2165C39.238 21.2165 39.238 21.1955 39.2554 21.1955C39.2727 21.1955 39.2901 21.2165 39.2901 21.2367C39.2901 21.2569 39.2901 21.2988 39.2554 21.2988ZM39.4302 20.6601V20.681C39.4302 20.702 39.4302 20.7222 39.4129 20.7222C39.3609 20.7222 39.2908 20.6189 39.2908 20.5574C39.2908 20.496 39.3609 20.4953 39.3956 20.4953C39.483 20.4953 39.4129 20.3305 39.5878 20.3096L39.6398 20.2272L39.7272 20.1651L39.6398 20.0827L39.7446 20.1651C39.7619 20.1651 39.8147 20.1651 39.8147 20.186C39.8147 20.2482 39.483 20.5986 39.431 20.6601H39.4302ZM39.9187 20.0625C39.9187 20.0834 39.9187 20.1036 39.9014 20.1036C39.8667 20.1036 39.8494 20.0625 39.8494 20.0213L39.9195 20.0422V20.0632L39.9187 20.0625ZM40.8617 18.6194C40.8617 18.6396 40.8444 18.6815 40.8271 18.6815C40.7924 18.6815 40.775 18.6403 40.775 18.5992L40.8625 18.6201L40.8617 18.6194ZM40.3378 19.9389V20.001C40.3205 20.001 40.3205 19.9598 40.3205 19.9598C40.3205 19.8775 40.3725 19.8565 40.4253 19.8565C40.4253 19.8355 40.4253 19.7944 40.4426 19.7944C40.46 19.7944 40.46 19.8153 40.46 19.8356L40.3378 19.9389ZM40.2858 19.6296C40.2858 19.6708 40.2858 19.7532 40.2338 19.7532C40.2338 19.7944 40.2338 19.8565 40.1991 19.8565L40.0943 19.8356C40.1117 19.7532 40.1644 19.6708 40.2338 19.691L40.3559 19.4641C40.3559 19.4229 40.6348 19.0103 40.6529 18.9691C40.6876 19.0103 40.723 19.0927 40.723 19.1548C40.723 19.196 40.6883 19.217 40.6529 19.217L40.5481 19.4641L40.2865 19.6289L40.2858 19.6296ZM40.7223 19.6086C40.7223 19.6296 40.7223 19.6708 40.6876 19.6708C40.6702 19.6708 40.6529 19.6498 40.6529 19.6086C40.6529 19.5465 40.723 19.5465 40.7577 19.5465C40.8097 19.4641 40.8798 19.3406 40.9672 19.3196C40.8798 19.402 40.7924 19.5053 40.723 19.6079L40.7223 19.6086ZM40.9839 19.3203C40.9839 19.2994 40.9839 19.2379 41.0012 19.2379C41.0186 19.2379 41.0359 19.2589 41.0359 19.2791L40.9839 19.3203ZM41.054 18.4337C41.0019 18.4337 40.9145 18.4127 40.8617 18.3925C40.8617 18.3513 40.9492 18.1656 40.9665 18.1656C41.0186 18.1656 41.106 18.3303 41.106 18.3715C41.106 18.4127 41.0886 18.4337 41.054 18.4337ZM42.1711 6.27133C42.1364 6.25038 42.101 6.27133 42.101 6.20919C42.1357 6.20919 42.1711 6.23014 42.1711 6.27133ZM39.7793 5.24088C39.7446 5.26184 39.6398 5.30303 39.6398 5.21993L39.7793 5.24088ZM39.5003 5.13755C39.535 5.13755 39.5704 5.1585 39.5704 5.19969H39.483C39.4483 5.19969 39.4483 5.17874 39.4483 5.13755H39.5003ZM38.1209 6.33348C38.1382 6.35443 38.1729 6.39562 38.1729 6.43681C38.1729 6.49896 38.1209 6.49896 38.0855 6.49896L38.1201 6.3342L38.1209 6.33348ZM36.3056 5.26184C36.3577 5.28279 36.7074 5.34422 36.7074 5.3854C36.5326 5.46778 36.3411 5.48874 36.1315 5.48874C36.0968 5.48874 36.0267 5.44755 36.0267 5.40636C36.0267 5.32398 36.2536 5.28279 36.3056 5.26184ZM35.6596 7.38488C35.6943 7.38488 35.8692 7.42607 35.8692 7.46726C35.8692 7.48822 35.7991 7.48822 35.7991 7.48822C35.729 7.48822 35.6596 7.44703 35.5895 7.42607C35.5895 7.38488 35.6242 7.38488 35.6596 7.38488ZM35.4154 8.58081C35.4154 8.35391 35.7818 8.43629 35.8692 8.43629C36.0087 8.43629 36.1308 8.35391 36.271 8.33295C36.2883 8.35391 36.3411 8.3951 36.3411 8.43629C36.3411 8.55986 35.5903 8.58081 35.4161 8.58081H35.4154ZM36.0441 7.24108L35.9393 7.1587H36.7775C36.7775 7.28227 36.1488 7.24108 36.0441 7.24108ZM37.266 7.13775C37.1786 7.13775 37.1959 7.0756 37.1959 6.99322C37.2479 7.01418 37.318 7.0756 37.318 7.13775H37.266ZM36.8823 5.40636C36.8122 5.40636 36.7602 5.3854 36.7602 5.30303V5.17946H37.4062C37.4235 5.17946 37.4763 5.20042 37.4763 5.22065H37.5984L37.6685 5.30303H37.7032C37.7032 5.40636 37.0919 5.40636 36.883 5.40636H36.8823ZM40.1991 7.01418C39.3609 7.03514 38.506 7.11751 37.6851 7.11751C37.6678 7.11751 37.6504 7.09656 37.6504 7.07633C37.6504 7.03514 37.7025 6.97299 37.7205 6.9318C38.0869 6.86966 38.4887 6.78728 38.855 6.78728C38.855 6.62252 39.431 6.7049 39.5184 6.7049C39.5357 6.7049 39.6579 6.7049 39.6579 6.68395C39.6579 6.6218 39.5531 6.56038 39.5357 6.49823C39.5011 6.45704 39.4483 6.3949 39.4483 6.33348C39.4483 6.29229 39.9021 6.33348 39.9021 6.2511C39.832 6.20991 39.4656 6.23014 39.3782 6.23014L39.2908 6.14776C39.2734 6.14776 39.2388 6.14776 39.2388 6.10658C39.2388 5.98301 39.6926 5.83848 39.7973 5.81825C39.8848 5.71492 40.0943 5.77706 40.1464 5.67373C40.6413 5.63615 41.0778 5.49524 41.5627 5.48729C41.3748 5.52631 41.184 5.59641 41.1934 5.71492L41.1233 5.81825C41.0713 5.81825 41.0186 5.77706 41.0713 5.71492L41.0193 5.69396C40.9672 5.69396 40.9318 5.75611 40.9145 5.81753C40.8271 5.81753 40.7396 5.73515 40.6529 5.73515C40.6009 5.75611 40.5655 5.83848 40.5655 5.89991H40.478C40.4079 5.89991 40.4079 5.96205 40.4079 6.02347C40.3378 6.02347 40.3559 6.08562 40.3559 6.14704C40.3559 6.18823 40.3212 6.20919 40.2858 6.20919L40.3378 6.35371C40.3378 6.43609 40.2858 6.49823 40.2858 6.60084L40.3378 6.7656C40.3378 6.82775 40.3205 6.93036 40.2678 6.97155V7.07488L40.1977 7.01274L40.1991 7.01418ZM40.6182 9.57007C40.6182 9.54912 40.6702 9.54912 40.6883 9.54912C40.7403 9.54912 40.7757 9.63149 40.7757 9.67268L40.6883 9.5903C40.6883 9.5903 40.6182 9.59031 40.6182 9.56935V9.57007ZM40.723 10.0029C40.7057 10.0029 40.6883 9.94077 40.6883 9.92054L40.7584 9.9415C40.7584 9.96245 40.7584 10.0036 40.7237 10.0036L40.723 10.0029ZM40.7931 10.3122C40.7584 10.3122 40.7584 10.271 40.7584 10.2501C40.7931 10.2501 40.8104 10.2703 40.8285 10.3122H40.7938H40.7931ZM40.8805 10.5593L40.9506 10.7241V10.7653C40.9333 10.7653 40.8805 10.5796 40.8805 10.5593ZM41.0027 10.9922C40.9506 10.9922 40.9506 10.9098 40.9506 10.8686L41.0554 10.9922H41.0034H41.0027ZM42.3467 17.6915L42.1899 17.6294C42.1899 17.5673 42.4696 17.2789 42.4696 17.2587L42.6264 17.2797C42.5042 17.383 42.4168 17.5477 42.3474 17.6923L42.3467 17.6915ZM42.6611 17.6706C42.6264 17.6706 42.6264 17.6084 42.6264 17.5882C42.6264 17.5882 42.6437 17.5673 42.6611 17.5673C42.6784 17.5673 42.6784 17.5882 42.6784 17.6084C42.6784 17.6287 42.6784 17.6706 42.6611 17.6706ZM44.8607 17.8975C44.826 17.8975 44.8087 17.8354 44.8087 17.8151L44.8788 17.8563C44.8788 17.8773 44.8788 17.8975 44.8614 17.8975H44.8607ZM47.3219 25.1742C47.2518 25.1742 47.2518 25.0919 47.2518 25.0297C47.2865 25.0709 47.3039 25.1121 47.3219 25.1742ZM47.9853 21.34C48.02 21.34 48.0373 21.361 48.0373 21.3812C48.02 21.3812 48.0026 21.4022 47.9853 21.4022C47.9679 21.3812 47.9679 21.361 47.9679 21.34H47.9853ZM47.8978 21.0929C47.8978 21.1139 47.8979 21.1341 47.8805 21.1341C47.8458 21.1341 47.8285 21.0929 47.8285 21.0719L47.8986 21.0929H47.8978ZM46.8681 22.8243C46.746 22.8243 46.7633 22.7621 46.746 22.6386L46.8681 22.8243ZM46.6932 22.4738L46.7633 22.515C46.7633 22.536 46.746 22.536 46.7287 22.536C46.7113 22.536 46.694 22.515 46.694 22.4948V22.4738H46.6932ZM46.6232 22.8655V22.7831C46.6578 22.8243 46.6932 22.8655 46.6932 22.9276C46.6586 22.9276 46.6232 22.9276 46.6232 22.8655ZM46.6405 22.3293C46.6232 22.3293 46.6058 22.3083 46.6058 22.2881L46.6578 22.3293H46.6405ZM46.5704 17.9177C46.6051 17.9177 46.6224 17.9387 46.6224 17.9589C46.6051 17.9589 46.5877 17.9799 46.5704 17.9799C46.5531 17.9589 46.5531 17.9387 46.5531 17.9177H46.5704ZM46.4309 17.5882C46.4483 17.5882 46.483 17.5882 46.483 17.6294C46.483 17.6504 46.483 17.6706 46.4483 17.6706C46.4136 17.6706 46.3963 17.6294 46.3963 17.5882H46.4309ZM45.8023 16.1452C45.6975 16.1452 45.7148 16.104 45.6975 16.0006L45.8023 16.1452ZM45.1389 18.8658C45.1389 18.8868 45.1389 18.9279 45.1042 18.9279C45.0869 18.9279 45.0695 18.8658 45.0695 18.8456L45.1396 18.8665L45.1389 18.8658ZM45.0341 18.6801C45.0168 18.6801 44.9994 18.6389 44.9994 18.6179V18.597L45.0869 18.6179C45.0869 18.6382 45.0695 18.6801 45.0348 18.6801H45.0341ZM45.0688 19.4844V19.402C45.1035 19.4432 45.1389 19.4844 45.1389 19.5465C45.1042 19.5465 45.0688 19.5465 45.0688 19.4844ZM45.1389 19.0927C45.1562 19.0927 45.1736 19.0717 45.1736 19.0717C45.1909 19.0717 45.2083 19.0927 45.2083 19.1129C45.2083 19.1332 45.1909 19.1541 45.1736 19.1541C45.1562 19.1541 45.1389 19.1129 45.1389 19.092V19.0927ZM45.209 19.402C45.1917 19.3608 45.1917 19.2986 45.1917 19.2575H45.209C45.2206 19.2575 45.2321 19.2642 45.2437 19.2777L45.209 19.4013V19.402ZM45.3839 14.5164C45.2617 14.4954 45.2271 14.5164 45.2271 14.3516H45.3839V14.5164ZM45.4713 15.2173C45.4366 15.2173 45.4366 15.1761 45.4366 15.1552C45.454 15.1342 45.4713 15.1342 45.4887 15.1342C45.506 15.1342 45.506 15.1342 45.506 15.1552C45.506 15.1761 45.4887 15.2173 45.4713 15.2173ZM45.5934 15.4644C45.5934 15.4854 45.5934 15.5266 45.5587 15.5266C45.5414 15.5266 45.5241 15.4644 45.5241 15.4442L45.5942 15.4652L45.5934 15.4644ZM45.5233 13.8154L45.3839 13.8364C45.3492 13.8364 45.2964 13.8364 45.2964 13.7743C45.2964 13.6709 45.3665 13.5473 45.4532 13.5473C45.5053 13.5473 45.5754 13.5676 45.6281 13.6095C45.6281 13.6095 45.6628 13.6095 45.6628 13.6304C45.6628 13.6926 45.558 13.775 45.5233 13.8162V13.8154ZM45.6108 14.0626C45.6108 14.0214 45.6281 13.939 45.6455 13.939C45.6801 13.939 45.6975 14.0012 45.6975 14.0214C45.6628 14.0214 45.6101 14.0423 45.6101 14.0626H45.6108ZM46.1694 12.9909L46.0299 13.2381C45.9952 13.2381 45.9598 13.2381 45.9598 13.1759C45.9598 13.1347 46.1867 12.7843 46.204 12.7633C46.2214 12.8045 46.2561 12.8666 46.2561 12.9281C46.2561 12.9693 46.204 12.9902 46.1686 12.9902L46.1694 12.9909ZM47.0076 12.29C46.8327 12.29 46.9902 12.5783 46.9902 12.6817C46.8681 12.7228 46.746 12.764 46.6239 12.764C46.6412 12.8674 46.7287 12.8876 46.7988 12.8674L46.6419 12.9909C46.6419 13.1355 46.6419 13.1557 46.5198 13.1766C46.5198 13.259 46.4497 13.3414 46.3804 13.3212L46.2756 13.3624C46.3276 13.2388 46.415 13.0943 46.5025 13.0119H46.5198C46.5719 13.0119 46.5718 12.9497 46.5718 12.9086H46.397C46.3796 12.8464 46.3623 12.7438 46.3623 12.6817C46.3623 12.5993 46.4497 12.5993 46.5018 12.6195C46.5018 12.5162 46.6412 12.475 46.6412 12.5986C46.6586 12.5986 46.7807 12.5986 46.7807 12.5776C46.7807 12.5155 46.6932 12.5155 46.6932 12.454C46.6932 12.3507 46.8501 12.1859 46.9202 12.1245C46.9202 12.1036 46.9202 12.0624 46.9548 12.0624C47.0069 12.0624 47.077 12.1859 47.077 12.2481C47.077 12.2893 47.0249 12.2893 47.0069 12.2893L47.0076 12.29ZM47.2518 12.0631C47.2345 12.0631 47.2171 12.001 47.2171 11.9807L47.2872 12.0017C47.2872 12.0226 47.2872 12.0638 47.2526 12.0638L47.2518 12.0631ZM48.6132 11.1974C48.5318 11.1974 48.4911 11.1492 48.4911 11.0529L48.6132 11.0319V11.1967V11.1974ZM48.9102 10.7234C48.9102 10.8057 48.8401 10.8267 48.7881 10.8057C48.7881 10.8267 48.7708 10.8469 48.7534 10.8469C48.7187 10.8469 48.7014 10.7646 48.6833 10.7436L48.7708 10.6403L48.9102 10.7024V10.7226V10.7234ZM49.1899 10.146C49.1899 10.167 49.1899 10.1872 49.1725 10.1872C49.1379 10.1872 49.1205 10.125 49.1205 10.1048L49.1906 10.1258V10.1467L49.1899 10.146ZM51.5817 7.61034C51.5817 7.67248 51.5297 7.69272 51.477 7.67248L51.4596 7.71367H51.4249L51.4076 7.63129L51.4777 7.54892L51.5825 7.59011V7.61106L51.5817 7.61034ZM51.7039 5.2192L51.774 5.24016C51.774 5.24016 51.774 5.26111 51.7566 5.26111C51.7393 5.26111 51.7219 5.24016 51.7046 5.21993L51.7039 5.2192ZM51.8086 7.17749C51.774 7.17749 51.7566 7.1363 51.7566 7.11535L51.8086 7.1363V7.17749ZM51.9308 5.13683V5.17801C51.8961 5.17801 51.8607 5.05445 51.8607 5.03349L51.9828 5.05445L51.9308 5.13683ZM52.123 4.97207L52.1056 4.90992H52.1577C52.1577 4.93088 52.1577 4.97207 52.123 4.97207Z" fill="black"/>
</svg>
