<svg width="24" height="31" viewBox="0 0 24 31" fill="none" xmlns="http://www.w3.org/2000/svg">
<path d="M23.5782 28.0278C20.2948 23.8675 16.7256 19.3362 12.6649 14.1772C12.5784 14.0671 12.5129 13.9491 12.4736 13.8324C12.0777 12.6633 11.3555 11.7589 10.3292 11.1454C10.2283 11.0851 10.2086 11.0484 10.2099 10.9226C10.2191 10.1519 10.2257 9.32481 10.2073 8.50953C10.2034 8.35224 10.2204 8.34306 10.3476 8.31816C11.0121 8.18971 11.7186 7.95246 12.0161 7.18175C12.9336 7.44521 13.8931 7.225 14.5603 6.58405C15.1501 6.01912 15.4149 5.23137 15.3153 4.40429C15.7085 4.79227 15.9431 5.28249 16.0296 5.88674C16.0663 6.14626 16.0965 6.41234 16.1253 6.67056C16.1803 7.15946 16.2367 7.66541 16.3429 8.15825C16.4228 8.52657 16.5788 8.87391 16.7295 9.21077C16.7558 9.26845 16.782 9.32743 16.8082 9.3851C16.7649 9.3851 16.7204 9.3851 16.6771 9.38379C16.5513 9.38248 16.4268 9.38117 16.3009 9.37986C15.8369 9.37593 15.6613 9.50307 15.5145 9.94741C15.466 10.0942 15.4175 10.2423 15.3677 10.3957C14.7556 9.85303 14.285 9.21733 13.9351 8.45972C13.8341 8.24083 13.6886 8.09271 13.5143 8.02979C13.3636 7.97605 13.1997 7.98785 13.0385 8.06388C12.6885 8.23165 12.5876 8.5921 12.7764 9.0063C13.3203 10.2004 14.1657 11.1926 15.2877 11.9542C15.4896 12.0905 15.7032 12.1324 15.892 12.0708C16.0794 12.0105 16.2288 11.8519 16.3114 11.6252C16.4228 11.3211 16.5211 11.017 16.605 10.7194C16.6155 10.6814 16.626 10.667 16.6247 10.667C16.6286 10.667 16.6457 10.6605 16.7086 10.6631C17.1333 10.6801 17.571 10.6985 18.0062 10.6736C18.1884 10.6631 18.503 10.5464 18.6 10.3275C18.6904 10.1244 18.6485 9.8006 18.5082 9.62103C17.7572 8.65764 17.3784 7.5671 17.3495 6.28913C17.3102 4.58124 16.5342 3.3688 15.0413 2.68722C14.3676 2.3792 13.5995 2.23632 12.7501 2.25992C11.6517 2.29138 10.7395 2.97034 10.4262 3.9901C10.3541 4.22472 10.3253 4.46196 10.2951 4.71362C10.2886 4.7713 10.2807 4.83028 10.2728 4.89057H9.25833C8.92147 4.89057 8.63704 4.88402 8.5597 4.80406C8.48237 4.72411 8.48761 4.43575 8.49941 4.12248C8.50072 4.07529 8.55315 3.98878 8.58461 3.97043C9.92287 3.15384 11.2598 2.3556 12.5522 1.58227C12.8891 1.38172 13.2679 1.27948 13.6781 1.27948C15.4686 1.27948 17.2591 1.2808 19.0496 1.27948H19.0535C19.2763 1.27948 19.2776 1.30963 19.2802 1.36993C19.2842 1.43284 19.2855 1.4643 19.0679 1.48003L18.9368 1.4892C18.3444 1.53377 17.731 1.57964 17.1293 1.65567C16.9222 1.68188 16.6876 1.84572 16.5827 2.03709C16.4805 2.22584 16.5356 2.56663 16.6915 2.70033C16.8475 2.83533 17.1044 2.91791 17.3299 2.90742C17.7441 2.88645 18.1635 2.84713 18.5685 2.81043C18.7913 2.78946 19.0129 2.7698 19.2357 2.75145C20.0221 2.68853 20.5962 2.08166 20.5713 1.33978C20.5464 0.565132 19.9409 0.00282425 19.1334 0.00151351C17.4767 -0.00110797 15.8199 0.000202772 14.1631 0.00151351H13.6441C13.0215 0.00151351 12.45 0.15487 11.9453 0.455029C9.75117 1.76184 7.97773 2.82616 6.3629 3.80528C5.73244 4.18802 5.33528 4.78309 5.21601 5.5289C5.18848 5.6993 5.17668 5.86839 5.16488 6.04665C5.16357 6.06893 5.16227 6.09121 5.16096 6.11349H4.99843C4.64453 6.11349 4.28931 6.11349 3.93541 6.11349C3.10047 6.11218 2.2367 6.11087 1.38603 6.11874C0.616623 6.1266 0.0215461 6.69677 0.000574235 7.44652C-0.0203976 8.18971 0.535354 8.79789 1.29296 8.85949C1.62327 8.88702 1.95226 8.91192 2.28257 8.93814L5.62496 9.20029L5.68656 9.61055C5.8124 10.4442 5.94215 11.3053 6.05881 12.1508C6.05881 12.1717 6.0326 12.2412 5.98803 12.2897C4.62617 13.7735 3.21975 15.2978 1.69142 16.9494C0.754245 17.9613 0.608756 18.9574 1.21956 20.1777L1.87362 21.4859C2.76361 23.2645 3.68506 25.1048 4.58423 26.9176C4.63404 27.0172 4.65632 27.1574 4.64059 27.2675C4.55015 27.8954 4.42563 28.7224 4.26703 29.543C4.19232 29.9296 4.30504 30.218 4.60913 30.4251C4.6419 30.4474 4.68122 30.4605 4.72185 30.4605H5.8373C5.85696 30.4605 5.87662 30.4579 5.89628 30.4513C6.60015 30.2364 7.02744 29.7527 7.20308 28.9728C7.31056 28.497 7.45475 28.0291 7.60548 27.552C7.82306 26.8664 7.79554 26.1862 7.5229 25.4731C7.05759 24.2581 6.5936 23.0181 6.14401 21.8201C5.83074 20.9812 5.51616 20.1437 5.19897 19.3061C5.15571 19.1934 5.15965 19.1776 5.24353 19.1055C5.95133 18.4974 6.66437 17.8721 7.35382 17.2679L8.03016 16.6754C8.0839 16.6283 8.13765 16.5824 8.19139 16.5365C8.32246 16.4238 8.45877 16.3071 8.58722 16.1839C8.85855 15.9218 8.87821 15.539 8.63703 15.2743C8.41159 15.0278 8.05245 15.0029 7.76277 15.2126C7.72345 15.2415 7.68675 15.2729 7.65136 15.3044L6.68272 16.1538C5.83074 16.9009 4.95124 17.6729 4.08091 18.4266C3.77813 18.6887 3.70734 18.9889 3.85677 19.3756C4.153 20.1423 4.4466 20.9262 4.72841 21.6838C4.82934 21.9551 4.93157 22.2264 5.0325 22.4977C5.22256 23.0063 5.41261 23.5149 5.60529 24.03L5.75472 24.4311L4.98794 24.8505L4.36665 23.6092C3.6772 22.2304 2.98644 20.8528 2.29961 19.4726C2.02042 18.9102 2.08727 18.4174 2.5054 17.9626C3.83711 16.5142 5.27368 14.9597 7.02483 13.0709C7.07857 13.0119 7.15721 12.9608 7.2293 12.9359C7.87812 12.7118 8.6449 12.4496 9.41955 12.2058C9.47722 12.1875 9.58077 12.1993 9.63451 12.2307C10.4328 12.6882 10.9688 13.3619 11.2756 14.2912C11.3476 14.5088 11.4499 14.708 11.5731 14.864C13.205 16.9441 14.8421 19.0203 16.4792 21.0966L17.7624 22.7245C18.3024 23.41 18.8425 24.0955 19.3864 24.7876L20.0536 25.6357L19.4873 26.1272C19.4493 26.0839 19.4139 26.0446 19.3759 26.0066C16.7269 23.3563 14.0779 20.7073 11.4276 18.057L10.2047 16.834C9.70398 16.3333 9.35401 16.4605 9.14691 16.6545C9.01191 16.7816 8.94244 16.9245 8.93981 17.0778C8.93719 17.281 9.04992 17.4907 9.29634 17.7371L11.577 20.0178C14.7739 23.2147 18.0796 26.5217 21.3368 29.7684C21.5203 29.9519 21.7353 30.0961 21.9424 30.2364C22.0341 30.298 22.1259 30.3609 22.215 30.4251C22.2491 30.45 22.291 30.4644 22.333 30.4644H22.8612C22.8861 30.4644 22.911 30.4592 22.9346 30.4513C23.2728 30.3189 23.7446 30.0764 23.9321 29.4945C24.1392 28.8496 23.8298 28.3528 23.5795 28.0356L23.5782 28.0278ZM22.6488 29.1327C22.6161 29.1393 22.5597 29.1406 22.5309 29.1327C21.9306 28.5521 21.3289 27.9452 20.7483 27.3593L20.4088 27.0172L20.8466 26.6357L21.1467 27.0172C21.5688 27.5533 21.9843 28.0789 22.3998 28.6058C22.4313 28.6464 22.4667 28.6857 22.5007 28.7251C22.5702 28.8037 22.6357 28.8771 22.6593 28.9453C22.6777 28.999 22.6672 29.0921 22.6502 29.1327H22.6488ZM6.46121 6.10956C6.44941 5.48172 6.69321 5.0531 7.2162 4.78309C7.26994 5.16714 7.43902 5.48958 7.72608 5.75697C7.61204 5.79367 7.50193 5.83431 7.39314 5.87363C7.07857 5.98766 6.77841 6.09645 6.46121 6.11087V6.10956ZM10.6189 6.91042C10.341 6.98645 10.0631 7.06509 9.78524 7.14374C8.78515 7.42554 7.75098 7.71653 6.72204 7.91838C6.29343 8.00227 5.83468 7.95377 5.3497 7.90134C5.17537 7.88299 4.99711 7.86333 4.82016 7.85153C4.13726 7.80435 3.44388 7.74799 2.77278 7.69294C2.34417 7.65755 1.91556 7.62347 1.48695 7.5907C1.28641 7.57497 1.28641 7.54744 1.28772 7.4937C1.28903 7.42948 1.29034 7.39409 1.50399 7.39409H1.50793C2.1397 7.39409 2.77147 7.39409 3.40325 7.39409H4.09139C4.18052 7.39409 4.26965 7.39147 4.35747 7.38753C4.5436 7.38098 4.71792 7.37574 4.88832 7.39671C6.52675 7.59594 8.01312 7.05854 9.44969 6.53817C9.77738 6.4189 10.0736 6.32059 10.3567 6.2367C10.5664 6.17379 10.7486 6.26161 10.8194 6.46084C10.8561 6.56308 10.8509 6.67318 10.8037 6.761C10.7762 6.81343 10.7224 6.88159 10.6176 6.91042H10.6189ZM11.5692 4.78703C11.5652 4.45934 11.6937 4.14607 11.9322 3.90621C12.1708 3.66634 12.4827 3.53527 12.8104 3.53527C12.8131 3.53527 12.8157 3.53527 12.8183 3.53527C13.4973 3.54051 14.0478 4.09758 14.0478 4.77785C14.0478 5.45943 13.4946 6.01519 12.817 6.0165H12.8131C12.1354 6.0165 11.577 5.46599 11.5679 4.78703H11.5692ZM8.9254 10.9213C8.92278 10.9449 8.89525 10.9947 8.87559 11.013C8.43125 11.1743 7.9856 11.3211 7.51242 11.477C7.43378 11.5033 7.35513 11.5295 7.27648 11.5557L6.93177 9.23699L8.93326 8.71793V9.04824C8.93588 9.66429 8.93851 10.3 8.92671 10.9226L8.9254 10.9213ZM5.66559 28.9374C5.71146 28.6228 5.75865 28.2978 5.83205 27.9897C5.96837 27.4222 6.06012 26.6842 5.56204 25.9922L6.20561 25.6396C6.49922 26.2661 6.53854 26.7996 6.33276 27.3449C6.20824 27.6765 6.11648 28.0199 6.02735 28.3528C5.97886 28.535 5.93036 28.7185 5.87662 28.8981C5.83074 29.0501 5.78749 29.134 5.63282 29.1524C5.64331 29.0803 5.65379 29.0095 5.66428 28.9374H5.66559Z" fill="#F3F3F3"/>
</svg>
