<svg width="32" height="33" viewBox="0 0 32 33" fill="none" xmlns="http://www.w3.org/2000/svg">
<path d="M18.4418 0C18.6077 0.178887 18.8285 0.330363 18.9323 0.539545C20.3346 3.40606 21.7238 6.27979 23.1059 9.15785C23.2285 9.41464 23.3627 9.52572 23.6656 9.51995C24.8601 9.49831 26.0546 9.50985 27.2506 9.51129C27.9171 9.51129 28.1277 9.72769 28.1277 10.4C28.1277 11.5209 28.171 12.6447 28.106 13.7627C28.0801 14.2128 28.2316 14.4696 28.523 14.7466C29.1375 15.3323 29.7232 15.9469 30.3292 16.5427C31.4299 17.6261 31.994 18.9317 31.994 20.4796C31.994 21.3063 32.0704 22.156 31.6795 22.9163C31.4155 23.4298 31.0317 23.8814 30.7129 24.3676C30.6278 24.4959 30.534 24.6518 30.5311 24.796C30.5124 25.5404 30.5253 26.2834 30.5225 27.0278C30.508 29.9722 28.2878 32.1895 25.3405 32.1982C23.7161 32.2039 22.0917 32.2025 20.4673 32.1982C17.8157 32.191 15.7326 30.4367 15.3344 27.8241C15.2305 27.1461 15.2796 26.4449 15.268 25.7539C15.2594 25.2634 15.2666 24.7729 15.2118 24.2651C15.1699 24.3401 15.1223 24.4123 15.0848 24.4902C14.7588 25.1812 14.4371 25.8737 14.1096 26.5647C13.5672 27.7116 12.6727 28.3853 11.3989 28.4531C10.9632 28.4762 10.4944 28.3925 10.0789 28.2468C7.83847 27.4577 5.60382 26.6541 3.38216 25.8174C0.628172 24.7801 -0.655761 21.9959 0.329559 19.2217C1.08983 17.0822 1.87462 14.9529 2.65653 12.8207C3.34755 10.9352 4.59975 9.5387 6.39583 8.64571C6.76803 8.46105 6.95413 8.25043 7.07964 7.81331C7.43597 6.57986 7.91059 5.37959 8.35925 4.17499C8.51073 3.76961 8.83388 3.67151 9.29841 3.84029C10.5376 4.28751 11.7797 4.73184 13.0118 5.19781C13.2613 5.29159 13.3955 5.24975 13.5657 5.05355C14.9088 3.51282 16.2606 1.98074 17.6166 0.451544C17.7667 0.282756 17.9586 0.151477 18.1317 0.00144294C18.237 0.00144294 18.3409 0.00144294 18.4462 0.00144294L18.4418 0ZM1.20812 21.0048C1.24563 22.6652 2.23528 24.0617 3.84526 24.6518C6.00633 25.4438 8.17028 26.2271 10.3328 27.0148C11.572 27.4663 12.4708 27.0941 13.032 25.8967C13.6667 24.5421 14.287 23.1803 14.942 21.8343C15.1685 21.3698 15.2796 20.911 15.2695 20.3916C15.2349 18.6028 15.7585 16.9899 16.865 15.5704C16.9328 15.4824 16.9776 15.3078 16.9372 15.2155C16.539 14.2821 16.125 13.3574 15.7023 12.4355C15.6734 12.372 15.5407 12.3417 15.4513 12.3244C15.1353 12.2638 14.8021 12.2624 14.5035 12.1571C12.4434 11.4242 10.3905 10.6741 8.33763 9.921C8.10536 9.83589 7.89618 9.68729 7.66969 9.58198C7.58746 9.54447 7.46772 9.50985 7.39558 9.54159C5.83032 10.2485 4.58677 11.3074 3.96499 12.9462C3.0922 15.2443 2.26412 17.5583 1.43605 19.8737C1.30765 20.233 1.28025 20.6268 1.20668 21.0048H1.20812ZM29.3424 25.236C28.3426 25.5649 27.4424 25.5707 26.5451 25.464C26.1614 25.4178 25.769 25.2851 25.4242 25.1062C24.537 24.6431 23.8185 23.5568 24.0479 22.2123C24.234 21.113 24.8803 20.3614 25.9435 19.9906C26.6129 19.7569 27.3097 19.8146 27.9978 19.842C28.1464 19.8478 28.3614 19.9415 28.422 20.0584C28.5172 20.2445 28.5677 20.497 28.5259 20.6975C28.4739 20.9485 28.2359 21.0668 27.9704 21.0755C27.5001 21.0913 27.0241 21.0668 26.5595 21.1288C25.7964 21.2298 25.228 21.9483 25.2568 22.7042C25.2871 23.4919 25.8599 24.1411 26.6273 24.2204C27.0111 24.2594 27.402 24.2637 27.7887 24.2507C29.2602 24.2016 30.3248 23.3981 30.6408 22.0204C30.7605 21.4996 30.7273 20.9384 30.7288 20.3945C30.7302 19.2347 30.2801 18.2609 29.4578 17.4501C28.8014 16.8024 28.1522 16.1474 27.4987 15.4953C27.4338 15.4304 27.3616 15.3713 27.2938 15.3092C27.2938 15.3395 27.291 15.3684 27.291 15.3987C26.8928 15.4535 26.4946 15.5531 26.0965 15.5559C23.9585 15.5718 21.8205 15.5646 19.6811 15.5617C19.4935 15.5617 19.2786 15.5963 19.1213 15.5213C18.7434 15.3424 18.5443 15.5458 18.3423 15.7997C18.3091 15.8401 18.2716 15.8762 18.2355 15.9152C17.1911 17.0519 16.565 18.3777 16.5462 19.9343C16.5174 22.345 16.4827 24.7571 16.5405 27.1663C16.5938 29.4096 18.25 30.9402 20.4875 30.9445C22.1436 30.9474 23.7998 30.9561 25.4559 30.9416C27.1582 30.9272 28.6802 29.8452 29.0726 28.2151C29.2962 27.2846 29.2573 26.2906 29.3438 25.2389L29.3424 25.236ZM14.6102 5.75756C14.753 5.81526 14.8655 5.86287 14.981 5.90471C15.8552 6.22353 16.7309 6.53946 17.6051 6.85829C18.1937 7.07324 18.325 7.35744 18.1086 7.95036C17.8042 8.78565 17.4984 9.62093 17.194 10.4562C17.0454 10.8645 16.7655 11.2785 16.7857 11.6781C16.8059 12.085 17.1204 12.4759 17.3065 12.8741C17.4031 13.0804 17.5012 13.2881 17.5979 13.4944C17.6628 12.4326 17.6614 11.3954 17.6628 10.3596C17.6628 9.72769 17.8806 9.51129 18.5111 9.50985C19.5065 9.50841 20.5019 9.50985 21.4973 9.50985C21.607 9.50985 21.7166 9.50985 21.8854 9.50985C20.6217 6.89868 19.3868 4.34666 18.1317 1.75569C16.9357 3.11465 15.7816 4.42601 14.6088 5.75756H14.6102ZM8.5872 7.20452C8.49343 7.45121 8.40976 7.66472 8.3333 7.87967C8.17028 8.33843 8.27271 8.5606 8.73435 8.72938C10.8074 9.48677 12.8819 10.2413 14.9564 10.9943C15.4166 11.1617 15.6345 11.0578 15.8047 10.5947C16.1033 9.77962 16.3991 8.96309 16.6948 8.14656C16.7222 8.07154 16.7395 7.9922 16.7669 7.8941C14.2755 6.98813 11.8043 6.08936 9.31428 5.18483C9.20608 5.48923 9.11376 5.7489 9.01855 6.01579C9.16858 6.07349 9.28544 6.11966 9.40229 6.16294C10.5131 6.56688 11.6254 6.96649 12.7348 7.37619C13.1632 7.53488 13.3392 7.87102 13.2051 8.23312C13.0839 8.56204 12.7391 8.69621 12.3395 8.56781C12.2803 8.54906 12.2212 8.52597 12.1621 8.50433C10.9834 8.07587 9.80334 7.64885 8.5872 7.2074V7.20452ZM26.8466 13.1626C26.7067 13.1626 26.5826 13.1626 26.46 13.1626C25.4444 13.1626 24.4273 13.1684 23.4117 13.1583C23.0107 13.1539 22.7495 12.9073 22.7351 12.5596C22.7207 12.2263 22.9818 11.9566 23.3699 11.9118C23.4637 11.9003 23.5589 11.9046 23.6526 11.9046C24.6062 11.9046 25.5598 11.9046 26.5134 11.9046C26.6245 11.9046 26.7356 11.8945 26.8553 11.8888V10.7967H18.9237C18.9237 11.7344 18.9237 12.6447 18.9237 13.555C18.9237 14.1724 19.0578 14.3037 19.6868 14.3037C21.7512 14.3037 23.8142 14.2936 25.8786 14.3095C26.7413 14.3167 26.9447 14.233 26.8495 13.164L26.8466 13.1626Z" fill="white"/>
<path d="M2.48901 20.9841C2.54095 20.7288 2.57557 20.4691 2.64914 20.221C2.75446 19.8603 3.06463 19.6814 3.39499 19.7608C3.71382 19.8372 3.89413 20.1185 3.8523 20.4806C3.8422 20.5629 3.81768 20.6437 3.80036 20.7259C3.6662 21.3837 3.96339 21.9709 4.58228 22.2378C4.87946 22.3662 5.19106 22.4614 5.49402 22.5782C5.90228 22.7369 6.08117 23.0586 5.96287 23.4077C5.84458 23.7554 5.49114 23.9112 5.08431 23.7626C4.38031 23.5058 3.6388 23.3169 3.12811 22.6951C2.7184 22.1974 2.50921 21.6347 2.48901 20.9841Z" fill="white"/>
<path d="M6.99005 23.9767C7.00881 23.6348 7.29302 23.378 7.63493 23.3954C7.98404 23.4127 8.26968 23.7228 8.24227 24.0575C8.2163 24.3965 7.91623 24.6663 7.5902 24.6447C7.23387 24.6216 6.96986 24.3273 6.98861 23.9767H6.99005Z" fill="white"/>
<path d="M20.7646 11.923C21.1036 11.9158 21.3906 12.1884 21.3979 12.5275C21.4051 12.865 21.1295 13.1507 20.7891 13.1564C20.4501 13.1622 20.1601 12.8867 20.1514 12.5534C20.1428 12.2216 20.4255 11.9316 20.7646 11.923Z" fill="white"/>
</svg>
