<svg width="17" height="29" viewBox="0 0 17 29" fill="none" xmlns="http://www.w3.org/2000/svg">
<path d="M16.032 9.65837C15.9185 10.2465 15.5305 10.5816 15.0189 10.8481C14.0777 11.3384 13.1455 11.85 12.2301 12.3875C11.2563 12.961 10.1745 13.1578 9.09273 13.3692C8.39891 13.5053 7.70509 13.6436 7.01352 13.792C6.90107 13.8157 6.78414 13.8753 6.69756 13.9517C5.94301 14.6107 5.19297 15.2741 4.44629 15.9421C3.9785 16.3604 3.94699 16.8878 4.36868 17.3567C5.19295 18.2754 6.02396 19.1885 6.8516 20.1039C6.90557 20.1635 6.96404 20.2208 7.01239 20.2849C7.16983 20.4896 7.17658 20.6976 6.98878 20.8843C6.81673 21.0563 6.59408 21.0417 6.39954 20.8404C6.16115 20.5942 5.93514 20.3355 5.73835 20.1208C5.2728 20.5458 4.81961 20.9596 4.33945 21.3982C4.74539 21.6726 5.11087 21.92 5.47746 22.1674C6.1814 22.643 6.88309 23.1232 7.5904 23.5932C8.06157 23.907 8.52487 23.8417 8.88246 23.4009C9.90688 22.1347 10.9234 20.8618 11.9422 19.5911C11.9726 19.5529 11.9962 19.509 12.0333 19.4528C11.7983 19.265 11.57 19.0828 11.3215 18.8849C10.7525 19.5124 10.1959 20.1253 9.64037 20.7381C9.21194 21.2104 8.78573 21.6849 8.3573 22.1561C8.12115 22.4147 7.89964 22.4519 7.70173 22.2753C7.51056 22.1044 7.51619 21.8446 7.73322 21.6051C9.16471 20.0207 10.594 18.4351 12.0322 16.8574C12.5292 16.3121 13.2467 16.2615 13.7696 16.7101C14.2891 17.1554 14.3655 17.8909 13.9169 18.4554C12.4426 20.3074 10.9628 22.1561 9.47057 23.9936C8.88696 24.711 7.93336 24.8246 7.14846 24.3017C6.01271 23.5438 4.88371 22.7757 3.75133 22.0122C3.66924 21.9571 3.58378 21.9053 3.4466 21.8199C3.33077 23.1041 3.21944 24.3444 3.10362 25.6241C3.78057 25.7073 4.44854 25.7905 5.11762 25.8703C6.67393 26.0559 8.23138 26.2369 9.78769 26.4281C10.3151 26.4933 10.7008 26.8925 10.7638 27.4031C10.8267 27.9192 10.5535 28.3825 10.0609 28.5917C10.0058 28.6153 9.95187 28.6411 9.89789 28.6647H1.88129C1.81607 28.6423 1.75085 28.6186 1.68451 28.5995C0.835505 28.3555 0.303613 27.8023 0.080961 26.951C0.0505994 26.8352 0.0269881 26.7171 0 26.6002C0 23.4425 0 20.2849 0 17.1262C0.0978319 15.8207 0.318225 14.5398 0.777023 13.3074C0.798388 13.2489 0.765783 13.1511 0.726425 13.0915C0.294616 12.4303 0.299116 12.0018 0.728677 11.3271C0.809641 11.1989 0.88499 11.0325 0.877119 10.8886C0.835512 10.152 0.76579 9.41548 0.705067 8.68005C0.508278 6.28036 0.32385 3.87954 0.104571 1.4821C0.0404745 0.777033 0.249622 0.282251 0.909707 0H1.3955C1.85317 0.166427 2.18379 0.448677 2.25576 0.959202C2.51552 2.7809 2.7764 4.60372 3.03053 6.42654C3.07776 6.76839 2.94957 6.96743 2.69093 6.99892C2.42667 7.03153 2.25687 6.87522 2.20851 6.53787C2.05671 5.47634 1.91052 4.4148 1.76096 3.35327C1.65639 2.61222 1.56194 1.86893 1.43712 1.13125C1.41913 1.02442 1.2527 0.942334 1.15374 0.849C1.0739 0.958077 0.97494 1.05928 0.922088 1.17961C0.889477 1.2527 0.928821 1.3584 0.935568 1.44836C1.15485 4.1303 1.37414 6.81225 1.59454 9.49532C1.6204 9.81467 1.6519 10.1329 1.68563 10.5017C2.07921 10.278 2.42669 10.0812 2.73368 9.90576C2.64821 9.43684 2.56274 9.0129 2.49752 8.58559C2.45366 8.30334 2.59985 8.10093 2.83825 8.06719C3.08676 8.03234 3.27006 8.1774 3.31954 8.45965C3.35777 8.67893 3.37237 8.9027 3.41398 9.12086C3.48595 9.49756 3.65913 9.80905 4.06395 10.0531C4.0482 9.89227 4.04145 9.79781 4.02908 9.70447C3.90314 8.70816 4.40018 7.80968 5.30878 7.36775C5.43697 7.30591 5.55504 7.19458 5.64163 7.07988C6.26685 6.25 7.06412 5.79682 8.1324 5.82493C9.20405 5.85417 10.278 5.82943 11.3507 5.83168C11.8748 5.83168 12.0491 6.10831 11.8219 6.57385C11.6588 6.90671 11.4924 7.23731 11.299 7.62864C11.4969 7.62864 11.6341 7.62864 11.7713 7.62864C12.3403 7.63201 12.4989 7.89065 12.2481 8.4023C12.0333 8.84085 11.8163 9.27829 11.5678 9.78206C11.7319 9.70672 11.8219 9.66849 11.9107 9.62351C12.6597 9.24568 13.4063 8.8611 14.1586 8.48776C14.9728 8.08294 15.7419 8.43378 15.9792 9.30752C15.9893 9.34463 16.0129 9.37724 16.0309 9.4121V9.65499L16.032 9.65837ZM2.59984 21.9796C2.00835 21.8671 1.44385 21.7603 0.856858 21.6478C0.856858 23.3233 0.838874 24.9303 0.864737 26.5372C0.877107 27.2872 1.48434 27.818 2.24676 27.8202C3.88516 27.8236 5.52243 27.8214 7.16084 27.8202C7.23843 27.8202 7.3149 27.8067 7.39137 27.8V26.9881C5.94188 26.8161 4.50812 26.6406 3.07438 26.4787C2.24674 26.3842 2.19728 26.3213 2.27937 25.4993C2.39407 24.3433 2.49189 23.1862 2.60097 21.9796H2.59984ZM10.8402 6.68068C9.76631 6.68068 8.75538 6.65932 7.74557 6.68855C7.09898 6.70655 6.66606 7.11699 6.29047 7.61065C6.77288 8.14704 7.23505 8.65419 7.69047 9.16921C8.04582 9.57066 8.1594 10.0295 7.9806 10.5479C7.96374 10.5985 7.96036 10.6547 7.94799 10.7289C8.70815 10.6131 9.43683 10.5085 10.1621 10.3825C10.2678 10.3646 10.3927 10.2622 10.4444 10.1644C10.7041 9.67411 10.9437 9.17258 11.1877 8.6733C11.2147 8.61708 11.2203 8.54961 11.2428 8.46527C11.0595 8.46527 10.9088 8.46752 10.757 8.46527C10.2667 8.4574 10.1037 8.19539 10.3162 7.75233C10.4815 7.40936 10.6513 7.06864 10.8402 6.68181V6.68068ZM3.52981 20.8438C4.07519 20.349 4.58684 19.8846 5.10299 19.4157C4.69029 18.9591 4.29899 18.5082 3.88517 18.0809C3.78846 17.9808 3.61302 17.9089 3.47246 17.9055C2.72579 17.8886 1.978 17.8976 1.2302 17.8976C1.11325 17.8976 0.996292 17.8976 0.852356 17.8976C0.852356 18.8399 0.848989 19.7362 0.859109 20.6324C0.859109 20.6954 0.944578 20.7988 1.00643 20.8123C1.54619 20.927 2.09044 21.026 2.62795 21.1294C2.86185 20.5627 2.92482 20.5503 3.52981 20.8438ZM6.99216 12.9363C7.8153 12.771 8.5912 12.59 9.3761 12.4629C10.4185 12.2942 11.38 11.9389 12.2863 11.398C13.0667 10.9336 13.8753 10.5141 14.6714 10.0744C14.7771 10.016 14.8873 9.96198 14.9863 9.89227C15.1774 9.75733 15.2382 9.57403 15.1223 9.36375C15.0133 9.16584 14.8344 9.12423 14.6264 9.19282C14.5691 9.21194 14.5173 9.24455 14.4634 9.27266C13.2916 9.8664 12.121 10.4613 10.9493 11.0539C10.8515 11.1034 10.7469 11.1551 10.64 11.172C10.0913 11.2608 9.54142 11.3361 8.99266 11.4193C8.31683 11.5228 7.64212 11.6296 6.99104 11.732V12.9352L6.99216 12.9363ZM6.11167 11.8275C5.916 11.9096 5.74283 11.9535 5.60451 12.0468C5.38861 12.1941 5.20532 12.3909 4.99054 12.5416C4.32708 13.0049 3.44548 12.6889 3.20371 11.9164C3.0609 11.4598 3.20259 11.0674 3.45673 10.6558C3.33415 10.6299 3.21159 10.6119 3.12275 10.6592C2.68644 10.8931 2.23662 11.1124 1.83517 11.3991C1.6024 11.5655 1.42136 11.8309 1.2763 12.085C1.15822 12.2908 1.26392 12.5135 1.46971 12.6304C2.57397 13.2613 3.68387 13.882 4.79938 14.5117C5.23793 14.1238 5.66299 13.7516 6.08243 13.3715C6.13528 13.3231 6.18477 13.2354 6.18252 13.1679C6.16903 12.7451 6.13978 12.3234 6.11167 11.8275ZM0.871491 17.0317H3.2858C3.16435 16.2075 3.47808 15.589 4.14716 15.1043C3.25768 14.6039 2.41207 14.1294 1.55295 13.6459C1.14813 14.767 0.893981 15.8679 0.871491 17.0317ZM5.64501 8.13916C5.15247 8.41017 4.87246 8.78913 4.84997 9.33226C4.82636 9.91251 5.07038 10.3612 5.58766 10.6232C6.06669 10.8661 6.55023 10.8211 6.99329 10.5085C7.25979 10.3207 7.32613 10.0373 7.12484 9.80118C6.64693 9.24118 6.14654 8.70029 5.64501 8.14029V8.13916ZM11.8838 18.262C12.1244 18.4531 12.3414 18.6263 12.572 18.8096C12.8295 18.4869 13.0712 18.2024 13.2916 17.9032C13.4277 17.7188 13.4131 17.5153 13.2354 17.3578C13.0555 17.1993 12.8553 17.2117 12.6923 17.3803C12.4201 17.6603 12.1626 17.9561 11.8838 18.2631V18.262ZM8.26398 27.8191C8.74639 27.8191 9.20969 27.8337 9.67074 27.8067C9.76857 27.8011 9.91136 27.6516 9.93273 27.5481C9.94847 27.4728 9.80792 27.2973 9.71683 27.2816C9.24342 27.1984 8.76326 27.1523 8.26398 27.0916V27.8191ZM4.46765 10.7997C4.32147 10.9898 4.14605 11.1562 4.05497 11.3609C3.99987 11.4846 4.02235 11.7117 4.10669 11.8095C4.17304 11.8871 4.41818 11.8928 4.52838 11.832C4.74204 11.7128 4.91633 11.5239 5.11199 11.3597C4.89384 11.1708 4.6993 11.001 4.46765 10.8009V10.7997Z" fill="#F3F3F3"/>
</svg>
