<svg width="33" height="30" viewBox="0 0 33 30" fill="none" xmlns="http://www.w3.org/2000/svg">
<path d="M32.9972 17.6347C32.7378 16.9995 32.2496 16.711 31.5075 16.7526C31.115 16.7748 30.7239 16.7692 30.3106 16.7637C30.1469 16.7609 29.9804 16.7595 29.8126 16.7581C29.8126 16.7193 29.8126 16.6818 29.8126 16.6458C29.814 16.5237 29.8154 16.4072 29.8098 16.2921C29.789 15.8538 29.5685 15.5292 29.1732 15.3545C28.7654 15.1741 28.3659 15.2241 28.0455 15.4959C27.1065 16.2935 26.1009 17.152 25.1078 18.0328C24.8748 18.2395 24.7416 18.5307 24.7402 18.8331C24.7402 19.1341 24.8665 19.4129 25.0967 19.6182C26.0371 20.4546 26.9844 21.2604 28.0358 22.1523C28.2411 22.327 28.4672 22.4144 28.703 22.4144C28.8611 22.4144 29.0248 22.3742 29.1898 22.2951C29.581 22.1065 29.7904 21.7875 29.8112 21.3478L29.8334 20.8915C30.004 20.8915 30.1718 20.8887 30.3369 20.8873C30.7572 20.8818 31.1553 20.8762 31.5561 20.8984C32.2857 20.94 32.7545 20.6432 32.9958 19.9968C32.9986 19.9885 33 19.9802 33 19.9733V17.6625C33 17.6542 32.9986 17.6444 32.9944 17.6361L32.9972 17.6347ZM31.9056 19.5696C31.9084 19.6598 31.8945 19.718 31.8654 19.7486C31.8349 19.7805 31.7738 19.7943 31.6781 19.7929C31.0401 19.7846 30.3924 19.7874 29.7654 19.7888H29.4631C28.9041 19.7916 28.7224 19.9705 28.7182 20.5253C28.7168 20.707 28.7182 20.8887 28.7182 21.1009V21.2923L25.861 18.8276L28.7155 16.3684H28.7182V16.5848C28.7182 16.7803 28.7182 16.9759 28.7196 17.1715C28.7265 17.6722 28.9138 17.858 29.4076 17.8594H29.807C30.4021 17.8636 31.0179 17.8664 31.6227 17.8553C31.7517 17.8525 31.8252 17.8691 31.8626 17.908C31.8987 17.944 31.9139 18.0134 31.9084 18.1202C31.8862 18.6514 31.8959 19.1729 31.907 19.5682L31.9056 19.5696Z" fill="#F3F3F3"/>
<path d="M26.4644 27.2384C26.3187 26.8917 26.1675 26.5338 26.0275 26.1801C25.0884 23.8097 24.1481 21.2701 23.8596 18.582C23.7666 17.7179 23.7208 16.6998 24.0828 15.697C24.1328 15.5569 24.2437 15.4168 24.3519 15.3544C26.1856 14.3141 27.3188 12.7523 27.7196 10.7148C28.1829 8.361 27.642 6.54538 26.0649 5.16667C25.3561 4.54667 24.9456 3.69643 24.8748 2.7047C24.8526 2.39678 24.8568 2.08054 24.8596 1.77539C24.861 1.58398 24.8638 1.39257 24.8596 1.20116C24.8457 0.496555 24.3603 0.0152573 23.6529 0.00416108C23.3089 -0.00138703 22.9427 -0.00138703 22.4642 0.00416108C21.718 0.0124832 21.2408 0.482685 21.2186 1.23307C21.2131 1.44806 21.2145 1.66582 21.2159 1.87665C21.2159 2.04725 21.2186 2.21786 21.2159 2.38846C21.1881 4.14721 19.8441 5.69097 18.1561 5.90319C17.3155 6.0086 16.4431 5.99196 15.5998 5.97531L15.3168 5.96976C13.5525 5.93786 11.9838 4.47316 11.8188 2.70193C11.7896 2.39262 11.791 2.07499 11.791 1.76568C11.791 1.59785 11.791 1.43141 11.7882 1.26358C11.7688 0.479912 11.2917 0.00832187 10.5094 0.00277376C10.146 -2.96332e-07 9.78121 -2.96332e-07 9.41781 0.00277376C8.62998 0.00832187 8.15424 0.481298 8.14453 1.26636C8.14314 1.42864 8.14453 1.58953 8.14453 1.75181C8.14731 2.07638 8.15008 2.41065 8.12511 2.7366C8.05853 3.60072 7.69513 4.37884 7.01133 5.11536C6.75889 5.3886 6.75195 5.69097 6.99329 5.92261C7.09871 6.02386 7.23602 6.07656 7.37473 6.07518C7.53007 6.0724 7.68264 5.99889 7.8047 5.8699C8.55924 5.07374 8.98923 4.28037 9.11684 3.44399C9.19867 2.90305 9.21253 2.34408 9.2264 1.80452C9.23056 1.6464 9.23472 1.48828 9.24027 1.33016C9.24443 1.22891 9.26108 1.16788 9.29437 1.13597C9.32627 1.10685 9.38314 1.09436 9.46913 1.09853C9.83669 1.11378 10.1349 1.11378 10.4068 1.09853C10.5247 1.09159 10.5996 1.10823 10.6398 1.14707C10.68 1.18591 10.6967 1.25942 10.6911 1.37038C10.6786 1.62282 10.6828 1.87804 10.6856 2.12631C10.6856 2.20676 10.6869 2.2886 10.6883 2.36904C10.7022 4.68676 12.4818 6.72153 14.7412 7.00449C15.6622 7.11961 16.6123 7.09603 17.5375 7.07245C19.5445 7.02252 21.0161 6.0627 21.9108 4.22072C22.3144 3.38989 22.3352 2.4911 22.3227 1.71437L22.3199 1.56873C22.3144 1.32184 22.3116 1.17342 22.3532 1.13181C22.3879 1.09714 22.5003 1.09991 22.6681 1.10269C22.7444 1.10407 22.8331 1.10546 22.9372 1.10546C23.3422 1.10269 23.5891 1.1013 23.6834 1.19839C23.7777 1.29548 23.7722 1.53405 23.7555 1.94739C23.6848 3.67701 24.2895 5.089 25.6044 6.26659C26.1107 6.72015 26.463 7.31102 26.6502 8.02534C26.8389 8.74104 26.7778 9.47201 26.7071 10.1017C26.4061 12.7606 24.2632 14.8356 21.6139 15.034C21.2561 15.0603 20.8899 15.0631 20.5348 15.0645C20.3004 15.0645 20.0591 15.0673 19.8205 15.0756C19.6596 15.0811 19.5154 15.1436 19.4169 15.2504C19.3267 15.3488 19.2796 15.4778 19.2851 15.6151C19.2976 15.9175 19.471 16.1103 19.7747 16.1575C19.8621 16.1713 19.9578 16.1741 20.0771 16.1686C20.797 16.1353 21.5182 16.1006 22.245 16.0659L22.8359 16.0368C22.5751 17.5098 22.6834 19.1174 23.166 20.9483C23.4684 22.0926 23.8221 23.2438 24.1633 24.3576C24.3076 24.8264 24.4518 25.2952 24.5919 25.7654H8.33731L8.35397 25.7169C8.38865 25.6198 8.41916 25.531 8.44828 25.4422L8.7562 24.4921C9.07938 23.4962 9.41504 22.4657 9.73545 21.4504C9.7937 21.2673 9.78398 21.0953 9.70909 20.9538C9.64112 20.829 9.52324 20.7361 9.37482 20.6931C9.22364 20.6501 9.07105 20.6736 8.94483 20.7596C8.82 20.8442 8.72708 20.9816 8.67715 21.1577C8.63553 21.3061 8.59531 21.4545 8.55509 21.6029C8.51486 21.7527 8.47464 21.9039 8.43164 22.0537C7.79361 24.2841 6.87956 26.452 5.99464 28.5492C5.83652 28.9223 5.9336 29.2385 6.24568 29.3731C6.32058 29.405 6.39548 29.4216 6.4676 29.4216C6.52725 29.4216 6.58689 29.4105 6.64237 29.3883C6.79356 29.3273 6.92117 29.1858 7.00855 28.9778L7.06264 28.8488C7.3026 28.2815 7.55087 27.6948 7.7825 27.1122C7.85185 26.9361 7.92953 26.8834 8.114 26.8834C13.7523 26.8903 19.3989 26.8903 24.8957 26.8834C25.0774 26.8834 25.1536 26.9375 25.2244 27.1164C25.4615 27.71 25.7196 28.3467 26.0067 28.9792C26.076 29.1317 26.23 29.3231 26.4061 29.3814C26.5545 29.4299 26.8416 29.362 26.9318 29.2247C27.0303 29.0763 27.0913 28.8002 27.0206 28.613C26.8458 28.1511 26.6503 27.6878 26.4616 27.2398L26.4644 27.2384Z" fill="#F3F3F3"/>
<path d="M8.34693 15.1477C8.78107 15.4126 8.99468 15.726 9.06403 16.1935C9.07096 16.2365 9.08066 16.2781 9.09037 16.3211C9.10563 16.3835 9.11949 16.4418 9.11949 16.4986C9.12366 17.274 9.11949 18.0285 9.11811 18.8649C9.11811 19.213 9.30258 19.4474 9.60495 19.478C9.62715 19.4807 9.64935 19.4807 9.67016 19.4807C9.81025 19.4807 9.93784 19.435 10.0363 19.3476C10.1459 19.2491 10.2083 19.1048 10.2125 18.9398C10.2263 18.1367 10.2194 17.3197 10.2125 16.5305V16.3155C10.2097 16.2115 10.1889 16.1089 10.1695 16.009C10.1667 15.9937 10.1639 15.9785 10.1598 15.9632C10.2582 15.9799 10.3553 15.9993 10.4511 16.0173C10.7229 16.07 10.9795 16.12 11.243 16.1227C12.9311 16.1463 14.6468 16.1546 16.3057 16.1616L17.4361 16.1671C17.5415 16.1671 17.6747 16.1671 17.7343 16.0922L17.7815 16.034C17.898 15.8925 18.0298 15.7302 18.0242 15.5665C18.0201 15.4348 17.9035 15.2891 17.6594 15.1116C17.5804 15.0533 17.4694 15.0603 17.3626 15.0672C17.3321 15.0686 17.3016 15.0714 17.2738 15.0714H15.0823C14.0476 15.0714 13.0129 15.0714 11.9782 15.0686C11.8672 15.0686 11.7521 15.0603 11.6203 15.0506C11.594 15.0492 11.5676 15.0464 11.5385 15.045L11.7576 14.8259C11.9906 14.5942 12.2029 14.382 12.4206 14.1726C12.7036 13.9007 12.8395 13.5748 12.8381 13.1753C12.8367 12.4374 12.8353 11.6995 12.8381 10.9616C12.8409 10.4983 12.6661 10.196 12.3041 10.0379C11.9296 9.87418 11.5953 9.96157 11.2472 10.3125C10.7201 10.8451 10.1889 11.3749 9.65905 11.9048C9.31229 12.2515 8.96415 12.5983 8.61878 12.9464C8.47314 13.0921 8.33168 13.2419 8.19714 13.3847C8.15136 13.4333 8.10558 13.4805 8.06119 13.5276L7.59515 13.1517L8.10003 12.6482C8.57994 12.1711 9.04461 11.7078 9.51203 11.246C9.78112 10.9796 9.9115 10.6842 9.91011 10.343C9.91011 10.1017 9.91011 9.85893 9.91289 9.61758C9.91705 9.06555 9.91982 8.49548 9.89624 7.93512C9.88653 7.70903 9.75754 7.42885 9.58139 7.25409C9.26376 6.93785 8.76442 6.97668 8.39269 7.34425C7.87117 7.86161 7.35242 8.38313 6.81426 8.92684L6.24697 9.49691C6.20813 8.74653 6.27054 8.20281 6.45086 7.7021C6.59372 7.30541 6.48969 7.00026 6.17345 6.88514C5.84195 6.76447 5.56455 6.93091 5.41197 7.34009C5.17063 7.98783 5.08603 8.71047 5.14429 9.61342C5.30518 12.0851 6.3829 13.9479 8.34693 15.1504V15.1477ZM8.81574 9.17928C8.95861 10.0434 8.68398 10.7078 7.95163 11.2668C7.6978 11.4609 7.47449 11.7023 7.24008 11.9561C7.14993 12.0546 7.05699 12.1545 6.95712 12.2585L6.84893 11.9686C6.71716 11.6191 6.59373 11.2903 6.48138 10.9644C6.46474 10.9145 6.48138 10.8174 6.51051 10.7868C7.14022 10.146 7.77686 9.5094 8.44957 8.83669L8.80741 8.47883C8.80741 8.53015 8.80465 8.5787 8.80188 8.62586C8.79494 8.82975 8.788 9.0059 8.81713 9.18067L8.81574 9.17928ZM10.0932 14.7662C9.77834 14.6469 9.46487 14.5082 9.16111 14.3751C9.08483 14.3418 9.00853 14.3071 8.93086 14.2738L11.7341 11.4942V11.7869C11.7354 12.2474 11.7368 12.7231 11.7257 13.1933C11.7243 13.2571 11.6702 13.3515 11.5842 13.4416C11.0918 13.9493 10.7076 14.3321 10.3373 14.6844C10.2777 14.7413 10.1431 14.7856 10.0918 14.7662H10.0932Z" fill="#F3F3F3"/>
<path d="M8.26655 18.8218C8.26655 18.5346 8.15141 18.2725 7.94197 18.0839C7.12362 17.3473 6.03896 16.3834 4.90438 15.4638C4.61033 15.2252 4.22474 15.1739 3.87105 15.3237C3.491 15.486 3.23302 15.8424 3.19834 16.2558C3.18725 16.382 3.19002 16.5068 3.19279 16.6275C3.19279 16.6635 3.19418 16.6982 3.19557 16.7329C3.18863 16.7357 3.18308 16.7398 3.17753 16.7426C3.16783 16.7468 3.16089 16.7509 3.16228 16.7523C2.93065 16.7523 2.7004 16.7537 2.46877 16.7537C2.04711 16.7537 1.62684 16.7537 1.20519 16.7606C0.495028 16.7703 0.0123384 17.253 0.00401622 17.9632C-0.00153189 18.4098 -0.000147573 18.8634 0.00123945 19.3017V19.5999C0.00401351 20.4265 0.45619 20.8843 1.27315 20.8898C1.71284 20.8926 2.15253 20.8926 2.61302 20.8912H3.19001C3.19001 20.9314 3.19001 20.9689 3.19001 21.0063C3.19001 21.1256 3.18863 21.2324 3.1914 21.3378C3.20666 21.7886 3.42304 22.1146 3.83637 22.3046C3.99172 22.3753 4.14567 22.4114 4.29825 22.4114C4.53404 22.4114 4.76152 22.3254 4.96264 22.1548C5.91275 21.3503 6.92113 20.4903 7.90176 19.6193C8.132 19.414 8.26516 19.1227 8.26655 18.8218ZM4.28716 20.4903C4.28022 19.9744 4.09297 19.7913 3.57283 19.7899H3.29404C2.99722 19.7871 2.69484 19.7857 2.39247 19.7857C2.04849 19.7857 1.70174 19.7871 1.35776 19.7941C1.24679 19.7968 1.17744 19.7802 1.14276 19.7455C1.10808 19.7108 1.09422 19.6443 1.09838 19.5361C1.11641 19.095 1.11641 18.6317 1.09838 18.1199C1.09422 18.009 1.10947 17.941 1.14415 17.9049C1.17882 17.8689 1.2454 17.8536 1.35359 17.8564C1.92227 17.8675 2.49928 17.8647 3.05825 17.8633H3.56869C4.09992 17.8605 4.28161 17.6775 4.28716 17.1379L4.28993 16.8425C4.28993 16.6954 4.29271 16.5484 4.2941 16.4028C4.2941 16.3972 4.29825 16.3903 4.30241 16.3792L7.14443 18.8301L4.28716 21.2948V21.0812C4.28716 20.8856 4.28854 20.6887 4.28716 20.4931V20.4903Z" fill="#F3F3F3"/>
<path d="M16.0449 9.38977C16.1198 9.38977 16.1947 9.38977 16.2682 9.38977C16.3431 9.38977 16.4166 9.38977 16.4915 9.38977C16.5705 9.38977 16.6413 9.38977 16.7176 9.38977C16.8868 9.38977 17.0615 9.39254 17.2335 9.38699C17.5775 9.37728 17.7967 9.17339 17.805 8.85715C17.8133 8.53397 17.59 8.30234 17.2613 8.29263C16.78 8.27876 16.2862 8.27876 15.7536 8.29263C15.4249 8.30095 15.196 8.52704 15.1974 8.84328C15.1974 9.16091 15.4179 9.37451 15.7564 9.38699C15.8521 9.38977 15.9478 9.39115 16.0435 9.39115L16.0449 9.38977Z" fill="#F3F3F3"/>
<path d="M16.4957 22.9971C16.1961 22.9998 15.995 23.1802 15.97 23.4659C15.9451 23.7474 15.9465 24.0207 15.9728 24.2787C16.0019 24.563 16.1989 24.7322 16.4999 24.7322H16.5082C16.8023 24.7295 16.9895 24.5658 17.0367 24.2717C17.0505 24.1816 17.0533 24.0928 17.0561 23.9985C17.0561 23.9569 17.0589 23.9125 17.0602 23.8695C17.0602 23.8667 17.0602 23.864 17.0602 23.8626C17.0589 23.8251 17.0575 23.7849 17.0561 23.7447C17.0533 23.649 17.0505 23.5505 17.0339 23.4506C16.9853 23.1635 16.7842 22.9985 16.4957 22.9971Z" fill="#F3F3F3"/>
</svg>
