<svg width="32" height="32" viewBox="0 0 32 32" fill="none" xmlns="http://www.w3.org/2000/svg">
<path d="M6.02866 10.9247C5.80119 11.2172 5.59735 11.4787 5.45407 11.6633C4.89572 11.4993 4.40087 11.2645 3.88979 11.2231C2.457 11.1064 1.16749 12.2231 1.09511 13.6751C1.02864 15.0252 1.08034 16.3812 1.08034 17.7874C1.16454 17.7121 1.22213 17.6692 1.2694 17.6175C3.61505 15.0518 5.9607 12.4846 8.30636 9.91587C8.38908 9.82577 8.46737 9.73123 8.53532 9.63079C10.0272 7.42398 13.0302 7.45943 14.4541 9.70021C14.4881 9.75487 14.528 9.80509 14.5693 9.86417C14.8322 9.6367 14.9401 9.35605 14.9401 9.0296C14.9401 8.5525 14.9371 8.07391 14.9401 7.59681C14.943 7.12118 15.1291 6.93949 15.6122 6.93654C15.9903 6.93358 16.367 6.93506 16.7451 6.93358C16.7672 6.93358 16.7879 6.92472 16.8293 6.91438C16.816 6.84348 16.8116 6.76815 16.7894 6.7002C16.5073 5.84791 16.2222 4.99561 15.9356 4.14332C15.8972 4.02811 15.8426 3.91732 15.8042 3.80211C15.6579 3.34716 15.395 3.1315 14.8736 3.18911C14.3359 3.24819 13.7879 3.2024 13.2222 3.2024C13.0819 3.73859 12.946 4.26149 12.8071 4.78439C12.6446 5.40182 12.2133 5.52442 11.7658 5.07833C11.5457 4.85824 11.3344 4.62929 11.1084 4.41511C10.8293 4.15218 10.4925 4.14775 10.2443 4.39C10.005 4.62486 10.0065 4.9705 10.2473 5.25854C10.8352 5.95869 10.8322 5.97937 10.1719 6.6293C9.04048 7.74452 7.91345 8.86417 6.78346 9.98086C6.70518 10.0577 6.62393 10.133 6.53235 10.2216C6.29896 9.96166 6.07445 9.71055 5.81891 9.42547C6.24727 8.99858 6.71699 8.51557 7.2074 8.05176C7.39942 7.87007 7.48065 7.68691 7.4777 7.41808C7.46293 6.06209 7.46883 4.70758 7.47179 3.35159C7.47474 1.37521 8.84699 0.00593241 10.8278 0.00297819C12.3271 0.00150108 13.8278 0.00741002 15.3271 2.44632e-05C16.0346 -0.00292976 16.5885 0.261472 16.9017 0.908447C17.2148 1.55542 17.0922 2.15513 16.6343 2.70461C16.5797 2.77108 16.5752 2.92175 16.6063 3.01185C17.1026 4.44613 17.6151 5.87597 18.1055 7.31172C18.2326 7.68248 17.9741 7.98972 17.5619 7.99858C17.0538 8.00892 16.5457 8.00153 16.0656 8.00153C15.9918 8.72975 15.9194 9.42547 15.847 10.136H22.3803V11.2024H14.9977C14.915 11.6766 14.8854 12.1227 14.7554 12.5392C14.3374 13.8834 13.1779 14.7815 11.748 14.8893C11.494 14.9085 11.3167 14.9971 11.1424 15.1714C10.4378 15.8686 9.80562 16.6175 9.24875 17.4418C7.98582 19.3088 6.68154 21.1478 5.41122 23.0105C5.17784 23.3531 4.91195 23.4905 4.50132 23.4802C3.56926 23.4551 2.63573 23.4758 1.7022 23.4713C0.68004 23.4669 0.00500197 22.7992 0.00500197 21.783C0.00204775 19.1714 -0.00533636 16.5614 0.00648053 13.9499C0.0168203 11.7564 1.75686 10.0651 3.90606 10.1448C4.68006 10.1729 5.38021 10.4299 6.02718 10.9277L6.02866 10.9247ZM6.44668 13.588C6.38907 13.6293 6.35953 13.6441 6.33737 13.6677C4.6254 15.5348 2.91048 17.3989 1.20589 19.2734C1.1217 19.3664 1.08034 19.5289 1.07739 19.6604C1.06557 20.3487 1.06999 21.0385 1.07147 21.7269C1.07295 22.2217 1.2576 22.4004 1.76277 22.4019C2.5737 22.4034 3.38463 22.393 4.19556 22.4078C4.4319 22.4122 4.5737 22.3443 4.7096 22.1449C5.98434 20.2852 7.27091 18.4344 8.55304 16.5806C8.79135 16.2359 8.76033 15.9129 8.45998 15.6116C7.7879 14.9366 7.11729 14.2615 6.4452 13.5865L6.44668 13.588ZM9.64019 15.1744C9.8913 14.9041 10.1882 14.619 10.4423 14.2999C10.7067 13.9676 11.0036 13.8376 11.4423 13.8553C12.5796 13.9011 13.5604 13.1094 13.8145 12.0089C14.07 10.9026 13.528 9.77702 12.5058 9.29401C11.4866 8.81099 10.2739 9.10789 9.57225 9.99859C9.23695 10.424 8.88391 10.8391 8.52792 11.2467C8.08331 11.7549 7.62541 12.2527 7.17636 12.7519C8.00059 13.5629 8.81301 14.3605 9.64167 15.1744H9.64019ZM9.31671 5.82575C8.84404 4.9321 8.89868 4.18025 9.52645 3.59531C10.1852 2.98231 10.9016 3.01038 11.9814 3.70905C12.0656 3.38409 12.1483 3.06651 12.2325 2.74893C12.3714 2.22751 12.4881 2.13593 13.0169 2.13593C13.7938 2.13593 14.5723 2.1374 15.3492 2.13593C15.7613 2.13445 16.0095 1.92322 16.0021 1.59235C15.9947 1.27182 15.7569 1.07241 15.3596 1.07241C13.8042 1.06945 12.2488 1.06502 10.6934 1.07241C9.46885 1.07831 8.54861 2.00299 8.53975 3.22899C8.53237 4.29546 8.53827 5.36194 8.53827 6.42841C8.53827 6.50079 8.53827 6.57317 8.53827 6.72383C8.82779 6.39148 9.06265 6.1197 9.31524 5.8287L9.31671 5.82575Z" fill="#F3F3F3"/>
<path d="M15.4379 15.4816C15.3034 15.9883 15.1956 16.4757 15.042 16.9499C14.5723 18.3916 13.6934 19.5334 12.4777 20.4314C12.3477 20.5275 12.2369 20.7195 12.2177 20.8805C12.0538 22.2025 11.878 23.5245 11.7776 24.8524C11.7081 25.7579 11.748 26.6722 11.748 27.5836C11.748 27.6767 11.8056 27.7727 11.8441 27.8643C12.3005 28.9352 12.7613 30.0046 13.2178 31.077C13.4762 31.6826 13.2694 32.0031 12.6225 32.0031C9.18967 32.0031 5.75687 32.0031 2.32406 32.0031C1.77901 32.0031 1.60767 31.8318 1.60767 31.2867C1.60767 29.2764 1.60767 27.266 1.60767 25.2542C1.60767 24.7077 1.77753 24.5363 2.32258 24.5363C4.98877 24.5363 7.65496 24.5363 10.3211 24.5363H10.7288C10.8692 23.2823 11.005 22.0622 11.1454 20.8037H9.62395V19.7357C10.1528 19.7357 10.6816 19.721 11.2104 19.7416C11.4954 19.7534 11.72 19.6678 11.9415 19.4979C13.2975 18.4625 14.0907 17.1006 14.3374 15.4167C14.3404 15.3945 14.3404 15.3723 14.3433 15.3502C14.4526 14.4521 14.5073 14.4019 15.4216 14.4019H23.4763C23.4763 13.684 23.4763 12.9986 23.4763 12.3132C23.4763 11.7918 23.4719 11.2689 23.4778 10.7475C23.4822 10.3339 23.6801 10.1389 24.0967 10.1375C25.6846 10.1345 27.2739 10.1227 28.8618 10.1404C30.2592 10.1567 31.6787 11.4624 31.9416 12.9351C32.2311 14.5614 31.4246 16.1183 29.9549 16.7667C28.4542 17.43 26.7791 16.9853 25.751 15.6648C25.6757 15.5688 25.5236 15.4787 25.4069 15.4787C22.1188 15.4683 18.8308 15.4713 15.5427 15.4713C15.5102 15.4713 15.4777 15.4787 15.4393 15.4846L15.4379 15.4816ZM24.5531 14.4004C24.9431 14.4004 25.2991 14.4211 25.6521 14.3945C26.0539 14.3649 26.3035 14.5112 26.5147 14.8657C27.1129 15.8657 28.3419 16.2571 29.4172 15.8302C30.4719 15.4107 31.0997 14.297 30.8988 13.2054C30.6816 12.0267 29.7215 11.2098 28.5457 11.2054C27.3242 11.201 26.1041 11.201 24.8825 11.201C24.7761 11.201 24.6683 11.2113 24.5531 11.2157V14.4004ZM2.69777 28.2764V30.9234H11.9918C11.6077 30.0238 11.234 29.1523 10.8603 28.2764H2.69777ZM10.6564 27.1863V25.6205H9.09661V27.1863H10.6564ZM3.72288 27.1863V25.622H2.6963V27.1863H3.72288ZM4.82186 27.1818H5.8514V25.625H4.82186V27.1818ZM7.99173 25.6235H6.96663V27.1833H7.99173V25.6235Z" fill="#F3F3F3"/>
<path d="M14.937 5.60139C14.937 6.03861 14.5692 6.40346 14.132 6.39903C13.6948 6.3946 13.3329 6.02089 13.3432 5.58514C13.3521 5.16121 13.7081 4.80966 14.132 4.80375C14.5707 4.79932 14.937 5.16269 14.937 5.60139Z" fill="#F3F3F3"/>
</svg>
