<svg width="34" height="26" viewBox="0 0 34 26" fill="none" xmlns="http://www.w3.org/2000/svg">
<path d="M32.8503 22.7314C32.7886 22.714 32.7257 22.6988 32.6593 22.6825C32.6395 22.6779 32.6244 22.6639 32.6186 22.6453C32.6116 22.6266 32.6151 22.6057 32.6279 22.5905L32.6535 22.5579C32.7455 22.4392 32.8328 22.3274 32.9109 22.2086C33.0704 21.9653 33.1146 21.7266 33.0331 21.5344C32.9551 21.3493 32.763 21.2189 32.4917 21.1665C30.1303 20.7135 27.89 19.8635 25.9757 19.102C24.7007 18.5955 23.3163 18.0762 21.6174 17.4684C21.388 17.3869 21.3205 17.303 21.317 17.0958C21.3054 16.5322 21.2879 15.9605 21.2716 15.4074C21.2343 14.179 21.1959 12.9109 21.2192 11.665C21.2378 10.6939 21.3251 9.70771 21.4101 8.75407C21.4556 8.23941 21.5021 7.7166 21.5382 7.20077C21.6279 5.90131 20.9013 4.69267 19.7311 4.19082C19.4645 4.07671 19.2188 4.07787 19.0395 4.19315C18.8694 4.30376 18.7728 4.51219 18.7681 4.78C18.7344 6.76412 18.3699 8.70982 18.0567 10.1839C17.903 10.9047 17.7342 11.6359 17.5712 12.3427C17.3651 13.2358 17.1531 14.1487 16.9703 15.0523C16.869 15.5541 16.8283 16.0746 16.7887 16.5788C16.7724 16.7826 16.7561 16.9921 16.7363 17.1982C16.734 17.2215 16.7188 17.2402 16.6967 17.2471C15.6092 17.6163 14.7824 17.7024 13.9336 17.5336C13.915 17.5301 13.8987 17.5173 13.8917 17.4998C13.8835 17.4824 13.8859 17.4614 13.8963 17.4463L14.9408 15.787C15.1399 15.4714 15.3402 15.1547 15.5405 14.8403C16.0085 14.1033 16.4918 13.3418 16.9505 12.5826C17.3918 11.8537 17.2172 10.9303 16.5465 10.4331C16.345 10.2841 16.1541 10.227 15.9818 10.2654C15.8059 10.3039 15.6522 10.4378 15.5265 10.6648L15.4543 10.7964C15.2691 11.1329 15.077 11.4799 14.8418 11.7803C13.3619 13.6771 11.8505 15.5832 10.3892 17.4265L10.1342 17.7478C10.055 17.8468 9.96069 17.919 9.87918 17.9423C8.58438 18.2986 7.54225 18.8656 6.69457 19.6749C6.67245 19.6959 6.63635 19.6959 6.61423 19.6749C5.88299 18.9833 5.01552 18.6828 3.96174 18.7597C3.14434 18.8179 2.39331 19.194 1.9031 19.7937C1.46179 20.3316 1.26618 21 1.35118 21.6765C1.38262 21.9245 1.47111 22.1655 1.55727 22.3996C1.5794 22.459 1.60152 22.5207 1.62248 22.5812C1.6283 22.5987 1.62597 22.6185 1.61549 22.6336C1.60501 22.6488 1.58871 22.6581 1.57008 22.6592C1.51652 22.6616 1.46063 22.6651 1.4059 22.6697C0.572199 22.7512 -0.0193124 23.4114 0.000482305 24.2393C0.0214414 25.1243 0.69679 25.7193 1.67954 25.7193C8.29095 25.7193 14.9024 25.7193 21.5138 25.7193H32.3648C32.4113 25.7193 32.4579 25.7193 32.5045 25.7169C33.2357 25.6867 33.8552 25.1324 33.946 24.4268C34.0473 23.6362 33.5978 22.9375 32.8515 22.7291L32.8503 22.7314ZM18.0066 16.6708C18.0264 16.3121 18.0439 15.9803 18.1091 15.6577C18.2442 14.9952 18.3967 14.3245 18.5434 13.6748C18.7344 12.8341 18.93 11.9678 19.093 11.1061C19.3108 9.95106 19.4959 8.77037 19.674 7.62927L19.6775 7.60365C19.7567 7.09481 19.8371 6.58597 19.9197 6.07713C19.9221 6.05967 19.9256 6.04336 19.929 6.0259C19.9337 6.00261 19.9512 5.98514 19.9745 5.98049C19.9977 5.97583 20.021 5.98515 20.0338 6.00494C20.2609 6.34378 20.354 6.72919 20.318 7.18447C20.2853 7.60132 20.2458 8.02516 20.2073 8.43619C20.1212 9.35839 20.0327 10.3109 20.0129 11.2505C19.9861 12.5034 20.0129 13.7784 20.0397 15.0103C20.0513 15.5564 20.063 16.1025 20.0699 16.6475C20.0711 16.7628 20.0699 16.878 20.0699 16.9956V17.0504C20.0699 17.083 20.0432 17.1086 20.0117 17.1086H18.0381C18.0218 17.1086 18.0066 17.1016 17.995 17.09C17.9845 17.0783 17.9787 17.062 17.9799 17.0457C17.9892 16.9188 17.9962 16.793 18.002 16.6708H18.0066ZM16.2403 21.7452C16.4463 20.8451 16.642 19.789 16.3532 18.6351C16.3497 18.62 16.3532 18.6025 16.3613 18.5885C16.3707 18.5745 16.3846 18.5652 16.4009 18.5629C16.5546 18.5373 16.7048 18.5093 16.8539 18.4826L16.8737 18.4791C17.2964 18.4022 17.6946 18.3289 18.0986 18.3021C19.6577 18.1985 21.2972 18.5059 23.2604 19.2697L24.0079 19.5608C25.751 20.2396 27.5546 20.9418 29.349 21.6148C29.7751 21.7743 30.2118 21.8919 30.6741 22.0153C30.7986 22.0491 30.9232 22.0817 31.049 22.1166C31.0723 22.1236 31.0897 22.1446 31.0921 22.169C31.0944 22.1935 31.0793 22.2168 31.0571 22.2261C30.8371 22.3216 30.6077 22.3681 30.3562 22.3681C30.1943 22.3681 30.0243 22.3483 29.8415 22.3099C29.3385 22.2028 28.8273 22.0864 28.3755 21.9839C27.1518 21.7056 25.8896 21.4192 24.6309 21.2527C23.4257 21.092 22.1856 21.0442 20.9875 20.9988H20.97C20.4647 20.979 19.9419 20.9581 19.4295 20.9301C19.0534 20.9092 18.7577 21.0361 18.484 21.3353C17.9461 21.9222 17.1217 22.1003 16.2798 21.8116C16.2519 21.8022 16.2356 21.7731 16.2414 21.744L16.2403 21.7452ZM25.2131 22.5975C25.2107 22.6278 25.1851 22.6511 25.1548 22.6511H18.9847C18.9603 22.6511 18.9393 22.6359 18.93 22.6138C18.9218 22.5917 18.9277 22.5661 18.9451 22.5498C19.2921 22.2377 19.6473 22.1096 20.1293 22.1236C22.1123 22.1877 23.7121 22.3181 25.163 22.5358C25.1933 22.5405 25.2142 22.5672 25.2119 22.5975H25.2131ZM8.34451 19.9241C8.44931 19.8589 8.55643 19.7925 8.66123 19.7226C8.67404 19.7133 8.69034 19.711 8.70548 19.7145C8.72061 19.718 8.73459 19.7273 8.74274 19.7401C8.74972 19.7506 8.75322 19.7587 8.75671 19.7669C8.86383 20.0452 9.04198 20.2187 9.2574 20.2548C9.46699 20.2897 9.68473 20.1896 9.8687 19.973C10.629 19.0799 11.3556 18.1961 12.0286 17.3741C12.5247 16.7674 13.0254 16.148 13.5365 15.5145C13.5563 15.4901 13.5901 15.4854 13.6157 15.504C13.6413 15.5215 13.6472 15.5564 13.6309 15.5821L13.1045 16.4111L13.0778 16.4542C12.2918 17.6931 11.4802 18.9739 10.6873 20.2373C10.5243 20.4958 10.466 20.6856 10.508 20.816C10.572 21.0151 10.7688 21.227 10.9749 21.3202C11.2147 21.4285 11.4628 21.319 11.6572 21.0163C11.7457 20.8777 11.8377 20.7403 11.9285 20.6029L11.939 20.5866C12.2068 20.1837 12.4839 19.7669 12.7017 19.3279C12.9462 18.8342 13.2769 18.67 13.8439 18.7643C14.1665 18.8179 14.4983 18.8296 14.8209 18.84L14.9501 18.8447C15.1143 18.8505 15.1888 18.9227 15.2237 19.109C15.3914 19.9893 15.2156 20.8358 15.0013 21.6194C14.985 21.6777 14.9128 21.7533 14.8453 21.7813C13.4306 22.3786 12.0904 22.6779 10.8049 22.6779C9.69754 22.6779 8.63095 22.4566 7.58999 22.013C7.40019 21.9327 7.3804 21.8279 7.34197 21.6194L7.33732 21.5927C7.16266 20.6576 7.7367 20.3025 8.34335 19.9264L8.34451 19.9241ZM4.22839 20.0207C4.23887 20.0009 4.25866 19.9893 4.28079 19.9893C5.18668 19.9893 5.8958 20.4481 6.09025 21.1572C6.18806 21.5135 6.08443 21.9268 5.82128 22.2354C5.60353 22.4892 5.32175 22.6325 5.026 22.6371C5.0097 22.6371 4.99456 22.6301 4.98408 22.6196C4.97243 22.608 4.96661 22.5917 4.96778 22.5766C5.02018 21.6392 4.78031 20.8242 4.23537 20.0836C4.22257 20.0661 4.22024 20.0428 4.23072 20.0231L4.22839 20.0207ZM2.88934 20.5447C2.9103 20.5237 2.94173 20.5214 2.96502 20.5389C3.53907 20.9674 3.85578 21.8511 3.70208 22.594C3.69626 22.622 3.67181 22.6406 3.64503 22.6406C3.64153 22.6406 3.63921 22.6406 3.63571 22.6406C3.18859 22.5684 2.75078 22.1853 2.59591 21.7312C2.45036 21.3027 2.55399 20.8824 2.88817 20.5459L2.88934 20.5447ZM32.7164 24.2393C32.7024 24.3103 32.5615 24.4303 32.4393 24.499C32.4113 24.5141 32.3752 24.5199 32.331 24.5199C32.2995 24.5199 32.2634 24.5176 32.2227 24.5141C32.1831 24.5106 32.1435 24.5071 32.1063 24.5071H1.95433H1.84837C1.77269 24.5071 1.69816 24.5071 1.62248 24.5071C1.47344 24.5129 1.36515 24.4827 1.30227 24.4221C1.2522 24.3744 1.22659 24.3057 1.22542 24.2102C1.22309 24.1077 1.24638 24.0332 1.29762 23.9808C1.36399 23.9133 1.4746 23.8818 1.63529 23.8842C2.60406 23.8842 3.574 23.8842 4.54278 23.8842H5.6734H32.1528C32.1866 23.8842 32.2227 23.8807 32.26 23.8772C32.3578 23.8679 32.4055 23.8667 32.4358 23.8842C32.6069 24.0111 32.7094 24.1345 32.7187 24.2195C32.7187 24.2253 32.7187 24.2312 32.7187 24.237L32.7164 24.2393Z" fill="#3E3E3E"/>
<path d="M11.5373 4.05467C11.5524 4.06864 11.5734 4.0733 11.592 4.06748C11.6479 4.05118 11.6957 4.0407 11.7364 4.03138C11.8191 4.01275 11.8773 3.99994 11.9297 3.96385L12.2057 3.77405C12.6202 3.48994 13.0487 3.19535 13.4527 2.88213C13.6809 2.70514 13.7147 2.40706 13.5366 2.13925C13.3456 1.85048 13.0464 1.76315 12.7902 1.92267C12.1963 2.29295 11.6968 2.64692 11.2637 3.00206C11.11 3.12898 11.082 3.4748 11.1321 3.6483C11.1694 3.77987 11.3009 3.87536 11.415 3.95919L11.3801 4.00577L11.4162 3.96036C11.4605 3.99296 11.5024 4.02323 11.535 4.05351L11.5373 4.05467Z" fill="#3E3E3E"/>
<path d="M26.0653 4.3678C26.1759 4.46211 26.2865 4.55643 26.3948 4.65191C26.6859 4.90924 27.0527 4.91739 27.289 4.67054C27.409 4.54595 27.4707 4.4004 27.4672 4.24903C27.4637 4.08485 27.3822 3.92183 27.232 3.77861C26.8338 3.39902 26.4157 3.04155 26.0222 2.71203C25.9453 2.64799 25.851 2.6084 25.7404 2.56299C25.6833 2.5397 25.6228 2.51409 25.5576 2.48265C25.5355 2.47217 25.5087 2.47682 25.4924 2.49313C25.447 2.53737 25.3934 2.57929 25.341 2.62121C25.2129 2.72251 25.0813 2.82614 25.0522 2.96238C25.0103 3.16149 25.1011 3.46306 25.2502 3.62026C25.504 3.88807 25.7893 4.13143 26.0653 4.36663V4.3678Z" fill="#3E3E3E"/>
<path d="M16.2486 1.77584C16.7376 1.70016 17.2453 1.61748 17.8007 1.52317C18.1628 1.46145 18.391 1.18549 18.3573 0.852479C18.3247 0.531106 18.0639 0.3122 17.6773 0.280762C17.6761 0.280762 17.6749 0.280762 17.6726 0.280762C17.6691 0.280762 17.6645 0.280762 17.661 0.280762C17.4945 0.3122 17.328 0.343639 17.1614 0.373913C16.7714 0.444941 16.3685 0.519462 15.9738 0.610285C15.8038 0.649874 15.6699 0.740696 15.5884 0.874601C15.5057 1.00967 15.4847 1.17967 15.5278 1.352C15.6047 1.65707 15.8946 1.8294 16.2474 1.77584H16.2486Z" fill="#3E3E3E"/>
<path d="M20.5462 1.33115C20.6172 1.4406 20.715 1.58964 20.8559 1.63971C21.4264 1.84348 22.0226 1.99718 22.5815 2.13342C22.8843 2.20677 23.1521 2.05191 23.2534 1.74334C23.3652 1.40683 23.2324 1.11108 22.925 1.00512C22.3696 0.815323 21.7781 0.646486 21.1645 0.500937C21.0166 0.466006 20.8664 0.498609 20.7418 0.594089C20.5753 0.721008 20.4751 0.941078 20.4658 1.19724C20.4658 1.21238 20.4705 1.22635 20.4798 1.23683C20.4973 1.25663 20.5205 1.29156 20.545 1.32998L20.5462 1.33115Z" fill="#3E3E3E"/>
<path d="M29.4376 11.8514L29.4108 12.4755C29.398 12.7666 29.3864 13.0577 29.3736 13.3488C29.3584 13.7226 29.5715 13.9974 29.9045 14.0335C30.2538 14.0707 30.5216 13.8483 30.5706 13.4862C30.602 13.2487 30.6195 13.0076 30.6369 12.7748C30.6439 12.6711 30.6521 12.5675 30.6614 12.465C30.6614 12.458 30.6614 12.4499 30.6567 12.4417C30.6532 12.4336 30.6521 12.4254 30.6521 12.4173C30.6521 12.3672 30.6521 12.316 30.6532 12.2659C30.6544 12.118 30.6556 11.976 30.6497 11.8351C30.6334 11.4159 30.4169 11.1737 30.0582 11.1691L30.0501 11.1108V11.1691C29.6845 11.1691 29.4551 11.4241 29.4376 11.8514Z" fill="#3E3E3E"/>
<path d="M28.9775 8.81542C29.0544 8.96213 29.3222 9.05295 29.5259 9.05295C29.5644 9.05295 29.5981 9.04946 29.6272 9.04364C29.7658 9.0122 29.8729 8.88179 29.9859 8.74323C30.0348 8.68268 30.0895 8.61514 30.1489 8.55459C30.1664 8.53713 30.1699 8.51151 30.1594 8.48939C30.0662 8.29028 29.9766 8.09699 29.8892 7.90603C29.6715 7.43212 29.4666 6.98616 29.2325 6.55417C29.1091 6.32595 28.8133 6.26889 28.5292 6.42026C28.2521 6.56698 28.1333 6.82082 28.2242 7.06767C28.4221 7.60212 28.6666 8.22857 28.9763 8.81658L28.9775 8.81542Z" fill="#3E3E3E"/>
<path d="M8.75556 7.91326C8.84289 7.90395 8.89878 7.8795 8.92789 7.83874C9.24693 7.38579 9.53221 6.91421 9.83262 6.41469C9.93159 6.25168 10.0317 6.08517 10.1342 5.9175C10.1482 5.89537 10.1447 5.86743 10.1272 5.84763C10.0736 5.78825 10.0247 5.72304 9.97817 5.66133C9.87337 5.5216 9.7744 5.39003 9.64166 5.35742C9.59857 5.34694 9.54967 5.34229 9.49844 5.34229C9.30049 5.34229 9.06412 5.41681 8.97679 5.54489C8.63097 6.04791 8.32823 6.58353 8.07555 7.13894C7.99288 7.32175 8.10932 7.6699 8.25952 7.80497C8.37247 7.90744 8.62282 7.9284 8.75556 7.91326Z" fill="#3E3E3E"/>
<path d="M6.99271 11.3461C6.98689 11.7536 7.19881 12.0226 7.54464 12.047C7.89745 12.0715 8.15361 11.834 8.20252 11.4369C8.23163 11.1994 8.26423 10.9176 8.27937 10.6323C8.298 10.2795 8.05697 9.99189 7.72046 9.96278C7.70299 9.96161 7.68436 9.96045 7.6669 9.96045C7.37347 9.96045 7.12895 10.1805 7.07539 10.5007C7.0486 10.6602 7.03114 10.8233 7.01367 10.9793C7.00552 11.0503 6.99853 11.1213 6.98922 11.1912C6.98922 11.197 6.98922 11.204 6.99271 11.2122C6.9962 11.2203 6.99737 11.2285 6.99621 11.2366L6.93799 11.239L6.99621 11.2424C6.99388 11.2762 6.99271 11.3111 6.99155 11.3461H6.99271Z" fill="#3E3E3E"/>
<path d="M28.4059 17.953C28.5142 18.0182 28.6295 18.052 28.739 18.052C28.9229 18.052 29.0848 17.9576 29.1931 17.7876C29.3922 17.4744 29.5505 17.1519 29.6647 16.8305C29.7264 16.6535 29.7031 16.4695 29.6006 16.3252C29.4749 16.1482 29.249 16.0469 28.98 16.0469C28.966 16.0469 28.9532 16.0515 28.9427 16.0597C28.9264 16.0725 28.9031 16.0876 28.8764 16.1039C28.7844 16.1622 28.654 16.2448 28.5771 16.3636C28.4164 16.6139 28.2953 16.8934 28.1801 17.1635L28.1544 17.2217C28.0275 17.5163 28.1183 17.783 28.4048 17.9541L28.4059 17.953Z" fill="#3E3E3E"/>
</svg>
