<svg width="25" height="30" viewBox="0 0 25 30" fill="none" xmlns="http://www.w3.org/2000/svg">
<path d="M23.6187 28.137C23.5378 28.1228 23.4569 28.1241 23.3812 28.1254H15.1876C15.1183 27.6209 14.7665 27.3885 14.461 27.2408C14.3377 27.1818 14.2144 27.1137 14.095 27.0483C13.9538 26.9699 13.8088 26.8903 13.6585 26.821C13.5263 26.7594 13.4929 26.7003 13.5135 26.5527C13.534 26.4012 13.5443 26.2471 13.5533 26.0982C13.561 25.9852 13.5687 25.8722 13.5802 25.7605C13.7998 23.6846 14.3184 21.9103 15.1671 20.3363C15.2197 20.2387 15.28 20.1411 15.3429 20.0384C15.678 20.5417 16.1222 20.9178 16.6961 21.1849C16.6961 21.1862 16.6948 21.1875 16.6936 21.19C16.6011 21.3621 16.5074 21.5328 16.415 21.7048C16.2198 22.063 16.0247 22.4225 15.8334 22.7833C15.7409 22.9566 15.7178 23.1286 15.7641 23.2814C15.8039 23.4124 15.8937 23.5164 16.0234 23.5831C16.3058 23.7308 16.6153 23.6127 16.795 23.2904L16.8489 23.1928C17.1249 22.6973 17.41 22.185 17.6719 21.6702C17.7592 21.4981 17.84 21.4468 18.0365 21.4378C18.9005 21.4019 19.6901 21.0218 20.2614 20.3696C20.8494 19.6982 21.128 18.8329 21.0458 17.9316C20.9752 17.1459 20.5862 16.4295 19.9507 15.9147C19.2793 15.3703 18.3972 15.1174 17.5294 15.2201C17.4241 15.2329 17.3201 15.2496 17.2084 15.2676L17.1943 15.2702C17.1981 15.1957 17.202 15.1315 17.2148 15.075C17.2675 14.8491 17.3162 14.6218 17.3637 14.3946C17.478 13.8592 17.5961 13.3059 17.7694 12.7833C18.4486 10.7407 19.6272 9.16416 21.2744 8.09856C21.4567 7.98044 21.6326 7.85591 21.82 7.72239C21.8778 7.6813 21.9368 7.63894 21.9972 7.59657C22.0126 7.61711 22.0305 7.63893 22.0511 7.65819C22.5171 8.13835 23.073 8.21539 23.575 7.87131C24.0783 7.52596 24.2028 6.99316 23.9255 6.37434C23.4633 5.3434 22.9999 4.31247 22.5351 3.28153C22.1679 2.46628 21.6415 2.24931 20.8314 2.58055C19.8223 2.99267 18.8004 3.4189 17.8131 3.83102C17.3676 4.01718 16.9208 4.20334 16.4753 4.38821C16.3431 4.44342 16.2096 4.49734 16.0735 4.55255L15.9887 4.58721C15.7358 4.06725 15.307 3.84129 14.6831 3.89521C14.1836 3.93887 13.6688 3.96583 13.1091 3.97738C12.8895 3.98123 12.7021 3.95299 12.5634 3.89265C11.8984 3.60506 11.2244 3.30593 10.5734 3.01706C9.87887 2.70893 9.16119 2.39054 8.45251 2.08498C7.31116 1.59326 6.14671 1.10411 5.02077 0.631656C4.52777 0.424956 4.03476 0.216971 3.54176 0.00898694C3.52636 0.00256767 3.51097 0 3.49428 0H2.70212C2.68799 0 2.67515 0.00256712 2.66231 0.00641869C2.64177 0.012838 2.62123 0.0205418 2.60197 0.028245C2.56474 0.0423674 2.52881 0.0564896 2.49543 0.0641927C0.848248 0.436511 -0.230204 1.97072 0.0419737 3.55628C0.139547 4.12759 0.513166 4.13915 0.669796 4.11861C1.16408 4.05185 1.14352 3.58452 1.13711 3.43046L1.13454 3.36498C1.12298 3.10436 1.11014 2.83603 1.1692 2.59852C1.30786 2.03748 1.68532 1.56887 2.204 1.31338C2.74065 1.04891 3.37102 1.03735 3.93206 1.28257C5.31991 1.88855 6.727 2.5125 8.08917 3.11463C8.6669 3.37012 9.24592 3.62689 9.82366 3.88238L11.4041 4.58079C11.3746 4.59491 11.345 4.60904 11.3168 4.62316C11.0767 4.73871 10.8507 4.84784 10.6299 4.96723C10.4964 5.03913 10.3821 5.04555 10.2217 4.98906C8.93652 4.53586 7.6501 4.08651 6.36367 3.63716L5.15558 3.21606C5.02591 3.17112 4.89752 3.12362 4.76914 3.0774C4.44946 2.96185 4.11948 2.84117 3.78568 2.74873C3.58797 2.69353 3.28884 2.7192 3.15018 2.85529C3.04234 2.96057 3.0385 3.13004 3.03593 3.29437C3.03593 3.34701 3.03464 3.39836 3.02951 3.44587C3.02437 3.50107 3.04362 3.54729 3.05775 3.58195C3.0616 3.58966 3.06418 3.59736 3.06674 3.60506L5.03362 9.52877C5.11065 9.76115 5.20949 9.98839 5.40207 10.0757C5.59465 10.163 5.83089 10.086 6.05813 9.99096L19.165 4.43572C19.3332 4.36511 19.5014 4.29578 19.676 4.22388L19.8082 4.16996L20.3115 5.48976L4.30437 13.1634C4.23504 13.008 4.16572 12.8552 4.0964 12.7025C3.90639 12.2839 3.72794 11.8872 3.55847 11.4789C2.83566 9.7329 2.2181 7.84307 1.66861 5.7016C1.56847 5.31131 1.31814 5.13285 0.983049 5.21502C0.83027 5.25225 0.718563 5.32928 0.649234 5.44483C0.568352 5.57963 0.555506 5.75552 0.609427 5.96736C1.03952 7.65049 1.56205 9.60195 2.31439 11.4546C2.9499 13.0209 3.78571 14.8247 5.16072 16.3216C6.87595 18.1884 8.78758 19.3053 11.0074 19.7354C11.336 19.7996 11.675 19.833 12.0036 19.8651C12.1038 19.8754 12.2052 19.8856 12.3066 19.8959C11.7174 21.2016 11.2988 22.5432 11.0613 23.8835C10.8392 25.134 10.635 26.6105 10.7827 28.1241H0.935532C0.911138 28.1241 0.886768 28.1241 0.862374 28.1241C0.789195 28.1228 0.714731 28.1216 0.6377 28.1318C0.333426 28.1716 0.156248 28.3655 0.149829 28.6621C0.143409 28.9573 0.31415 29.1576 0.618423 29.2103C0.66721 29.2192 0.716011 29.2205 0.76223 29.2205C0.785339 29.2205 0.808422 29.2205 0.831532 29.2205C0.852073 29.2205 0.872645 29.2205 0.894471 29.2205C8.37421 29.2205 15.8526 29.2205 23.3324 29.2205H23.3953C23.4736 29.2231 23.5545 29.2244 23.6379 29.2077C23.9204 29.1525 24.0809 28.9548 24.0796 28.6672C24.0783 28.3796 23.9127 28.187 23.6251 28.137H23.6187ZM19.8531 17.6646C20.0547 18.2102 19.9995 18.8021 19.6939 19.322C19.3999 19.8214 18.9236 20.1771 18.437 20.2733L19.8544 17.6646H19.8531ZM12.3593 23.0182C12.4158 22.7974 12.4774 22.5792 12.5442 22.3493C12.5634 22.28 12.584 22.2107 12.6045 22.1401L13.1463 22.3044C13.1091 22.4559 13.0692 22.6048 13.0307 22.7525C12.9216 23.171 12.8176 23.5664 12.7547 23.9786C12.6417 24.7219 12.5583 25.4819 12.4774 26.2163C12.4504 26.4615 12.4235 26.7067 12.3965 26.9507C12.3747 27.1381 12.4196 27.3975 12.7534 27.5721C13.0692 27.7364 13.4005 27.9149 13.7343 28.119C13.6829 28.119 13.6316 28.119 13.5802 28.1203C13.1334 28.1241 12.6726 28.128 12.2219 28.1087C11.8933 28.0946 11.8226 27.7929 11.8213 27.5425C11.8136 25.9788 11.9947 24.4561 12.3606 23.0169L12.3593 23.0182ZM8.98401 12.1311L9.40897 12.4919C9.87758 12.8899 10.3308 13.2763 10.7878 13.6589C10.9021 13.7552 11.0318 13.8284 11.1563 13.9003L11.1846 13.917C11.4888 14.0916 11.7867 14.0287 11.9626 13.7527C12.0473 13.6204 12.0768 13.4818 12.046 13.3521C12.0126 13.2096 11.9138 13.0863 11.752 12.9875C11.137 12.61 10.5888 12.1581 10.0804 11.606L16.9735 8.3014C15.8488 9.86257 15.0862 11.6356 14.6522 13.7013H14.5033H13.9346C13.5764 13.7013 13.3504 13.8939 13.3324 14.2161C13.3235 14.383 13.3684 14.5242 13.4634 14.6257C13.5648 14.7335 13.7202 14.79 13.9115 14.79C14.1836 14.79 14.4571 14.7746 14.7229 14.7605C14.8397 14.7541 14.9565 14.7476 15.0721 14.7438C15.5201 14.7245 15.6331 14.4049 15.6793 14.1648C15.7461 13.8194 15.8283 13.4805 15.9143 13.121C15.9412 13.0106 15.9682 12.8989 15.9939 12.7859L16.501 12.9438C16.4625 13.1569 16.424 13.3675 16.3855 13.578C16.2738 14.184 16.1672 14.7566 16.0902 15.3472C16.0452 15.6964 15.9335 15.9262 15.6947 16.1663C15.0361 16.8275 14.7472 17.6594 14.8371 18.6403C14.8435 18.7058 14.8333 18.7725 14.8127 18.8098C14.4545 19.4632 14.0938 20.1142 13.7202 20.7869L13.4608 21.2555L12.9652 21.1053C13.0166 20.9949 13.068 20.8845 13.118 20.7766C13.2888 20.4094 13.4493 20.0615 13.62 19.7072C13.7189 19.5043 13.8408 19.2514 13.6547 18.9805C13.4775 18.7225 13.2182 18.7443 13.0089 18.7597L12.9588 18.7635C11.6249 18.8611 10.3334 18.5838 9.011 17.9175C7.4203 17.1151 6.10178 15.9031 4.87056 14.1057L8.98276 12.1337L8.98401 12.1311ZM16.9324 16.5566C17.2482 16.373 17.5987 16.2831 17.9453 16.2831C18.3716 16.2831 18.7927 16.4192 19.1406 16.6837L17.2341 20.1925C16.655 20.05 16.0837 19.4029 15.9605 18.7302C15.8 17.861 16.1903 16.988 16.9324 16.5566ZM16.9683 11.737L16.9362 11.8179C16.9234 11.8513 16.9105 11.8846 16.8964 11.9167L16.3559 11.7409C17.3265 9.3118 18.8016 7.56832 20.8622 6.41799C20.8699 6.42313 20.8764 6.42698 20.8815 6.43211C21.0035 6.55536 21.1871 6.74024 21.1794 6.81085C21.1704 6.88275 20.9406 7.02525 20.7878 7.11897C19.0726 8.17559 17.7887 9.72905 16.9696 11.7357L16.9683 11.737ZM20.8199 3.76041C20.8468 3.75014 20.8738 3.73987 20.9008 3.7296C21.0381 3.67824 21.1665 3.62946 21.2923 3.5704C21.3334 3.55114 21.3886 3.5306 21.4207 3.54215C21.4413 3.54986 21.4746 3.57939 21.517 3.67568C21.8316 4.38822 22.1576 5.10846 22.4722 5.80559L22.8009 6.53354C22.8176 6.56948 22.8355 6.60543 22.8535 6.64138C22.8894 6.71328 22.9241 6.78132 22.9395 6.84808C22.9447 6.86991 22.9395 6.90329 22.9331 6.93795C22.9061 6.9341 22.8779 6.92768 22.8689 6.92254C22.4684 6.51556 22.0678 6.09317 21.6801 5.68363L21.5016 5.4949C21.4798 5.47179 21.4618 5.44354 21.4515 5.41787C21.2769 4.96467 21.1049 4.51147 20.9264 4.04157L20.8186 3.75913L20.8199 3.76041ZM10.481 6.92896L5.95927 8.84833L4.38526 4.1109L4.84104 4.26882C5.34046 4.44085 5.8206 4.60775 6.30077 4.77466C6.65254 4.89791 7.00303 5.02115 7.3548 5.1444C8.15208 5.42557 8.97631 5.71572 9.79284 5.98918C10.0201 6.06493 10.1369 6.17021 10.2127 6.3615C10.273 6.51556 10.3475 6.66321 10.4271 6.81855C10.4451 6.8545 10.4643 6.89173 10.4823 6.92896H10.481ZM14.9218 5.02372C14.9116 5.03785 14.9026 5.0494 14.8962 5.05325C13.914 5.47564 12.7521 5.97249 11.5864 6.45265C11.553 6.45779 11.4644 6.41414 11.4465 6.38718C11.3681 6.27035 11.3065 6.13426 11.241 5.99047C11.2282 5.96222 11.2154 5.93269 11.2012 5.90316C11.3463 5.82998 11.4888 5.75424 11.6275 5.68106C12.0268 5.46922 12.4042 5.26894 12.806 5.14055C13.1078 5.04426 13.4377 5.03784 13.7869 5.03014C13.9333 5.02757 14.0835 5.02372 14.2311 5.01345H14.2478C14.4519 4.99805 14.6638 4.98392 14.8654 4.99163C14.8756 4.99163 14.9 5.00703 14.9218 5.02244V5.02372Z" fill="#F3F3F3"/>
</svg>
