<svg width="17" height="16" viewBox="0 0 17 16" fill="none" xmlns="http://www.w3.org/2000/svg">
<path d="M14.2163 6.4333C13.6324 4.28444 12.4338 2.75243 10.4708 1.89877C5.9099 -0.0848967 0.989176 3.48658 1.39514 8.46134C1.63019 11.3422 3.98906 13.8495 6.8712 14.2388C9.6145 14.6096 11.755 13.5938 13.3314 11.3426C13.4087 11.2323 13.4742 11.1115 13.5643 11.0135C13.8156 10.7398 14.1069 10.6471 14.443 10.8659C14.7527 11.0676 14.8696 11.4406 14.664 11.7666C14.3854 12.2081 14.0981 12.6571 13.7422 13.035C11.5252 15.3899 8.81005 16.2453 5.70296 15.3547C2.55238 14.4523 0.665375 12.2512 0.110915 9.03382C-0.730001 4.15264 3.32872 -0.281286 8.2859 0.0139572C11.8148 0.223967 14.7 2.62941 15.4992 6.04492C15.5664 6.33137 15.6784 6.45922 15.9759 6.43418C16.199 6.41573 16.4271 6.41265 16.6489 6.43901C16.9842 6.47856 17.1063 6.74964 16.8963 7.00885C16.3405 7.69512 15.7672 8.36732 15.2017 9.04612C15.004 9.28337 14.8041 9.28776 14.6055 9.05095C14.0379 8.37435 13.4632 7.70303 12.9092 7.01588C12.679 6.7303 12.8121 6.46406 13.1882 6.43814C13.4984 6.41705 13.8112 6.43374 14.2158 6.43374L14.2163 6.4333Z" fill="#CDCDCD"/>
<path d="M8.55777 4.58108C8.55777 5.00022 8.6228 5.4321 8.54371 5.83587C8.39917 6.5731 8.84731 7.10251 9.0951 7.70223C9.13859 7.80723 9.29412 7.87401 9.40836 7.94079C10.0801 8.33401 10.7563 8.71888 11.428 9.1121C11.9021 9.38933 12.0431 9.73466 11.8424 10.0993C11.631 10.4833 11.2352 10.554 10.7532 10.2812C10.0893 9.90557 9.43735 9.50752 8.76339 9.15076C8.57095 9.04884 8.31437 9.00095 8.09733 9.02467C7.57319 9.08223 7.08947 8.89111 6.82761 8.45659C6.55302 8.00011 6.6176 7.47508 6.94448 7.03222C7.07321 6.8578 7.17162 6.61484 7.17514 6.40131C7.19623 5.12939 7.18173 3.85703 7.18744 2.58468C7.19008 2.02143 7.54903 1.70158 8.02924 1.81757C8.41982 1.91203 8.53844 2.20112 8.54064 2.56051C8.54503 3.23404 8.54196 3.90756 8.54196 4.58108C8.54723 4.58108 8.5525 4.58108 8.55821 4.58108H8.55777ZM7.87019 7.26903C7.5231 7.30286 7.30914 7.47904 7.31178 7.83667C7.31397 8.18859 7.513 8.39376 7.86887 8.39464C8.22606 8.39552 8.42904 8.17892 8.43212 7.83755C8.43563 7.48958 8.21508 7.30505 7.87019 7.26903Z" fill="#CDCDCD"/>
</svg>
