<svg width="20" height="29" viewBox="0 0 20 29" fill="none" xmlns="http://www.w3.org/2000/svg">
<path d="M8.11575 21.2041C8.11575 21.0961 8.11575 21.001 8.11575 20.9072C8.11575 19.2742 8.11575 17.6411 8.11575 16.0081C8.11575 15.646 8.14569 15.6148 8.49991 15.6148C8.83329 15.6148 9.1667 15.6304 9.49877 15.6096C9.75662 15.5926 9.85168 15.7046 9.91158 15.9391C9.99884 16.2829 10.103 16.628 10.2437 16.9535C10.5588 17.6841 11.124 18.0813 11.9288 18.1021C12.1359 18.1073 12.2205 18.1933 12.2179 18.3977C12.2114 18.7871 12.2101 19.1778 12.2179 19.5672C12.2218 19.7847 12.1345 19.8745 11.9145 19.8706C11.2204 19.8602 10.538 19.799 9.88424 19.3927C9.88424 19.5242 9.88424 19.6089 9.88424 19.6948C9.88424 20.5803 9.87513 21.4659 9.88815 22.3514C9.89466 22.8333 9.6928 23.1914 9.2891 23.4193C8.45825 23.8881 7.60527 23.892 6.79135 23.3972C6.0204 22.9283 6.02432 22.022 6.79917 21.561C7.08958 21.3891 7.44767 21.3292 7.77845 21.2302C7.87612 21.2015 7.98552 21.212 8.11575 21.2041Z" fill="#F3F3F3"/>
<path d="M15.4451 16.0666C15.3096 16.1669 15.2354 16.2594 15.1442 16.2815C14.5595 16.426 14.2092 16.7907 14.0608 17.3702C14.0399 17.4483 13.9306 17.5564 13.8628 17.5564C13.7951 17.5564 13.687 17.4483 13.6662 17.3689C13.5164 16.7894 13.1674 16.426 12.5827 16.2789C12.498 16.2581 12.4381 16.1382 12.3678 16.064C12.4381 15.9976 12.4993 15.8921 12.5814 15.8726C13.1583 15.7319 13.5021 15.3712 13.6636 14.8086C13.6883 14.7227 13.7951 14.6589 13.8641 14.5859C13.9332 14.6589 14.0412 14.7214 14.066 14.8086C14.2274 15.3712 14.5713 15.7332 15.1482 15.8713C15.2354 15.8921 15.307 15.9729 15.4464 16.0666H15.4451Z" fill="#F3F3F3"/>
<path d="M10.943 13.25C11.0485 13.3919 11.1305 13.4558 11.1501 13.5352C11.266 14.0066 11.5512 14.2931 12.0226 14.4103C12.0955 14.4286 12.2023 14.5379 12.1971 14.5952C12.1893 14.6734 12.1007 14.7893 12.0265 14.8075C11.5564 14.9273 11.2712 15.2125 11.1488 15.6813C11.1292 15.7569 11.0094 15.8598 10.9417 15.8558C10.8714 15.8519 10.7711 15.7438 10.749 15.6631C10.6239 15.2177 10.3518 14.939 9.90379 14.814C9.81784 14.7906 9.75925 14.6734 9.68762 14.6005C9.76576 14.534 9.83348 14.4325 9.92334 14.4051C10.3453 14.2749 10.6135 14.0079 10.7437 13.5873C10.7737 13.4883 10.8492 13.4037 10.943 13.25Z" fill="#F3F3F3"/>
<path d="M15.9255 7.49148C15.8135 7.30395 15.6442 7.20238 15.4228 7.18935C15.2262 7.17633 15.0634 7.22582 14.9397 7.33651C14.7964 7.46413 14.7144 7.66729 14.7014 7.92514C14.6701 8.54371 14.3771 9.11411 13.8966 9.49047C13.4252 9.86031 12.817 10.0062 12.2284 9.89157C11.1983 9.69102 10.5302 8.85235 10.5276 7.75584C10.525 6.34027 10.525 4.92601 10.525 3.51044V1.70158C10.525 1.60131 10.5263 1.49973 10.5276 1.39946C10.5302 1.16374 10.5315 0.918918 10.5211 0.681904C10.5041 0.292525 10.2515 0.0190479 9.89209 0.000816146C9.67201 -0.00960202 9.49487 0.0789521 9.27609 0.310756C7.18725 2.51811 5.34586 4.92861 3.80267 7.47846C1.96777 10.5101 0.864727 13.1993 0.329493 15.9445C0.0508073 17.3718 -0.208326 19.2484 0.251376 21.1002C1.22547 25.0253 3.70498 27.5425 7.61961 28.5844C7.9582 28.6742 8.31763 28.7276 8.66533 28.7797C8.82812 28.8044 8.9909 28.8279 9.15238 28.8565H10.5419C10.5576 28.8526 10.5719 28.8487 10.5875 28.8461C10.6422 28.8318 10.6982 28.8188 10.762 28.811C14.635 28.3421 17.3958 26.2911 18.9676 22.7163C19.6891 21.0742 19.8766 19.238 19.5549 16.9356C19.133 13.913 17.9805 10.9125 15.9242 7.49408L15.9255 7.49148ZM18.3673 19.2901C18.2748 23.3401 15.1858 26.838 11.1826 27.4253C10.7503 27.4892 10.3179 27.5204 9.88949 27.5204C8.20825 27.5204 6.57127 27.0399 5.17394 26.1231C3.42108 24.9719 2.15659 23.2021 1.61355 21.1406C1.29709 19.9373 1.25673 18.6337 1.48984 17.0384C1.88052 14.3558 2.88977 11.6796 4.66737 8.61664C5.7782 6.701 7.08698 4.85959 8.66533 2.98692C8.69528 2.95046 8.72784 2.9153 8.75909 2.88014L8.88023 2.7434L9.20319 2.84107V3.29035C9.20319 3.76047 9.20318 4.23059 9.20058 4.70071C9.19798 5.74513 9.19538 6.82602 9.2071 7.88737C9.21882 8.81849 9.59124 9.6806 10.258 10.3187C10.9222 10.9529 11.7986 11.285 12.7206 11.2563C13.6921 11.2251 14.5217 10.8305 15.1871 10.0856C15.2574 10.0075 15.3264 9.92933 15.3981 9.8525C15.4371 9.80822 15.4853 9.7952 15.5049 9.78869L15.665 9.73008L15.7549 9.87724C16.393 11.0714 16.9256 12.2721 17.3359 13.4429C18.0716 15.5421 18.4089 17.4565 18.3673 19.2953V19.2901Z" fill="#F3F3F3"/>
</svg>
