<svg width="28" height="31" viewBox="0 0 28 31" fill="none" xmlns="http://www.w3.org/2000/svg">
<path d="M26.3807 18.2496C25.6224 17.6966 24.8439 17.1424 24.0919 16.6082C23.5124 16.1963 22.914 15.7705 22.3283 15.3473C22.1784 15.239 22.0423 15.079 21.9554 14.9089C21.3193 13.6631 20.6403 12.3278 19.9941 11.0076C19.2937 9.57662 18.1826 8.89134 16.6055 8.91527C16.0852 8.92283 15.5561 8.92031 15.0447 8.91905C14.8091 8.91905 14.5736 8.9178 14.338 8.9178L14.3317 8.85481C17.1169 8.31566 18.3338 5.95121 18.097 3.89412C17.8412 1.67831 15.8975 -0.0298376 13.6704 0.000395153C11.4105 0.0331473 9.48567 1.76649 9.28915 3.94577C9.06997 6.35935 10.5854 8.33203 13.0582 8.85607L13.3529 8.9178H13.0519C12.8113 8.9178 12.5694 8.9178 12.3288 8.9178C11.8073 8.9178 11.2669 8.91905 10.7353 8.91653C10.7227 8.91653 10.7101 8.91653 10.6988 8.91653C9.17578 8.91653 8.10252 9.58795 7.4185 10.9673C6.84534 12.1237 6.1651 13.4918 5.45715 14.8686C5.35638 15.0664 5.18758 15.2591 4.99736 15.3977C4.39397 15.8361 3.77672 16.2744 3.17836 16.7002C2.46159 17.2104 1.72089 17.7369 0.999083 18.266C0.22311 18.8329 -0.108191 19.6416 0.037934 20.604C0.17902 21.5274 0.729508 22.161 1.62893 22.4381C1.89599 22.52 2.18194 22.5376 2.48553 22.5565C2.62535 22.5654 2.77022 22.5742 2.91634 22.5893L2.94406 22.5918V22.6598C2.94406 22.7064 2.94154 22.7745 2.94406 22.8438C2.98185 23.8377 3.41896 24.601 4.24406 25.1125C4.46703 25.251 4.72401 25.3468 4.97217 25.44C5.03137 25.4627 5.08932 25.4841 5.14853 25.5068C5.49494 25.6403 5.83758 25.765 6.20037 25.8973C6.3528 25.9527 6.50774 26.0094 6.66268 26.0661L6.69544 26.0787L6.68032 26.1101C6.38177 26.7236 6.29611 27.3106 6.4183 27.9052C6.57828 28.6875 7.05949 29.3589 7.73595 29.7482C8.42248 30.1424 9.22365 30.2155 9.99206 29.9547C10.6232 29.7406 11.2593 29.5076 11.8753 29.2821C12.3767 29.0982 12.8957 28.9079 13.4096 28.7291C13.4965 28.6988 13.5973 28.6837 13.6981 28.6837C13.7989 28.6837 13.8946 28.6988 13.979 28.7265C14.5093 28.9105 15.046 29.107 15.565 29.2959C16.1633 29.5151 16.7831 29.7406 17.3966 29.9497C18.2796 30.2508 19.2017 30.1147 19.926 29.5756C20.6453 29.0402 21.0396 28.2025 21.0056 27.2779C20.9955 27.0121 20.9313 26.7501 20.8633 26.4729C20.8318 26.3457 20.799 26.2134 20.7726 26.0812L20.7675 26.0547L20.7927 26.0459C20.9854 25.9741 21.182 25.9048 21.3797 25.833C21.8206 25.6756 22.2766 25.5118 22.72 25.3291C23.7114 24.9223 24.2896 24.174 24.437 23.107C24.4547 22.9811 24.4622 22.8513 24.471 22.7253C24.4748 22.6661 24.4786 22.6057 24.4836 22.5452L24.4861 22.5162H24.5151C24.6285 22.5162 24.7419 22.5225 24.8515 22.5276C25.0883 22.5402 25.3112 22.5515 25.5216 22.5062C26.5193 22.2882 27.1491 21.6634 27.3431 20.701C27.5434 19.7021 27.2121 18.853 26.3832 18.2484L26.3807 18.2496ZM11.5075 6.64782C10.9066 6.05324 10.574 5.26593 10.574 4.43201C10.5715 2.72134 11.9698 1.32434 13.6918 1.31678H13.7044C15.4125 1.31678 16.807 2.69237 16.8171 4.39044C16.8272 6.11497 15.4289 7.53213 13.6994 7.5485C13.6893 7.5485 13.6805 7.5485 13.6704 7.5485C12.8617 7.5485 12.0958 7.2298 11.5075 6.64782ZM11.6234 27.9821C11.4054 28.0602 11.19 28.1395 10.9771 28.2176C10.477 28.4015 10.0034 28.5766 9.51338 28.7303C9.35466 28.7807 9.19971 28.8046 9.05107 28.8046C8.65301 28.8046 8.29651 28.6258 8.003 28.2768C7.63139 27.8322 7.56967 27.3119 7.82664 26.7727C7.86947 26.6833 8.04961 26.5775 8.13653 26.6077C9.13421 26.9567 10.1432 27.3258 11.1195 27.681L11.5516 27.8384C11.5705 27.846 11.5818 27.8599 11.5982 27.8825C11.607 27.8951 11.6196 27.9103 11.6372 27.9317L11.6662 27.9669L11.6234 27.9821ZM19.6955 27.6319C19.5607 28.3209 18.9838 28.7996 18.2582 28.8235H18.2532H18.2481C18.1826 28.8059 18.1171 28.7883 18.0516 28.7719C17.913 28.7366 17.7694 28.7001 17.6321 28.651C13.9236 27.3069 9.98954 25.8771 5.2493 24.1538C4.43932 23.8591 4.05007 23.0869 4.32468 22.3172C4.45317 21.9544 4.70889 21.6685 5.04397 21.5097C5.39669 21.3435 5.80735 21.3309 6.20289 21.4745C10.1495 22.9042 14.2398 24.3907 18.7054 26.0194C19.4335 26.2852 19.8316 26.934 19.6943 27.6344L19.6955 27.6319ZM6.47751 20.1807L8.87975 18.4613V21.0499L6.47751 20.1807ZM23.0476 23.3086C22.9103 23.6903 22.6281 23.9699 22.2325 24.1186C21.4427 24.4146 20.6352 24.7068 19.8794 24.9764C19.8391 24.9915 19.7824 25.0029 19.7257 25.0029C19.688 25.0029 19.6502 24.9978 19.6162 24.9852C18.5479 24.591 17.4633 24.1841 16.414 23.791L15.8874 23.5933C15.8635 23.5845 15.8396 23.5731 15.8005 23.5555C15.7791 23.5454 15.7514 23.5328 15.7174 23.5177L15.6468 23.4862L16.1255 23.3124C16.5601 23.1549 16.9733 23.0037 17.3865 22.8538C17.7657 22.7153 18.1436 22.5767 18.5227 22.4381C19.3957 22.1182 20.2976 21.7881 21.1883 21.4707C21.7891 21.2553 22.3321 21.3762 22.7578 21.8184C23.1509 22.2265 23.2504 22.7417 23.045 23.3111L23.0476 23.3086ZM18.5013 21.0487V18.4461L20.9187 20.1757L18.5013 21.0487ZM25.7962 20.9265C25.4145 21.3044 24.854 21.3485 24.4017 21.0348C23.9168 20.6985 23.428 20.3496 22.9569 20.0107C22.7478 19.8608 22.5399 19.7121 22.3308 19.5622C22.0978 19.396 21.8647 19.2309 21.6317 19.0659C21.0006 18.6187 20.348 18.1564 19.7157 17.6903C19.5292 17.553 19.3579 17.354 19.2319 17.131C19.048 16.8035 18.8792 16.4609 18.7155 16.1283C18.6311 15.957 18.5454 15.7844 18.4585 15.6143C18.2708 15.2478 17.9924 15.0891 17.6737 15.1672C17.3411 15.2478 17.1648 15.506 17.1635 15.9154V16.0968C17.1597 17.7646 17.156 19.4904 17.1686 21.186C17.1711 21.4568 17.0842 21.579 16.8247 21.6685C16.2817 21.8574 15.7312 22.059 15.1997 22.253C14.7814 22.4054 14.3494 22.5641 13.9223 22.7153C13.8505 22.7405 13.7699 22.7531 13.6931 22.7531C13.6263 22.7531 13.562 22.743 13.5066 22.7241C13.0229 22.554 12.5341 22.3764 12.0605 22.2038C11.544 22.0161 11.0099 21.8221 10.4833 21.6382C10.2516 21.5576 10.2352 21.414 10.2352 21.2213C10.239 19.7512 10.239 18.2559 10.2377 16.8098V16.0464V15.9872C10.2377 15.9016 10.239 15.8146 10.2264 15.7315C10.1772 15.4166 9.99458 15.2213 9.69855 15.1646C9.39497 15.1067 9.14807 15.2251 9.00446 15.4985C8.89865 15.6987 8.79787 15.9053 8.69961 16.1044C8.54719 16.4155 8.38973 16.7367 8.21337 17.0416C8.09118 17.2532 7.88837 17.5467 7.61375 17.747C6.06685 18.8744 4.53379 19.9565 3.10908 20.958C2.89997 21.1054 2.6707 21.2061 2.46159 21.2439C2.03959 21.3195 1.58736 21.0651 1.40974 20.6519C1.20567 20.1795 1.34046 19.6542 1.74482 19.3443C2.04589 19.1138 2.36208 18.8908 2.66692 18.6767C2.78659 18.5923 2.90627 18.5091 3.02468 18.4235C3.30055 18.227 3.57642 18.0317 3.8523 17.8352C4.55269 17.3389 5.27702 16.8262 5.97867 16.3072C6.20037 16.1434 6.39815 15.9129 6.52034 15.6761C7.19302 14.3735 7.89215 12.9841 8.59506 11.5468C9.03847 10.6411 9.74264 10.2077 10.7554 10.2165C11.442 10.2241 12.1398 10.2228 12.815 10.2203C13.4159 10.2191 14.0181 10.2191 14.6189 10.2203C15.2941 10.2203 15.9933 10.2216 16.6798 10.2178C16.6861 10.2178 16.6924 10.2178 16.6987 10.2178C17.6737 10.2178 18.3577 10.6448 18.7898 11.5228C19.4952 12.9551 20.207 14.3748 20.9073 15.7416C21.0081 15.9381 21.1681 16.1245 21.347 16.2543C22.1859 16.8614 23.0425 17.4724 23.8714 18.0632C24.3992 18.4386 24.9258 18.8152 25.4523 19.1919C25.5884 19.2889 25.7597 19.4224 25.8806 19.5887C26.183 20.0044 26.1464 20.5788 25.7962 20.9265Z" fill="#3E3E3E"/>
<path d="M23.9598 12.2688C24.1097 12.2789 24.2584 12.2764 24.4297 12.2738C24.5128 12.2738 24.5998 12.2713 24.6942 12.2713H24.7257V12.3028C24.7257 12.386 24.7257 12.4653 24.7245 12.5409C24.7232 12.6946 24.7219 12.8394 24.727 12.9805C24.7421 13.371 25.0142 13.6532 25.3732 13.6532H25.3782C25.7398 13.6507 26.0131 13.3647 26.0282 12.9742C26.0333 12.8319 26.032 12.687 26.0308 12.5346C26.0308 12.4615 26.0295 12.386 26.0295 12.3066V12.2751H26.061C26.1404 12.2751 26.2159 12.2751 26.289 12.2764C26.4414 12.2776 26.5863 12.2789 26.7299 12.2738C27.1355 12.2575 27.3963 12.003 27.395 11.6238C27.3938 11.251 27.1242 10.9902 26.7236 10.9751C26.5813 10.9701 26.4364 10.9713 26.284 10.9726C26.2122 10.9726 26.1378 10.9738 26.0597 10.9738H26.0282V10.9423C26.0282 10.8605 26.0282 10.7824 26.0308 10.7055C26.0333 10.5455 26.0345 10.3944 26.027 10.2445C26.0068 9.8716 25.7385 9.61084 25.3757 9.61084H25.3732C25.0066 9.61084 24.7484 9.86782 24.7295 10.2482C24.7219 10.3982 24.7245 10.5493 24.7257 10.7093C24.7257 10.7849 24.727 10.863 24.727 10.9449V10.9764H24.6955C24.6073 10.9764 24.5229 10.9751 24.4423 10.9738C24.2735 10.9713 24.1135 10.9688 23.9573 10.9801C23.6084 11.0053 23.3451 11.2837 23.3451 11.6289C23.3451 11.9715 23.6096 12.2474 23.9598 12.2688Z" fill="#3E3E3E"/>
<path d="M2.7526 6.79492C2.88865 6.7987 3.02596 6.79744 3.17208 6.79744C3.24263 6.79744 3.31569 6.79744 3.39253 6.79744H3.42402V6.82893C3.42402 6.90703 3.42402 6.98135 3.42402 7.05063C3.42402 7.19676 3.42276 7.32399 3.42528 7.45248C3.43536 7.87826 3.68856 8.15539 4.07151 8.15917C4.07403 8.15917 4.07655 8.15917 4.07907 8.15917C4.46579 8.15917 4.71395 7.89463 4.72781 7.46759C4.73159 7.32651 4.73159 7.18542 4.73033 7.03678C4.73033 6.96875 4.73033 6.89947 4.73033 6.82893V6.79744H4.76182C4.84244 6.79744 4.91802 6.79744 4.98983 6.79744C5.13721 6.79744 5.26444 6.79869 5.39419 6.79618C5.81745 6.7861 6.10466 6.5266 6.11096 6.15121C6.11726 5.77834 5.82878 5.50877 5.40931 5.49617C5.26822 5.49239 5.12587 5.49239 4.97597 5.49365C4.90669 5.49365 4.83488 5.49365 4.76056 5.49365H4.72907V5.46216C4.72907 5.3765 4.72907 5.29714 4.73033 5.22155C4.73159 5.06661 4.73285 4.93308 4.72781 4.7983C4.71269 4.40149 4.44942 4.12058 4.08536 4.1168C3.71123 4.1105 3.43662 4.40023 3.42654 4.81719C3.42276 4.95954 3.42402 5.10062 3.42402 5.25053C3.42402 5.31981 3.42402 5.39035 3.42402 5.46342V5.49491H3.39253C3.30939 5.49491 3.23129 5.49491 3.15823 5.49491C3.00454 5.49365 2.87102 5.49239 2.73497 5.49743C2.32179 5.51254 2.06229 5.75693 2.05977 6.13735C2.05725 6.5203 2.33438 6.7861 2.7526 6.79744V6.79492Z" fill="#3E3E3E"/>
<path d="M23.3008 6.10092C23.4822 6.10092 23.651 6.03667 23.7769 5.91196C23.9004 5.78977 23.9672 5.62727 23.9659 5.45343C23.9646 5.10953 23.6711 4.81225 23.3247 4.80469C23.3209 4.80469 23.3159 4.80469 23.3121 4.80469C22.967 4.80469 22.6797 5.08182 22.6684 5.42824C22.6621 5.61215 22.7238 5.78221 22.8422 5.90692C22.9594 6.02911 23.1219 6.0984 23.3008 6.10092Z" fill="#3E3E3E"/>
<path d="M0.641461 12.2723H0.64524C0.824117 12.2723 0.990398 12.203 1.11385 12.0783C1.23604 11.9549 1.30154 11.7911 1.29902 11.6173C1.29273 11.2721 0.995436 10.9786 0.650279 10.9761H0.64524C0.297564 10.9761 0.00909339 11.2582 0.000275512 11.6084C-0.00476328 11.7911 0.0594815 11.9599 0.179153 12.0833C0.297564 12.2055 0.461325 12.2736 0.641461 12.2736V12.2723Z" fill="#3E3E3E"/>
</svg>
