<svg width="35" height="28" viewBox="0 0 35 28" fill="none" xmlns="http://www.w3.org/2000/svg">
<path d="M10.5516 26.6562C10.4901 26.7063 10.4342 26.7493 10.3812 26.798C9.97298 27.1733 9.73093 27.1675 9.32845 26.7708C9.11361 26.5588 8.89447 26.3483 8.68822 26.1277C8.23418 25.6421 7.74576 25.2611 7.08547 25.0234C5.67465 24.5163 4.81958 23.0855 4.91841 21.5859C4.98143 20.6448 5.09601 19.7067 5.17049 18.7657C5.18195 18.6267 5.13325 18.452 5.05018 18.3446C4.4658 17.5883 3.8671 16.8435 3.26267 16.103C3.17817 15.9985 3.0421 15.9197 2.91319 15.871C2.49496 15.7163 2.06956 15.5788 1.6456 15.4413C1.31474 15.3339 1.15576 15.1147 1.16435 14.7638C1.17295 14.4373 1.1529 14.1093 1.17009 13.7827C1.18298 13.5593 1.11995 13.4203 0.903672 13.3373C0.713176 13.2642 0.531278 13.1654 0.352241 13.0637C0.0199474 12.8761 -0.0889062 12.6039 0.0758081 12.2716C0.691696 11.0255 1.29469 9.77227 1.95212 8.54909C2.8072 6.9578 5.30513 6.52382 6.62141 7.26145C6.8248 7.37603 6.94082 7.35598 7.11699 7.20702C8.01647 6.44504 9.33704 6.60116 10.0374 7.53645C10.7407 8.47461 10.5273 9.78373 9.53613 10.4326C9.27688 10.6016 9.19525 10.7663 9.21959 11.0685C9.28262 11.819 9.08783 12.528 8.74551 13.1983C8.767 13.2313 8.78848 13.2642 8.80996 13.2986C10.0002 12.7973 11.2062 12.3289 12.3764 11.7846C13.6898 11.1745 14.9717 10.497 16.2636 9.84388C16.4341 9.75795 16.5988 9.65052 16.7506 9.53308C18.3262 8.30989 19.8988 7.08384 21.4729 5.8578C21.5589 5.79048 21.6405 5.68879 21.7365 5.6716C22.1805 5.58852 22.222 5.26483 22.2578 4.90245C22.3695 3.7824 22.507 2.6652 22.6202 1.54658C22.6574 1.17991 22.8322 0.983687 23.1888 0.900614C23.8462 0.747358 24.4994 0.569752 25.1539 0.40647C25.8428 0.236027 26.1107 0.44371 26.1107 1.1441C26.1107 2.25843 26.1035 3.37133 26.1193 4.48566C26.1221 4.66326 26.188 4.86522 26.2883 5.01131C27.1391 6.23593 28.0987 7.36314 29.1744 8.40156C30.5924 9.77084 31.9674 11.1845 33.3581 12.5824C35.2015 14.433 35.3104 16.8235 33.6518 18.843C30.8989 22.1946 27.5487 24.7498 23.5526 26.4371C21.662 27.2348 19.6782 27.6287 17.6286 27.6459C16.2278 27.6574 14.8256 27.6474 13.4277 27.5858C12.4007 27.5399 11.454 27.1589 10.5502 26.6605L10.5516 26.6562ZM16.8323 22.312C16.8681 23.7343 17.1517 25.0606 17.716 26.321C17.7547 26.407 17.9452 26.4714 18.0612 26.4657C19.6525 26.3912 21.2079 26.1091 22.6904 25.5218C26.7352 23.9219 30.0867 21.3725 32.831 18.0094C34.0213 16.5499 33.931 14.8054 32.6019 13.469C30.9132 11.7703 29.2188 10.0773 27.5258 8.38294C27.4442 8.3013 27.3582 8.22396 27.2422 8.1151C26.7481 8.79688 26.178 9.26237 25.2843 9.01315C25.7039 9.84675 26.0992 10.6044 26.4702 11.375C27.2565 13.0093 28.3594 14.3757 29.8118 15.4628C30.3374 15.8567 30.2987 16.2935 29.7201 16.6158C28.0858 17.5282 26.4516 18.4405 24.8145 19.3472C24.6798 19.4217 24.528 19.4875 24.3776 19.5076C23.7317 19.5921 23.0828 19.6695 22.434 19.7282C20.6092 19.89 19.101 20.6491 17.9523 22.0915C17.7303 22.3708 17.4768 22.4868 17.1302 22.3636C17.0514 22.3364 16.9655 22.3335 16.8337 22.3106L16.8323 22.312ZM23.8835 9.16354C22.2693 10.6001 20.7181 11.9852 19.1612 13.363C18.9907 13.5134 18.8017 13.6495 18.6026 13.7584C16.858 14.718 15.1078 15.6705 13.3604 16.6258C13.2487 16.6874 13.1398 16.7562 13.0138 16.8321C13.591 17.7573 14.2198 18.6124 14.6838 19.5506C15.1608 20.5131 15.8597 21.0072 16.8967 21.1204C17.113 21.1433 17.239 21.1261 17.3894 20.96C18.3462 19.9015 19.515 19.1667 20.8971 18.8273C21.6075 18.6525 22.3495 18.601 23.0756 18.4921C23.6185 18.4105 24.1671 18.4148 24.677 18.1125C25.84 17.4236 27.0331 16.7862 28.2133 16.1259C28.3136 16.0701 28.4095 16.0085 28.4668 15.9756C27.8667 15.3038 27.2608 14.6779 26.7151 14.0033C25.8185 12.8932 25.2986 11.5641 24.6369 10.3151C24.4306 9.92553 24.1527 9.57318 23.882 9.16498L23.8835 9.16354ZM26.4788 7.21991C26.1379 6.76158 25.7927 6.28176 25.4232 5.82056C25.3673 5.75038 25.1869 5.7203 25.0895 5.75037C24.4664 5.9423 23.8548 6.17004 23.2318 6.35767C22.6345 6.53671 22.1003 6.80168 21.6147 7.20702C20.8255 7.86445 20.0019 8.48034 19.1884 9.10911C18.4909 9.64909 17.8521 10.3122 17.0757 10.6947C14.6451 11.8906 12.3234 13.3115 9.71231 14.1422C7.86895 14.7295 6.91216 16.1961 6.50682 18.0395C6.48677 18.1312 6.57414 18.2859 6.65865 18.3546C7.44068 18.9877 8.33014 19.204 9.30983 18.9633C10.1449 18.7585 10.7751 18.2715 11.2492 17.448C10.7865 17.5554 10.4041 17.647 10.0188 17.733C9.68081 17.8089 9.39863 17.6513 9.3084 17.342C9.22103 17.0426 9.38861 16.7347 9.71088 16.6301C9.92859 16.5599 10.152 16.5041 10.3769 16.4611C11.4425 16.2591 12.4251 15.861 13.3632 15.3095C14.4346 14.6793 15.5303 14.0864 16.6375 13.522C17.7232 12.9677 18.7 12.2845 19.5851 11.4452C20.4889 10.5887 21.4958 9.83529 22.3552 8.93867C23.1559 8.10364 24.0353 7.68971 25.1768 7.8888C25.7698 7.99192 26.1637 7.72265 26.4788 7.21991ZM6.26763 19.5362C6.20174 20.2252 6.13299 20.8396 6.08573 21.4541C5.97974 22.8449 6.7188 23.826 8.07519 24.154C8.29576 24.207 8.51777 24.3402 8.68678 24.4949C9.0864 24.8601 9.45449 25.2583 9.81114 25.6192C11.3222 24.1053 12.8061 22.6186 14.3129 21.1103C13.6741 20.0891 13.0123 19.0278 12.3205 17.9192C11.7046 19.0392 10.8324 19.764 9.65359 20.0777C8.4748 20.3928 7.36047 20.1793 6.26763 19.5362ZM3.02921 9.02461C3.15811 9.12057 3.27843 9.20221 3.39015 9.29388C4.24523 9.99428 4.84822 10.8508 5.07452 11.9551C5.10317 12.0926 5.21632 12.2344 5.32804 12.3289C5.77062 12.7028 6.23612 13.0508 6.67727 13.4261C6.85487 13.5779 6.97089 13.5679 7.13131 13.4089C7.90475 12.6469 8.21699 11.7259 8.01933 10.666C7.7873 9.41849 6.92936 8.6651 5.83365 8.19388C4.97713 7.82577 3.66085 8.23255 3.02921 9.02318V9.02461ZM5.49419 17.0254C5.87231 16.2978 6.23899 15.5946 6.61998 14.8641C6.02987 14.39 5.41828 13.8586 4.76515 13.386C4.30825 13.0565 3.99601 12.6626 3.89718 12.1112C3.73819 11.2175 3.15954 10.6216 2.47204 10.0559C2.10394 10.7935 1.73871 11.524 1.35772 12.2888C1.97933 12.5065 2.40902 12.7973 2.34313 13.565C2.26722 14.4401 2.32022 14.463 3.17387 14.7137C3.6365 14.8498 3.98598 15.0861 4.26957 15.4785C4.65773 16.0157 5.09028 16.5198 5.49419 17.024V17.0254ZM15.6664 22.0356C15.3828 21.8551 15.208 21.9468 15.0118 22.1473C13.9047 23.276 12.7817 24.3903 11.666 25.5104C11.5829 25.5934 11.5055 25.6837 11.4196 25.7768C13.0238 26.6949 14.754 26.4585 16.5043 26.4858C15.9514 25.0291 15.6578 23.5581 15.6664 22.0356ZM23.4037 5.07433C23.9107 4.90675 24.3676 4.76209 24.8159 4.59737C24.8789 4.57446 24.9448 4.45558 24.9448 4.37967C24.9534 3.48591 24.9505 2.59073 24.9505 1.66833C24.7429 1.71416 24.5681 1.74997 24.3948 1.7915C23.7474 1.95049 23.7417 1.95049 23.6658 2.60935C23.5741 3.41143 23.4939 4.21638 23.4022 5.07433H23.4037ZM8.9088 9.45573C9.35138 9.0819 9.41297 8.56198 9.05203 8.17096C8.72117 7.81145 8.22845 7.79426 7.90189 8.10507C8.23418 8.55195 8.56505 8.99453 8.9088 9.45573Z" fill="#F3F3F3"/>
</svg>
